<?xml version="1.0" encoding="utf-8" standalone="no"?>
<!DOCTYPE svg PUBLIC "-//W3C//DTD SVG 1.1//EN"
  "http://www.w3.org/Graphics/SVG/1.1/DTD/svg11.dtd">
<!-- Created with matplotlib (http://matplotlib.org/) -->
<svg height="282pt" version="1.1" viewBox="0 0 712 282" width="712pt" xmlns="http://www.w3.org/2000/svg" xmlns:xlink="http://www.w3.org/1999/xlink">
 <defs>
  <style type="text/css">
*{stroke-linecap:butt;stroke-linejoin:round;}
  </style>
 </defs>
 <g id="figure_1">
  <g id="patch_1">
   <path d="
M0 282.834
L712.849 282.834
L712.849 0
L0 0
z
" style="fill:#ffffff;"/>
  </g>
  <g id="axes_1">
   <g id="patch_2">
    <path d="
M51.0713 243.407
L247.435 243.407
L247.435 13.0069
L51.0713 13.0069
z
" style="fill:#ffffff;"/>
   </g>
   <g id="line2d_1">
    <path clip-path="url(#pf691a841ad)" d="
M51.0713 31.3788
L51.3331 31.2073
L51.5949 31.4989
L52.1185 32.8745
L52.904 35.8952
L57.6167 56.3367
L58.9258 60.9982
L62.0676 70.1589
L62.8531 72.0114
L64.9476 76.6051
L66.5185 79.7566
L67.8276 81.9128
L69.1367 84.2651
L70.4458 85.853
L72.0167 88.1446
L73.064 89.673
L75.4203 91.8639
L77.2531 93.9171
L79.0858 95.9941
L81.9658 97.8077
L84.584 99.7133
L87.2022 101.892
L89.0349 103.378
L94.5331 105.52
L99.7694 107.791
L104.744 110.18
L110.242 112.905
L115.74 114.047
L116.002 114.374
L116.264 116.193
L116.526 128.207
L116.526 128.207" style="fill:none;stroke:#0000ff;stroke-dasharray:1.000000,3.000000;stroke-dashoffset:0.0;stroke-width:2;"/>
   </g>
   <g id="line2d_2">
    <path clip-path="url(#pf691a841ad)" d="
M51.0713 225.035
L51.3331 225.206
L51.5949 224.915
L52.1185 223.539
L52.904 220.519
L57.6167 200.077
L58.9258 195.416
L62.0676 186.255
L62.8531 184.402
L64.9476 179.809
L66.5185 176.657
L67.8276 174.501
L69.1367 172.149
L70.4458 170.561
L72.0167 168.269
L73.064 166.741
L75.4203 164.55
L77.2531 162.497
L79.0858 160.42
L81.9658 158.606
L84.584 156.7
L87.2022 154.522
L89.0349 153.036
L94.5331 150.893
L99.7694 148.623
L104.744 146.234
L110.242 143.509
L115.74 142.367
L116.002 142.039
L116.264 140.221
L116.526 128.207
L116.526 128.207" style="fill:none;stroke:#008000;stroke-dasharray:1.000000,3.000000;stroke-dashoffset:0.0;stroke-width:2;"/>
   </g>
   <g id="line2d_3">
    <path clip-path="url(#pf691a841ad)" d="
M51.0713 31.3788
L51.3331 31.2073
L51.5949 31.4989
L52.1185 32.8745
L52.904 35.8952
L57.6167 56.3367
L58.9258 60.9982
L62.0676 70.1589
L62.8531 72.0114
L64.9476 76.6051
L66.5185 79.7566
L67.8276 81.9128
L69.1367 84.2651
L70.4458 85.853
L72.0167 88.1446
L73.064 89.673
L75.4203 91.8639
L77.2531 93.9171
L79.0858 95.9941
L81.9658 97.8077
L84.584 99.7133
L87.2022 101.892
L89.0349 103.378
L94.5331 105.52
L99.7694 107.791
L104.744 110.18
L110.242 112.905
L141.922 119.109
L181.195 126.826
L181.457 126.925
L181.719 127.19
L181.98 128.207
L181.98 128.207" style="fill:none;stroke:#0000ff;stroke-dasharray:6.000000,6.000000;stroke-dashoffset:0.0;stroke-width:2;"/>
   </g>
   <g id="line2d_4">
    <path clip-path="url(#pf691a841ad)" d="
M51.0713 225.035
L51.3331 225.206
L51.5949 224.915
L52.1185 223.539
L52.904 220.519
L57.6167 200.077
L58.9258 195.416
L62.0676 186.255
L62.8531 184.402
L64.9476 179.809
L66.5185 176.657
L67.8276 174.501
L69.1367 172.149
L70.4458 170.561
L72.0167 168.269
L73.064 166.741
L75.4203 164.55
L77.2531 162.497
L79.0858 160.42
L81.9658 158.606
L84.584 156.7
L87.2022 154.522
L89.0349 153.036
L94.5331 150.893
L99.7694 148.623
L104.744 146.234
L110.242 143.509
L141.922 137.305
L181.195 129.588
L181.457 129.488
L181.719 129.223
L181.98 128.207
L181.98 128.207" style="fill:none;stroke:#008000;stroke-dasharray:6.000000,6.000000;stroke-dashoffset:0.0;stroke-width:2;"/>
   </g>
   <g id="line2d_5">
    <path clip-path="url(#pf691a841ad)" d="
M51.0713 31.3788
L51.3331 31.2073
L51.5949 31.4989
L52.1185 32.8745
L52.904 35.8952
L57.6167 56.3367
L58.9258 60.9982
L62.0676 70.1589
L62.8531 72.0114
L64.9476 76.6051
L66.5185 79.7566
L67.8276 81.9128
L69.1367 84.2651
L70.4458 85.853
L72.0167 88.1446
L73.064 89.673
L75.4203 91.8639
L77.2531 93.9171
L79.0858 95.9941
L81.9658 97.8077
L84.584 99.7133
L87.2022 101.892
L89.0349 103.378
L94.5331 105.52
L99.7694 107.791
L104.744 110.18
L110.242 112.905
L141.922 119.109
L186.955 127.968
L188.526 128.207
L247.435 128.207
L247.435 128.207" style="fill:none;stroke:#0000ff;stroke-linecap:square;stroke-width:2;"/>
   </g>
   <g id="line2d_6">
    <path clip-path="url(#pf691a841ad)" d="
M51.0713 225.035
L51.3331 225.206
L51.5949 224.915
L52.1185 223.539
L52.904 220.519
L57.6167 200.077
L58.9258 195.416
L62.0676 186.255
L62.8531 184.402
L64.9476 179.809
L66.5185 176.657
L67.8276 174.501
L69.1367 172.149
L70.4458 170.561
L72.0167 168.269
L73.064 166.741
L75.4203 164.55
L77.2531 162.497
L79.0858 160.42
L81.9658 158.606
L84.584 156.7
L87.2022 154.522
L89.0349 153.036
L94.5331 150.893
L99.7694 148.623
L104.744 146.234
L110.242 143.509
L141.922 137.305
L186.955 128.446
L188.526 128.207
L247.435 128.207
L247.435 128.207" style="fill:none;stroke:#008000;stroke-linecap:square;stroke-width:2;"/>
   </g>
   <g id="patch_3">
    <path d="
M51.0713 13.0069
L247.435 13.0069" style="fill:none;stroke:#000000;stroke-linecap:square;stroke-linejoin:miter;"/>
   </g>
   <g id="patch_4">
    <path d="
M247.435 243.407
L247.435 13.0069" style="fill:none;stroke:#000000;stroke-linecap:square;stroke-linejoin:miter;"/>
   </g>
   <g id="patch_5">
    <path d="
M51.0713 243.407
L247.435 243.407" style="fill:none;stroke:#000000;stroke-linecap:square;stroke-linejoin:miter;"/>
   </g>
   <g id="patch_6">
    <path d="
M51.0713 243.407
L51.0713 13.0069" style="fill:none;stroke:#000000;stroke-linecap:square;stroke-linejoin:miter;"/>
   </g>
   <g id="matplotlib.axis_1">
    <g id="xtick_1">
     <g id="line2d_7">
      <defs>
       <path d="
M0 0
L0 -4" id="m93b0483c22" style="stroke:#000000;stroke-width:0.5;"/>
      </defs>
      <g>
       <use style="stroke:#000000;stroke-width:0.5;" x="51.07125" xlink:href="#m93b0483c22" y="243.406875"/>
      </g>
     </g>
     <g id="line2d_8">
      <defs>
       <path d="
M0 0
L0 4" id="m741efc42ff" style="stroke:#000000;stroke-width:0.5;"/>
      </defs>
      <g>
       <use style="stroke:#000000;stroke-width:0.5;" x="51.07125" xlink:href="#m741efc42ff" y="13.006875"/>
      </g>
     </g>
     <g id="text_1">
      <!-- 0 -->
      <defs>
       <path d="
M31.7812 66.4062
Q24.1719 66.4062 20.3281 58.9062
Q16.5 51.4219 16.5 36.375
Q16.5 21.3906 20.3281 13.8906
Q24.1719 6.39062 31.7812 6.39062
Q39.4531 6.39062 43.2812 13.8906
Q47.125 21.3906 47.125 36.375
Q47.125 51.4219 43.2812 58.9062
Q39.4531 66.4062 31.7812 66.4062
M31.7812 74.2188
Q44.0469 74.2188 50.5156 64.5156
Q56.9844 54.8281 56.9844 36.375
Q56.9844 17.9688 50.5156 8.26562
Q44.0469 -1.42188 31.7812 -1.42188
Q19.5312 -1.42188 13.0625 8.26562
Q6.59375 17.9688 6.59375 36.375
Q6.59375 54.8281 13.0625 64.5156
Q19.5312 74.2188 31.7812 74.2188" id="BitstreamVeraSans-Roman-30"/>
      </defs>
      <g transform="translate(48.0478125 256.525)scale(0.12 -0.12)">
       <use xlink:href="#BitstreamVeraSans-Roman-30"/>
      </g>
     </g>
    </g>
    <g id="xtick_2">
     <g id="line2d_9">
      <g>
       <use style="stroke:#000000;stroke-width:0.5;" x="83.7985227273" xlink:href="#m93b0483c22" y="243.406875"/>
      </g>
     </g>
     <g id="line2d_10">
      <g>
       <use style="stroke:#000000;stroke-width:0.5;" x="83.7985227273" xlink:href="#m741efc42ff" y="13.006875"/>
      </g>
     </g>
     <g id="text_2">
      <!-- 5 -->
      <defs>
       <path d="
M10.7969 72.9062
L49.5156 72.9062
L49.5156 64.5938
L19.8281 64.5938
L19.8281 46.7344
Q21.9688 47.4688 24.1094 47.8281
Q26.2656 48.1875 28.4219 48.1875
Q40.625 48.1875 47.75 41.5
Q54.8906 34.8125 54.8906 23.3906
Q54.8906 11.625 47.5625 5.09375
Q40.2344 -1.42188 26.9062 -1.42188
Q22.3125 -1.42188 17.5469 -0.640625
Q12.7969 0.140625 7.71875 1.70312
L7.71875 11.625
Q12.1094 9.23438 16.7969 8.0625
Q21.4844 6.89062 26.7031 6.89062
Q35.1562 6.89062 40.0781 11.3281
Q45.0156 15.7656 45.0156 23.3906
Q45.0156 31 40.0781 35.4375
Q35.1562 39.8906 26.7031 39.8906
Q22.75 39.8906 18.8125 39.0156
Q14.8906 38.1406 10.7969 36.2812
z
" id="BitstreamVeraSans-Roman-35"/>
      </defs>
      <g transform="translate(80.9682102273 256.525)scale(0.12 -0.12)">
       <use xlink:href="#BitstreamVeraSans-Roman-35"/>
      </g>
     </g>
    </g>
    <g id="xtick_3">
     <g id="line2d_11">
      <g>
       <use style="stroke:#000000;stroke-width:0.5;" x="116.525795455" xlink:href="#m93b0483c22" y="243.406875"/>
      </g>
     </g>
     <g id="line2d_12">
      <g>
       <use style="stroke:#000000;stroke-width:0.5;" x="116.525795455" xlink:href="#m741efc42ff" y="13.006875"/>
      </g>
     </g>
     <g id="text_3">
      <!-- 10 -->
      <defs>
       <path d="
M12.4062 8.29688
L28.5156 8.29688
L28.5156 63.9219
L10.9844 60.4062
L10.9844 69.3906
L28.4219 72.9062
L38.2812 72.9062
L38.2812 8.29688
L54.3906 8.29688
L54.3906 0
L12.4062 0
z
" id="BitstreamVeraSans-Roman-31"/>
      </defs>
      <g transform="translate(109.948295455 256.525)scale(0.12 -0.12)">
       <use xlink:href="#BitstreamVeraSans-Roman-31"/>
       <use x="63.623046875" xlink:href="#BitstreamVeraSans-Roman-30"/>
      </g>
     </g>
    </g>
    <g id="xtick_4">
     <g id="line2d_13">
      <g>
       <use style="stroke:#000000;stroke-width:0.5;" x="149.253068182" xlink:href="#m93b0483c22" y="243.406875"/>
      </g>
     </g>
     <g id="line2d_14">
      <g>
       <use style="stroke:#000000;stroke-width:0.5;" x="149.253068182" xlink:href="#m741efc42ff" y="13.006875"/>
      </g>
     </g>
     <g id="text_4">
      <!-- 15 -->
      <g transform="translate(142.801193182 256.525)scale(0.12 -0.12)">
       <use xlink:href="#BitstreamVeraSans-Roman-31"/>
       <use x="63.623046875" xlink:href="#BitstreamVeraSans-Roman-35"/>
      </g>
     </g>
    </g>
    <g id="xtick_5">
     <g id="line2d_15">
      <g>
       <use style="stroke:#000000;stroke-width:0.5;" x="181.980340909" xlink:href="#m93b0483c22" y="243.406875"/>
      </g>
     </g>
     <g id="line2d_16">
      <g>
       <use style="stroke:#000000;stroke-width:0.5;" x="181.980340909" xlink:href="#m741efc42ff" y="13.006875"/>
      </g>
     </g>
     <g id="text_5">
      <!-- 20 -->
      <defs>
       <path d="
M19.1875 8.29688
L53.6094 8.29688
L53.6094 0
L7.32812 0
L7.32812 8.29688
Q12.9375 14.1094 22.625 23.8906
Q32.3281 33.6875 34.8125 36.5312
Q39.5469 41.8438 41.4219 45.5312
Q43.3125 49.2188 43.3125 52.7812
Q43.3125 58.5938 39.2344 62.25
Q35.1562 65.9219 28.6094 65.9219
Q23.9688 65.9219 18.8125 64.3125
Q13.6719 62.7031 7.8125 59.4219
L7.8125 69.3906
Q13.7656 71.7812 18.9375 73
Q24.125 74.2188 28.4219 74.2188
Q39.75 74.2188 46.4844 68.5469
Q53.2188 62.8906 53.2188 53.4219
Q53.2188 48.9219 51.5312 44.8906
Q49.8594 40.875 45.4062 35.4062
Q44.1875 33.9844 37.6406 27.2188
Q31.1094 20.4531 19.1875 8.29688" id="BitstreamVeraSans-Roman-32"/>
      </defs>
      <g transform="translate(175.183465909 256.525)scale(0.12 -0.12)">
       <use xlink:href="#BitstreamVeraSans-Roman-32"/>
       <use x="63.623046875" xlink:href="#BitstreamVeraSans-Roman-30"/>
      </g>
     </g>
    </g>
    <g id="xtick_6">
     <g id="line2d_17">
      <g>
       <use style="stroke:#000000;stroke-width:0.5;" x="214.707613636" xlink:href="#m93b0483c22" y="243.406875"/>
      </g>
     </g>
     <g id="line2d_18">
      <g>
       <use style="stroke:#000000;stroke-width:0.5;" x="214.707613636" xlink:href="#m741efc42ff" y="13.006875"/>
      </g>
     </g>
     <g id="text_6">
      <!-- 25 -->
      <g transform="translate(208.036363636 256.525)scale(0.12 -0.12)">
       <use xlink:href="#BitstreamVeraSans-Roman-32"/>
       <use x="63.623046875" xlink:href="#BitstreamVeraSans-Roman-35"/>
      </g>
     </g>
    </g>
    <g id="xtick_7">
     <g id="line2d_19">
      <g>
       <use style="stroke:#000000;stroke-width:0.5;" x="247.434886364" xlink:href="#m93b0483c22" y="243.406875"/>
      </g>
     </g>
     <g id="line2d_20">
      <g>
       <use style="stroke:#000000;stroke-width:0.5;" x="247.434886364" xlink:href="#m741efc42ff" y="13.006875"/>
      </g>
     </g>
     <g id="text_7">
      <!-- 30 -->
      <defs>
       <path d="
M40.5781 39.3125
Q47.6562 37.7969 51.625 33
Q55.6094 28.2188 55.6094 21.1875
Q55.6094 10.4062 48.1875 4.48438
Q40.7656 -1.42188 27.0938 -1.42188
Q22.5156 -1.42188 17.6562 -0.515625
Q12.7969 0.390625 7.625 2.20312
L7.625 11.7188
Q11.7188 9.32812 16.5938 8.10938
Q21.4844 6.89062 26.8125 6.89062
Q36.0781 6.89062 40.9375 10.5469
Q45.7969 14.2031 45.7969 21.1875
Q45.7969 27.6406 41.2812 31.2656
Q36.7656 34.9062 28.7188 34.9062
L20.2188 34.9062
L20.2188 43.0156
L29.1094 43.0156
Q36.375 43.0156 40.2344 45.9219
Q44.0938 48.8281 44.0938 54.2969
Q44.0938 59.9062 40.1094 62.9062
Q36.1406 65.9219 28.7188 65.9219
Q24.6562 65.9219 20.0156 65.0312
Q15.375 64.1562 9.8125 62.3125
L9.8125 71.0938
Q15.4375 72.6562 20.3438 73.4375
Q25.25 74.2188 29.5938 74.2188
Q40.8281 74.2188 47.3594 69.1094
Q53.9062 64.0156 53.9062 55.3281
Q53.9062 49.2656 50.4375 45.0938
Q46.9688 40.9219 40.5781 39.3125" id="BitstreamVeraSans-Roman-33"/>
      </defs>
      <g transform="translate(240.655823864 256.525)scale(0.12 -0.12)">
       <use xlink:href="#BitstreamVeraSans-Roman-33"/>
       <use x="63.623046875" xlink:href="#BitstreamVeraSans-Roman-30"/>
      </g>
     </g>
    </g>
    <g id="text_8">
     <!-- T [s] -->
     <defs>
      <path d="
M30.4219 75.9844
L30.4219 -13.1875
L9.71875 -13.1875
L9.71875 -6.20312
L21.3906 -6.20312
L21.3906 69
L9.71875 69
L9.71875 75.9844
z
" id="BitstreamVeraSans-Roman-5d"/>
      <path id="BitstreamVeraSans-Roman-20"/>
      <path d="
M8.59375 75.9844
L29.2969 75.9844
L29.2969 69
L17.5781 69
L17.5781 -6.20312
L29.2969 -6.20312
L29.2969 -13.1875
L8.59375 -13.1875
z
" id="BitstreamVeraSans-Roman-5b"/>
      <path d="
M-0.296875 72.9062
L61.375 72.9062
L61.375 64.5938
L35.5 64.5938
L35.5 0
L25.5938 0
L25.5938 64.5938
L-0.296875 64.5938
z
" id="BitstreamVeraSans-Roman-54"/>
      <path d="
M44.2812 53.0781
L44.2812 44.5781
Q40.4844 46.5312 36.375 47.5
Q32.2812 48.4844 27.875 48.4844
Q21.1875 48.4844 17.8438 46.4375
Q14.5 44.3906 14.5 40.2812
Q14.5 37.1562 16.8906 35.375
Q19.2812 33.5938 26.5156 31.9844
L29.5938 31.2969
Q39.1562 29.25 43.1875 25.5156
Q47.2188 21.7812 47.2188 15.0938
Q47.2188 7.46875 41.1875 3.01562
Q35.1562 -1.42188 24.6094 -1.42188
Q20.2188 -1.42188 15.4531 -0.5625
Q10.6875 0.296875 5.42188 2
L5.42188 11.2812
Q10.4062 8.6875 15.2344 7.39062
Q20.0625 6.10938 24.8125 6.10938
Q31.1562 6.10938 34.5625 8.28125
Q37.9844 10.4531 37.9844 14.4062
Q37.9844 18.0625 35.5156 20.0156
Q33.0625 21.9688 24.7031 23.7812
L21.5781 24.5156
Q13.2344 26.2656 9.51562 29.9062
Q5.8125 33.5469 5.8125 39.8906
Q5.8125 47.6094 11.2812 51.7969
Q16.75 56 26.8125 56
Q31.7812 56 36.1719 55.2656
Q40.5781 54.5469 44.2812 53.0781" id="BitstreamVeraSans-Roman-73"/>
     </defs>
     <g transform="translate(136.371818182 273.13875)scale(0.12 -0.12)">
      <use xlink:href="#BitstreamVeraSans-Roman-54"/>
      <use x="61.083984375" xlink:href="#BitstreamVeraSans-Roman-20"/>
      <use x="92.87109375" xlink:href="#BitstreamVeraSans-Roman-5b"/>
      <use x="131.884765625" xlink:href="#BitstreamVeraSans-Roman-73"/>
      <use x="183.984375" xlink:href="#BitstreamVeraSans-Roman-5d"/>
     </g>
    </g>
   </g>
   <g id="matplotlib.axis_2">
    <g id="ytick_1">
     <g id="line2d_21">
      <defs>
       <path d="
M0 0
L4 0" id="m728421d6d4" style="stroke:#000000;stroke-width:0.5;"/>
      </defs>
      <g>
       <use style="stroke:#000000;stroke-width:0.5;" x="51.07125" xlink:href="#m728421d6d4" y="243.406875"/>
      </g>
     </g>
     <g id="line2d_22">
      <defs>
       <path d="
M0 0
L-4 0" id="mcb0005524f" style="stroke:#000000;stroke-width:0.5;"/>
      </defs>
      <g>
       <use style="stroke:#000000;stroke-width:0.5;" x="247.434886364" xlink:href="#mcb0005524f" y="243.406875"/>
      </g>
     </g>
     <g id="text_9">
      <!-- −20 -->
      <defs>
       <path d="
M10.5938 35.5
L73.1875 35.5
L73.1875 27.2031
L10.5938 27.2031
z
" id="BitstreamVeraSans-Roman-2212"/>
      </defs>
      <g transform="translate(23.81375 246.718125)scale(0.12 -0.12)">
       <use xlink:href="#BitstreamVeraSans-Roman-2212"/>
       <use x="83.7890625" xlink:href="#BitstreamVeraSans-Roman-32"/>
       <use x="147.412109375" xlink:href="#BitstreamVeraSans-Roman-30"/>
      </g>
     </g>
    </g>
    <g id="ytick_2">
     <g id="line2d_23">
      <g>
       <use style="stroke:#000000;stroke-width:0.5;" x="51.07125" xlink:href="#m728421d6d4" y="214.606875"/>
      </g>
     </g>
     <g id="line2d_24">
      <g>
       <use style="stroke:#000000;stroke-width:0.5;" x="247.434886364" xlink:href="#mcb0005524f" y="214.606875"/>
      </g>
     </g>
     <g id="text_10">
      <!-- −15 -->
      <g transform="translate(24.065 217.918125)scale(0.12 -0.12)">
       <use xlink:href="#BitstreamVeraSans-Roman-2212"/>
       <use x="83.7890625" xlink:href="#BitstreamVeraSans-Roman-31"/>
       <use x="147.412109375" xlink:href="#BitstreamVeraSans-Roman-35"/>
      </g>
     </g>
    </g>
    <g id="ytick_3">
     <g id="line2d_25">
      <g>
       <use style="stroke:#000000;stroke-width:0.5;" x="51.07125" xlink:href="#m728421d6d4" y="185.806875"/>
      </g>
     </g>
     <g id="line2d_26">
      <g>
       <use style="stroke:#000000;stroke-width:0.5;" x="247.434886364" xlink:href="#mcb0005524f" y="185.806875"/>
      </g>
     </g>
     <g id="text_11">
      <!-- −10 -->
      <g transform="translate(23.81375 189.118125)scale(0.12 -0.12)">
       <use xlink:href="#BitstreamVeraSans-Roman-2212"/>
       <use x="83.7890625" xlink:href="#BitstreamVeraSans-Roman-31"/>
       <use x="147.412109375" xlink:href="#BitstreamVeraSans-Roman-30"/>
      </g>
     </g>
    </g>
    <g id="ytick_4">
     <g id="line2d_27">
      <g>
       <use style="stroke:#000000;stroke-width:0.5;" x="51.07125" xlink:href="#m728421d6d4" y="157.006875"/>
      </g>
     </g>
     <g id="line2d_28">
      <g>
       <use style="stroke:#000000;stroke-width:0.5;" x="247.434886364" xlink:href="#mcb0005524f" y="157.006875"/>
      </g>
     </g>
     <g id="text_12">
      <!-- −5 -->
      <g transform="translate(31.7 160.318125)scale(0.12 -0.12)">
       <use xlink:href="#BitstreamVeraSans-Roman-2212"/>
       <use x="83.7890625" xlink:href="#BitstreamVeraSans-Roman-35"/>
      </g>
     </g>
    </g>
    <g id="ytick_5">
     <g id="line2d_29">
      <g>
       <use style="stroke:#000000;stroke-width:0.5;" x="51.07125" xlink:href="#m728421d6d4" y="128.206875"/>
      </g>
     </g>
     <g id="line2d_30">
      <g>
       <use style="stroke:#000000;stroke-width:0.5;" x="247.434886364" xlink:href="#mcb0005524f" y="128.206875"/>
      </g>
     </g>
     <g id="text_13">
      <!-- 0 -->
      <g transform="translate(41.024375 131.518125)scale(0.12 -0.12)">
       <use xlink:href="#BitstreamVeraSans-Roman-30"/>
      </g>
     </g>
    </g>
    <g id="ytick_6">
     <g id="line2d_31">
      <g>
       <use style="stroke:#000000;stroke-width:0.5;" x="51.07125" xlink:href="#m728421d6d4" y="99.406875"/>
      </g>
     </g>
     <g id="line2d_32">
      <g>
       <use style="stroke:#000000;stroke-width:0.5;" x="247.434886364" xlink:href="#mcb0005524f" y="99.406875"/>
      </g>
     </g>
     <g id="text_14">
      <!-- 5 -->
      <g transform="translate(41.410625 102.718125)scale(0.12 -0.12)">
       <use xlink:href="#BitstreamVeraSans-Roman-35"/>
      </g>
     </g>
    </g>
    <g id="ytick_7">
     <g id="line2d_33">
      <g>
       <use style="stroke:#000000;stroke-width:0.5;" x="51.07125" xlink:href="#m728421d6d4" y="70.606875"/>
      </g>
     </g>
     <g id="line2d_34">
      <g>
       <use style="stroke:#000000;stroke-width:0.5;" x="247.434886364" xlink:href="#mcb0005524f" y="70.606875"/>
      </g>
     </g>
     <g id="text_15">
      <!-- 10 -->
      <g transform="translate(33.91625 73.918125)scale(0.12 -0.12)">
       <use xlink:href="#BitstreamVeraSans-Roman-31"/>
       <use x="63.623046875" xlink:href="#BitstreamVeraSans-Roman-30"/>
      </g>
     </g>
    </g>
    <g id="ytick_8">
     <g id="line2d_35">
      <g>
       <use style="stroke:#000000;stroke-width:0.5;" x="51.07125" xlink:href="#m728421d6d4" y="41.806875"/>
      </g>
     </g>
     <g id="line2d_36">
      <g>
       <use style="stroke:#000000;stroke-width:0.5;" x="247.434886364" xlink:href="#mcb0005524f" y="41.806875"/>
      </g>
     </g>
     <g id="text_16">
      <!-- 15 -->
      <g transform="translate(34.1675 45.118125)scale(0.12 -0.12)">
       <use xlink:href="#BitstreamVeraSans-Roman-31"/>
       <use x="63.623046875" xlink:href="#BitstreamVeraSans-Roman-35"/>
      </g>
     </g>
    </g>
    <g id="ytick_9">
     <g id="line2d_37">
      <g>
       <use style="stroke:#000000;stroke-width:0.5;" x="51.07125" xlink:href="#m728421d6d4" y="13.006875"/>
      </g>
     </g>
     <g id="line2d_38">
      <g>
       <use style="stroke:#000000;stroke-width:0.5;" x="247.434886364" xlink:href="#mcb0005524f" y="13.006875"/>
      </g>
     </g>
     <g id="text_17">
      <!-- 20 -->
      <g transform="translate(33.4775 16.318125)scale(0.12 -0.12)">
       <use xlink:href="#BitstreamVeraSans-Roman-32"/>
       <use x="63.623046875" xlink:href="#BitstreamVeraSans-Roman-30"/>
      </g>
     </g>
    </g>
    <g id="text_18">
     <!-- Bounds -->
     <defs>
      <path d="
M54.8906 33.0156
L54.8906 0
L45.9062 0
L45.9062 32.7188
Q45.9062 40.4844 42.875 44.3281
Q39.8438 48.1875 33.7969 48.1875
Q26.5156 48.1875 22.3125 43.5469
Q18.1094 38.9219 18.1094 30.9062
L18.1094 0
L9.07812 0
L9.07812 54.6875
L18.1094 54.6875
L18.1094 46.1875
Q21.3438 51.125 25.7031 53.5625
Q30.0781 56 35.7969 56
Q45.2188 56 50.0469 50.1719
Q54.8906 44.3438 54.8906 33.0156" id="BitstreamVeraSans-Roman-6e"/>
      <path d="
M45.4062 46.3906
L45.4062 75.9844
L54.3906 75.9844
L54.3906 0
L45.4062 0
L45.4062 8.20312
Q42.5781 3.32812 38.25 0.953125
Q33.9375 -1.42188 27.875 -1.42188
Q17.9688 -1.42188 11.7344 6.48438
Q5.51562 14.4062 5.51562 27.2969
Q5.51562 40.1875 11.7344 48.0938
Q17.9688 56 27.875 56
Q33.9375 56 38.25 53.625
Q42.5781 51.2656 45.4062 46.3906
M14.7969 27.2969
Q14.7969 17.3906 18.875 11.75
Q22.9531 6.10938 30.0781 6.10938
Q37.2031 6.10938 41.2969 11.75
Q45.4062 17.3906 45.4062 27.2969
Q45.4062 37.2031 41.2969 42.8438
Q37.2031 48.4844 30.0781 48.4844
Q22.9531 48.4844 18.875 42.8438
Q14.7969 37.2031 14.7969 27.2969" id="BitstreamVeraSans-Roman-64"/>
      <path d="
M8.5 21.5781
L8.5 54.6875
L17.4844 54.6875
L17.4844 21.9219
Q17.4844 14.1562 20.5 10.2656
Q23.5312 6.39062 29.5938 6.39062
Q36.8594 6.39062 41.0781 11.0312
Q45.3125 15.6719 45.3125 23.6875
L45.3125 54.6875
L54.2969 54.6875
L54.2969 0
L45.3125 0
L45.3125 8.40625
Q42.0469 3.42188 37.7188 1
Q33.4062 -1.42188 27.6875 -1.42188
Q18.2656 -1.42188 13.375 4.4375
Q8.5 10.2969 8.5 21.5781" id="BitstreamVeraSans-Roman-75"/>
      <path d="
M30.6094 48.3906
Q23.3906 48.3906 19.1875 42.75
Q14.9844 37.1094 14.9844 27.2969
Q14.9844 17.4844 19.1562 11.8438
Q23.3438 6.20312 30.6094 6.20312
Q37.7969 6.20312 41.9844 11.8594
Q46.1875 17.5312 46.1875 27.2969
Q46.1875 37.0156 41.9844 42.7031
Q37.7969 48.3906 30.6094 48.3906
M30.6094 56
Q42.3281 56 49.0156 48.375
Q55.7188 40.7656 55.7188 27.2969
Q55.7188 13.875 49.0156 6.21875
Q42.3281 -1.42188 30.6094 -1.42188
Q18.8438 -1.42188 12.1719 6.21875
Q5.51562 13.875 5.51562 27.2969
Q5.51562 40.7656 12.1719 48.375
Q18.8438 56 30.6094 56" id="BitstreamVeraSans-Roman-6f"/>
      <path d="
M19.6719 34.8125
L19.6719 8.10938
L35.5 8.10938
Q43.4531 8.10938 47.2812 11.4062
Q51.125 14.7031 51.125 21.4844
Q51.125 28.3281 47.2812 31.5625
Q43.4531 34.8125 35.5 34.8125
z

M19.6719 64.7969
L19.6719 42.8281
L34.2812 42.8281
Q41.5 42.8281 45.0312 45.5312
Q48.5781 48.25 48.5781 53.8125
Q48.5781 59.3281 45.0312 62.0625
Q41.5 64.7969 34.2812 64.7969
z

M9.8125 72.9062
L35.0156 72.9062
Q46.2969 72.9062 52.3906 68.2188
Q58.5 63.5312 58.5 54.8906
Q58.5 48.1875 55.375 44.2344
Q52.25 40.2812 46.1875 39.3125
Q53.4688 37.75 57.5 32.7812
Q61.5312 27.8281 61.5312 20.4062
Q61.5312 10.6406 54.8906 5.3125
Q48.25 0 35.9844 0
L9.8125 0
z
" id="BitstreamVeraSans-Roman-42"/>
     </defs>
     <g transform="translate(16.318125 149.653125)rotate(-90.0)scale(0.12 -0.12)">
      <use xlink:href="#BitstreamVeraSans-Roman-42"/>
      <use x="68.603515625" xlink:href="#BitstreamVeraSans-Roman-6f"/>
      <use x="129.78515625" xlink:href="#BitstreamVeraSans-Roman-75"/>
      <use x="193.1640625" xlink:href="#BitstreamVeraSans-Roman-6e"/>
      <use x="256.54296875" xlink:href="#BitstreamVeraSans-Roman-64"/>
      <use x="320.01953125" xlink:href="#BitstreamVeraSans-Roman-73"/>
     </g>
    </g>
   </g>
   <g id="text_19">
    <!-- A -->
    <defs>
     <path d="
M34.1875 63.1875
L20.7969 26.9062
L47.6094 26.9062
z

M28.6094 72.9062
L39.7969 72.9062
L67.5781 0
L57.3281 0
L50.6875 18.7031
L17.8281 18.7031
L11.1875 0
L0.78125 0
z
" id="BitstreamVeraSans-Roman-41"/>
    </defs>
    <g transform="translate(11.4763636364 26.635125)scale(0.24 -0.24)">
     <use xlink:href="#BitstreamVeraSans-Roman-41"/>
    </g>
   </g>
   <g id="legend_1">
    <g id="patch_7">
     <path d="
M145.247 87.9364
L237.355 87.9364
Q240.235 87.9364 240.235 85.0564
L240.235 23.0869
Q240.235 20.2069 237.355 20.2069
L145.247 20.2069
Q142.367 20.2069 142.367 23.0869
L142.367 85.0564
Q142.367 87.9364 145.247 87.9364
z
" style="fill:#ffffff;opacity:0.5;stroke:#000000;stroke-linejoin:miter;"/>
    </g>
    <g id="line2d_39">
     <path d="
M152.447 31.8686
L172.607 31.8686" style="fill:none;stroke:#0000ff;stroke-dasharray:1.000000,3.000000;stroke-dashoffset:0.0;stroke-width:2;"/>
    </g>
    <g id="line2d_40"/>
    <g id="text_20">
     <!-- T=10s -->
     <defs>
      <path d="
M10.5938 45.4062
L73.1875 45.4062
L73.1875 37.2031
L10.5938 37.2031
z

M10.5938 25.4844
L73.1875 25.4844
L73.1875 17.1875
L10.5938 17.1875
z
" id="BitstreamVeraSans-Roman-3d"/>
     </defs>
     <g transform="translate(188.446636364 36.908625)scale(0.144 -0.144)">
      <use xlink:href="#BitstreamVeraSans-Roman-54"/>
      <use x="61.083984375" xlink:href="#BitstreamVeraSans-Roman-3d"/>
      <use x="144.873046875" xlink:href="#BitstreamVeraSans-Roman-31"/>
      <use x="208.49609375" xlink:href="#BitstreamVeraSans-Roman-30"/>
      <use x="272.119140625" xlink:href="#BitstreamVeraSans-Roman-73"/>
     </g>
    </g>
    <g id="line2d_41">
     <path d="
M152.447 53.0051
L172.607 53.0051" style="fill:none;stroke:#0000ff;stroke-dasharray:6.000000,6.000000;stroke-dashoffset:0.0;stroke-width:2;"/>
    </g>
    <g id="line2d_42"/>
    <g id="text_21">
     <!-- T=20s -->
     <g transform="translate(188.446636364 58.045125)scale(0.144 -0.144)">
      <use xlink:href="#BitstreamVeraSans-Roman-54"/>
      <use x="61.083984375" xlink:href="#BitstreamVeraSans-Roman-3d"/>
      <use x="144.873046875" xlink:href="#BitstreamVeraSans-Roman-32"/>
      <use x="208.49609375" xlink:href="#BitstreamVeraSans-Roman-30"/>
      <use x="272.119140625" xlink:href="#BitstreamVeraSans-Roman-73"/>
     </g>
    </g>
    <g id="line2d_43">
     <path d="
M152.447 74.1416
L172.607 74.1416" style="fill:none;stroke:#0000ff;stroke-linecap:square;stroke-width:2;"/>
    </g>
    <g id="line2d_44"/>
    <g id="text_22">
     <!-- T=30s -->
     <g transform="translate(188.446636364 79.181625)scale(0.144 -0.144)">
      <use xlink:href="#BitstreamVeraSans-Roman-54"/>
      <use x="61.083984375" xlink:href="#BitstreamVeraSans-Roman-3d"/>
      <use x="144.873046875" xlink:href="#BitstreamVeraSans-Roman-33"/>
      <use x="208.49609375" xlink:href="#BitstreamVeraSans-Roman-30"/>
      <use x="272.119140625" xlink:href="#BitstreamVeraSans-Roman-73"/>
     </g>
    </g>
   </g>
  </g>
  <g id="axes_2">
   <g id="patch_8">
    <path d="
M276.889 243.407
L473.253 243.407
L473.253 13.0069
L276.889 13.0069
z
" style="fill:#ffffff;"/>
   </g>
   <g id="line2d_45">
    <path clip-path="url(#p0bd09640ac)" d="
M276.889 31.3788
L277.675 31.2073
L278.46 31.4989
L279.246 32.0566
L280.817 33.7645
L282.388 35.8952
L285.529 40.7448
L291.813 50.1837
L298.097 58.2684
L302.809 63.5386
L307.522 68.0326
L309.879 70.1589
L310.664 70.8777
L313.806 73.2496
L316.162 75.1275
L318.519 76.6051
L323.231 79.7566
L326.373 81.4457
L331.086 84.2651
L334.228 85.5112
L338.155 87.3408
L342.868 89.673
L349.937 91.8639
L354.649 93.6044
L360.933 95.9941
L368.788 97.6311
L376.642 99.5109
L383.711 101.434
L390.78 103.378
L407.275 105.52
L422.984 107.791
L437.908 110.18
L454.402 112.905
L470.897 114.047
L471.682 114.374
L472.468 116.193
L473.253 128.207
L473.253 128.207" style="fill:none;stroke:#0000ff;stroke-dasharray:1.000000,3.000000;stroke-dashoffset:0.0;stroke-width:2;"/>
   </g>
   <g id="line2d_46">
    <path clip-path="url(#p0bd09640ac)" d="
M276.889 225.035
L277.675 225.206
L278.46 224.915
L279.246 224.357
L280.817 222.649
L282.388 220.519
L285.529 215.669
L291.813 206.23
L298.097 198.145
L302.809 192.875
L307.522 188.381
L309.879 186.255
L310.664 185.536
L313.806 183.164
L316.162 181.286
L318.519 179.809
L323.231 176.657
L326.373 174.968
L331.086 172.149
L334.228 170.903
L338.155 169.073
L342.868 166.741
L349.937 164.55
L354.649 162.809
L360.933 160.42
L368.788 158.783
L376.642 156.903
L383.711 154.98
L390.78 153.036
L407.275 150.893
L422.984 148.623
L437.908 146.234
L454.402 143.509
L470.897 142.367
L471.682 142.039
L472.468 140.221
L473.253 128.207
L473.253 128.207" style="fill:none;stroke:#008000;stroke-dasharray:1.000000,3.000000;stroke-dashoffset:0.0;stroke-width:2;"/>
   </g>
   <g id="line2d_47">
    <path clip-path="url(#p0bd09640ac)" d="
M276.889 31.3276
L277.675 31.219
L278.46 31.4546
L279.246 31.8945
L280.031 32.7227
L280.817 33.7851
L281.602 34.6322
L283.959 38.224
L284.744 39.2936
L285.529 40.6629
L286.315 41.7247
L288.671 45.2937
L291.028 48.8334
L291.813 49.8148
L294.169 53.2316
L295.74 55.0205
L298.097 58.2711
L299.668 59.6884
L301.239 61.475
L303.595 64.3317
L305.166 65.4445
L306.737 66.8054
L309.093 69.2323
L310.664 70.8921
L311.449 71.4742
L313.806 72.7373
L316.162 74.3257
L318.519 76.2287
L322.446 79.5519
L324.017 80.1462
L327.159 81.2682
L330.3 82.6284
L333.442 84.2546
L336.584 86.1663
L342.082 89.7812
L342.868 90.1167
L349.937 91.4097
L356.22 92.7851
L362.504 94.3972
L368.002 96.0247
L373.5 97.8795
L378.999 99.9901
L384.497 102.362
L386.853 103.354
L388.424 103.801
L397.849 104.49
L434.766 107.293
L467.755 110.018
L470.111 110.359
L470.897 110.744
L471.682 111.844
L472.468 115.365
L473.253 128.207
L473.253 128.207" style="fill:none;stroke:#0000ff;stroke-dasharray:6.000000,6.000000;stroke-dashoffset:0.0;stroke-width:2;"/>
   </g>
   <g id="line2d_48">
    <path clip-path="url(#p0bd09640ac)" d="
M276.889 225.086
L277.675 225.195
L278.46 224.959
L279.246 224.519
L280.031 223.691
L280.817 222.629
L281.602 221.781
L283.959 218.19
L284.744 217.12
L285.529 215.751
L286.315 214.689
L288.671 211.12
L291.028 207.58
L291.813 206.599
L294.169 203.182
L295.74 201.393
L298.097 198.143
L299.668 196.725
L301.239 194.939
L303.595 192.082
L305.166 190.969
L306.737 189.608
L309.093 187.181
L310.664 185.522
L311.449 184.94
L313.806 183.676
L316.162 182.088
L318.519 180.185
L322.446 176.862
L324.017 176.268
L327.159 175.146
L330.3 173.785
L333.442 172.159
L336.584 170.247
L342.082 166.633
L342.868 166.297
L349.937 165.004
L356.22 163.629
L362.504 162.017
L368.002 160.389
L373.5 158.534
L378.999 156.424
L384.497 154.052
L386.853 153.06
L388.424 152.613
L397.849 151.923
L434.766 149.121
L467.755 146.396
L470.111 146.055
L470.897 145.669
L471.682 144.569
L472.468 141.049
L473.253 128.207
L473.253 128.207" style="fill:none;stroke:#008000;stroke-dasharray:6.000000,6.000000;stroke-dashoffset:0.0;stroke-width:2;"/>
   </g>
   <g id="line2d_49">
    <path clip-path="url(#p0bd09640ac)" d="
M276.889 30.4193
L277.675 30.8812
L278.46 30.9644
L279.246 31.9533
L280.031 32.0667
L280.817 32.9585
L281.602 34.462
L283.173 36.0504
L283.959 37.3748
L284.744 39.087
L285.529 40.4316
L286.315 40.9752
L287.1 41.875
L287.886 43.1361
L290.242 47.7533
L291.028 48.1962
L291.813 48.825
L292.599 49.6455
L293.384 50.6597
L294.955 53.2411
L297.311 57.5569
L298.882 58.1593
L300.453 59.0949
L302.024 60.3952
L303.595 62.0815
L305.166 64.1459
L307.522 67.7557
L309.093 70.1088
L309.879 70.9494
L316.162 72.3268
L318.519 73.164
L320.875 74.2251
L323.231 75.5393
L325.588 77.1415
L327.944 79.07
L330.3 81.3575
L332.657 84.0016
L336.584 88.711
L337.369 89.4993
L338.155 90.1191
L338.94 90.4682
L352.293 90.8614
L365.646 91.4856
L378.213 92.3008
L389.995 93.2966
L400.206 94.376
L409.631 95.5879
L418.271 96.9187
L426.126 98.3487
L433.195 99.8507
L439.479 101.389
L445.762 103.154
L451.26 104.917
L456.759 106.921
L461.471 108.87
L464.613 110.35
L466.969 111.699
L468.54 112.929
L469.326 113.768
L470.111 114.879
L470.897 116.432
L471.682 118.723
L472.468 122.292
L473.253 128.207
L473.253 128.207" style="fill:none;stroke:#0000ff;stroke-linecap:square;stroke-width:2;"/>
   </g>
   <g id="line2d_50">
    <path clip-path="url(#p0bd09640ac)" d="
M276.889 225.994
L277.675 225.533
L278.46 225.449
L279.246 224.46
L280.031 224.347
L280.817 223.455
L281.602 221.952
L283.173 220.363
L283.959 219.039
L284.744 217.327
L285.529 215.982
L286.315 215.439
L287.1 214.539
L287.886 213.278
L290.242 208.66
L291.028 208.218
L291.813 207.589
L292.599 206.768
L293.384 205.754
L294.955 203.173
L297.311 198.857
L298.882 198.254
L300.453 197.319
L302.024 196.019
L303.595 194.332
L305.166 192.268
L307.522 188.658
L309.093 186.305
L309.879 185.464
L316.162 184.087
L318.519 183.25
L320.875 182.189
L323.231 180.874
L325.588 179.272
L327.944 177.344
L330.3 175.056
L332.657 172.412
L336.584 167.703
L337.369 166.914
L338.155 166.295
L338.94 165.946
L352.293 165.552
L365.646 164.928
L378.213 164.113
L389.995 163.117
L400.206 162.038
L409.631 160.826
L418.271 159.495
L426.126 158.065
L433.195 156.563
L439.479 155.025
L445.762 153.26
L451.26 151.497
L456.759 149.493
L461.471 147.544
L464.613 146.064
L466.969 144.715
L468.54 143.484
L469.326 142.645
L470.111 141.535
L470.897 139.982
L471.682 137.691
L472.468 134.122
L473.253 128.207
L473.253 128.207" style="fill:none;stroke:#008000;stroke-linecap:square;stroke-width:2;"/>
   </g>
   <g id="patch_9">
    <path d="
M276.889 13.0069
L473.253 13.0069" style="fill:none;stroke:#000000;stroke-linecap:square;stroke-linejoin:miter;"/>
   </g>
   <g id="patch_10">
    <path d="
M473.253 243.407
L473.253 13.0069" style="fill:none;stroke:#000000;stroke-linecap:square;stroke-linejoin:miter;"/>
   </g>
   <g id="patch_11">
    <path d="
M276.889 243.407
L473.253 243.407" style="fill:none;stroke:#000000;stroke-linecap:square;stroke-linejoin:miter;"/>
   </g>
   <g id="patch_12">
    <path d="
M276.889 243.407
L276.889 13.0069" style="fill:none;stroke:#000000;stroke-linecap:square;stroke-linejoin:miter;"/>
   </g>
   <g id="matplotlib.axis_3">
    <g id="xtick_8">
     <g id="line2d_51">
      <g>
       <use style="stroke:#000000;stroke-width:0.5;" x="276.889431818" xlink:href="#m93b0483c22" y="243.406875"/>
      </g>
     </g>
     <g id="line2d_52">
      <g>
       <use style="stroke:#000000;stroke-width:0.5;" x="276.889431818" xlink:href="#m741efc42ff" y="13.006875"/>
      </g>
     </g>
     <g id="text_23">
      <!-- 0 -->
      <g transform="translate(273.865994318 256.525)scale(0.12 -0.12)">
       <use xlink:href="#BitstreamVeraSans-Roman-30"/>
      </g>
     </g>
    </g>
    <g id="xtick_9">
     <g id="line2d_53">
      <g>
       <use style="stroke:#000000;stroke-width:0.5;" x="316.162159091" xlink:href="#m93b0483c22" y="243.406875"/>
      </g>
     </g>
     <g id="line2d_54">
      <g>
       <use style="stroke:#000000;stroke-width:0.5;" x="316.162159091" xlink:href="#m741efc42ff" y="13.006875"/>
      </g>
     </g>
     <g id="text_24">
      <!-- 2 -->
      <g transform="translate(313.385284091 256.525)scale(0.12 -0.12)">
       <use xlink:href="#BitstreamVeraSans-Roman-32"/>
      </g>
     </g>
    </g>
    <g id="xtick_10">
     <g id="line2d_55">
      <g>
       <use style="stroke:#000000;stroke-width:0.5;" x="355.434886364" xlink:href="#m93b0483c22" y="243.406875"/>
      </g>
     </g>
     <g id="line2d_56">
      <g>
       <use style="stroke:#000000;stroke-width:0.5;" x="355.434886364" xlink:href="#m741efc42ff" y="13.006875"/>
      </g>
     </g>
     <g id="text_25">
      <!-- 4 -->
      <defs>
       <path d="
M37.7969 64.3125
L12.8906 25.3906
L37.7969 25.3906
z

M35.2031 72.9062
L47.6094 72.9062
L47.6094 25.3906
L58.0156 25.3906
L58.0156 17.1875
L47.6094 17.1875
L47.6094 0
L37.7969 0
L37.7969 17.1875
L4.89062 17.1875
L4.89062 26.7031
z
" id="BitstreamVeraSans-Roman-34"/>
      </defs>
      <g transform="translate(352.247386364 256.525)scale(0.12 -0.12)">
       <use xlink:href="#BitstreamVeraSans-Roman-34"/>
      </g>
     </g>
    </g>
    <g id="xtick_11">
     <g id="line2d_57">
      <g>
       <use style="stroke:#000000;stroke-width:0.5;" x="394.707613636" xlink:href="#m93b0483c22" y="243.406875"/>
      </g>
     </g>
     <g id="line2d_58">
      <g>
       <use style="stroke:#000000;stroke-width:0.5;" x="394.707613636" xlink:href="#m741efc42ff" y="13.006875"/>
      </g>
     </g>
     <g id="text_26">
      <!-- 6 -->
      <defs>
       <path d="
M33.0156 40.375
Q26.375 40.375 22.4844 35.8281
Q18.6094 31.2969 18.6094 23.3906
Q18.6094 15.5312 22.4844 10.9531
Q26.375 6.39062 33.0156 6.39062
Q39.6562 6.39062 43.5312 10.9531
Q47.4062 15.5312 47.4062 23.3906
Q47.4062 31.2969 43.5312 35.8281
Q39.6562 40.375 33.0156 40.375
M52.5938 71.2969
L52.5938 62.3125
Q48.875 64.0625 45.0938 64.9844
Q41.3125 65.9219 37.5938 65.9219
Q27.8281 65.9219 22.6719 59.3281
Q17.5312 52.7344 16.7969 39.4062
Q19.6719 43.6562 24.0156 45.9219
Q28.375 48.1875 33.5938 48.1875
Q44.5781 48.1875 50.9531 41.5156
Q57.3281 34.8594 57.3281 23.3906
Q57.3281 12.1562 50.6875 5.35938
Q44.0469 -1.42188 33.0156 -1.42188
Q20.3594 -1.42188 13.6719 8.26562
Q6.98438 17.9688 6.98438 36.375
Q6.98438 53.6562 15.1875 63.9375
Q23.3906 74.2188 37.2031 74.2188
Q40.9219 74.2188 44.7031 73.4844
Q48.4844 72.75 52.5938 71.2969" id="BitstreamVeraSans-Roman-36"/>
      </defs>
      <g transform="translate(391.686988636 256.525)scale(0.12 -0.12)">
       <use xlink:href="#BitstreamVeraSans-Roman-36"/>
      </g>
     </g>
    </g>
    <g id="xtick_12">
     <g id="line2d_59">
      <g>
       <use style="stroke:#000000;stroke-width:0.5;" x="433.980340909" xlink:href="#m93b0483c22" y="243.406875"/>
      </g>
     </g>
     <g id="line2d_60">
      <g>
       <use style="stroke:#000000;stroke-width:0.5;" x="433.980340909" xlink:href="#m741efc42ff" y="13.006875"/>
      </g>
     </g>
     <g id="text_27">
      <!-- 8 -->
      <defs>
       <path d="
M31.7812 34.625
Q24.75 34.625 20.7188 30.8594
Q16.7031 27.0938 16.7031 20.5156
Q16.7031 13.9219 20.7188 10.1562
Q24.75 6.39062 31.7812 6.39062
Q38.8125 6.39062 42.8594 10.1719
Q46.9219 13.9688 46.9219 20.5156
Q46.9219 27.0938 42.8906 30.8594
Q38.875 34.625 31.7812 34.625
M21.9219 38.8125
Q15.5781 40.375 12.0312 44.7188
Q8.5 49.0781 8.5 55.3281
Q8.5 64.0625 14.7188 69.1406
Q20.9531 74.2188 31.7812 74.2188
Q42.6719 74.2188 48.875 69.1406
Q55.0781 64.0625 55.0781 55.3281
Q55.0781 49.0781 51.5312 44.7188
Q48 40.375 41.7031 38.8125
Q48.8281 37.1562 52.7969 32.3125
Q56.7812 27.4844 56.7812 20.5156
Q56.7812 9.90625 50.3125 4.23438
Q43.8438 -1.42188 31.7812 -1.42188
Q19.7344 -1.42188 13.25 4.23438
Q6.78125 9.90625 6.78125 20.5156
Q6.78125 27.4844 10.7812 32.3125
Q14.7969 37.1562 21.9219 38.8125
M18.3125 54.3906
Q18.3125 48.7344 21.8438 45.5625
Q25.3906 42.3906 31.7812 42.3906
Q38.1406 42.3906 41.7188 45.5625
Q45.3125 48.7344 45.3125 54.3906
Q45.3125 60.0625 41.7188 63.2344
Q38.1406 66.4062 31.7812 66.4062
Q25.3906 66.4062 21.8438 63.2344
Q18.3125 60.0625 18.3125 54.3906" id="BitstreamVeraSans-Roman-38"/>
      </defs>
      <g transform="translate(430.980340909 256.525)scale(0.12 -0.12)">
       <use xlink:href="#BitstreamVeraSans-Roman-38"/>
      </g>
     </g>
    </g>
    <g id="xtick_13">
     <g id="line2d_61">
      <g>
       <use style="stroke:#000000;stroke-width:0.5;" x="473.253068182" xlink:href="#m93b0483c22" y="243.406875"/>
      </g>
     </g>
     <g id="line2d_62">
      <g>
       <use style="stroke:#000000;stroke-width:0.5;" x="473.253068182" xlink:href="#m741efc42ff" y="13.006875"/>
      </g>
     </g>
     <g id="text_28">
      <!-- 10 -->
      <g transform="translate(466.675568182 256.525)scale(0.12 -0.12)">
       <use xlink:href="#BitstreamVeraSans-Roman-31"/>
       <use x="63.623046875" xlink:href="#BitstreamVeraSans-Roman-30"/>
      </g>
     </g>
    </g>
    <g id="text_29">
     <!-- T [s] -->
     <g transform="translate(362.19 273.13875)scale(0.12 -0.12)">
      <use xlink:href="#BitstreamVeraSans-Roman-54"/>
      <use x="61.083984375" xlink:href="#BitstreamVeraSans-Roman-20"/>
      <use x="92.87109375" xlink:href="#BitstreamVeraSans-Roman-5b"/>
      <use x="131.884765625" xlink:href="#BitstreamVeraSans-Roman-73"/>
      <use x="183.984375" xlink:href="#BitstreamVeraSans-Roman-5d"/>
     </g>
    </g>
   </g>
   <g id="matplotlib.axis_4">
    <g id="ytick_10">
     <g id="line2d_63">
      <g>
       <use style="stroke:#000000;stroke-width:0.5;" x="276.889431818" xlink:href="#m728421d6d4" y="243.406875"/>
      </g>
     </g>
     <g id="line2d_64">
      <g>
       <use style="stroke:#000000;stroke-width:0.5;" x="473.253068182" xlink:href="#mcb0005524f" y="243.406875"/>
      </g>
     </g>
    </g>
    <g id="ytick_11">
     <g id="line2d_65">
      <g>
       <use style="stroke:#000000;stroke-width:0.5;" x="276.889431818" xlink:href="#m728421d6d4" y="214.606875"/>
      </g>
     </g>
     <g id="line2d_66">
      <g>
       <use style="stroke:#000000;stroke-width:0.5;" x="473.253068182" xlink:href="#mcb0005524f" y="214.606875"/>
      </g>
     </g>
    </g>
    <g id="ytick_12">
     <g id="line2d_67">
      <g>
       <use style="stroke:#000000;stroke-width:0.5;" x="276.889431818" xlink:href="#m728421d6d4" y="185.806875"/>
      </g>
     </g>
     <g id="line2d_68">
      <g>
       <use style="stroke:#000000;stroke-width:0.5;" x="473.253068182" xlink:href="#mcb0005524f" y="185.806875"/>
      </g>
     </g>
    </g>
    <g id="ytick_13">
     <g id="line2d_69">
      <g>
       <use style="stroke:#000000;stroke-width:0.5;" x="276.889431818" xlink:href="#m728421d6d4" y="157.006875"/>
      </g>
     </g>
     <g id="line2d_70">
      <g>
       <use style="stroke:#000000;stroke-width:0.5;" x="473.253068182" xlink:href="#mcb0005524f" y="157.006875"/>
      </g>
     </g>
    </g>
    <g id="ytick_14">
     <g id="line2d_71">
      <g>
       <use style="stroke:#000000;stroke-width:0.5;" x="276.889431818" xlink:href="#m728421d6d4" y="128.206875"/>
      </g>
     </g>
     <g id="line2d_72">
      <g>
       <use style="stroke:#000000;stroke-width:0.5;" x="473.253068182" xlink:href="#mcb0005524f" y="128.206875"/>
      </g>
     </g>
    </g>
    <g id="ytick_15">
     <g id="line2d_73">
      <g>
       <use style="stroke:#000000;stroke-width:0.5;" x="276.889431818" xlink:href="#m728421d6d4" y="99.406875"/>
      </g>
     </g>
     <g id="line2d_74">
      <g>
       <use style="stroke:#000000;stroke-width:0.5;" x="473.253068182" xlink:href="#mcb0005524f" y="99.406875"/>
      </g>
     </g>
    </g>
    <g id="ytick_16">
     <g id="line2d_75">
      <g>
       <use style="stroke:#000000;stroke-width:0.5;" x="276.889431818" xlink:href="#m728421d6d4" y="70.606875"/>
      </g>
     </g>
     <g id="line2d_76">
      <g>
       <use style="stroke:#000000;stroke-width:0.5;" x="473.253068182" xlink:href="#mcb0005524f" y="70.606875"/>
      </g>
     </g>
    </g>
    <g id="ytick_17">
     <g id="line2d_77">
      <g>
       <use style="stroke:#000000;stroke-width:0.5;" x="276.889431818" xlink:href="#m728421d6d4" y="41.806875"/>
      </g>
     </g>
     <g id="line2d_78">
      <g>
       <use style="stroke:#000000;stroke-width:0.5;" x="473.253068182" xlink:href="#mcb0005524f" y="41.806875"/>
      </g>
     </g>
    </g>
    <g id="ytick_18">
     <g id="line2d_79">
      <g>
       <use style="stroke:#000000;stroke-width:0.5;" x="276.889431818" xlink:href="#m728421d6d4" y="13.006875"/>
      </g>
     </g>
     <g id="line2d_80">
      <g>
       <use style="stroke:#000000;stroke-width:0.5;" x="473.253068182" xlink:href="#mcb0005524f" y="13.006875"/>
      </g>
     </g>
    </g>
   </g>
   <g id="text_30">
    <!-- B -->
    <g transform="translate(254.65875 26.635125)scale(0.24 -0.24)">
     <use xlink:href="#BitstreamVeraSans-Roman-42"/>
    </g>
   </g>
   <g id="legend_2">
    <g id="patch_13">
     <path d="
M371.051 87.9364
L463.173 87.9364
Q466.053 87.9364 466.053 85.0564
L466.053 23.0869
Q466.053 20.2069 463.173 20.2069
L371.051 20.2069
Q368.171 20.2069 368.171 23.0869
L368.171 85.0564
Q368.171 87.9364 371.051 87.9364
z
" style="fill:#ffffff;opacity:0.5;stroke:#000000;stroke-linejoin:miter;"/>
    </g>
    <g id="line2d_81">
     <path d="
M378.251 31.8686
L398.411 31.8686" style="fill:none;stroke:#0000ff;stroke-dasharray:1.000000,3.000000;stroke-dashoffset:0.0;stroke-width:2;"/>
    </g>
    <g id="line2d_82"/>
    <g id="text_31">
     <!-- n=101 -->
     <g transform="translate(414.251318182 36.908625)scale(0.144 -0.144)">
      <use xlink:href="#BitstreamVeraSans-Roman-6e"/>
      <use x="63.37890625" xlink:href="#BitstreamVeraSans-Roman-3d"/>
      <use x="147.16796875" xlink:href="#BitstreamVeraSans-Roman-31"/>
      <use x="210.791015625" xlink:href="#BitstreamVeraSans-Roman-30"/>
      <use x="274.4140625" xlink:href="#BitstreamVeraSans-Roman-31"/>
     </g>
    </g>
    <g id="line2d_83">
     <path d="
M378.251 53.0051
L398.411 53.0051" style="fill:none;stroke:#0000ff;stroke-dasharray:6.000000,6.000000;stroke-dashoffset:0.0;stroke-width:2;"/>
    </g>
    <g id="line2d_84"/>
    <g id="text_32">
     <!-- n=51 -->
     <g transform="translate(414.251318182 58.045125)scale(0.144 -0.144)">
      <use xlink:href="#BitstreamVeraSans-Roman-6e"/>
      <use x="63.37890625" xlink:href="#BitstreamVeraSans-Roman-3d"/>
      <use x="147.16796875" xlink:href="#BitstreamVeraSans-Roman-35"/>
      <use x="210.791015625" xlink:href="#BitstreamVeraSans-Roman-31"/>
     </g>
    </g>
    <g id="line2d_85">
     <path d="
M378.251 74.1416
L398.411 74.1416" style="fill:none;stroke:#0000ff;stroke-linecap:square;stroke-width:2;"/>
    </g>
    <g id="line2d_86"/>
    <g id="text_33">
     <!-- n=25 -->
     <g transform="translate(414.251318182 79.181625)scale(0.144 -0.144)">
      <use xlink:href="#BitstreamVeraSans-Roman-6e"/>
      <use x="63.37890625" xlink:href="#BitstreamVeraSans-Roman-3d"/>
      <use x="147.16796875" xlink:href="#BitstreamVeraSans-Roman-32"/>
      <use x="210.791015625" xlink:href="#BitstreamVeraSans-Roman-35"/>
     </g>
    </g>
   </g>
  </g>
  <g id="axes_3">
   <g id="patch_14">
    <path d="
M502.708 243.407
L699.071 243.407
L699.071 13.0069
L502.708 13.0069
z
" style="fill:#ffffff;"/>
   </g>
   <g id="line2d_87">
    <path clip-path="url(#pf79c9a8b10)" d="
M502.708 31.3788
L503.493 31.2073
L504.279 31.4989
L505.064 32.0566
L506.635 33.7645
L508.206 35.8952
L511.348 40.7448
L517.631 50.1837
L523.915 58.2684
L528.628 63.5386
L533.34 68.0326
L535.697 70.1589
L536.482 70.8777
L539.624 73.2496
L541.98 75.1275
L544.337 76.6051
L549.049 79.7566
L552.191 81.4457
L556.904 84.2651
L560.046 85.5112
L563.973 87.3408
L568.686 89.673
L575.755 91.8639
L580.468 93.6044
L586.751 95.9941
L594.606 97.6311
L602.46 99.5109
L609.529 101.434
L616.599 103.378
L633.093 105.52
L648.802 107.791
L663.726 110.18
L680.22 112.905
L696.715 114.047
L697.5 114.374
L698.286 116.193
L699.071 128.207
L699.071 128.207" style="fill:none;stroke:#0000ff;stroke-dasharray:1.000000,3.000000;stroke-dashoffset:0.0;stroke-width:2;"/>
   </g>
   <g id="line2d_88">
    <path clip-path="url(#pf79c9a8b10)" d="
M502.708 225.035
L503.493 225.206
L504.279 224.915
L505.064 224.357
L506.635 222.649
L508.206 220.519
L511.348 215.669
L517.631 206.23
L523.915 198.145
L528.628 192.875
L533.34 188.381
L535.697 186.255
L536.482 185.536
L539.624 183.164
L541.98 181.286
L544.337 179.809
L549.049 176.657
L552.191 174.968
L556.904 172.149
L560.046 170.903
L563.973 169.073
L568.686 166.741
L575.755 164.55
L580.468 162.809
L586.751 160.42
L594.606 158.783
L602.46 156.903
L609.529 154.98
L616.599 153.036
L633.093 150.893
L648.802 148.623
L663.726 146.234
L680.22 143.509
L696.715 142.367
L697.5 142.039
L698.286 140.221
L699.071 128.207
L699.071 128.207" style="fill:none;stroke:#008000;stroke-dasharray:1.000000,3.000000;stroke-dashoffset:0.0;stroke-width:2;"/>
   </g>
   <g id="line2d_89">
    <path clip-path="url(#pf79c9a8b10)" d="
M502.708 24.6333
L503.1 24.4988
L503.493 24.4471
L503.886 24.494
L504.671 24.9444
L505.849 26.0183
L508.599 29.6638
L509.777 31.4859
L510.955 33.2583
L516.453 41.6782
L517.239 42.6932
L518.417 44.3541
L523.915 51.4734
L525.093 52.7329
L526.271 54.2123
L527.449 55.3155
L529.413 57.4674
L530.591 58.5149
L532.948 60.8397
L534.519 62.1475
L536.482 64.0399
L538.053 65.0768
L539.624 66.3796
L541.195 67.7678
L542.766 68.6222
L544.729 69.975
L547.479 71.9986
L549.442 72.9209
L551.406 74.0738
L555.333 76.5308
L557.689 77.4129
L560.046 78.5204
L562.795 80.0814
L564.759 81.2166
L565.937 81.5576
L569.079 82.4568
L572.22 83.5917
L575.362 84.9865
L579.289 86.8625
L581.253 87.2317
L585.966 88.2143
L590.286 89.3443
L594.213 90.5921
L598.14 92.0682
L601.282 93.243
L602.46 93.4128
L609.922 94.3462
L616.991 95.4497
L623.668 96.7171
L629.951 98.1413
L635.842 99.7109
L640.162 100.892
L641.733 101.02
L657.442 102.086
L671.973 103.291
L685.719 104.65
L695.144 105.752
L696.322 106.047
L697.108 106.557
L697.5 107.092
L697.893 108.04
L698.286 109.78
L698.679 113.56
L699.071 128.207
L699.071 128.207" style="fill:none;stroke:#0000ff;stroke-dasharray:6.000000,6.000000;stroke-dashoffset:0.0;stroke-width:2;"/>
   </g>
   <g id="line2d_90">
    <path clip-path="url(#pf79c9a8b10)" d="
M502.708 231.78
L503.1 231.915
L503.493 231.967
L503.886 231.92
L504.671 231.469
L505.849 230.395
L508.599 226.75
L509.777 224.928
L510.955 223.155
L516.453 214.736
L517.239 213.721
L518.417 212.06
L523.915 204.94
L525.093 203.681
L526.271 202.201
L527.449 201.098
L529.413 198.946
L530.591 197.899
L532.948 195.574
L534.519 194.266
L536.482 192.374
L538.053 191.337
L539.624 190.034
L541.195 188.646
L542.766 187.792
L544.729 186.439
L547.479 184.415
L549.442 183.493
L551.406 182.34
L555.333 179.883
L557.689 179.001
L560.046 177.893
L562.795 176.332
L564.759 175.197
L565.937 174.856
L569.079 173.957
L572.22 172.822
L575.362 171.427
L579.289 169.551
L581.253 169.182
L585.966 168.199
L590.286 167.069
L594.213 165.822
L598.14 164.346
L601.282 163.171
L602.46 163.001
L609.922 162.068
L616.991 160.964
L623.668 159.697
L629.951 158.272
L635.842 156.703
L640.162 155.522
L641.733 155.394
L657.442 154.327
L671.973 153.123
L685.719 151.764
L695.144 150.662
L696.322 150.367
L697.108 149.857
L697.5 149.322
L697.893 148.374
L698.286 146.633
L698.679 142.854
L699.071 128.207
L699.071 128.207" style="fill:none;stroke:#008000;stroke-dasharray:6.000000,6.000000;stroke-dashoffset:0.0;stroke-width:2;"/>
   </g>
   <g id="line2d_91">
    <path clip-path="url(#pf79c9a8b10)" d="
M502.708 19.7994
L502.904 19.6141
L503.886 19.6317
L504.082 19.7831
L504.279 19.7856
L505.457 20.7389
L505.849 21.1312
L507.813 23.6229
L515.275 34.9744
L515.864 35.8348
L516.453 36.7744
L517.042 37.4881
L518.22 39.1688
L518.809 39.9833
L519.595 41.1409
L520.184 41.7731
L523.326 45.9657
L524.111 46.6465
L524.897 47.6436
L525.682 48.7033
L526.468 49.3234
L527.253 50.2033
L528.431 51.6518
L529.413 52.3945
L530.395 53.4659
L531.377 54.6701
L532.359 55.2757
L533.34 56.1327
L534.519 57.4929
L535.108 58.0354
L536.286 58.6993
L537.464 59.6432
L538.839 61.093
L539.428 61.5875
L540.802 62.2424
L542.177 63.1809
L543.551 64.413
L544.533 65.3533
L547.282 66.5606
L548.853 67.6193
L550.62 69.1119
L551.209 69.5646
L552.977 70.0806
L554.744 70.8236
L556.511 71.823
L558.475 73.2179
L559.849 74.1486
L562.206 74.6768
L564.366 75.3831
L566.329 76.2435
L568.489 77.4512
L571.435 79.2016
L574.577 79.6969
L577.522 80.3836
L580.271 81.2613
L582.824 82.3218
L585.377 83.6296
L587.733 84.8298
L589.304 84.9772
L593.82 85.4986
L597.944 86.1918
L601.675 87.0356
L605.209 88.0655
L608.351 89.2071
L612.279 90.907
L613.457 91.3316
L614.635 91.402
L622.293 91.8616
L629.166 92.4895
L635.449 93.278
L641.34 94.2415
L646.642 95.3328
L651.551 96.5719
L656.068 97.9434
L659.995 99.1344
L665.689 99.2472
L681.399 99.6948
L695.144 100.296
L696.519 100.459
L697.108 100.698
L697.5 101.068
L697.893 101.861
L698.286 103.689
L698.482 105.48
L698.679 108.474
L698.875 113.772
L699.071 128.207
L699.071 128.207" style="fill:none;stroke:#0000ff;stroke-linecap:square;stroke-width:2;"/>
   </g>
   <g id="line2d_92">
    <path clip-path="url(#pf79c9a8b10)" d="
M502.708 236.615
L502.904 236.8
L503.886 236.782
L504.082 236.631
L504.279 236.628
L505.457 235.675
L505.849 235.282
L507.813 232.791
L515.275 221.439
L515.864 220.579
L516.453 219.639
L517.042 218.926
L518.22 217.245
L518.809 216.43
L519.595 215.273
L520.184 214.641
L523.326 210.448
L524.111 209.767
L524.897 208.77
L525.682 207.71
L526.468 207.09
L527.253 206.21
L528.431 204.762
L529.413 204.019
L530.395 202.948
L531.377 201.744
L532.359 201.138
L533.34 200.281
L534.519 198.921
L535.108 198.378
L536.286 197.714
L537.464 196.771
L538.839 195.321
L539.428 194.826
L540.802 194.171
L542.177 193.233
L543.551 192.001
L544.533 191.06
L547.282 189.853
L548.853 188.794
L550.62 187.302
L551.209 186.849
L552.977 186.333
L554.744 185.59
L556.511 184.591
L558.475 183.196
L559.849 182.265
L562.206 181.737
L564.366 181.031
L566.329 180.17
L568.489 178.963
L571.435 177.212
L574.577 176.717
L577.522 176.03
L580.271 175.152
L582.824 174.092
L585.377 172.784
L587.733 171.584
L589.304 171.437
L593.82 170.915
L597.944 170.222
L601.675 169.378
L605.209 168.348
L608.351 167.207
L612.279 165.507
L613.457 165.082
L614.635 165.012
L622.293 164.552
L629.166 163.924
L635.449 163.136
L641.34 162.172
L646.642 161.081
L651.551 159.842
L656.068 158.47
L659.995 157.279
L665.689 157.167
L681.399 156.719
L695.144 156.117
L696.519 155.955
L697.108 155.716
L697.5 155.346
L697.893 154.552
L698.286 152.725
L698.482 150.933
L698.679 147.939
L698.875 142.642
L699.071 128.207
L699.071 128.207" style="fill:none;stroke:#008000;stroke-linecap:square;stroke-width:2;"/>
   </g>
   <g id="patch_15">
    <path d="
M502.708 13.0069
L699.071 13.0069" style="fill:none;stroke:#000000;stroke-linecap:square;stroke-linejoin:miter;"/>
   </g>
   <g id="patch_16">
    <path d="
M699.071 243.407
L699.071 13.0069" style="fill:none;stroke:#000000;stroke-linecap:square;stroke-linejoin:miter;"/>
   </g>
   <g id="patch_17">
    <path d="
M502.708 243.407
L699.071 243.407" style="fill:none;stroke:#000000;stroke-linecap:square;stroke-linejoin:miter;"/>
   </g>
   <g id="patch_18">
    <path d="
M502.708 243.407
L502.708 13.0069" style="fill:none;stroke:#000000;stroke-linecap:square;stroke-linejoin:miter;"/>
   </g>
   <g id="matplotlib.axis_5">
    <g id="xtick_14">
     <g id="line2d_93">
      <g>
       <use style="stroke:#000000;stroke-width:0.5;" x="502.707613636" xlink:href="#m93b0483c22" y="243.406875"/>
      </g>
     </g>
     <g id="line2d_94">
      <g>
       <use style="stroke:#000000;stroke-width:0.5;" x="502.707613636" xlink:href="#m741efc42ff" y="13.006875"/>
      </g>
     </g>
     <g id="text_34">
      <!-- 0 -->
      <g transform="translate(499.684176136 256.525)scale(0.12 -0.12)">
       <use xlink:href="#BitstreamVeraSans-Roman-30"/>
      </g>
     </g>
    </g>
    <g id="xtick_15">
     <g id="line2d_95">
      <g>
       <use style="stroke:#000000;stroke-width:0.5;" x="541.980340909" xlink:href="#m93b0483c22" y="243.406875"/>
      </g>
     </g>
     <g id="line2d_96">
      <g>
       <use style="stroke:#000000;stroke-width:0.5;" x="541.980340909" xlink:href="#m741efc42ff" y="13.006875"/>
      </g>
     </g>
     <g id="text_35">
      <!-- 2 -->
      <g transform="translate(539.203465909 256.525)scale(0.12 -0.12)">
       <use xlink:href="#BitstreamVeraSans-Roman-32"/>
      </g>
     </g>
    </g>
    <g id="xtick_16">
     <g id="line2d_97">
      <g>
       <use style="stroke:#000000;stroke-width:0.5;" x="581.253068182" xlink:href="#m93b0483c22" y="243.406875"/>
      </g>
     </g>
     <g id="line2d_98">
      <g>
       <use style="stroke:#000000;stroke-width:0.5;" x="581.253068182" xlink:href="#m741efc42ff" y="13.006875"/>
      </g>
     </g>
     <g id="text_36">
      <!-- 4 -->
      <g transform="translate(578.065568182 256.525)scale(0.12 -0.12)">
       <use xlink:href="#BitstreamVeraSans-Roman-34"/>
      </g>
     </g>
    </g>
    <g id="xtick_17">
     <g id="line2d_99">
      <g>
       <use style="stroke:#000000;stroke-width:0.5;" x="620.525795455" xlink:href="#m93b0483c22" y="243.406875"/>
      </g>
     </g>
     <g id="line2d_100">
      <g>
       <use style="stroke:#000000;stroke-width:0.5;" x="620.525795455" xlink:href="#m741efc42ff" y="13.006875"/>
      </g>
     </g>
     <g id="text_37">
      <!-- 6 -->
      <g transform="translate(617.505170455 256.525)scale(0.12 -0.12)">
       <use xlink:href="#BitstreamVeraSans-Roman-36"/>
      </g>
     </g>
    </g>
    <g id="xtick_18">
     <g id="line2d_101">
      <g>
       <use style="stroke:#000000;stroke-width:0.5;" x="659.798522727" xlink:href="#m93b0483c22" y="243.406875"/>
      </g>
     </g>
     <g id="line2d_102">
      <g>
       <use style="stroke:#000000;stroke-width:0.5;" x="659.798522727" xlink:href="#m741efc42ff" y="13.006875"/>
      </g>
     </g>
     <g id="text_38">
      <!-- 8 -->
      <g transform="translate(656.798522727 256.525)scale(0.12 -0.12)">
       <use xlink:href="#BitstreamVeraSans-Roman-38"/>
      </g>
     </g>
    </g>
    <g id="xtick_19">
     <g id="line2d_103">
      <g>
       <use style="stroke:#000000;stroke-width:0.5;" x="699.07125" xlink:href="#m93b0483c22" y="243.406875"/>
      </g>
     </g>
     <g id="line2d_104">
      <g>
       <use style="stroke:#000000;stroke-width:0.5;" x="699.07125" xlink:href="#m741efc42ff" y="13.006875"/>
      </g>
     </g>
     <g id="text_39">
      <!-- 10 -->
      <g transform="translate(692.49375 256.525)scale(0.12 -0.12)">
       <use xlink:href="#BitstreamVeraSans-Roman-31"/>
       <use x="63.623046875" xlink:href="#BitstreamVeraSans-Roman-30"/>
      </g>
     </g>
    </g>
    <g id="text_40">
     <!-- T [s] -->
     <g transform="translate(588.008181818 273.13875)scale(0.12 -0.12)">
      <use xlink:href="#BitstreamVeraSans-Roman-54"/>
      <use x="61.083984375" xlink:href="#BitstreamVeraSans-Roman-20"/>
      <use x="92.87109375" xlink:href="#BitstreamVeraSans-Roman-5b"/>
      <use x="131.884765625" xlink:href="#BitstreamVeraSans-Roman-73"/>
      <use x="183.984375" xlink:href="#BitstreamVeraSans-Roman-5d"/>
     </g>
    </g>
   </g>
   <g id="matplotlib.axis_6">
    <g id="ytick_19">
     <g id="line2d_105">
      <g>
       <use style="stroke:#000000;stroke-width:0.5;" x="502.707613636" xlink:href="#m728421d6d4" y="243.406875"/>
      </g>
     </g>
     <g id="line2d_106">
      <g>
       <use style="stroke:#000000;stroke-width:0.5;" x="699.07125" xlink:href="#mcb0005524f" y="243.406875"/>
      </g>
     </g>
    </g>
    <g id="ytick_20">
     <g id="line2d_107">
      <g>
       <use style="stroke:#000000;stroke-width:0.5;" x="502.707613636" xlink:href="#m728421d6d4" y="214.606875"/>
      </g>
     </g>
     <g id="line2d_108">
      <g>
       <use style="stroke:#000000;stroke-width:0.5;" x="699.07125" xlink:href="#mcb0005524f" y="214.606875"/>
      </g>
     </g>
    </g>
    <g id="ytick_21">
     <g id="line2d_109">
      <g>
       <use style="stroke:#000000;stroke-width:0.5;" x="502.707613636" xlink:href="#m728421d6d4" y="185.806875"/>
      </g>
     </g>
     <g id="line2d_110">
      <g>
       <use style="stroke:#000000;stroke-width:0.5;" x="699.07125" xlink:href="#mcb0005524f" y="185.806875"/>
      </g>
     </g>
    </g>
    <g id="ytick_22">
     <g id="line2d_111">
      <g>
       <use style="stroke:#000000;stroke-width:0.5;" x="502.707613636" xlink:href="#m728421d6d4" y="157.006875"/>
      </g>
     </g>
     <g id="line2d_112">
      <g>
       <use style="stroke:#000000;stroke-width:0.5;" x="699.07125" xlink:href="#mcb0005524f" y="157.006875"/>
      </g>
     </g>
    </g>
    <g id="ytick_23">
     <g id="line2d_113">
      <g>
       <use style="stroke:#000000;stroke-width:0.5;" x="502.707613636" xlink:href="#m728421d6d4" y="128.206875"/>
      </g>
     </g>
     <g id="line2d_114">
      <g>
       <use style="stroke:#000000;stroke-width:0.5;" x="699.07125" xlink:href="#mcb0005524f" y="128.206875"/>
      </g>
     </g>
    </g>
    <g id="ytick_24">
     <g id="line2d_115">
      <g>
       <use style="stroke:#000000;stroke-width:0.5;" x="502.707613636" xlink:href="#m728421d6d4" y="99.406875"/>
      </g>
     </g>
     <g id="line2d_116">
      <g>
       <use style="stroke:#000000;stroke-width:0.5;" x="699.07125" xlink:href="#mcb0005524f" y="99.406875"/>
      </g>
     </g>
    </g>
    <g id="ytick_25">
     <g id="line2d_117">
      <g>
       <use style="stroke:#000000;stroke-width:0.5;" x="502.707613636" xlink:href="#m728421d6d4" y="70.606875"/>
      </g>
     </g>
     <g id="line2d_118">
      <g>
       <use style="stroke:#000000;stroke-width:0.5;" x="699.07125" xlink:href="#mcb0005524f" y="70.606875"/>
      </g>
     </g>
    </g>
    <g id="ytick_26">
     <g id="line2d_119">
      <g>
       <use style="stroke:#000000;stroke-width:0.5;" x="502.707613636" xlink:href="#m728421d6d4" y="41.806875"/>
      </g>
     </g>
     <g id="line2d_120">
      <g>
       <use style="stroke:#000000;stroke-width:0.5;" x="699.07125" xlink:href="#mcb0005524f" y="41.806875"/>
      </g>
     </g>
    </g>
    <g id="ytick_27">
     <g id="line2d_121">
      <g>
       <use style="stroke:#000000;stroke-width:0.5;" x="502.707613636" xlink:href="#m728421d6d4" y="13.006875"/>
      </g>
     </g>
     <g id="line2d_122">
      <g>
       <use style="stroke:#000000;stroke-width:0.5;" x="699.07125" xlink:href="#mcb0005524f" y="13.006875"/>
      </g>
     </g>
    </g>
   </g>
   <g id="text_41">
    <!-- C -->
    <defs>
     <path d="
M64.4062 67.2812
L64.4062 56.8906
Q59.4219 61.5312 53.7812 63.8125
Q48.1406 66.1094 41.7969 66.1094
Q29.2969 66.1094 22.6562 58.4688
Q16.0156 50.8281 16.0156 36.375
Q16.0156 21.9688 22.6562 14.3281
Q29.2969 6.6875 41.7969 6.6875
Q48.1406 6.6875 53.7812 8.98438
Q59.4219 11.2812 64.4062 15.9219
L64.4062 5.60938
Q59.2344 2.09375 53.4375 0.328125
Q47.6562 -1.42188 41.2188 -1.42188
Q24.6562 -1.42188 15.125 8.70312
Q5.60938 18.8438 5.60938 36.375
Q5.60938 53.9531 15.125 64.0781
Q24.6562 74.2188 41.2188 74.2188
Q47.75 74.2188 53.5312 72.4844
Q59.3281 70.75 64.4062 67.2812" id="BitstreamVeraSans-Roman-43"/>
    </defs>
    <g transform="translate(478.778181818 26.635125)scale(0.24 -0.24)">
     <use xlink:href="#BitstreamVeraSans-Roman-43"/>
    </g>
   </g>
   <g id="legend_3">
    <g id="patch_19">
     <path d="
M577.702 87.9364
L688.991 87.9364
Q691.871 87.9364 691.871 85.0564
L691.871 23.0869
Q691.871 20.2069 688.991 20.2069
L577.702 20.2069
Q574.822 20.2069 574.822 23.0869
L574.822 85.0564
Q574.822 87.9364 577.702 87.9364
z
" style="fill:#ffffff;opacity:0.5;stroke:#000000;stroke-linejoin:miter;"/>
    </g>
    <g id="line2d_123">
     <path d="
M584.902 31.8686
L605.062 31.8686" style="fill:none;stroke:#0000ff;stroke-dasharray:1.000000,3.000000;stroke-dashoffset:0.0;stroke-width:2;"/>
    </g>
    <g id="line2d_124"/>
    <g id="text_42">
     <!-- dt=40ms -->
     <defs>
      <path d="
M52 44.1875
Q55.375 50.25 60.0625 53.125
Q64.75 56 71.0938 56
Q79.6406 56 84.2812 50.0156
Q88.9219 44.0469 88.9219 33.0156
L88.9219 0
L79.8906 0
L79.8906 32.7188
Q79.8906 40.5781 77.0938 44.375
Q74.3125 48.1875 68.6094 48.1875
Q61.625 48.1875 57.5625 43.5469
Q53.5156 38.9219 53.5156 30.9062
L53.5156 0
L44.4844 0
L44.4844 32.7188
Q44.4844 40.625 41.7031 44.4062
Q38.9219 48.1875 33.1094 48.1875
Q26.2188 48.1875 22.1562 43.5312
Q18.1094 38.875 18.1094 30.9062
L18.1094 0
L9.07812 0
L9.07812 54.6875
L18.1094 54.6875
L18.1094 46.1875
Q21.1875 51.2188 25.4844 53.6094
Q29.7812 56 35.6875 56
Q41.6562 56 45.8281 52.9688
Q50 49.9531 52 44.1875" id="BitstreamVeraSans-Roman-6d"/>
      <path d="
M18.3125 70.2188
L18.3125 54.6875
L36.8125 54.6875
L36.8125 47.7031
L18.3125 47.7031
L18.3125 18.0156
Q18.3125 11.3281 20.1406 9.42188
Q21.9688 7.51562 27.5938 7.51562
L36.8125 7.51562
L36.8125 0
L27.5938 0
Q17.1875 0 13.2344 3.875
Q9.28125 7.76562 9.28125 18.0156
L9.28125 47.7031
L2.6875 47.7031
L2.6875 54.6875
L9.28125 54.6875
L9.28125 70.2188
z
" id="BitstreamVeraSans-Roman-74"/>
     </defs>
     <g transform="translate(620.90175 36.908625)scale(0.144 -0.144)">
      <use xlink:href="#BitstreamVeraSans-Roman-64"/>
      <use x="63.4765625" xlink:href="#BitstreamVeraSans-Roman-74"/>
      <use x="102.685546875" xlink:href="#BitstreamVeraSans-Roman-3d"/>
      <use x="186.474609375" xlink:href="#BitstreamVeraSans-Roman-34"/>
      <use x="250.09765625" xlink:href="#BitstreamVeraSans-Roman-30"/>
      <use x="313.720703125" xlink:href="#BitstreamVeraSans-Roman-6d"/>
      <use x="411.1328125" xlink:href="#BitstreamVeraSans-Roman-73"/>
     </g>
    </g>
    <g id="line2d_125">
     <path d="
M584.902 53.0051
L605.062 53.0051" style="fill:none;stroke:#0000ff;stroke-dasharray:6.000000,6.000000;stroke-dashoffset:0.0;stroke-width:2;"/>
    </g>
    <g id="line2d_126"/>
    <g id="text_43">
     <!-- dt=20ms -->
     <g transform="translate(620.90175 58.045125)scale(0.144 -0.144)">
      <use xlink:href="#BitstreamVeraSans-Roman-64"/>
      <use x="63.4765625" xlink:href="#BitstreamVeraSans-Roman-74"/>
      <use x="102.685546875" xlink:href="#BitstreamVeraSans-Roman-3d"/>
      <use x="186.474609375" xlink:href="#BitstreamVeraSans-Roman-32"/>
      <use x="250.09765625" xlink:href="#BitstreamVeraSans-Roman-30"/>
      <use x="313.720703125" xlink:href="#BitstreamVeraSans-Roman-6d"/>
      <use x="411.1328125" xlink:href="#BitstreamVeraSans-Roman-73"/>
     </g>
    </g>
    <g id="line2d_127">
     <path d="
M584.902 74.1416
L605.062 74.1416" style="fill:none;stroke:#0000ff;stroke-linecap:square;stroke-width:2;"/>
    </g>
    <g id="line2d_128"/>
    <g id="text_44">
     <!-- dt=10ms -->
     <g transform="translate(620.90175 79.181625)scale(0.144 -0.144)">
      <use xlink:href="#BitstreamVeraSans-Roman-64"/>
      <use x="63.4765625" xlink:href="#BitstreamVeraSans-Roman-74"/>
      <use x="102.685546875" xlink:href="#BitstreamVeraSans-Roman-3d"/>
      <use x="186.474609375" xlink:href="#BitstreamVeraSans-Roman-31"/>
      <use x="250.09765625" xlink:href="#BitstreamVeraSans-Roman-30"/>
      <use x="313.720703125" xlink:href="#BitstreamVeraSans-Roman-6d"/>
      <use x="411.1328125" xlink:href="#BitstreamVeraSans-Roman-73"/>
     </g>
    </g>
   </g>
  </g>
 </g>
 <defs>
  <clipPath id="p0bd09640ac">
   <rect height="230.4" width="196.363636364" x="276.889431818" y="13.006875"/>
  </clipPath>
  <clipPath id="pf79c9a8b10">
   <rect height="230.4" width="196.363636364" x="502.707613636" y="13.006875"/>
  </clipPath>
  <clipPath id="pf691a841ad">
   <rect height="230.4" width="196.363636364" x="51.07125" y="13.006875"/>
  </clipPath>
 </defs>
</svg>
