<?xml version="1.0" encoding="utf-8" standalone="no"?>
<!DOCTYPE svg PUBLIC "-//W3C//DTD SVG 1.1//EN"
  "http://www.w3.org/Graphics/SVG/1.1/DTD/svg11.dtd">
<!-- Created with matplotlib (http://matplotlib.org/) -->
<svg height="282pt" version="1.1" viewBox="0 0 622 282" width="622pt" xmlns="http://www.w3.org/2000/svg" xmlns:xlink="http://www.w3.org/1999/xlink">
 <defs>
  <style type="text/css">
*{stroke-linecap:butt;stroke-linejoin:round;}
  </style>
 </defs>
 <g id="figure_1">
  <g id="patch_1">
   <path d="
M0 282.834
L622.849 282.834
L622.849 0
L0 0
z
" style="fill:#ffffff;"/>
  </g>
  <g id="axes_1">
   <g id="patch_2">
    <path d="
M51.0712 243.407
L215.189 243.407
L215.189 13.0069
L51.0712 13.0069
z
" style="fill:#ffffff;"/>
   </g>
   <g id="line2d_1">
    <path clip-path="url(#p62c1edccab)" d="
M51.0712 51.7498
L51.2901 50.8903
L51.5089 50.3951
L51.7277 50.2262
L51.9465 50.2208
L52.3842 50.6884
L53.0407 52.1172
L54.1348 55.3183
L56.323 62.1989
L58.2924 67.9012
L59.6054 71.1844
L60.6995 73.7674
L61.356 75.1404
L63.5442 79.5713
L64.4195 80.9546
L65.5136 82.8113
L66.6077 84.4323
L67.483 85.7771
L68.5771 87.072
L70.3277 89.3502
L71.6407 90.6439
L74.0477 93.2333
L75.5795 94.3978
L77.1112 95.84
L78.643 97.2707
L80.8312 98.4115
L82.8007 99.6812
L84.9889 101.382
L86.083 102.152
L89.3654 103.284
L92.6477 104.659
L95.7113 106.194
L99.2124 108.03
L104.245 109.064
L104.683 109.288
L104.902 109.552
L105.121 110.115
L105.339 111.412
L105.558 114.621
L105.777 128.207
L105.777 128.207" style="fill:none;stroke:#0000ff;stroke-dasharray:1.000000,3.000000;stroke-dashoffset:0.0;stroke-width:2;"/>
   </g>
   <g id="line2d_2">
    <path clip-path="url(#p62c1edccab)" d="
M51.0712 204.664
L51.2901 205.524
L51.5089 206.019
L51.7277 206.188
L51.9465 206.193
L52.3842 205.725
L53.0407 204.297
L54.1348 201.095
L56.323 194.215
L58.2924 188.513
L59.6054 185.229
L60.6995 182.646
L61.356 181.273
L63.5442 176.842
L64.4195 175.459
L65.5136 173.602
L66.6077 171.981
L67.483 170.637
L68.5771 169.342
L70.3277 167.064
L71.6407 165.77
L74.0477 163.18
L75.5795 162.016
L77.1112 160.574
L78.643 159.143
L80.8312 158.002
L82.8007 156.733
L84.9889 155.032
L86.083 154.262
L89.3654 153.13
L92.6477 151.755
L95.7113 150.22
L99.2124 148.384
L104.245 147.35
L104.683 147.126
L104.902 146.862
L105.121 146.299
L105.339 145.002
L105.558 141.793
L105.777 128.207
L105.777 128.207" style="fill:none;stroke:#008000;stroke-dasharray:1.000000,3.000000;stroke-dashoffset:0.0;stroke-width:2;"/>
   </g>
   <g id="line2d_3">
    <path clip-path="url(#p62c1edccab)" d="
M51.0712 51.7498
L51.2901 50.8903
L51.5089 50.3951
L51.7277 50.2262
L51.9465 50.2208
L52.3842 50.6884
L53.0407 52.1172
L54.1348 55.3183
L56.323 62.1989
L58.2924 67.9012
L59.6054 71.1844
L60.6995 73.7674
L61.356 75.1404
L63.5442 79.5713
L64.4195 80.9546
L65.5136 82.8113
L66.6077 84.4323
L67.483 85.7771
L68.5771 87.072
L70.3277 89.3502
L71.6407 90.6439
L74.0477 93.2333
L75.5795 94.3978
L77.1112 95.84
L78.643 97.2707
L80.8312 98.4115
L82.8007 99.6812
L84.9889 101.382
L86.083 102.152
L89.3654 103.284
L92.6477 104.659
L95.7113 106.194
L99.2124 108.03
L105.996 109.414
L112.342 110.929
L118.469 112.62
L124.158 114.423
L127.659 115.525
L159.608 118.501
L159.827 118.596
L160.045 118.955
L160.264 120.528
L160.483 128.207
L160.483 128.207" style="fill:none;stroke:#0000ff;stroke-dasharray:6.000000,6.000000;stroke-dashoffset:0.0;stroke-width:2;"/>
   </g>
   <g id="line2d_4">
    <path clip-path="url(#p62c1edccab)" d="
M51.0712 204.664
L51.2901 205.524
L51.5089 206.019
L51.7277 206.188
L51.9465 206.193
L52.3842 205.725
L53.0407 204.297
L54.1348 201.095
L56.323 194.215
L58.2924 188.513
L59.6054 185.229
L60.6995 182.646
L61.356 181.273
L63.5442 176.842
L64.4195 175.459
L65.5136 173.602
L66.6077 171.981
L67.483 170.637
L68.5771 169.342
L70.3277 167.064
L71.6407 165.77
L74.0477 163.18
L75.5795 162.016
L77.1112 160.574
L78.643 159.143
L80.8312 158.002
L82.8007 156.733
L84.9889 155.032
L86.083 154.262
L89.3654 153.13
L92.6477 151.755
L95.7113 150.22
L99.2124 148.384
L105.996 147
L112.342 145.485
L118.469 143.793
L124.158 141.991
L127.659 140.889
L159.608 137.913
L159.827 137.817
L160.045 137.459
L160.264 135.885
L160.483 128.207
L160.483 128.207" style="fill:none;stroke:#008000;stroke-dasharray:6.000000,6.000000;stroke-dashoffset:0.0;stroke-width:2;"/>
   </g>
   <g id="line2d_5">
    <path clip-path="url(#p62c1edccab)" d="
M51.0712 51.7498
L51.2901 50.8903
L51.5089 50.3951
L51.7277 50.2262
L51.9465 50.2208
L52.3842 50.6884
L53.0407 52.1172
L54.1348 55.3183
L56.323 62.1989
L58.2924 67.9012
L59.6054 71.1844
L60.6995 73.7674
L61.356 75.1404
L63.5442 79.5713
L64.4195 80.9546
L65.5136 82.8113
L66.6077 84.4323
L67.483 85.7771
L68.5771 87.072
L70.3277 89.3502
L71.6407 90.6439
L74.0477 93.2333
L75.5795 94.3978
L77.1112 95.84
L78.643 97.2707
L80.8312 98.4115
L82.8007 99.6812
L84.9889 101.382
L86.083 102.152
L89.3654 103.284
L92.6477 104.659
L95.7113 106.194
L99.2124 108.03
L105.996 109.414
L112.342 110.929
L118.469 112.62
L124.158 114.423
L127.659 115.525
L185.867 120.983
L214.314 123.849
L214.532 123.931
L214.751 124.174
L214.97 125.019
L215.189 128.207
L215.189 128.207" style="fill:none;stroke:#0000ff;stroke-linecap:square;stroke-width:2;"/>
   </g>
   <g id="line2d_6">
    <path clip-path="url(#p62c1edccab)" d="
M51.0712 204.664
L51.2901 205.524
L51.5089 206.019
L51.7277 206.188
L51.9465 206.193
L52.3842 205.725
L53.0407 204.297
L54.1348 201.095
L56.323 194.215
L58.2924 188.513
L59.6054 185.229
L60.6995 182.646
L61.356 181.273
L63.5442 176.842
L64.4195 175.459
L65.5136 173.602
L66.6077 171.981
L67.483 170.637
L68.5771 169.342
L70.3277 167.064
L71.6407 165.77
L74.0477 163.18
L75.5795 162.016
L77.1112 160.574
L78.643 159.143
L80.8312 158.002
L82.8007 156.733
L84.9889 155.032
L86.083 154.262
L89.3654 153.13
L92.6477 151.755
L95.7113 150.22
L99.2124 148.384
L105.996 147
L112.342 145.485
L118.469 143.793
L124.158 141.991
L127.659 140.889
L185.867 135.431
L214.314 132.565
L214.532 132.483
L214.751 132.24
L214.97 131.395
L215.189 128.207
L215.189 128.207" style="fill:none;stroke:#008000;stroke-linecap:square;stroke-width:2;"/>
   </g>
   <g id="patch_3">
    <path d="
M51.0712 13.0069
L215.189 13.0069" style="fill:none;stroke:#000000;stroke-linecap:square;stroke-linejoin:miter;"/>
   </g>
   <g id="patch_4">
    <path d="
M215.189 243.407
L215.189 13.0069" style="fill:none;stroke:#000000;stroke-linecap:square;stroke-linejoin:miter;"/>
   </g>
   <g id="patch_5">
    <path d="
M51.0712 243.407
L215.189 243.407" style="fill:none;stroke:#000000;stroke-linecap:square;stroke-linejoin:miter;"/>
   </g>
   <g id="patch_6">
    <path d="
M51.0712 243.407
L51.0712 13.0069" style="fill:none;stroke:#000000;stroke-linecap:square;stroke-linejoin:miter;"/>
   </g>
   <g id="matplotlib.axis_1">
    <g id="xtick_1">
     <g id="line2d_7">
      <defs>
       <path d="
M0 0
L0 -4" id="m93b0483c22" style="stroke:#000000;stroke-width:0.5;"/>
      </defs>
      <g>
       <use style="stroke:#000000;stroke-width:0.5;" x="51.07125" xlink:href="#m93b0483c22" y="243.406875"/>
      </g>
     </g>
     <g id="line2d_8">
      <defs>
       <path d="
M0 0
L0 4" id="m741efc42ff" style="stroke:#000000;stroke-width:0.5;"/>
      </defs>
      <g>
       <use style="stroke:#000000;stroke-width:0.5;" x="51.07125" xlink:href="#m741efc42ff" y="13.006875"/>
      </g>
     </g>
     <g id="text_1">
      <!-- 0 -->
      <defs>
       <path d="
M31.7812 66.4062
Q24.1719 66.4062 20.3281 58.9062
Q16.5 51.4219 16.5 36.375
Q16.5 21.3906 20.3281 13.8906
Q24.1719 6.39062 31.7812 6.39062
Q39.4531 6.39062 43.2812 13.8906
Q47.125 21.3906 47.125 36.375
Q47.125 51.4219 43.2812 58.9062
Q39.4531 66.4062 31.7812 66.4062
M31.7812 74.2188
Q44.0469 74.2188 50.5156 64.5156
Q56.9844 54.8281 56.9844 36.375
Q56.9844 17.9688 50.5156 8.26562
Q44.0469 -1.42188 31.7812 -1.42188
Q19.5312 -1.42188 13.0625 8.26562
Q6.59375 17.9688 6.59375 36.375
Q6.59375 54.8281 13.0625 64.5156
Q19.5312 74.2188 31.7812 74.2188" id="BitstreamVeraSans-Roman-30"/>
      </defs>
      <g transform="translate(48.0478125 256.525)scale(0.12 -0.12)">
       <use xlink:href="#BitstreamVeraSans-Roman-30"/>
      </g>
     </g>
    </g>
    <g id="xtick_2">
     <g id="line2d_9">
      <g>
       <use style="stroke:#000000;stroke-width:0.5;" x="78.4241911765" xlink:href="#m93b0483c22" y="243.406875"/>
      </g>
     </g>
     <g id="line2d_10">
      <g>
       <use style="stroke:#000000;stroke-width:0.5;" x="78.4241911765" xlink:href="#m741efc42ff" y="13.006875"/>
      </g>
     </g>
     <g id="text_2">
      <!-- 5 -->
      <defs>
       <path d="
M10.7969 72.9062
L49.5156 72.9062
L49.5156 64.5938
L19.8281 64.5938
L19.8281 46.7344
Q21.9688 47.4688 24.1094 47.8281
Q26.2656 48.1875 28.4219 48.1875
Q40.625 48.1875 47.75 41.5
Q54.8906 34.8125 54.8906 23.3906
Q54.8906 11.625 47.5625 5.09375
Q40.2344 -1.42188 26.9062 -1.42188
Q22.3125 -1.42188 17.5469 -0.640625
Q12.7969 0.140625 7.71875 1.70312
L7.71875 11.625
Q12.1094 9.23438 16.7969 8.0625
Q21.4844 6.89062 26.7031 6.89062
Q35.1562 6.89062 40.0781 11.3281
Q45.0156 15.7656 45.0156 23.3906
Q45.0156 31 40.0781 35.4375
Q35.1562 39.8906 26.7031 39.8906
Q22.75 39.8906 18.8125 39.0156
Q14.8906 38.1406 10.7969 36.2812
z
" id="BitstreamVeraSans-Roman-35"/>
      </defs>
      <g transform="translate(75.5938786765 256.525)scale(0.12 -0.12)">
       <use xlink:href="#BitstreamVeraSans-Roman-35"/>
      </g>
     </g>
    </g>
    <g id="xtick_3">
     <g id="line2d_11">
      <g>
       <use style="stroke:#000000;stroke-width:0.5;" x="105.777132353" xlink:href="#m93b0483c22" y="243.406875"/>
      </g>
     </g>
     <g id="line2d_12">
      <g>
       <use style="stroke:#000000;stroke-width:0.5;" x="105.777132353" xlink:href="#m741efc42ff" y="13.006875"/>
      </g>
     </g>
     <g id="text_3">
      <!-- 10 -->
      <defs>
       <path d="
M12.4062 8.29688
L28.5156 8.29688
L28.5156 63.9219
L10.9844 60.4062
L10.9844 69.3906
L28.4219 72.9062
L38.2812 72.9062
L38.2812 8.29688
L54.3906 8.29688
L54.3906 0
L12.4062 0
z
" id="BitstreamVeraSans-Roman-31"/>
      </defs>
      <g transform="translate(99.1996323529 256.525)scale(0.12 -0.12)">
       <use xlink:href="#BitstreamVeraSans-Roman-31"/>
       <use x="63.623046875" xlink:href="#BitstreamVeraSans-Roman-30"/>
      </g>
     </g>
    </g>
    <g id="xtick_4">
     <g id="line2d_13">
      <g>
       <use style="stroke:#000000;stroke-width:0.5;" x="133.130073529" xlink:href="#m93b0483c22" y="243.406875"/>
      </g>
     </g>
     <g id="line2d_14">
      <g>
       <use style="stroke:#000000;stroke-width:0.5;" x="133.130073529" xlink:href="#m741efc42ff" y="13.006875"/>
      </g>
     </g>
     <g id="text_4">
      <!-- 15 -->
      <g transform="translate(126.678198529 256.525)scale(0.12 -0.12)">
       <use xlink:href="#BitstreamVeraSans-Roman-31"/>
       <use x="63.623046875" xlink:href="#BitstreamVeraSans-Roman-35"/>
      </g>
     </g>
    </g>
    <g id="xtick_5">
     <g id="line2d_15">
      <g>
       <use style="stroke:#000000;stroke-width:0.5;" x="160.483014706" xlink:href="#m93b0483c22" y="243.406875"/>
      </g>
     </g>
     <g id="line2d_16">
      <g>
       <use style="stroke:#000000;stroke-width:0.5;" x="160.483014706" xlink:href="#m741efc42ff" y="13.006875"/>
      </g>
     </g>
     <g id="text_5">
      <!-- 20 -->
      <defs>
       <path d="
M19.1875 8.29688
L53.6094 8.29688
L53.6094 0
L7.32812 0
L7.32812 8.29688
Q12.9375 14.1094 22.625 23.8906
Q32.3281 33.6875 34.8125 36.5312
Q39.5469 41.8438 41.4219 45.5312
Q43.3125 49.2188 43.3125 52.7812
Q43.3125 58.5938 39.2344 62.25
Q35.1562 65.9219 28.6094 65.9219
Q23.9688 65.9219 18.8125 64.3125
Q13.6719 62.7031 7.8125 59.4219
L7.8125 69.3906
Q13.7656 71.7812 18.9375 73
Q24.125 74.2188 28.4219 74.2188
Q39.75 74.2188 46.4844 68.5469
Q53.2188 62.8906 53.2188 53.4219
Q53.2188 48.9219 51.5312 44.8906
Q49.8594 40.875 45.4062 35.4062
Q44.1875 33.9844 37.6406 27.2188
Q31.1094 20.4531 19.1875 8.29688" id="BitstreamVeraSans-Roman-32"/>
      </defs>
      <g transform="translate(153.686139706 256.525)scale(0.12 -0.12)">
       <use xlink:href="#BitstreamVeraSans-Roman-32"/>
       <use x="63.623046875" xlink:href="#BitstreamVeraSans-Roman-30"/>
      </g>
     </g>
    </g>
    <g id="xtick_6">
     <g id="line2d_17">
      <g>
       <use style="stroke:#000000;stroke-width:0.5;" x="187.835955882" xlink:href="#m93b0483c22" y="243.406875"/>
      </g>
     </g>
     <g id="line2d_18">
      <g>
       <use style="stroke:#000000;stroke-width:0.5;" x="187.835955882" xlink:href="#m741efc42ff" y="13.006875"/>
      </g>
     </g>
     <g id="text_6">
      <!-- 25 -->
      <g transform="translate(181.164705882 256.525)scale(0.12 -0.12)">
       <use xlink:href="#BitstreamVeraSans-Roman-32"/>
       <use x="63.623046875" xlink:href="#BitstreamVeraSans-Roman-35"/>
      </g>
     </g>
    </g>
    <g id="xtick_7">
     <g id="line2d_19">
      <g>
       <use style="stroke:#000000;stroke-width:0.5;" x="215.188897059" xlink:href="#m93b0483c22" y="243.406875"/>
      </g>
     </g>
     <g id="line2d_20">
      <g>
       <use style="stroke:#000000;stroke-width:0.5;" x="215.188897059" xlink:href="#m741efc42ff" y="13.006875"/>
      </g>
     </g>
     <g id="text_7">
      <!-- 30 -->
      <defs>
       <path d="
M40.5781 39.3125
Q47.6562 37.7969 51.625 33
Q55.6094 28.2188 55.6094 21.1875
Q55.6094 10.4062 48.1875 4.48438
Q40.7656 -1.42188 27.0938 -1.42188
Q22.5156 -1.42188 17.6562 -0.515625
Q12.7969 0.390625 7.625 2.20312
L7.625 11.7188
Q11.7188 9.32812 16.5938 8.10938
Q21.4844 6.89062 26.8125 6.89062
Q36.0781 6.89062 40.9375 10.5469
Q45.7969 14.2031 45.7969 21.1875
Q45.7969 27.6406 41.2812 31.2656
Q36.7656 34.9062 28.7188 34.9062
L20.2188 34.9062
L20.2188 43.0156
L29.1094 43.0156
Q36.375 43.0156 40.2344 45.9219
Q44.0938 48.8281 44.0938 54.2969
Q44.0938 59.9062 40.1094 62.9062
Q36.1406 65.9219 28.7188 65.9219
Q24.6562 65.9219 20.0156 65.0312
Q15.375 64.1562 9.8125 62.3125
L9.8125 71.0938
Q15.4375 72.6562 20.3438 73.4375
Q25.25 74.2188 29.5938 74.2188
Q40.8281 74.2188 47.3594 69.1094
Q53.9062 64.0156 53.9062 55.3281
Q53.9062 49.2656 50.4375 45.0938
Q46.9688 40.9219 40.5781 39.3125" id="BitstreamVeraSans-Roman-33"/>
      </defs>
      <g transform="translate(208.409834559 256.525)scale(0.12 -0.12)">
       <use xlink:href="#BitstreamVeraSans-Roman-33"/>
       <use x="63.623046875" xlink:href="#BitstreamVeraSans-Roman-30"/>
      </g>
     </g>
    </g>
    <g id="text_8">
     <!-- T [s] -->
     <defs>
      <path d="
M30.4219 75.9844
L30.4219 -13.1875
L9.71875 -13.1875
L9.71875 -6.20312
L21.3906 -6.20312
L21.3906 69
L9.71875 69
L9.71875 75.9844
z
" id="BitstreamVeraSans-Roman-5d"/>
      <path id="BitstreamVeraSans-Roman-20"/>
      <path d="
M8.59375 75.9844
L29.2969 75.9844
L29.2969 69
L17.5781 69
L17.5781 -6.20312
L29.2969 -6.20312
L29.2969 -13.1875
L8.59375 -13.1875
z
" id="BitstreamVeraSans-Roman-5b"/>
      <path d="
M-0.296875 72.9062
L61.375 72.9062
L61.375 64.5938
L35.5 64.5938
L35.5 0
L25.5938 0
L25.5938 64.5938
L-0.296875 64.5938
z
" id="BitstreamVeraSans-Roman-54"/>
      <path d="
M44.2812 53.0781
L44.2812 44.5781
Q40.4844 46.5312 36.375 47.5
Q32.2812 48.4844 27.875 48.4844
Q21.1875 48.4844 17.8438 46.4375
Q14.5 44.3906 14.5 40.2812
Q14.5 37.1562 16.8906 35.375
Q19.2812 33.5938 26.5156 31.9844
L29.5938 31.2969
Q39.1562 29.25 43.1875 25.5156
Q47.2188 21.7812 47.2188 15.0938
Q47.2188 7.46875 41.1875 3.01562
Q35.1562 -1.42188 24.6094 -1.42188
Q20.2188 -1.42188 15.4531 -0.5625
Q10.6875 0.296875 5.42188 2
L5.42188 11.2812
Q10.4062 8.6875 15.2344 7.39062
Q20.0625 6.10938 24.8125 6.10938
Q31.1562 6.10938 34.5625 8.28125
Q37.9844 10.4531 37.9844 14.4062
Q37.9844 18.0625 35.5156 20.0156
Q33.0625 21.9688 24.7031 23.7812
L21.5781 24.5156
Q13.2344 26.2656 9.51562 29.9062
Q5.8125 33.5469 5.8125 39.8906
Q5.8125 47.6094 11.2812 51.7969
Q16.75 56 26.8125 56
Q31.7812 56 36.1719 55.2656
Q40.5781 54.5469 44.2812 53.0781" id="BitstreamVeraSans-Roman-73"/>
     </defs>
     <g transform="translate(120.248823529 273.13875)scale(0.12 -0.12)">
      <use xlink:href="#BitstreamVeraSans-Roman-54"/>
      <use x="61.083984375" xlink:href="#BitstreamVeraSans-Roman-20"/>
      <use x="92.87109375" xlink:href="#BitstreamVeraSans-Roman-5b"/>
      <use x="131.884765625" xlink:href="#BitstreamVeraSans-Roman-73"/>
      <use x="183.984375" xlink:href="#BitstreamVeraSans-Roman-5d"/>
     </g>
    </g>
   </g>
   <g id="matplotlib.axis_2">
    <g id="ytick_1">
     <g id="line2d_21">
      <defs>
       <path d="
M0 0
L4 0" id="m728421d6d4" style="stroke:#000000;stroke-width:0.5;"/>
      </defs>
      <g>
       <use style="stroke:#000000;stroke-width:0.5;" x="51.07125" xlink:href="#m728421d6d4" y="243.406875"/>
      </g>
     </g>
     <g id="line2d_22">
      <defs>
       <path d="
M0 0
L-4 0" id="mcb0005524f" style="stroke:#000000;stroke-width:0.5;"/>
      </defs>
      <g>
       <use style="stroke:#000000;stroke-width:0.5;" x="215.188897059" xlink:href="#mcb0005524f" y="243.406875"/>
      </g>
     </g>
     <g id="text_9">
      <!-- −30 -->
      <defs>
       <path d="
M10.5938 35.5
L73.1875 35.5
L73.1875 27.2031
L10.5938 27.2031
z
" id="BitstreamVeraSans-Roman-2212"/>
      </defs>
      <g transform="translate(23.81375 246.718125)scale(0.12 -0.12)">
       <use xlink:href="#BitstreamVeraSans-Roman-2212"/>
       <use x="83.7890625" xlink:href="#BitstreamVeraSans-Roman-33"/>
       <use x="147.412109375" xlink:href="#BitstreamVeraSans-Roman-30"/>
      </g>
     </g>
    </g>
    <g id="ytick_2">
     <g id="line2d_23">
      <g>
       <use style="stroke:#000000;stroke-width:0.5;" x="51.07125" xlink:href="#m728421d6d4" y="205.006875"/>
      </g>
     </g>
     <g id="line2d_24">
      <g>
       <use style="stroke:#000000;stroke-width:0.5;" x="215.188897059" xlink:href="#mcb0005524f" y="205.006875"/>
      </g>
     </g>
     <g id="text_10">
      <!-- −20 -->
      <g transform="translate(23.81375 208.318125)scale(0.12 -0.12)">
       <use xlink:href="#BitstreamVeraSans-Roman-2212"/>
       <use x="83.7890625" xlink:href="#BitstreamVeraSans-Roman-32"/>
       <use x="147.412109375" xlink:href="#BitstreamVeraSans-Roman-30"/>
      </g>
     </g>
    </g>
    <g id="ytick_3">
     <g id="line2d_25">
      <g>
       <use style="stroke:#000000;stroke-width:0.5;" x="51.07125" xlink:href="#m728421d6d4" y="166.606875"/>
      </g>
     </g>
     <g id="line2d_26">
      <g>
       <use style="stroke:#000000;stroke-width:0.5;" x="215.188897059" xlink:href="#mcb0005524f" y="166.606875"/>
      </g>
     </g>
     <g id="text_11">
      <!-- −10 -->
      <g transform="translate(23.81375 169.918125)scale(0.12 -0.12)">
       <use xlink:href="#BitstreamVeraSans-Roman-2212"/>
       <use x="83.7890625" xlink:href="#BitstreamVeraSans-Roman-31"/>
       <use x="147.412109375" xlink:href="#BitstreamVeraSans-Roman-30"/>
      </g>
     </g>
    </g>
    <g id="ytick_4">
     <g id="line2d_27">
      <g>
       <use style="stroke:#000000;stroke-width:0.5;" x="51.07125" xlink:href="#m728421d6d4" y="128.206875"/>
      </g>
     </g>
     <g id="line2d_28">
      <g>
       <use style="stroke:#000000;stroke-width:0.5;" x="215.188897059" xlink:href="#mcb0005524f" y="128.206875"/>
      </g>
     </g>
     <g id="text_12">
      <!-- 0 -->
      <g transform="translate(41.024375 131.518125)scale(0.12 -0.12)">
       <use xlink:href="#BitstreamVeraSans-Roman-30"/>
      </g>
     </g>
    </g>
    <g id="ytick_5">
     <g id="line2d_29">
      <g>
       <use style="stroke:#000000;stroke-width:0.5;" x="51.07125" xlink:href="#m728421d6d4" y="89.806875"/>
      </g>
     </g>
     <g id="line2d_30">
      <g>
       <use style="stroke:#000000;stroke-width:0.5;" x="215.188897059" xlink:href="#mcb0005524f" y="89.806875"/>
      </g>
     </g>
     <g id="text_13">
      <!-- 10 -->
      <g transform="translate(33.91625 93.118125)scale(0.12 -0.12)">
       <use xlink:href="#BitstreamVeraSans-Roman-31"/>
       <use x="63.623046875" xlink:href="#BitstreamVeraSans-Roman-30"/>
      </g>
     </g>
    </g>
    <g id="ytick_6">
     <g id="line2d_31">
      <g>
       <use style="stroke:#000000;stroke-width:0.5;" x="51.07125" xlink:href="#m728421d6d4" y="51.406875"/>
      </g>
     </g>
     <g id="line2d_32">
      <g>
       <use style="stroke:#000000;stroke-width:0.5;" x="215.188897059" xlink:href="#mcb0005524f" y="51.406875"/>
      </g>
     </g>
     <g id="text_14">
      <!-- 20 -->
      <g transform="translate(33.4775 54.718125)scale(0.12 -0.12)">
       <use xlink:href="#BitstreamVeraSans-Roman-32"/>
       <use x="63.623046875" xlink:href="#BitstreamVeraSans-Roman-30"/>
      </g>
     </g>
    </g>
    <g id="ytick_7">
     <g id="line2d_33">
      <g>
       <use style="stroke:#000000;stroke-width:0.5;" x="51.07125" xlink:href="#m728421d6d4" y="13.006875"/>
      </g>
     </g>
     <g id="line2d_34">
      <g>
       <use style="stroke:#000000;stroke-width:0.5;" x="215.188897059" xlink:href="#mcb0005524f" y="13.006875"/>
      </g>
     </g>
     <g id="text_15">
      <!-- 30 -->
      <g transform="translate(33.513125 16.318125)scale(0.12 -0.12)">
       <use xlink:href="#BitstreamVeraSans-Roman-33"/>
       <use x="63.623046875" xlink:href="#BitstreamVeraSans-Roman-30"/>
      </g>
     </g>
    </g>
    <g id="text_16">
     <!-- Bounds -->
     <defs>
      <path d="
M54.8906 33.0156
L54.8906 0
L45.9062 0
L45.9062 32.7188
Q45.9062 40.4844 42.875 44.3281
Q39.8438 48.1875 33.7969 48.1875
Q26.5156 48.1875 22.3125 43.5469
Q18.1094 38.9219 18.1094 30.9062
L18.1094 0
L9.07812 0
L9.07812 54.6875
L18.1094 54.6875
L18.1094 46.1875
Q21.3438 51.125 25.7031 53.5625
Q30.0781 56 35.7969 56
Q45.2188 56 50.0469 50.1719
Q54.8906 44.3438 54.8906 33.0156" id="BitstreamVeraSans-Roman-6e"/>
      <path d="
M45.4062 46.3906
L45.4062 75.9844
L54.3906 75.9844
L54.3906 0
L45.4062 0
L45.4062 8.20312
Q42.5781 3.32812 38.25 0.953125
Q33.9375 -1.42188 27.875 -1.42188
Q17.9688 -1.42188 11.7344 6.48438
Q5.51562 14.4062 5.51562 27.2969
Q5.51562 40.1875 11.7344 48.0938
Q17.9688 56 27.875 56
Q33.9375 56 38.25 53.625
Q42.5781 51.2656 45.4062 46.3906
M14.7969 27.2969
Q14.7969 17.3906 18.875 11.75
Q22.9531 6.10938 30.0781 6.10938
Q37.2031 6.10938 41.2969 11.75
Q45.4062 17.3906 45.4062 27.2969
Q45.4062 37.2031 41.2969 42.8438
Q37.2031 48.4844 30.0781 48.4844
Q22.9531 48.4844 18.875 42.8438
Q14.7969 37.2031 14.7969 27.2969" id="BitstreamVeraSans-Roman-64"/>
      <path d="
M8.5 21.5781
L8.5 54.6875
L17.4844 54.6875
L17.4844 21.9219
Q17.4844 14.1562 20.5 10.2656
Q23.5312 6.39062 29.5938 6.39062
Q36.8594 6.39062 41.0781 11.0312
Q45.3125 15.6719 45.3125 23.6875
L45.3125 54.6875
L54.2969 54.6875
L54.2969 0
L45.3125 0
L45.3125 8.40625
Q42.0469 3.42188 37.7188 1
Q33.4062 -1.42188 27.6875 -1.42188
Q18.2656 -1.42188 13.375 4.4375
Q8.5 10.2969 8.5 21.5781" id="BitstreamVeraSans-Roman-75"/>
      <path d="
M30.6094 48.3906
Q23.3906 48.3906 19.1875 42.75
Q14.9844 37.1094 14.9844 27.2969
Q14.9844 17.4844 19.1562 11.8438
Q23.3438 6.20312 30.6094 6.20312
Q37.7969 6.20312 41.9844 11.8594
Q46.1875 17.5312 46.1875 27.2969
Q46.1875 37.0156 41.9844 42.7031
Q37.7969 48.3906 30.6094 48.3906
M30.6094 56
Q42.3281 56 49.0156 48.375
Q55.7188 40.7656 55.7188 27.2969
Q55.7188 13.875 49.0156 6.21875
Q42.3281 -1.42188 30.6094 -1.42188
Q18.8438 -1.42188 12.1719 6.21875
Q5.51562 13.875 5.51562 27.2969
Q5.51562 40.7656 12.1719 48.375
Q18.8438 56 30.6094 56" id="BitstreamVeraSans-Roman-6f"/>
      <path d="
M19.6719 34.8125
L19.6719 8.10938
L35.5 8.10938
Q43.4531 8.10938 47.2812 11.4062
Q51.125 14.7031 51.125 21.4844
Q51.125 28.3281 47.2812 31.5625
Q43.4531 34.8125 35.5 34.8125
z

M19.6719 64.7969
L19.6719 42.8281
L34.2812 42.8281
Q41.5 42.8281 45.0312 45.5312
Q48.5781 48.25 48.5781 53.8125
Q48.5781 59.3281 45.0312 62.0625
Q41.5 64.7969 34.2812 64.7969
z

M9.8125 72.9062
L35.0156 72.9062
Q46.2969 72.9062 52.3906 68.2188
Q58.5 63.5312 58.5 54.8906
Q58.5 48.1875 55.375 44.2344
Q52.25 40.2812 46.1875 39.3125
Q53.4688 37.75 57.5 32.7812
Q61.5312 27.8281 61.5312 20.4062
Q61.5312 10.6406 54.8906 5.3125
Q48.25 0 35.9844 0
L9.8125 0
z
" id="BitstreamVeraSans-Roman-42"/>
     </defs>
     <g transform="translate(16.318125 149.653125)rotate(-90.0)scale(0.12 -0.12)">
      <use xlink:href="#BitstreamVeraSans-Roman-42"/>
      <use x="68.603515625" xlink:href="#BitstreamVeraSans-Roman-6f"/>
      <use x="129.78515625" xlink:href="#BitstreamVeraSans-Roman-75"/>
      <use x="193.1640625" xlink:href="#BitstreamVeraSans-Roman-6e"/>
      <use x="256.54296875" xlink:href="#BitstreamVeraSans-Roman-64"/>
      <use x="320.01953125" xlink:href="#BitstreamVeraSans-Roman-73"/>
     </g>
    </g>
   </g>
   <g id="legend_1">
    <g id="patch_7">
     <path d="
M110.121 87.9364
L207.989 87.9364
L207.989 20.2069
L110.121 20.2069
z
" style="fill:#ffffff;stroke:#000000;stroke-linejoin:miter;"/>
    </g>
    <g id="line2d_35">
     <path d="
M120.201 31.8686
L140.361 31.8686" style="fill:none;stroke:#0000ff;stroke-dasharray:1.000000,3.000000;stroke-dashoffset:0.0;stroke-width:2;"/>
    </g>
    <g id="line2d_36"/>
    <g id="text_17">
     <!-- T=10s -->
     <defs>
      <path d="
M10.5938 45.4062
L73.1875 45.4062
L73.1875 37.2031
L10.5938 37.2031
z

M10.5938 25.4844
L73.1875 25.4844
L73.1875 17.1875
L10.5938 17.1875
z
" id="BitstreamVeraSans-Roman-3d"/>
     </defs>
     <g transform="translate(156.200647059 36.908625)scale(0.144 -0.144)">
      <use xlink:href="#BitstreamVeraSans-Roman-54"/>
      <use x="61.083984375" xlink:href="#BitstreamVeraSans-Roman-3d"/>
      <use x="144.873046875" xlink:href="#BitstreamVeraSans-Roman-31"/>
      <use x="208.49609375" xlink:href="#BitstreamVeraSans-Roman-30"/>
      <use x="272.119140625" xlink:href="#BitstreamVeraSans-Roman-73"/>
     </g>
    </g>
    <g id="line2d_37">
     <path d="
M120.201 53.0051
L140.361 53.0051" style="fill:none;stroke:#0000ff;stroke-dasharray:6.000000,6.000000;stroke-dashoffset:0.0;stroke-width:2;"/>
    </g>
    <g id="line2d_38"/>
    <g id="text_18">
     <!-- T=20s -->
     <g transform="translate(156.200647059 58.045125)scale(0.144 -0.144)">
      <use xlink:href="#BitstreamVeraSans-Roman-54"/>
      <use x="61.083984375" xlink:href="#BitstreamVeraSans-Roman-3d"/>
      <use x="144.873046875" xlink:href="#BitstreamVeraSans-Roman-32"/>
      <use x="208.49609375" xlink:href="#BitstreamVeraSans-Roman-30"/>
      <use x="272.119140625" xlink:href="#BitstreamVeraSans-Roman-73"/>
     </g>
    </g>
    <g id="line2d_39">
     <path d="
M120.201 74.1416
L140.361 74.1416" style="fill:none;stroke:#0000ff;stroke-linecap:square;stroke-width:2;"/>
    </g>
    <g id="line2d_40"/>
    <g id="text_19">
     <!-- T=30s -->
     <g transform="translate(156.200647059 79.181625)scale(0.144 -0.144)">
      <use xlink:href="#BitstreamVeraSans-Roman-54"/>
      <use x="61.083984375" xlink:href="#BitstreamVeraSans-Roman-3d"/>
      <use x="144.873046875" xlink:href="#BitstreamVeraSans-Roman-33"/>
      <use x="208.49609375" xlink:href="#BitstreamVeraSans-Roman-30"/>
      <use x="272.119140625" xlink:href="#BitstreamVeraSans-Roman-73"/>
     </g>
    </g>
   </g>
  </g>
  <g id="axes_2">
   <g id="patch_8">
    <path d="
M248.012 243.407
L412.13 243.407
L412.13 13.0069
L248.012 13.0069
z
" style="fill:#ffffff;"/>
   </g>
   <g id="line2d_41">
    <path clip-path="url(#pb1f9303860)" d="
M248.012 51.7498
L248.669 50.8903
L249.325 50.3951
L249.982 50.2262
L250.638 50.2208
L251.295 50.3855
L252.608 51.0922
L253.921 52.1172
L256.547 54.6224
L265.737 64.209
L267.05 65.4278
L269.676 67.9012
L270.989 68.9811
L272.302 70.1314
L274.271 71.7617
L278.21 74.7148
L280.179 76.0992
L281.492 77.0289
L283.462 78.2163
L285.431 79.5713
L287.401 80.5742
L291.339 82.8113
L293.965 84.0775
L297.248 85.7771
L299.874 86.7871
L303.156 88.3074
L305.125 89.1664
L308.408 90.1759
L311.69 91.4089
L315.629 92.949
L320.224 94.037
L324.163 95.1895
L330.728 97.2707
L336.636 98.2853
L342.544 99.5276
L348.452 101.023
L352.391 102.041
L354.361 102.29
L364.208 103.453
L373.398 104.76
L381.932 106.194
L392.436 108.03
L407.535 109.064
L408.848 109.288
L409.504 109.552
L410.161 110.115
L410.817 111.412
L411.474 114.621
L412.13 128.207
L412.13 128.207" style="fill:none;stroke:#0000ff;stroke-dasharray:1.000000,3.000000;stroke-dashoffset:0.0;stroke-width:2;"/>
   </g>
   <g id="line2d_42">
    <path clip-path="url(#pb1f9303860)" d="
M248.012 204.664
L248.669 205.524
L249.325 206.019
L249.982 206.188
L250.638 206.193
L251.295 206.028
L252.608 205.321
L253.921 204.297
L256.547 201.791
L265.737 192.205
L267.05 190.986
L269.676 188.513
L270.989 187.433
L272.302 186.282
L274.271 184.652
L278.21 181.699
L280.179 180.315
L281.492 179.385
L283.462 178.197
L285.431 176.842
L287.401 175.84
L291.339 173.602
L293.965 172.336
L297.248 170.637
L299.874 169.627
L303.156 168.106
L305.125 167.247
L308.408 166.238
L311.69 165.005
L315.629 163.465
L320.224 162.377
L324.163 161.224
L330.728 159.143
L336.636 158.128
L342.544 156.886
L348.452 155.391
L352.391 154.373
L354.361 154.124
L364.208 152.961
L373.398 151.654
L381.932 150.22
L392.436 148.384
L407.535 147.35
L408.848 147.126
L409.504 146.862
L410.161 146.299
L410.817 145.002
L411.474 141.793
L412.13 128.207
L412.13 128.207" style="fill:none;stroke:#008000;stroke-dasharray:1.000000,3.000000;stroke-dashoffset:0.0;stroke-width:2;"/>
   </g>
   <g id="line2d_43">
    <path clip-path="url(#pb1f9303860)" d="
M248.012 51.6545
L248.669 50.886
L249.325 50.2769
L249.982 50.1106
L251.295 50.2607
L253.921 51.994
L254.577 52.7211
L255.234 53.1533
L257.859 55.9327
L259.172 57.1836
L260.485 58.7279
L261.142 59.2558
L263.768 61.9674
L265.081 63.3453
L265.737 64.1325
L267.05 65.1758
L268.363 66.3917
L269.676 67.8574
L270.989 68.7576
L272.302 69.7606
L274.271 71.7243
L274.928 72.343
L276.241 72.9835
L277.554 73.8104
L279.523 75.3848
L281.492 77.1099
L284.118 78.2257
L286.088 79.3519
L288.057 80.7223
L290.683 82.6414
L292.652 83.23
L295.278 84.134
L297.904 85.3131
L300.53 86.7685
L304.469 89.1452
L305.125 89.4196
L309.064 90.0909
L313.003 90.982
L316.942 92.1287
L320.224 93.3095
L323.507 94.7141
L329.415 97.4242
L330.071 97.5924
L338.605 98.335
L346.483 99.2307
L354.361 100.357
L361.582 101.624
L368.147 103.003
L374.055 104.458
L379.963 106.147
L387.184 108.319
L388.497 108.445
L408.848 109.066
L409.504 109.181
L410.161 109.507
L410.817 110.533
L411.474 114.01
L412.13 128.207
L412.13 128.207" style="fill:none;stroke:#0000ff;stroke-dasharray:6.000000,6.000000;stroke-dashoffset:0.0;stroke-width:2;"/>
   </g>
   <g id="line2d_44">
    <path clip-path="url(#pb1f9303860)" d="
M248.012 204.759
L248.669 205.528
L249.325 206.137
L249.982 206.303
L251.295 206.153
L253.921 204.42
L254.577 203.693
L255.234 203.26
L257.859 200.481
L259.172 199.23
L260.485 197.686
L261.142 197.158
L263.768 194.446
L265.081 193.068
L265.737 192.281
L267.05 191.238
L268.363 190.022
L269.676 188.556
L270.989 187.656
L272.302 186.653
L274.271 184.689
L274.928 184.071
L276.241 183.43
L277.554 182.603
L279.523 181.029
L281.492 179.304
L284.118 178.188
L286.088 177.062
L288.057 175.691
L290.683 173.772
L292.652 173.184
L295.278 172.28
L297.904 171.101
L300.53 169.645
L304.469 167.269
L305.125 166.994
L309.064 166.323
L313.003 165.432
L316.942 164.285
L320.224 163.104
L323.507 161.7
L329.415 158.99
L330.071 158.821
L338.605 158.079
L346.483 157.183
L354.361 156.057
L361.582 154.789
L368.147 153.411
L374.055 151.956
L379.963 150.267
L387.184 148.094
L388.497 147.968
L408.848 147.347
L409.504 147.233
L410.161 146.907
L410.817 145.881
L411.474 142.404
L412.13 128.207
L412.13 128.207" style="fill:none;stroke:#008000;stroke-dasharray:6.000000,6.000000;stroke-dashoffset:0.0;stroke-width:2;"/>
   </g>
   <g id="line2d_45">
    <path clip-path="url(#pb1f9303860)" d="
M248.012 48.7271
L248.669 50.4545
L249.325 49.9311
L250.638 49.9423
L251.295 49.658
L251.951 50.0883
L252.608 50.92
L253.921 51.2723
L254.577 51.9473
L255.89 53.8834
L256.547 53.966
L257.203 54.3326
L257.859 55.0009
L258.516 55.965
L259.829 58.1458
L260.485 58.2593
L261.142 58.53
L261.798 58.9688
L262.455 59.5851
L263.111 60.3844
L264.424 62.4629
L265.081 63.5208
L265.737 64.0966
L267.05 64.4622
L268.363 65.1709
L269.676 66.2522
L270.989 67.7183
L272.958 70.5071
L273.615 71.4076
L274.271 71.9597
L276.241 72.2545
L277.554 72.6286
L278.867 73.1621
L280.179 73.87
L281.492 74.7661
L282.805 75.8588
L284.775 77.8533
L288.714 82.2849
L289.37 82.6478
L293.309 82.764
L296.591 83.0756
L299.874 83.6142
L302.499 84.235
L305.125 85.0527
L307.751 86.1
L310.377 87.417
L313.003 89.0489
L314.972 90.5042
L317.598 92.7573
L322.194 97.0039
L323.507 97.8475
L324.163 98.0578
L341.231 97.7731
L357.643 97.7219
L372.085 97.8975
L384.558 98.266
L395.718 98.8198
L403.596 99.408
L405.565 99.6813
L406.878 100.025
L407.535 100.313
L408.191 100.743
L408.848 101.408
L409.504 102.475
L410.161 104.256
L410.817 107.408
L411.474 113.562
L412.13 128.207
L412.13 128.207" style="fill:none;stroke:#0000ff;stroke-linecap:square;stroke-width:2;"/>
   </g>
   <g id="line2d_46">
    <path clip-path="url(#pb1f9303860)" d="
M248.012 207.687
L248.669 205.959
L249.325 206.483
L250.638 206.471
L251.295 206.756
L251.951 206.325
L252.608 205.494
L253.921 205.141
L254.577 204.466
L255.89 202.53
L256.547 202.448
L257.203 202.081
L257.859 201.413
L258.516 200.449
L259.829 198.268
L260.485 198.154
L261.142 197.884
L261.798 197.445
L262.455 196.829
L263.111 196.029
L264.424 193.951
L265.081 192.893
L265.737 192.317
L267.05 191.952
L268.363 191.243
L269.676 190.162
L270.989 188.695
L272.958 185.907
L273.615 185.006
L274.271 184.454
L276.241 184.159
L277.554 183.785
L278.867 183.252
L280.179 182.544
L281.492 181.648
L282.805 180.555
L284.775 178.56
L288.714 174.129
L289.37 173.766
L293.309 173.65
L296.591 173.338
L299.874 172.8
L302.499 172.179
L305.125 171.361
L307.751 170.314
L310.377 168.997
L313.003 167.365
L314.972 165.91
L317.598 163.656
L322.194 159.41
L323.507 158.566
L324.163 158.356
L341.231 158.641
L357.643 158.692
L372.085 158.516
L384.558 158.148
L395.718 157.594
L403.596 157.006
L405.565 156.732
L406.878 156.388
L407.535 156.101
L408.191 155.671
L408.848 155.005
L409.504 153.938
L410.161 152.157
L410.817 149.006
L411.474 142.851
L412.13 128.207
L412.13 128.207" style="fill:none;stroke:#008000;stroke-linecap:square;stroke-width:2;"/>
   </g>
   <g id="patch_9">
    <path d="
M248.012 13.0069
L412.13 13.0069" style="fill:none;stroke:#000000;stroke-linecap:square;stroke-linejoin:miter;"/>
   </g>
   <g id="patch_10">
    <path d="
M412.13 243.407
L412.13 13.0069" style="fill:none;stroke:#000000;stroke-linecap:square;stroke-linejoin:miter;"/>
   </g>
   <g id="patch_11">
    <path d="
M248.012 243.407
L412.13 243.407" style="fill:none;stroke:#000000;stroke-linecap:square;stroke-linejoin:miter;"/>
   </g>
   <g id="patch_12">
    <path d="
M248.012 243.407
L248.012 13.0069" style="fill:none;stroke:#000000;stroke-linecap:square;stroke-linejoin:miter;"/>
   </g>
   <g id="matplotlib.axis_3">
    <g id="xtick_8">
     <g id="line2d_47">
      <g>
       <use style="stroke:#000000;stroke-width:0.5;" x="248.012426471" xlink:href="#m93b0483c22" y="243.406875"/>
      </g>
     </g>
     <g id="line2d_48">
      <g>
       <use style="stroke:#000000;stroke-width:0.5;" x="248.012426471" xlink:href="#m741efc42ff" y="13.006875"/>
      </g>
     </g>
     <g id="text_20">
      <!-- 0 -->
      <g transform="translate(244.988988971 256.525)scale(0.12 -0.12)">
       <use xlink:href="#BitstreamVeraSans-Roman-30"/>
      </g>
     </g>
    </g>
    <g id="xtick_9">
     <g id="line2d_49">
      <g>
       <use style="stroke:#000000;stroke-width:0.5;" x="280.835955882" xlink:href="#m93b0483c22" y="243.406875"/>
      </g>
     </g>
     <g id="line2d_50">
      <g>
       <use style="stroke:#000000;stroke-width:0.5;" x="280.835955882" xlink:href="#m741efc42ff" y="13.006875"/>
      </g>
     </g>
     <g id="text_21">
      <!-- 2 -->
      <g transform="translate(278.059080882 256.525)scale(0.12 -0.12)">
       <use xlink:href="#BitstreamVeraSans-Roman-32"/>
      </g>
     </g>
    </g>
    <g id="xtick_10">
     <g id="line2d_51">
      <g>
       <use style="stroke:#000000;stroke-width:0.5;" x="313.659485294" xlink:href="#m93b0483c22" y="243.406875"/>
      </g>
     </g>
     <g id="line2d_52">
      <g>
       <use style="stroke:#000000;stroke-width:0.5;" x="313.659485294" xlink:href="#m741efc42ff" y="13.006875"/>
      </g>
     </g>
     <g id="text_22">
      <!-- 4 -->
      <defs>
       <path d="
M37.7969 64.3125
L12.8906 25.3906
L37.7969 25.3906
z

M35.2031 72.9062
L47.6094 72.9062
L47.6094 25.3906
L58.0156 25.3906
L58.0156 17.1875
L47.6094 17.1875
L47.6094 0
L37.7969 0
L37.7969 17.1875
L4.89062 17.1875
L4.89062 26.7031
z
" id="BitstreamVeraSans-Roman-34"/>
      </defs>
      <g transform="translate(310.471985294 256.525)scale(0.12 -0.12)">
       <use xlink:href="#BitstreamVeraSans-Roman-34"/>
      </g>
     </g>
    </g>
    <g id="xtick_11">
     <g id="line2d_53">
      <g>
       <use style="stroke:#000000;stroke-width:0.5;" x="346.483014706" xlink:href="#m93b0483c22" y="243.406875"/>
      </g>
     </g>
     <g id="line2d_54">
      <g>
       <use style="stroke:#000000;stroke-width:0.5;" x="346.483014706" xlink:href="#m741efc42ff" y="13.006875"/>
      </g>
     </g>
     <g id="text_23">
      <!-- 6 -->
      <defs>
       <path d="
M33.0156 40.375
Q26.375 40.375 22.4844 35.8281
Q18.6094 31.2969 18.6094 23.3906
Q18.6094 15.5312 22.4844 10.9531
Q26.375 6.39062 33.0156 6.39062
Q39.6562 6.39062 43.5312 10.9531
Q47.4062 15.5312 47.4062 23.3906
Q47.4062 31.2969 43.5312 35.8281
Q39.6562 40.375 33.0156 40.375
M52.5938 71.2969
L52.5938 62.3125
Q48.875 64.0625 45.0938 64.9844
Q41.3125 65.9219 37.5938 65.9219
Q27.8281 65.9219 22.6719 59.3281
Q17.5312 52.7344 16.7969 39.4062
Q19.6719 43.6562 24.0156 45.9219
Q28.375 48.1875 33.5938 48.1875
Q44.5781 48.1875 50.9531 41.5156
Q57.3281 34.8594 57.3281 23.3906
Q57.3281 12.1562 50.6875 5.35938
Q44.0469 -1.42188 33.0156 -1.42188
Q20.3594 -1.42188 13.6719 8.26562
Q6.98438 17.9688 6.98438 36.375
Q6.98438 53.6562 15.1875 63.9375
Q23.3906 74.2188 37.2031 74.2188
Q40.9219 74.2188 44.7031 73.4844
Q48.4844 72.75 52.5938 71.2969" id="BitstreamVeraSans-Roman-36"/>
      </defs>
      <g transform="translate(343.462389706 256.525)scale(0.12 -0.12)">
       <use xlink:href="#BitstreamVeraSans-Roman-36"/>
      </g>
     </g>
    </g>
    <g id="xtick_12">
     <g id="line2d_55">
      <g>
       <use style="stroke:#000000;stroke-width:0.5;" x="379.306544118" xlink:href="#m93b0483c22" y="243.406875"/>
      </g>
     </g>
     <g id="line2d_56">
      <g>
       <use style="stroke:#000000;stroke-width:0.5;" x="379.306544118" xlink:href="#m741efc42ff" y="13.006875"/>
      </g>
     </g>
     <g id="text_24">
      <!-- 8 -->
      <defs>
       <path d="
M31.7812 34.625
Q24.75 34.625 20.7188 30.8594
Q16.7031 27.0938 16.7031 20.5156
Q16.7031 13.9219 20.7188 10.1562
Q24.75 6.39062 31.7812 6.39062
Q38.8125 6.39062 42.8594 10.1719
Q46.9219 13.9688 46.9219 20.5156
Q46.9219 27.0938 42.8906 30.8594
Q38.875 34.625 31.7812 34.625
M21.9219 38.8125
Q15.5781 40.375 12.0312 44.7188
Q8.5 49.0781 8.5 55.3281
Q8.5 64.0625 14.7188 69.1406
Q20.9531 74.2188 31.7812 74.2188
Q42.6719 74.2188 48.875 69.1406
Q55.0781 64.0625 55.0781 55.3281
Q55.0781 49.0781 51.5312 44.7188
Q48 40.375 41.7031 38.8125
Q48.8281 37.1562 52.7969 32.3125
Q56.7812 27.4844 56.7812 20.5156
Q56.7812 9.90625 50.3125 4.23438
Q43.8438 -1.42188 31.7812 -1.42188
Q19.7344 -1.42188 13.25 4.23438
Q6.78125 9.90625 6.78125 20.5156
Q6.78125 27.4844 10.7812 32.3125
Q14.7969 37.1562 21.9219 38.8125
M18.3125 54.3906
Q18.3125 48.7344 21.8438 45.5625
Q25.3906 42.3906 31.7812 42.3906
Q38.1406 42.3906 41.7188 45.5625
Q45.3125 48.7344 45.3125 54.3906
Q45.3125 60.0625 41.7188 63.2344
Q38.1406 66.4062 31.7812 66.4062
Q25.3906 66.4062 21.8438 63.2344
Q18.3125 60.0625 18.3125 54.3906" id="BitstreamVeraSans-Roman-38"/>
      </defs>
      <g transform="translate(376.306544118 256.525)scale(0.12 -0.12)">
       <use xlink:href="#BitstreamVeraSans-Roman-38"/>
      </g>
     </g>
    </g>
    <g id="xtick_13">
     <g id="line2d_57">
      <g>
       <use style="stroke:#000000;stroke-width:0.5;" x="412.130073529" xlink:href="#m93b0483c22" y="243.406875"/>
      </g>
     </g>
     <g id="line2d_58">
      <g>
       <use style="stroke:#000000;stroke-width:0.5;" x="412.130073529" xlink:href="#m741efc42ff" y="13.006875"/>
      </g>
     </g>
     <g id="text_25">
      <!-- 10 -->
      <g transform="translate(405.552573529 256.525)scale(0.12 -0.12)">
       <use xlink:href="#BitstreamVeraSans-Roman-31"/>
       <use x="63.623046875" xlink:href="#BitstreamVeraSans-Roman-30"/>
      </g>
     </g>
    </g>
    <g id="text_26">
     <!-- T [s] -->
     <g transform="translate(317.19 273.13875)scale(0.12 -0.12)">
      <use xlink:href="#BitstreamVeraSans-Roman-54"/>
      <use x="61.083984375" xlink:href="#BitstreamVeraSans-Roman-20"/>
      <use x="92.87109375" xlink:href="#BitstreamVeraSans-Roman-5b"/>
      <use x="131.884765625" xlink:href="#BitstreamVeraSans-Roman-73"/>
      <use x="183.984375" xlink:href="#BitstreamVeraSans-Roman-5d"/>
     </g>
    </g>
   </g>
   <g id="matplotlib.axis_4">
    <g id="ytick_8">
     <g id="line2d_59">
      <g>
       <use style="stroke:#000000;stroke-width:0.5;" x="248.012426471" xlink:href="#m728421d6d4" y="243.406875"/>
      </g>
     </g>
     <g id="line2d_60">
      <g>
       <use style="stroke:#000000;stroke-width:0.5;" x="412.130073529" xlink:href="#mcb0005524f" y="243.406875"/>
      </g>
     </g>
     <g id="text_27">
      <!-- −30 -->
      <g transform="translate(220.754926471 246.718125)scale(0.12 -0.12)">
       <use xlink:href="#BitstreamVeraSans-Roman-2212"/>
       <use x="83.7890625" xlink:href="#BitstreamVeraSans-Roman-33"/>
       <use x="147.412109375" xlink:href="#BitstreamVeraSans-Roman-30"/>
      </g>
     </g>
    </g>
    <g id="ytick_9">
     <g id="line2d_61">
      <g>
       <use style="stroke:#000000;stroke-width:0.5;" x="248.012426471" xlink:href="#m728421d6d4" y="205.006875"/>
      </g>
     </g>
     <g id="line2d_62">
      <g>
       <use style="stroke:#000000;stroke-width:0.5;" x="412.130073529" xlink:href="#mcb0005524f" y="205.006875"/>
      </g>
     </g>
     <g id="text_28">
      <!-- −20 -->
      <g transform="translate(220.754926471 208.318125)scale(0.12 -0.12)">
       <use xlink:href="#BitstreamVeraSans-Roman-2212"/>
       <use x="83.7890625" xlink:href="#BitstreamVeraSans-Roman-32"/>
       <use x="147.412109375" xlink:href="#BitstreamVeraSans-Roman-30"/>
      </g>
     </g>
    </g>
    <g id="ytick_10">
     <g id="line2d_63">
      <g>
       <use style="stroke:#000000;stroke-width:0.5;" x="248.012426471" xlink:href="#m728421d6d4" y="166.606875"/>
      </g>
     </g>
     <g id="line2d_64">
      <g>
       <use style="stroke:#000000;stroke-width:0.5;" x="412.130073529" xlink:href="#mcb0005524f" y="166.606875"/>
      </g>
     </g>
     <g id="text_29">
      <!-- −10 -->
      <g transform="translate(220.754926471 169.918125)scale(0.12 -0.12)">
       <use xlink:href="#BitstreamVeraSans-Roman-2212"/>
       <use x="83.7890625" xlink:href="#BitstreamVeraSans-Roman-31"/>
       <use x="147.412109375" xlink:href="#BitstreamVeraSans-Roman-30"/>
      </g>
     </g>
    </g>
    <g id="ytick_11">
     <g id="line2d_65">
      <g>
       <use style="stroke:#000000;stroke-width:0.5;" x="248.012426471" xlink:href="#m728421d6d4" y="128.206875"/>
      </g>
     </g>
     <g id="line2d_66">
      <g>
       <use style="stroke:#000000;stroke-width:0.5;" x="412.130073529" xlink:href="#mcb0005524f" y="128.206875"/>
      </g>
     </g>
     <g id="text_30">
      <!-- 0 -->
      <g transform="translate(237.965551471 131.518125)scale(0.12 -0.12)">
       <use xlink:href="#BitstreamVeraSans-Roman-30"/>
      </g>
     </g>
    </g>
    <g id="ytick_12">
     <g id="line2d_67">
      <g>
       <use style="stroke:#000000;stroke-width:0.5;" x="248.012426471" xlink:href="#m728421d6d4" y="89.806875"/>
      </g>
     </g>
     <g id="line2d_68">
      <g>
       <use style="stroke:#000000;stroke-width:0.5;" x="412.130073529" xlink:href="#mcb0005524f" y="89.806875"/>
      </g>
     </g>
     <g id="text_31">
      <!-- 10 -->
      <g transform="translate(230.857426471 93.118125)scale(0.12 -0.12)">
       <use xlink:href="#BitstreamVeraSans-Roman-31"/>
       <use x="63.623046875" xlink:href="#BitstreamVeraSans-Roman-30"/>
      </g>
     </g>
    </g>
    <g id="ytick_13">
     <g id="line2d_69">
      <g>
       <use style="stroke:#000000;stroke-width:0.5;" x="248.012426471" xlink:href="#m728421d6d4" y="51.406875"/>
      </g>
     </g>
     <g id="line2d_70">
      <g>
       <use style="stroke:#000000;stroke-width:0.5;" x="412.130073529" xlink:href="#mcb0005524f" y="51.406875"/>
      </g>
     </g>
     <g id="text_32">
      <!-- 20 -->
      <g transform="translate(230.418676471 54.718125)scale(0.12 -0.12)">
       <use xlink:href="#BitstreamVeraSans-Roman-32"/>
       <use x="63.623046875" xlink:href="#BitstreamVeraSans-Roman-30"/>
      </g>
     </g>
    </g>
    <g id="ytick_14">
     <g id="line2d_71">
      <g>
       <use style="stroke:#000000;stroke-width:0.5;" x="248.012426471" xlink:href="#m728421d6d4" y="13.006875"/>
      </g>
     </g>
     <g id="line2d_72">
      <g>
       <use style="stroke:#000000;stroke-width:0.5;" x="412.130073529" xlink:href="#mcb0005524f" y="13.006875"/>
      </g>
     </g>
     <g id="text_33">
      <!-- 30 -->
      <g transform="translate(230.454301471 16.318125)scale(0.12 -0.12)">
       <use xlink:href="#BitstreamVeraSans-Roman-33"/>
       <use x="63.623046875" xlink:href="#BitstreamVeraSans-Roman-30"/>
      </g>
     </g>
    </g>
   </g>
   <g id="legend_2">
    <g id="patch_13">
     <path d="
M307.048 87.9364
L404.93 87.9364
L404.93 20.2069
L307.048 20.2069
z
" style="fill:#ffffff;stroke:#000000;stroke-linejoin:miter;"/>
    </g>
    <g id="line2d_73">
     <path d="
M317.128 31.8686
L337.288 31.8686" style="fill:none;stroke:#0000ff;stroke-dasharray:1.000000,3.000000;stroke-dashoffset:0.0;stroke-width:2;"/>
    </g>
    <g id="line2d_74"/>
    <g id="text_34">
     <!-- n=101 -->
     <g transform="translate(353.128323529 36.908625)scale(0.144 -0.144)">
      <use xlink:href="#BitstreamVeraSans-Roman-6e"/>
      <use x="63.37890625" xlink:href="#BitstreamVeraSans-Roman-3d"/>
      <use x="147.16796875" xlink:href="#BitstreamVeraSans-Roman-31"/>
      <use x="210.791015625" xlink:href="#BitstreamVeraSans-Roman-30"/>
      <use x="274.4140625" xlink:href="#BitstreamVeraSans-Roman-31"/>
     </g>
    </g>
    <g id="line2d_75">
     <path d="
M317.128 53.0051
L337.288 53.0051" style="fill:none;stroke:#0000ff;stroke-dasharray:6.000000,6.000000;stroke-dashoffset:0.0;stroke-width:2;"/>
    </g>
    <g id="line2d_76"/>
    <g id="text_35">
     <!-- n=51 -->
     <g transform="translate(353.128323529 58.045125)scale(0.144 -0.144)">
      <use xlink:href="#BitstreamVeraSans-Roman-6e"/>
      <use x="63.37890625" xlink:href="#BitstreamVeraSans-Roman-3d"/>
      <use x="147.16796875" xlink:href="#BitstreamVeraSans-Roman-35"/>
      <use x="210.791015625" xlink:href="#BitstreamVeraSans-Roman-31"/>
     </g>
    </g>
    <g id="line2d_77">
     <path d="
M317.128 74.1416
L337.288 74.1416" style="fill:none;stroke:#0000ff;stroke-linecap:square;stroke-width:2;"/>
    </g>
    <g id="line2d_78"/>
    <g id="text_36">
     <!-- n=25 -->
     <g transform="translate(353.128323529 79.181625)scale(0.144 -0.144)">
      <use xlink:href="#BitstreamVeraSans-Roman-6e"/>
      <use x="63.37890625" xlink:href="#BitstreamVeraSans-Roman-3d"/>
      <use x="147.16796875" xlink:href="#BitstreamVeraSans-Roman-32"/>
      <use x="210.791015625" xlink:href="#BitstreamVeraSans-Roman-35"/>
     </g>
    </g>
   </g>
  </g>
  <g id="axes_3">
   <g id="patch_14">
    <path d="
M444.954 243.407
L609.071 243.407
L609.071 13.0069
L444.954 13.0069
z
" style="fill:#ffffff;"/>
   </g>
   <g id="line2d_79">
    <path clip-path="url(#pcbc3d8a6a5)" d="
M444.954 51.7498
L445.61 50.8903
L446.267 50.3951
L446.923 50.2262
L447.579 50.2208
L448.236 50.3855
L449.549 51.0922
L450.862 52.1172
L453.488 54.6224
L462.678 64.209
L463.991 65.4278
L466.617 67.9012
L467.93 68.9811
L469.243 70.1314
L471.212 71.7617
L475.151 74.7148
L477.121 76.0992
L478.434 77.0289
L480.403 78.2163
L482.372 79.5713
L484.342 80.5742
L488.281 82.8113
L490.907 84.0775
L494.189 85.7771
L496.815 86.7871
L500.097 88.3074
L502.067 89.1664
L505.349 90.1759
L508.631 91.4089
L512.57 92.949
L517.165 94.037
L521.104 95.1895
L527.669 97.2707
L533.577 98.2853
L539.485 99.5276
L545.394 101.023
L549.332 102.041
L551.302 102.29
L561.149 103.453
L570.339 104.76
L578.874 106.194
L589.377 108.03
L604.476 109.064
L605.789 109.288
L606.445 109.552
L607.102 110.115
L607.758 111.412
L608.415 114.621
L609.071 128.207
L609.071 128.207" style="fill:none;stroke:#0000ff;stroke-dasharray:1.000000,3.000000;stroke-dashoffset:0.0;stroke-width:2;"/>
   </g>
   <g id="line2d_80">
    <path clip-path="url(#pcbc3d8a6a5)" d="
M444.954 204.664
L445.61 205.524
L446.267 206.019
L446.923 206.188
L447.579 206.193
L448.236 206.028
L449.549 205.321
L450.862 204.297
L453.488 201.791
L462.678 192.205
L463.991 190.986
L466.617 188.513
L467.93 187.433
L469.243 186.282
L471.212 184.652
L475.151 181.699
L477.121 180.315
L478.434 179.385
L480.403 178.197
L482.372 176.842
L484.342 175.84
L488.281 173.602
L490.907 172.336
L494.189 170.637
L496.815 169.627
L500.097 168.106
L502.067 167.247
L505.349 166.238
L508.631 165.005
L512.57 163.465
L517.165 162.377
L521.104 161.224
L527.669 159.143
L533.577 158.128
L539.485 156.886
L545.394 155.391
L549.332 154.373
L551.302 154.124
L561.149 152.961
L570.339 151.654
L578.874 150.22
L589.377 148.384
L604.476 147.35
L605.789 147.126
L606.445 146.862
L607.102 146.299
L607.758 145.002
L608.415 141.793
L609.071 128.207
L609.071 128.207" style="fill:none;stroke:#008000;stroke-dasharray:1.000000,3.000000;stroke-dashoffset:0.0;stroke-width:2;"/>
   </g>
   <g id="line2d_81">
    <path clip-path="url(#pcbc3d8a6a5)" d="
M444.954 47.214
L445.282 46.7492
L445.61 46.3241
L446.267 45.8494
L446.923 45.6194
L447.908 45.7227
L449.877 46.7565
L452.503 49.0684
L454.801 51.4229
L457.427 54.1988
L459.068 55.89
L460.052 56.9313
L461.037 57.9787
L464.976 61.7534
L465.961 62.6502
L466.617 63.3431
L467.602 64.0612
L469.571 65.7485
L470.556 66.5805
L471.541 67.4571
L472.525 68.0828
L473.838 69.2101
L474.495 69.7039
L475.808 70.4946
L478.434 72.3558
L479.747 73.1472
L482.044 74.7243
L483.685 75.5368
L485.327 76.6179
L486.311 77.3012
L488.281 78.0773
L490.25 79.1482
L492.219 80.3203
L494.189 80.975
L496.158 81.8499
L499.769 83.6277
L502.067 84.2778
L504.364 85.1434
L507.318 86.5324
L508.631 87.0646
L511.585 87.6806
L514.539 88.5258
L517.494 89.6191
L520.776 90.9297
L525.043 91.5769
L528.982 92.4122
L532.592 93.4181
L539.157 95.378
L545.065 96.0181
L550.645 96.8517
L555.569 97.8109
L560.164 98.9315
L565.744 100.338
L575.591 100.97
L584.454 101.756
L592.659 102.704
L600.209 103.801
L604.148 104.542
L605.461 104.964
L606.117 105.313
L606.774 105.868
L607.43 106.767
L607.758 107.282
L608.087 108.257
L608.415 110.208
L608.743 114.488
L609.071 128.207
L609.071 128.207" style="fill:none;stroke:#0000ff;stroke-dasharray:6.000000,6.000000;stroke-dashoffset:0.0;stroke-width:2;"/>
   </g>
   <g id="line2d_82">
    <path clip-path="url(#pcbc3d8a6a5)" d="
M444.954 209.2
L445.282 209.665
L445.61 210.09
L446.267 210.565
L446.923 210.794
L447.908 210.691
L449.877 209.657
L452.503 207.345
L454.801 204.991
L457.427 202.215
L459.068 200.524
L460.052 199.482
L461.037 198.435
L464.976 194.66
L465.961 193.764
L466.617 193.071
L467.602 192.353
L469.571 190.665
L470.556 189.833
L471.541 188.957
L472.525 188.331
L473.838 187.204
L474.495 186.71
L475.808 185.919
L478.434 184.058
L479.747 183.267
L482.044 181.689
L483.685 180.877
L485.327 179.796
L486.311 179.113
L488.281 178.336
L490.25 177.266
L492.219 176.093
L494.189 175.439
L496.158 174.564
L499.769 172.786
L502.067 172.136
L504.364 171.27
L507.318 169.881
L508.631 169.349
L511.585 168.733
L514.539 167.888
L517.494 166.795
L520.776 165.484
L525.043 164.837
L528.982 164.002
L532.592 162.996
L539.157 161.036
L545.065 160.396
L550.645 159.562
L555.569 158.603
L560.164 157.482
L565.744 156.076
L575.591 155.443
L584.454 154.657
L592.659 153.71
L600.209 152.613
L604.148 151.872
L605.461 151.449
L606.117 151.101
L606.774 150.545
L607.43 149.647
L607.758 149.132
L608.087 148.157
L608.415 146.206
L608.743 141.926
L609.071 128.207
L609.071 128.207" style="fill:none;stroke:#008000;stroke-dasharray:6.000000,6.000000;stroke-dashoffset:0.0;stroke-width:2;"/>
   </g>
   <g id="line2d_83">
    <path clip-path="url(#pcbc3d8a6a5)" d="
M444.954 43.9203
L445.774 42.9053
L446.267 42.5598
L446.923 42.3586
L447.251 42.3438
L447.908 42.4271
L448.892 42.8749
L449.221 43.0657
L449.549 43.2604
L449.877 43.5146
L450.205 43.7355
L450.534 44.0103
L450.862 44.2853
L451.19 44.5481
L451.682 44.9875
L452.667 45.9194
L453.324 46.5834
L454.472 47.7628
L455.129 48.4696
L455.621 49.0152
L456.114 49.5266
L456.606 50.0311
L457.098 50.6246
L457.591 51.0411
L458.575 52.0863
L459.068 52.6323
L459.56 53.2246
L460.052 53.5953
L462.842 56.4146
L463.499 57.0383
L464.319 57.9146
L464.976 58.3886
L465.797 59.3299
L466.125 59.6279
L466.781 60.0295
L467.602 60.844
L468.258 61.5087
L469.079 61.9969
L469.899 62.7797
L470.556 63.4717
L471.377 63.8824
L472.197 64.5337
L473.51 65.6926
L474.495 66.217
L475.479 67.034
L476.464 67.9038
L477.449 68.3204
L478.434 68.9613
L479.582 70.0019
L480.075 70.329
L481.224 70.7583
L482.372 71.4247
L483.521 72.3516
L484.178 72.8907
L485.491 73.2875
L486.804 73.9139
L488.117 74.8013
L489.429 75.7155
L491.071 76.1656
L492.548 76.8025
L494.025 77.6864
L495.666 78.7235
L497.471 79.1147
L499.277 79.7382
L500.918 80.5357
L503.708 82.0141
L506.005 82.422
L508.139 83.0329
L510.108 83.8314
L512.242 84.9425
L513.391 85.5325
L517.658 86.1043
L520.284 86.7337
L522.581 87.5082
L525.043 88.5804
L527.177 89.4936
L531.279 89.8165
L534.89 90.3172
L538.172 90.9988
L541.127 91.8452
L544.081 92.9384
L546.707 93.9184
L553.599 94.2547
L558.851 94.7419
L563.447 95.3811
L567.549 96.1661
L571.324 97.1143
L575.099 98.3053
L577.397 98.9908
L578.545 99.021
L588.557 99.2625
L597.419 99.6938
L603.984 100.214
L605.461 100.504
L606.281 100.889
L606.774 101.334
L607.266 102.126
L607.594 103.019
L607.922 104.457
L608.579 108.744
L608.743 111.222
L608.907 116.602
L609.071 128.207
L609.071 128.207" style="fill:none;stroke:#0000ff;stroke-linecap:square;stroke-width:2;"/>
   </g>
   <g id="line2d_84">
    <path clip-path="url(#pcbc3d8a6a5)" d="
M444.954 212.493
L445.774 213.509
L446.267 213.854
L446.923 214.055
L447.251 214.07
L447.908 213.986
L448.892 213.539
L449.221 213.348
L449.549 213.153
L449.877 212.899
L450.205 212.678
L450.534 212.403
L450.862 212.128
L451.19 211.866
L451.682 211.426
L452.667 210.494
L453.324 209.83
L454.472 208.651
L455.129 207.944
L455.621 207.399
L456.114 206.887
L456.606 206.383
L457.098 205.789
L457.591 205.373
L458.575 204.327
L459.068 203.781
L459.56 203.189
L460.052 202.818
L462.842 199.999
L463.499 199.375
L464.319 198.499
L464.976 198.025
L465.797 197.084
L466.125 196.786
L466.781 196.384
L467.602 195.57
L468.258 194.905
L469.079 194.417
L469.899 193.634
L470.556 192.942
L471.377 192.531
L472.197 191.88
L473.51 190.721
L474.495 190.197
L475.479 189.38
L476.464 188.51
L477.449 188.093
L478.434 187.452
L479.582 186.412
L480.075 186.085
L481.224 185.655
L482.372 184.989
L483.521 184.062
L484.178 183.523
L485.491 183.126
L486.804 182.5
L488.117 181.612
L489.429 180.698
L491.071 180.248
L492.548 179.611
L494.025 178.727
L495.666 177.69
L497.471 177.299
L499.277 176.676
L500.918 175.878
L503.708 174.4
L506.005 173.992
L508.139 173.381
L510.108 172.582
L512.242 171.471
L513.391 170.881
L517.658 170.309
L520.284 169.68
L522.581 168.906
L525.043 167.833
L527.177 166.92
L531.279 166.597
L534.89 166.097
L538.172 165.415
L541.127 164.569
L544.081 163.475
L546.707 162.495
L553.599 162.159
L558.851 161.672
L563.447 161.033
L567.549 160.248
L571.324 159.299
L575.099 158.108
L577.397 157.423
L578.545 157.393
L588.557 157.151
L597.419 156.72
L603.984 156.2
L605.461 155.91
L606.281 155.525
L606.774 155.08
L607.266 154.288
L607.594 153.395
L607.922 151.957
L608.579 147.669
L608.743 145.192
L608.907 139.812
L609.071 128.207
L609.071 128.207" style="fill:none;stroke:#008000;stroke-linecap:square;stroke-width:2;"/>
   </g>
   <g id="patch_15">
    <path d="
M444.954 13.0069
L609.071 13.0069" style="fill:none;stroke:#000000;stroke-linecap:square;stroke-linejoin:miter;"/>
   </g>
   <g id="patch_16">
    <path d="
M609.071 243.407
L609.071 13.0069" style="fill:none;stroke:#000000;stroke-linecap:square;stroke-linejoin:miter;"/>
   </g>
   <g id="patch_17">
    <path d="
M444.954 243.407
L609.071 243.407" style="fill:none;stroke:#000000;stroke-linecap:square;stroke-linejoin:miter;"/>
   </g>
   <g id="patch_18">
    <path d="
M444.954 243.407
L444.954 13.0069" style="fill:none;stroke:#000000;stroke-linecap:square;stroke-linejoin:miter;"/>
   </g>
   <g id="matplotlib.axis_5">
    <g id="xtick_14">
     <g id="line2d_85">
      <g>
       <use style="stroke:#000000;stroke-width:0.5;" x="444.953602941" xlink:href="#m93b0483c22" y="243.406875"/>
      </g>
     </g>
     <g id="line2d_86">
      <g>
       <use style="stroke:#000000;stroke-width:0.5;" x="444.953602941" xlink:href="#m741efc42ff" y="13.006875"/>
      </g>
     </g>
     <g id="text_37">
      <!-- 0 -->
      <g transform="translate(441.930165441 256.525)scale(0.12 -0.12)">
       <use xlink:href="#BitstreamVeraSans-Roman-30"/>
      </g>
     </g>
    </g>
    <g id="xtick_15">
     <g id="line2d_87">
      <g>
       <use style="stroke:#000000;stroke-width:0.5;" x="477.777132353" xlink:href="#m93b0483c22" y="243.406875"/>
      </g>
     </g>
     <g id="line2d_88">
      <g>
       <use style="stroke:#000000;stroke-width:0.5;" x="477.777132353" xlink:href="#m741efc42ff" y="13.006875"/>
      </g>
     </g>
     <g id="text_38">
      <!-- 2 -->
      <g transform="translate(475.000257353 256.525)scale(0.12 -0.12)">
       <use xlink:href="#BitstreamVeraSans-Roman-32"/>
      </g>
     </g>
    </g>
    <g id="xtick_16">
     <g id="line2d_89">
      <g>
       <use style="stroke:#000000;stroke-width:0.5;" x="510.600661765" xlink:href="#m93b0483c22" y="243.406875"/>
      </g>
     </g>
     <g id="line2d_90">
      <g>
       <use style="stroke:#000000;stroke-width:0.5;" x="510.600661765" xlink:href="#m741efc42ff" y="13.006875"/>
      </g>
     </g>
     <g id="text_39">
      <!-- 4 -->
      <g transform="translate(507.413161765 256.525)scale(0.12 -0.12)">
       <use xlink:href="#BitstreamVeraSans-Roman-34"/>
      </g>
     </g>
    </g>
    <g id="xtick_17">
     <g id="line2d_91">
      <g>
       <use style="stroke:#000000;stroke-width:0.5;" x="543.424191176" xlink:href="#m93b0483c22" y="243.406875"/>
      </g>
     </g>
     <g id="line2d_92">
      <g>
       <use style="stroke:#000000;stroke-width:0.5;" x="543.424191176" xlink:href="#m741efc42ff" y="13.006875"/>
      </g>
     </g>
     <g id="text_40">
      <!-- 6 -->
      <g transform="translate(540.403566176 256.525)scale(0.12 -0.12)">
       <use xlink:href="#BitstreamVeraSans-Roman-36"/>
      </g>
     </g>
    </g>
    <g id="xtick_18">
     <g id="line2d_93">
      <g>
       <use style="stroke:#000000;stroke-width:0.5;" x="576.247720588" xlink:href="#m93b0483c22" y="243.406875"/>
      </g>
     </g>
     <g id="line2d_94">
      <g>
       <use style="stroke:#000000;stroke-width:0.5;" x="576.247720588" xlink:href="#m741efc42ff" y="13.006875"/>
      </g>
     </g>
     <g id="text_41">
      <!-- 8 -->
      <g transform="translate(573.247720588 256.525)scale(0.12 -0.12)">
       <use xlink:href="#BitstreamVeraSans-Roman-38"/>
      </g>
     </g>
    </g>
    <g id="xtick_19">
     <g id="line2d_95">
      <g>
       <use style="stroke:#000000;stroke-width:0.5;" x="609.07125" xlink:href="#m93b0483c22" y="243.406875"/>
      </g>
     </g>
     <g id="line2d_96">
      <g>
       <use style="stroke:#000000;stroke-width:0.5;" x="609.07125" xlink:href="#m741efc42ff" y="13.006875"/>
      </g>
     </g>
     <g id="text_42">
      <!-- 10 -->
      <g transform="translate(602.49375 256.525)scale(0.12 -0.12)">
       <use xlink:href="#BitstreamVeraSans-Roman-31"/>
       <use x="63.623046875" xlink:href="#BitstreamVeraSans-Roman-30"/>
      </g>
     </g>
    </g>
    <g id="text_43">
     <!-- T [s] -->
     <g transform="translate(514.131176471 273.13875)scale(0.12 -0.12)">
      <use xlink:href="#BitstreamVeraSans-Roman-54"/>
      <use x="61.083984375" xlink:href="#BitstreamVeraSans-Roman-20"/>
      <use x="92.87109375" xlink:href="#BitstreamVeraSans-Roman-5b"/>
      <use x="131.884765625" xlink:href="#BitstreamVeraSans-Roman-73"/>
      <use x="183.984375" xlink:href="#BitstreamVeraSans-Roman-5d"/>
     </g>
    </g>
   </g>
   <g id="matplotlib.axis_6">
    <g id="ytick_15">
     <g id="line2d_97">
      <g>
       <use style="stroke:#000000;stroke-width:0.5;" x="444.953602941" xlink:href="#m728421d6d4" y="243.406875"/>
      </g>
     </g>
     <g id="line2d_98">
      <g>
       <use style="stroke:#000000;stroke-width:0.5;" x="609.07125" xlink:href="#mcb0005524f" y="243.406875"/>
      </g>
     </g>
     <g id="text_44">
      <!-- −30 -->
      <g transform="translate(417.696102941 246.718125)scale(0.12 -0.12)">
       <use xlink:href="#BitstreamVeraSans-Roman-2212"/>
       <use x="83.7890625" xlink:href="#BitstreamVeraSans-Roman-33"/>
       <use x="147.412109375" xlink:href="#BitstreamVeraSans-Roman-30"/>
      </g>
     </g>
    </g>
    <g id="ytick_16">
     <g id="line2d_99">
      <g>
       <use style="stroke:#000000;stroke-width:0.5;" x="444.953602941" xlink:href="#m728421d6d4" y="205.006875"/>
      </g>
     </g>
     <g id="line2d_100">
      <g>
       <use style="stroke:#000000;stroke-width:0.5;" x="609.07125" xlink:href="#mcb0005524f" y="205.006875"/>
      </g>
     </g>
     <g id="text_45">
      <!-- −20 -->
      <g transform="translate(417.696102941 208.318125)scale(0.12 -0.12)">
       <use xlink:href="#BitstreamVeraSans-Roman-2212"/>
       <use x="83.7890625" xlink:href="#BitstreamVeraSans-Roman-32"/>
       <use x="147.412109375" xlink:href="#BitstreamVeraSans-Roman-30"/>
      </g>
     </g>
    </g>
    <g id="ytick_17">
     <g id="line2d_101">
      <g>
       <use style="stroke:#000000;stroke-width:0.5;" x="444.953602941" xlink:href="#m728421d6d4" y="166.606875"/>
      </g>
     </g>
     <g id="line2d_102">
      <g>
       <use style="stroke:#000000;stroke-width:0.5;" x="609.07125" xlink:href="#mcb0005524f" y="166.606875"/>
      </g>
     </g>
     <g id="text_46">
      <!-- −10 -->
      <g transform="translate(417.696102941 169.918125)scale(0.12 -0.12)">
       <use xlink:href="#BitstreamVeraSans-Roman-2212"/>
       <use x="83.7890625" xlink:href="#BitstreamVeraSans-Roman-31"/>
       <use x="147.412109375" xlink:href="#BitstreamVeraSans-Roman-30"/>
      </g>
     </g>
    </g>
    <g id="ytick_18">
     <g id="line2d_103">
      <g>
       <use style="stroke:#000000;stroke-width:0.5;" x="444.953602941" xlink:href="#m728421d6d4" y="128.206875"/>
      </g>
     </g>
     <g id="line2d_104">
      <g>
       <use style="stroke:#000000;stroke-width:0.5;" x="609.07125" xlink:href="#mcb0005524f" y="128.206875"/>
      </g>
     </g>
     <g id="text_47">
      <!-- 0 -->
      <g transform="translate(434.906727941 131.518125)scale(0.12 -0.12)">
       <use xlink:href="#BitstreamVeraSans-Roman-30"/>
      </g>
     </g>
    </g>
    <g id="ytick_19">
     <g id="line2d_105">
      <g>
       <use style="stroke:#000000;stroke-width:0.5;" x="444.953602941" xlink:href="#m728421d6d4" y="89.806875"/>
      </g>
     </g>
     <g id="line2d_106">
      <g>
       <use style="stroke:#000000;stroke-width:0.5;" x="609.07125" xlink:href="#mcb0005524f" y="89.806875"/>
      </g>
     </g>
     <g id="text_48">
      <!-- 10 -->
      <g transform="translate(427.798602941 93.118125)scale(0.12 -0.12)">
       <use xlink:href="#BitstreamVeraSans-Roman-31"/>
       <use x="63.623046875" xlink:href="#BitstreamVeraSans-Roman-30"/>
      </g>
     </g>
    </g>
    <g id="ytick_20">
     <g id="line2d_107">
      <g>
       <use style="stroke:#000000;stroke-width:0.5;" x="444.953602941" xlink:href="#m728421d6d4" y="51.406875"/>
      </g>
     </g>
     <g id="line2d_108">
      <g>
       <use style="stroke:#000000;stroke-width:0.5;" x="609.07125" xlink:href="#mcb0005524f" y="51.406875"/>
      </g>
     </g>
     <g id="text_49">
      <!-- 20 -->
      <g transform="translate(427.359852941 54.718125)scale(0.12 -0.12)">
       <use xlink:href="#BitstreamVeraSans-Roman-32"/>
       <use x="63.623046875" xlink:href="#BitstreamVeraSans-Roman-30"/>
      </g>
     </g>
    </g>
    <g id="ytick_21">
     <g id="line2d_109">
      <g>
       <use style="stroke:#000000;stroke-width:0.5;" x="444.953602941" xlink:href="#m728421d6d4" y="13.006875"/>
      </g>
     </g>
     <g id="line2d_110">
      <g>
       <use style="stroke:#000000;stroke-width:0.5;" x="609.07125" xlink:href="#mcb0005524f" y="13.006875"/>
      </g>
     </g>
     <g id="text_50">
      <!-- 30 -->
      <g transform="translate(427.395477941 16.318125)scale(0.12 -0.12)">
       <use xlink:href="#BitstreamVeraSans-Roman-33"/>
       <use x="63.623046875" xlink:href="#BitstreamVeraSans-Roman-30"/>
      </g>
     </g>
    </g>
   </g>
   <g id="legend_3">
    <g id="patch_19">
     <path d="
M484.822 87.9364
L601.871 87.9364
L601.871 20.2069
L484.822 20.2069
z
" style="fill:#ffffff;stroke:#000000;stroke-linejoin:miter;"/>
    </g>
    <g id="line2d_111">
     <path d="
M494.902 31.8686
L515.062 31.8686" style="fill:none;stroke:#0000ff;stroke-dasharray:1.000000,3.000000;stroke-dashoffset:0.0;stroke-width:2;"/>
    </g>
    <g id="line2d_112"/>
    <g id="text_51">
     <!-- dt=40ms -->
     <defs>
      <path d="
M52 44.1875
Q55.375 50.25 60.0625 53.125
Q64.75 56 71.0938 56
Q79.6406 56 84.2812 50.0156
Q88.9219 44.0469 88.9219 33.0156
L88.9219 0
L79.8906 0
L79.8906 32.7188
Q79.8906 40.5781 77.0938 44.375
Q74.3125 48.1875 68.6094 48.1875
Q61.625 48.1875 57.5625 43.5469
Q53.5156 38.9219 53.5156 30.9062
L53.5156 0
L44.4844 0
L44.4844 32.7188
Q44.4844 40.625 41.7031 44.4062
Q38.9219 48.1875 33.1094 48.1875
Q26.2188 48.1875 22.1562 43.5312
Q18.1094 38.875 18.1094 30.9062
L18.1094 0
L9.07812 0
L9.07812 54.6875
L18.1094 54.6875
L18.1094 46.1875
Q21.1875 51.2188 25.4844 53.6094
Q29.7812 56 35.6875 56
Q41.6562 56 45.8281 52.9688
Q50 49.9531 52 44.1875" id="BitstreamVeraSans-Roman-6d"/>
      <path d="
M18.3125 70.2188
L18.3125 54.6875
L36.8125 54.6875
L36.8125 47.7031
L18.3125 47.7031
L18.3125 18.0156
Q18.3125 11.3281 20.1406 9.42188
Q21.9688 7.51562 27.5938 7.51562
L36.8125 7.51562
L36.8125 0
L27.5938 0
Q17.1875 0 13.2344 3.875
Q9.28125 7.76562 9.28125 18.0156
L9.28125 47.7031
L2.6875 47.7031
L2.6875 54.6875
L9.28125 54.6875
L9.28125 70.2188
z
" id="BitstreamVeraSans-Roman-74"/>
     </defs>
     <g transform="translate(530.90175 36.908625)scale(0.144 -0.144)">
      <use xlink:href="#BitstreamVeraSans-Roman-64"/>
      <use x="63.4765625" xlink:href="#BitstreamVeraSans-Roman-74"/>
      <use x="102.685546875" xlink:href="#BitstreamVeraSans-Roman-3d"/>
      <use x="186.474609375" xlink:href="#BitstreamVeraSans-Roman-34"/>
      <use x="250.09765625" xlink:href="#BitstreamVeraSans-Roman-30"/>
      <use x="313.720703125" xlink:href="#BitstreamVeraSans-Roman-6d"/>
      <use x="411.1328125" xlink:href="#BitstreamVeraSans-Roman-73"/>
     </g>
    </g>
    <g id="line2d_113">
     <path d="
M494.902 53.0051
L515.062 53.0051" style="fill:none;stroke:#0000ff;stroke-dasharray:6.000000,6.000000;stroke-dashoffset:0.0;stroke-width:2;"/>
    </g>
    <g id="line2d_114"/>
    <g id="text_52">
     <!-- dt=20ms -->
     <g transform="translate(530.90175 58.045125)scale(0.144 -0.144)">
      <use xlink:href="#BitstreamVeraSans-Roman-64"/>
      <use x="63.4765625" xlink:href="#BitstreamVeraSans-Roman-74"/>
      <use x="102.685546875" xlink:href="#BitstreamVeraSans-Roman-3d"/>
      <use x="186.474609375" xlink:href="#BitstreamVeraSans-Roman-32"/>
      <use x="250.09765625" xlink:href="#BitstreamVeraSans-Roman-30"/>
      <use x="313.720703125" xlink:href="#BitstreamVeraSans-Roman-6d"/>
      <use x="411.1328125" xlink:href="#BitstreamVeraSans-Roman-73"/>
     </g>
    </g>
    <g id="line2d_115">
     <path d="
M494.902 74.1416
L515.062 74.1416" style="fill:none;stroke:#0000ff;stroke-linecap:square;stroke-width:2;"/>
    </g>
    <g id="line2d_116"/>
    <g id="text_53">
     <!-- dt=10ms -->
     <g transform="translate(530.90175 79.181625)scale(0.144 -0.144)">
      <use xlink:href="#BitstreamVeraSans-Roman-64"/>
      <use x="63.4765625" xlink:href="#BitstreamVeraSans-Roman-74"/>
      <use x="102.685546875" xlink:href="#BitstreamVeraSans-Roman-3d"/>
      <use x="186.474609375" xlink:href="#BitstreamVeraSans-Roman-31"/>
      <use x="250.09765625" xlink:href="#BitstreamVeraSans-Roman-30"/>
      <use x="313.720703125" xlink:href="#BitstreamVeraSans-Roman-6d"/>
      <use x="411.1328125" xlink:href="#BitstreamVeraSans-Roman-73"/>
     </g>
    </g>
   </g>
  </g>
 </g>
 <defs>
  <clipPath id="pb1f9303860">
   <rect height="230.4" width="164.117647059" x="248.012426471" y="13.006875"/>
  </clipPath>
  <clipPath id="pcbc3d8a6a5">
   <rect height="230.4" width="164.117647059" x="444.953602941" y="13.006875"/>
  </clipPath>
  <clipPath id="p62c1edccab">
   <rect height="230.4" width="164.117647059" x="51.07125" y="13.006875"/>
  </clipPath>
 </defs>
</svg>
