<?xml version="1.0" encoding="UTF-8" standalone="no"?> <svg width="624.769mm" height="685.447mm"  viewBox="0 0 1771.65 1943.33"  xmlns="http://www.w3.org/2000/svg" xmlns:xlink="http://www.w3.org/1999/xlink"  version="1.2" baseProfile="tiny"> <title>Generated with ETE http://etetoolkit.org</title> <desc>Generated with ETE http://etetoolkit.org</desc> <defs> </defs> <g fill="none" stroke="black" stroke-width="1" fill-rule="evenodd" stroke-linecap="square" stroke-linejoin="bevel" >      <g fill="none" stroke="none" transform="matrix(6.86687,0,0,6.86687,-116.737,199.139)" font-family="Ubuntu" font-size="11pt" font-weight="400" font-style="normal"  > <path vector-effect="non-scaling-stroke" fill-rule="evenodd" d="M17,-29 L275,-29 L275,254 L17,254 L17,-29"/> </g>      <g fill="none" stroke="none" transform="matrix(0,6.86687,-6.86687,0,1490.11,206.006)" font-family="Ubuntu" font-size="11pt" font-weight="400" font-style="normal"  > <path vector-effect="non-scaling-stroke" fill-rule="evenodd" d="M0,0 L252,0 L252,216 L0,216 L0,0"/> </g>                                                                          <g fill="none" stroke="#000000" stroke-opacity="1" stroke-width="3" stroke-linecap="butt" stroke-linejoin="bevel" transform="matrix(0,6.86687,-6.86687,0,1490.11,206.006)" font-family="Ubuntu" font-size="11pt" font-weight="400" font-style="normal"  > <polyline fill="none" vector-effect="none" points="-1.5,25.5 -1.5,129.75 " /> </g>                              <g fill="none" stroke="#0000ff" stroke-opacity="1" stroke-width="3" stroke-linecap="butt" stroke-linejoin="bevel" transform="matrix(0,6.86687,-6.86687,0,1490.11,206.006)" font-family="Ubuntu" font-size="11pt" font-weight="400" font-style="normal"  > <polyline fill="none" vector-effect="none" points="162.037,12 162.037,42 " /> </g>      <g fill="none" stroke="#808080" stroke-opacity="1" stroke-dasharray="3,6" stroke-dashoffset="0" stroke-width="3" stroke-linecap="butt" stroke-linejoin="bevel" transform="matrix(0,6.86687,-6.86687,0,1490.11,206.006)" font-family="Ubuntu" font-size="11pt" font-weight="400" font-style="normal"  > <polyline fill="none" vector-effect="none" points="163.537,27 160.537,27 " /> </g>      <g fill="none" stroke="#0000ff" stroke-opacity="1" stroke-width="3" stroke-linecap="butt" stroke-linejoin="bevel" transform="matrix(0,6.86687,-6.86687,0,1490.11,206.006)" font-family="Ubuntu" font-size="11pt" font-weight="400" font-style="normal"  > <polyline fill="none" vector-effect="none" points="0,27 163.537,27 " /> </g>                        <g fill="none" stroke="#0000ff" stroke-opacity="1" stroke-width="3" stroke-linecap="butt" stroke-linejoin="bevel" transform="matrix(0,6.86687,-6.86687,0,1490.11,1328.99)" font-family="Ubuntu" font-size="11pt" font-weight="400" font-style="normal"  > <polyline fill="none" vector-effect="none" points="0,13.5 16.4631,13.5 " /> </g>      <g fill="#0000ff" fill-opacity="1" stroke="#0000ff" stroke-opacity="1" stroke-width="1" stroke-linecap="square" stroke-linejoin="bevel" transform="matrix(0,6.86687,-6.86687,0,1407.71,1442.04)" font-family="Ubuntu" font-size="11pt" font-weight="400" font-style="normal"  > <path vector-effect="non-scaling-stroke" fill-rule="evenodd" d="M3,1.5 C3,2.32843 2.32843,3 1.5,3 C0.671573,3 0,2.32843 0,1.5 C0,0.671573 0.671573,0 1.5,0 C2.32843,0 3,0.671573 3,1.5 "/> </g>                      <g fill="none" stroke="#000000" stroke-opacity="1" stroke-width="1" stroke-linecap="square" stroke-linejoin="bevel" transform="matrix(0,6.86687,-6.86687,0,1455.78,1462.64)" font-family="Verdana" font-size="10pt" font-weight="400" font-style="normal"  > <text fill="#000000" fill-opacity="1" stroke="none" xml:space="preserve" x="0" y="13" font-family="Verdana" font-size="10pt" font-weight="400" font-style="normal"   >Lum Ses 1</text> </g>            <g fill="none" stroke="#0000ff" stroke-opacity="1" stroke-width="3" stroke-linecap="butt" stroke-linejoin="bevel" transform="matrix(0,6.86687,-6.86687,0,1304.71,1328.99)" font-family="Ubuntu" font-size="11pt" font-weight="400" font-style="normal"  > <polyline fill="none" vector-effect="none" points="0,13.5 16.4631,13.5 " /> </g>      <g fill="#0000ff" fill-opacity="1" stroke="#0000ff" stroke-opacity="1" stroke-width="1" stroke-linecap="square" stroke-linejoin="bevel" transform="matrix(0,6.86687,-6.86687,0,1222.3,1442.04)" font-family="Ubuntu" font-size="11pt" font-weight="400" font-style="normal"  > <path vector-effect="non-scaling-stroke" fill-rule="evenodd" d="M3,1.5 C3,2.32843 2.32843,3 1.5,3 C0.671573,3 0,2.32843 0,1.5 C0,0.671573 0.671573,0 1.5,0 C2.32843,0 3,0.671573 3,1.5 "/> </g>                      <g fill="none" stroke="#000000" stroke-opacity="1" stroke-width="1" stroke-linecap="square" stroke-linejoin="bevel" transform="matrix(0,6.86687,-6.86687,0,1270.37,1462.64)" font-family="Verdana" font-size="10pt" font-weight="400" font-style="normal"  > <text fill="#000000" fill-opacity="1" stroke="none" xml:space="preserve" x="0" y="13" font-family="Verdana" font-size="10pt" font-weight="400" font-style="normal"   >Lum Ses 2</text> </g>      <g fill="none" stroke="#000000" stroke-opacity="1" stroke-width="3" stroke-linecap="butt" stroke-linejoin="bevel" transform="matrix(0,6.86687,-6.86687,0,1119.3,206.006)" font-family="Ubuntu" font-size="11pt" font-weight="400" font-style="normal"  > <polyline fill="none" vector-effect="none" points="102.292,32.25 102.292,116.25 " /> </g>      <g fill="none" stroke="#808080" stroke-opacity="1" stroke-dasharray="3,6" stroke-dashoffset="0" stroke-width="3" stroke-linecap="butt" stroke-linejoin="bevel" transform="matrix(0,6.86687,-6.86687,0,1119.3,206.006)" font-family="Ubuntu" font-size="11pt" font-weight="400" font-style="normal"  > <polyline fill="none" vector-effect="none" points="103.792,74.25 100.792,74.25 " /> </g>      <g fill="none" stroke="#000000" stroke-opacity="1" stroke-width="3" stroke-linecap="butt" stroke-linejoin="bevel" transform="matrix(0,6.86687,-6.86687,0,1119.3,206.006)" font-family="Ubuntu" font-size="11pt" font-weight="400" font-style="normal"  > <polyline fill="none" vector-effect="none" points="0,74.25 103.792,74.25 " /> </g>                  <g fill="none" stroke="#ff0000" stroke-opacity="1" stroke-width="3" stroke-linecap="butt" stroke-linejoin="bevel" transform="matrix(0,6.86687,-6.86687,0,1119.3,918.735)" font-family="Ubuntu" font-size="11pt" font-weight="400" font-style="normal"  > <polyline fill="none" vector-effect="none" points="68.8625,12 68.8625,55.5 " /> </g>      <g fill="none" stroke="#808080" stroke-opacity="1" stroke-dasharray="3,6" stroke-dashoffset="0" stroke-width="3" stroke-linecap="butt" stroke-linejoin="bevel" transform="matrix(0,6.86687,-6.86687,0,1119.3,918.735)" font-family="Ubuntu" font-size="11pt" font-weight="400" font-style="normal"  > <polyline fill="none" vector-effect="none" points="70.3625,33.75 67.3625,33.75 " /> </g>      <g fill="none" stroke="#ff0000" stroke-opacity="1" stroke-width="3" stroke-linecap="butt" stroke-linejoin="bevel" transform="matrix(0,6.86687,-6.86687,0,1119.3,918.735)" font-family="Ubuntu" font-size="11pt" font-weight="400" font-style="normal"  > <polyline fill="none" vector-effect="none" points="0,33.75 70.3625,33.75 " /> </g>                        <g fill="none" stroke="#ff0000" stroke-opacity="1" stroke-width="3" stroke-linecap="butt" stroke-linejoin="bevel" transform="matrix(0,6.86687,-6.86687,0,1119.3,1401.91)" font-family="Ubuntu" font-size="11pt" font-weight="400" font-style="normal"  > <polyline fill="none" vector-effect="none" points="0,13.5 5.84513,13.5 " /> </g>      <g fill="#ff0000" fill-opacity="1" stroke="#ff0000" stroke-opacity="1" stroke-width="1" stroke-linecap="square" stroke-linejoin="bevel" transform="matrix(0,6.86687,-6.86687,0,1036.9,1442.04)" font-family="Ubuntu" font-size="11pt" font-weight="400" font-style="normal"  > <path vector-effect="non-scaling-stroke" fill-rule="evenodd" d="M3,1.5 C3,2.32843 2.32843,3 1.5,3 C0.671573,3 0,2.32843 0,1.5 C0,0.671573 0.671573,0 1.5,0 C2.32843,0 3,0.671573 3,1.5 "/> </g>                      <g fill="none" stroke="#000000" stroke-opacity="1" stroke-width="1" stroke-linecap="square" stroke-linejoin="bevel" transform="matrix(0,6.86687,-6.86687,0,1084.97,1462.64)" font-family="Verdana" font-size="10pt" font-weight="400" font-style="normal"  > <text fill="#000000" fill-opacity="1" stroke="none" xml:space="preserve" x="0" y="13" font-family="Verdana" font-size="10pt" font-weight="400" font-style="normal"   >Con Ses 1</text> </g>      <g fill="none" stroke="#ff0000" stroke-opacity="1" stroke-width="3" stroke-linecap="butt" stroke-linejoin="bevel" transform="matrix(0,6.86687,-6.86687,0,933.895,1401.91)" font-family="Ubuntu" font-size="11pt" font-weight="400" font-style="normal"  > <polyline fill="none" vector-effect="none" points="3.81581,12 3.81581,42 " /> </g>      <g fill="none" stroke="#808080" stroke-opacity="1" stroke-dasharray="3,6" stroke-dashoffset="0" stroke-width="3" stroke-linecap="butt" stroke-linejoin="bevel" transform="matrix(0,6.86687,-6.86687,0,933.895,1401.91)" font-family="Ubuntu" font-size="11pt" font-weight="400" font-style="normal"  > <polyline fill="none" vector-effect="none" points="5.31581,27 2.31581,27 " /> </g>      <g fill="none" stroke="#ff0000" stroke-opacity="1" stroke-width="3" stroke-linecap="butt" stroke-linejoin="bevel" transform="matrix(0,6.86687,-6.86687,0,933.895,1401.91)" font-family="Ubuntu" font-size="11pt" font-weight="400" font-style="normal"  > <polyline fill="none" vector-effect="none" points="0,27 5.31581,27 " /> </g>                        <g fill="none" stroke="#ff0000" stroke-opacity="1" stroke-width="3" stroke-linecap="butt" stroke-linejoin="bevel" transform="matrix(0,6.86687,-6.86687,0,933.895,1438.41)" font-family="Ubuntu" font-size="11pt" font-weight="400" font-style="normal"  > <polyline fill="none" vector-effect="none" points="0,13.5 0.529316,13.5 " /> </g>      <g fill="#ff0000" fill-opacity="1" stroke="#ff0000" stroke-opacity="1" stroke-width="1" stroke-linecap="square" stroke-linejoin="bevel" transform="matrix(0,6.86687,-6.86687,0,851.492,1442.04)" font-family="Ubuntu" font-size="11pt" font-weight="400" font-style="normal"  > <path vector-effect="non-scaling-stroke" fill-rule="evenodd" d="M3,1.5 C3,2.32843 2.32843,3 1.5,3 C0.671573,3 0,2.32843 0,1.5 C0,0.671573 0.671573,0 1.5,0 C2.32843,0 3,0.671573 3,1.5 "/> </g>                      <g fill="none" stroke="#000000" stroke-opacity="1" stroke-width="1" stroke-linecap="square" stroke-linejoin="bevel" transform="matrix(0,6.86687,-6.86687,0,899.561,1462.64)" font-family="Verdana" font-size="10pt" font-weight="400" font-style="normal"  > <text fill="#000000" fill-opacity="1" stroke="none" xml:space="preserve" x="0" y="13" font-family="Verdana" font-size="10pt" font-weight="400" font-style="normal"   >Con Ses 2</text> </g>            <g fill="none" stroke="#ff0000" stroke-opacity="1" stroke-width="3" stroke-linecap="butt" stroke-linejoin="bevel" transform="matrix(0,6.86687,-6.86687,0,748.489,1438.41)" font-family="Ubuntu" font-size="11pt" font-weight="400" font-style="normal"  > <polyline fill="none" vector-effect="none" points="0,13.5 0.529316,13.5 " /> </g>      <g fill="#ff0000" fill-opacity="1" stroke="#ff0000" stroke-opacity="1" stroke-width="1" stroke-linecap="square" stroke-linejoin="bevel" transform="matrix(0,6.86687,-6.86687,0,666.087,1442.04)" font-family="Ubuntu" font-size="11pt" font-weight="400" font-style="normal"  > <path vector-effect="non-scaling-stroke" fill-rule="evenodd" d="M3,1.5 C3,2.32843 2.32843,3 1.5,3 C0.671573,3 0,2.32843 0,1.5 C0,0.671573 0.671573,0 1.5,0 C2.32843,0 3,0.671573 3,1.5 "/> </g>                      <g fill="none" stroke="#000000" stroke-opacity="1" stroke-width="1" stroke-linecap="square" stroke-linejoin="bevel" transform="matrix(0,6.86687,-6.86687,0,714.155,1462.64)" font-family="Verdana" font-size="10pt" font-weight="400" font-style="normal"  > <text fill="#000000" fill-opacity="1" stroke="none" xml:space="preserve" x="0" y="13" font-family="Verdana" font-size="10pt" font-weight="400" font-style="normal"   >Con Ses 3</text> </g>      <g fill="none" stroke="#008000" stroke-opacity="1" stroke-width="3" stroke-linecap="butt" stroke-linejoin="bevel" transform="matrix(0,6.86687,-6.86687,0,563.084,918.735)" font-family="Ubuntu" font-size="11pt" font-weight="400" font-style="normal"  > <polyline fill="none" vector-effect="none" points="65.0151,12 65.0151,55.5 " /> </g>      <g fill="none" stroke="#808080" stroke-opacity="1" stroke-dasharray="3,6" stroke-dashoffset="0" stroke-width="3" stroke-linecap="butt" stroke-linejoin="bevel" transform="matrix(0,6.86687,-6.86687,0,563.084,918.735)" font-family="Ubuntu" font-size="11pt" font-weight="400" font-style="normal"  > <polyline fill="none" vector-effect="none" points="66.5151,33.75 63.5151,33.75 " /> </g>      <g fill="none" stroke="#008000" stroke-opacity="1" stroke-width="3" stroke-linecap="butt" stroke-linejoin="bevel" transform="matrix(0,6.86687,-6.86687,0,563.084,918.735)" font-family="Ubuntu" font-size="11pt" font-weight="400" font-style="normal"  > <polyline fill="none" vector-effect="none" points="0,33.75 66.5151,33.75 " /> </g>                        <g fill="none" stroke="#008000" stroke-opacity="1" stroke-width="3" stroke-linecap="butt" stroke-linejoin="bevel" transform="matrix(0,6.86687,-6.86687,0,563.084,1375.49)" font-family="Ubuntu" font-size="11pt" font-weight="400" font-style="normal"  > <polyline fill="none" vector-effect="none" points="0,13.5 9.6926,13.5 " /> </g>      <g fill="#008000" fill-opacity="1" stroke="#008000" stroke-opacity="1" stroke-width="1" stroke-linecap="square" stroke-linejoin="bevel" transform="matrix(0,6.86687,-6.86687,0,480.681,1442.04)" font-family="Ubuntu" font-size="11pt" font-weight="400" font-style="normal"  > <path vector-effect="non-scaling-stroke" fill-rule="evenodd" d="M3,1.5 C3,2.32843 2.32843,3 1.5,3 C0.671573,3 0,2.32843 0,1.5 C0,0.671573 0.671573,0 1.5,0 C2.32843,0 3,0.671573 3,1.5 "/> </g>                      <g fill="none" stroke="#000000" stroke-opacity="1" stroke-width="1" stroke-linecap="square" stroke-linejoin="bevel" transform="matrix(0,6.86687,-6.86687,0,528.749,1462.64)" font-family="Verdana" font-size="10pt" font-weight="400" font-style="normal"  > <text fill="#000000" fill-opacity="1" stroke="none" xml:space="preserve" x="0" y="13" font-family="Verdana" font-size="10pt" font-weight="400" font-style="normal"   >Aud Ses 1</text> </g>      <g fill="none" stroke="#008000" stroke-opacity="1" stroke-width="3" stroke-linecap="butt" stroke-linejoin="bevel" transform="matrix(0,6.86687,-6.86687,0,377.678,1375.49)" font-family="Ubuntu" font-size="11pt" font-weight="400" font-style="normal"  > <polyline fill="none" vector-effect="none" points="6.82092,12 6.82092,42 " /> </g>      <g fill="none" stroke="#808080" stroke-opacity="1" stroke-dasharray="3,6" stroke-dashoffset="0" stroke-width="3" stroke-linecap="butt" stroke-linejoin="bevel" transform="matrix(0,6.86687,-6.86687,0,377.678,1375.49)" font-family="Ubuntu" font-size="11pt" font-weight="400" font-style="normal"  > <polyline fill="none" vector-effect="none" points="8.32092,27 5.32092,27 " /> </g>      <g fill="none" stroke="#008000" stroke-opacity="1" stroke-width="3" stroke-linecap="butt" stroke-linejoin="bevel" transform="matrix(0,6.86687,-6.86687,0,377.678,1375.49)" font-family="Ubuntu" font-size="11pt" font-weight="400" font-style="normal"  > <polyline fill="none" vector-effect="none" points="0,27 8.32092,27 " /> </g>                        <g fill="none" stroke="#008000" stroke-opacity="1" stroke-width="3" stroke-linecap="butt" stroke-linejoin="bevel" transform="matrix(0,6.86687,-6.86687,0,377.678,1432.62)" font-family="Ubuntu" font-size="11pt" font-weight="400" font-style="normal"  > <polyline fill="none" vector-effect="none" points="0,13.5 1.37168,13.5 " /> </g>      <g fill="#008000" fill-opacity="1" stroke="#008000" stroke-opacity="1" stroke-width="1" stroke-linecap="square" stroke-linejoin="bevel" transform="matrix(0,6.86687,-6.86687,0,295.276,1442.04)" font-family="Ubuntu" font-size="11pt" font-weight="400" font-style="normal"  > <path vector-effect="non-scaling-stroke" fill-rule="evenodd" d="M3,1.5 C3,2.32843 2.32843,3 1.5,3 C0.671573,3 0,2.32843 0,1.5 C0,0.671573 0.671573,0 1.5,0 C2.32843,0 3,0.671573 3,1.5 "/> </g>                      <g fill="none" stroke="#000000" stroke-opacity="1" stroke-width="1" stroke-linecap="square" stroke-linejoin="bevel" transform="matrix(0,6.86687,-6.86687,0,343.344,1462.64)" font-family="Verdana" font-size="10pt" font-weight="400" font-style="normal"  > <text fill="#000000" fill-opacity="1" stroke="none" xml:space="preserve" x="0" y="13" font-family="Verdana" font-size="10pt" font-weight="400" font-style="normal"   >Aud Ses 2</text> </g>            <g fill="none" stroke="#008000" stroke-opacity="1" stroke-width="3" stroke-linecap="butt" stroke-linejoin="bevel" transform="matrix(0,6.86687,-6.86687,0,192.272,1432.62)" font-family="Ubuntu" font-size="11pt" font-weight="400" font-style="normal"  > <polyline fill="none" vector-effect="none" points="0,13.5 1.37168,13.5 " /> </g>      <g fill="#008000" fill-opacity="1" stroke="#008000" stroke-opacity="1" stroke-width="1" stroke-linecap="square" stroke-linejoin="bevel" transform="matrix(0,6.86687,-6.86687,0,109.87,1442.04)" font-family="Ubuntu" font-size="11pt" font-weight="400" font-style="normal"  > <path vector-effect="non-scaling-stroke" fill-rule="evenodd" d="M3,1.5 C3,2.32843 2.32843,3 1.5,3 C0.671573,3 0,2.32843 0,1.5 C0,0.671573 0.671573,0 1.5,0 C2.32843,0 3,0.671573 3,1.5 "/> </g>                      <g fill="none" stroke="#000000" stroke-opacity="1" stroke-width="1" stroke-linecap="square" stroke-linejoin="bevel" transform="matrix(0,6.86687,-6.86687,0,157.938,1462.64)" font-family="Verdana" font-size="10pt" font-weight="400" font-style="normal"  > <text fill="#000000" fill-opacity="1" stroke="none" xml:space="preserve" x="0" y="13" font-family="Verdana" font-size="10pt" font-weight="400" font-style="normal"   >Aud Ses 3</text> </g>                                                                      <g fill="none" stroke="#000000" stroke-opacity="1" stroke-width="1" stroke-linecap="square" stroke-linejoin="bevel" transform="matrix(6.86687,0,0,6.86687,0,0)" font-family="Verdana" font-size="18pt" font-weight="400" font-style="normal"  > <text fill="#000000" fill-opacity="1" stroke="none" xml:space="preserve" x="0" y="23" font-family="Verdana" font-size="18pt" font-weight="400" font-style="normal"   >Confidence Hierarchy</text> </g>     </g> </svg> 