<?xml version="1.0" encoding="utf-8" standalone="no"?>
<!DOCTYPE svg PUBLIC "-//W3C//DTD SVG 1.1//EN"
  "http://www.w3.org/Graphics/SVG/1.1/DTD/svg11.dtd">
<!-- Created with matplotlib (http://matplotlib.org/) -->
<svg height="424pt" version="1.1" viewBox="0 0 838 424" width="838pt" xmlns="http://www.w3.org/2000/svg" xmlns:xlink="http://www.w3.org/1999/xlink">
 <defs>
  <style type="text/css">
*{stroke-linecap:butt;stroke-linejoin:round;}
  </style>
 </defs>
 <g id="figure_1">
  <g id="patch_1">
   <path d="
M0 424.294
L839 424.294
L839 0
L0 0
z
" style="fill:#ffffff;"/>
  </g>
  <g id="axes_1">
   <g id="patch_2">
    <path d="
M45.5138 298.467
L278.794 298.467
L278.794 212.067
L45.5138 212.067
z
" style="fill:#ffffff;"/>
   </g>
   <g id="line2d_1">
    <path clip-path="url(#p5bbb9315a8)" d="
M45.5138 215.792
L50.1793 215.535
L54.8449 215.478
L59.5106 215.534
L64.1762 215.706
L68.8418 215.961
L73.5074 216.262
L78.173 216.592
L82.8385 216.959
L87.5041 217.348
L92.1697 217.737
L96.8354 218.136
L101.501 218.554
L106.167 218.99
L110.832 219.421
L115.498 219.828
L120.163 220.264
L124.829 220.677
L129.495 221.092
L134.16 221.512
L138.826 221.908
L143.491 222.318
L148.157 222.706
L152.823 223.096
L157.488 223.489
L162.154 223.847
L166.819 224.237
L171.485 224.581
L176.151 224.935
L180.816 225.309
L185.482 225.626
L190.147 225.956
L194.813 226.308
L199.479 226.628
L204.144 226.92
L208.81 227.242
L213.475 227.572
L218.141 227.854
L222.807 228.124
L227.472 228.418
L232.138 228.726
L236.803 229.017
L241.469 229.249
L246.135 229.501
L250.8 229.771
L255.466 230.054
L260.131 230.33
L264.797 230.541
L269.463 230.757
L274.128 230.989
L278.794 231.233
L283.459 231.487" style="fill:none;stroke:#0000ff;stroke-dasharray:6.000000,6.000000;stroke-dashoffset:0.0;"/>
   </g>
   <g id="line2d_2">
    <path clip-path="url(#p5bbb9315a8)" d="
M45.5138 294.741
L50.1793 294.999
L54.8449 295.055
L59.5106 294.999
L64.1762 294.827
L68.8418 294.572
L73.5074 294.271
L78.173 293.941
L82.8385 293.575
L87.5041 293.185
L92.1697 292.797
L96.8354 292.397
L101.501 291.979
L106.167 291.543
L110.832 291.113
L115.498 290.705
L120.163 290.27
L124.829 289.856
L129.495 289.441
L134.16 289.021
L138.826 288.625
L143.491 288.215
L148.157 287.828
L152.823 287.437
L157.488 287.044
L162.154 286.686
L166.819 286.297
L171.485 285.952
L176.151 285.598
L180.816 285.224
L185.482 284.907
L190.147 284.577
L194.813 284.225
L199.479 283.906
L204.144 283.613
L208.81 283.292
L213.475 282.961
L218.141 282.679
L222.807 282.409
L227.472 282.115
L232.138 281.807
L236.803 281.516
L241.469 281.284
L246.135 281.032
L250.8 280.762
L255.466 280.479
L260.131 280.204
L264.797 279.992
L269.463 279.776
L274.128 279.544
L278.794 279.3
L283.459 279.046" style="fill:none;stroke:#ff0000;stroke-dasharray:6.000000,6.000000;stroke-dashoffset:0.0;"/>
   </g>
   <g id="line2d_3">
    <path clip-path="url(#p5bbb9315a8)" d="
M45.5138 255.267
L45.747 253.65
L45.8637 251.991
L45.9803 254.014
L46.0969 259.88
L46.2136 258.109
L46.4469 260.806
L46.6802 263.758
L47.1467 250.274
L47.2634 255.779
L47.38 254.135
L47.4966 254.765
L47.7299 257.914
L48.5464 247.164
L48.7797 249.743
L49.013 246.347
L49.1296 246.407
L49.2462 249.878
L49.4795 246.515
L49.7128 245.415
L49.8294 242.818
L49.9461 244.768
L50.0627 249.91
L50.1793 249.834
L50.4126 252.279
L50.5293 252.855
L50.6459 254.825
L50.7626 251.431
L50.8792 252.954
L51.1125 249.276
L51.2291 248.739
L51.4624 245.975
L51.579 254.288
L51.6957 254.397
L51.8123 253.135
L52.0456 254.518
L52.3955 249.498
L52.5121 251.161
L52.6288 246.865
L52.7454 254.176
L52.9787 254.754
L53.0954 253.672
L53.212 255.774
L53.3286 253.381
L53.4453 253.312
L53.5619 252.361
L53.6786 253.143
L53.7952 255.262
L53.9118 253.643
L54.0285 255.773
L54.1451 253.33
L54.2617 254.693
L54.495 251.245
L54.7283 244.93
L54.9616 242.456
L55.0782 242.845
L55.1949 242.234
L55.3115 240.538
L55.8947 249.884
L56.128 246.861
L56.2446 249.661
L56.3613 246.821
L56.4779 249.271
L56.7112 241.008
L56.8278 237.821
L56.9445 239.428
L57.0611 238.525
L57.2944 231.449
L57.411 228.984
L57.5277 234.155
L57.6443 232.768
L57.761 229.736
L58.1109 234.191
L58.2275 229.929
L58.3441 235.068
L58.6941 227.192
L58.8107 226.765
L59.3939 234.85
L59.5106 234.149
L59.8605 241.015
L59.9771 241.14
L60.0938 238.745
L60.327 240.025
L60.4437 237.199
L60.5603 238.953
L60.7936 233.014
L61.1435 235.275
L61.2602 232.944
L61.3768 235.56
L61.4934 235.473
L61.6101 239.03
L61.7267 236.455
L61.8434 236.494
L62.0766 243.92
L62.1933 242.668
L62.4265 236.944
L62.5432 237.469
L62.7765 230.907
L63.1264 234.307
L63.243 232.462
L63.4763 238.861
L63.593 237.416
L63.9429 240.463
L64.0595 239.506
L64.2928 242.097
L64.5261 239.218
L64.6427 240.808
L64.7593 239.356
L64.876 234.408
L65.4592 241.515
L65.5758 241.604
L65.9257 234.921
L66.0424 235.484
L66.159 234.621
L66.2757 237.927
L66.3923 236.656
L66.8589 221.266
L66.9755 223.246
L67.2088 228.722
L67.3254 229.874
L67.5587 226.409
L67.792 222.552
L68.0253 227.341
L68.2585 223.516
L68.4918 219.766
L68.7251 222.262
L68.9584 215.968
L68.9584 215.968" style="fill:none;stroke:#0000ff;stroke-linecap:square;"/>
   </g>
   <g id="line2d_4">
    <path clip-path="url(#p5bbb9315a8)" d="
M45.5138 255.267
L45.6304 257.05
L45.9803 255.085
L46.0969 258.829
L46.2136 258.666
L46.3302 257.1
L46.5635 259.782
L46.6802 258.831
L46.7968 260.446
L47.0301 253.82
L47.1467 256.295
L47.2634 253.906
L47.38 256.999
L47.4966 251.383
L47.8466 258.583
L47.9632 256.569
L48.0798 259.321
L48.3131 252.368
L48.5464 249.039
L48.7797 257.843
L48.8963 260.142
L49.013 256.203
L49.1296 257.993
L49.4795 254.063
L49.8294 258.355
L49.9461 257.938
L50.1793 259.492
L50.296 256.559
L50.6459 266.474
L50.7626 263.737
L50.9958 266.757
L51.1125 266.354
L51.2291 259.275
L51.3458 263.052
L51.4624 261.464
L51.579 261.808
L51.6957 258.441
L51.8123 260.269
L52.1622 253.742
L52.2789 254.194
L52.6288 243.644
L52.8621 241.533
L52.9787 243.636
L53.0954 242.377
L53.4453 246.678
L53.5619 244.517
L53.9118 245.954
L54.0285 242.457
L54.1451 244.758
L54.2617 244.053
L54.495 248.927
L54.6117 247.288
L54.7283 247.966
L54.9616 252.716
L55.0782 249.039
L55.3115 249.692
L55.5448 242.86
L55.6614 243.839
L55.7781 246.283
L55.8947 241.501
L56.0114 243.421
L56.128 239.815
L56.2446 241.679
L56.3613 241.355
L56.5945 249.751
L56.7112 247.985
L56.8278 249.268
L56.9445 248.443
L57.0611 246.554
L57.1778 246.957
L57.2944 245.962
L57.5277 250.124
L57.6443 249.794
L57.9942 252.04
L58.1109 250.926
L58.4608 256.691
L58.5774 254.505
L58.9274 259.742
L59.1606 252.561
L59.2773 250.114
L59.3939 257.026
L59.5106 253.488
L59.7438 253.78
L59.8605 251.731
L59.9771 251.74
L60.2104 255.215
L60.6769 263.435
L60.7936 263.992
L60.9102 259.089
L61.0269 258.977
L61.3768 262.861
L61.4934 262.004
L61.6101 260.069
L61.7267 260.642
L61.96 255.921
L62.0766 254.243
L62.1933 255.38
L62.3099 258.548
L62.4265 255.886
L62.6598 256.546
L62.7765 255.858
L63.243 268.794
L63.4763 266.535
L63.7096 272.618
L63.8262 272.342
L63.9429 269.495
L64.1762 271.749
L64.4094 265.325
L64.7593 277.067
L64.876 271.986
L64.9926 273.873
L65.3426 267.368
L65.5758 272.843
L65.6925 273.151
L65.8091 270.667
L66.0424 279.193
L66.159 277.15
L66.2757 272.171
L66.3923 274.191
L66.5089 273.752
L66.6256 270.818
L66.7422 270.893
L66.8589 271.512
L66.9755 275.245
L67.0922 272.883
L67.2088 273.829
L67.6753 263.752
L67.792 263.906
L67.9086 263.74
L68.0253 265.541
L68.1419 265.57
L68.2585 261.894
L68.3752 267.445
L68.4918 267.068
L68.6085 265.232
L68.7251 266.953
L68.8418 265.977
L68.9584 269.529
L69.075 266.85
L69.3083 275.01
L69.4249 271.163
L70.2414 289.778
L70.3581 289.511
L70.4747 290.981
L70.5914 288.967
L70.708 294.452
L70.708 294.452" style="fill:none;stroke:#ff0000;stroke-linecap:square;"/>
   </g>
   <g id="patch_3">
    <path d="
M45.5138 212.067
L278.794 212.067" style="fill:none;stroke:#000000;stroke-linecap:square;stroke-linejoin:miter;"/>
   </g>
   <g id="patch_4">
    <path d="
M45.5138 298.467
L278.794 298.467" style="fill:none;stroke:#000000;stroke-linecap:square;stroke-linejoin:miter;"/>
   </g>
   <g id="patch_5">
    <path d="
M45.5138 298.467
L45.5138 212.067" style="fill:none;stroke:#000000;stroke-linecap:square;stroke-linejoin:miter;"/>
   </g>
   <g id="matplotlib.axis_1">
    <g id="xtick_1">
     <g id="line2d_5">
      <defs>
       <path d="
M0 0
L0 -4" id="m93b0483c22" style="stroke:#000000;stroke-width:0.5;"/>
      </defs>
      <g>
       <use style="stroke:#000000;stroke-width:0.5;" x="45.51375" xlink:href="#m93b0483c22" y="298.4666"/>
      </g>
     </g>
     <g id="line2d_6">
      <defs>
       <path d="
M0 0
L0 4" id="m741efc42ff" style="stroke:#000000;stroke-width:0.5;"/>
      </defs>
      <g>
       <use style="stroke:#000000;stroke-width:0.5;" x="45.51375" xlink:href="#m741efc42ff" y="212.0666"/>
      </g>
     </g>
     <g id="text_1">
      <!-- 0.0 -->
      <defs>
       <path d="
M31.7812 66.4062
Q24.1719 66.4062 20.3281 58.9062
Q16.5 51.4219 16.5 36.375
Q16.5 21.3906 20.3281 13.8906
Q24.1719 6.39062 31.7812 6.39062
Q39.4531 6.39062 43.2812 13.8906
Q47.125 21.3906 47.125 36.375
Q47.125 51.4219 43.2812 58.9062
Q39.4531 66.4062 31.7812 66.4062
M31.7812 74.2188
Q44.0469 74.2188 50.5156 64.5156
Q56.9844 54.8281 56.9844 36.375
Q56.9844 17.9688 50.5156 8.26562
Q44.0469 -1.42188 31.7812 -1.42188
Q19.5312 -1.42188 13.0625 8.26562
Q6.59375 17.9688 6.59375 36.375
Q6.59375 54.8281 13.0625 64.5156
Q19.5312 74.2188 31.7812 74.2188" id="BitstreamVeraSans-Roman-30"/>
       <path d="
M10.6875 12.4062
L21 12.4062
L21 0
L10.6875 0
z
" id="BitstreamVeraSans-Roman-2e"/>
      </defs>
      <g transform="translate(36.7659375 311.584725)scale(0.12 -0.12)">
       <use xlink:href="#BitstreamVeraSans-Roman-30"/>
       <use x="63.623046875" xlink:href="#BitstreamVeraSans-Roman-2e"/>
       <use x="95.41015625" xlink:href="#BitstreamVeraSans-Roman-30"/>
      </g>
     </g>
    </g>
    <g id="xtick_2">
     <g id="line2d_7">
      <g>
       <use style="stroke:#000000;stroke-width:0.5;" x="103.83375" xlink:href="#m93b0483c22" y="298.4666"/>
      </g>
     </g>
     <g id="line2d_8">
      <g>
       <use style="stroke:#000000;stroke-width:0.5;" x="103.83375" xlink:href="#m741efc42ff" y="212.0666"/>
      </g>
     </g>
     <g id="text_2">
      <!-- 0.5 -->
      <defs>
       <path d="
M10.7969 72.9062
L49.5156 72.9062
L49.5156 64.5938
L19.8281 64.5938
L19.8281 46.7344
Q21.9688 47.4688 24.1094 47.8281
Q26.2656 48.1875 28.4219 48.1875
Q40.625 48.1875 47.75 41.5
Q54.8906 34.8125 54.8906 23.3906
Q54.8906 11.625 47.5625 5.09375
Q40.2344 -1.42188 26.9062 -1.42188
Q22.3125 -1.42188 17.5469 -0.640625
Q12.7969 0.140625 7.71875 1.70312
L7.71875 11.625
Q12.1094 9.23438 16.7969 8.0625
Q21.4844 6.89062 26.7031 6.89062
Q35.1562 6.89062 40.0781 11.3281
Q45.0156 15.7656 45.0156 23.3906
Q45.0156 31 40.0781 35.4375
Q35.1562 39.8906 26.7031 39.8906
Q22.75 39.8906 18.8125 39.0156
Q14.8906 38.1406 10.7969 36.2812
z
" id="BitstreamVeraSans-Roman-35"/>
      </defs>
      <g transform="translate(95.2115625 311.584725)scale(0.12 -0.12)">
       <use xlink:href="#BitstreamVeraSans-Roman-30"/>
       <use x="63.623046875" xlink:href="#BitstreamVeraSans-Roman-2e"/>
       <use x="95.41015625" xlink:href="#BitstreamVeraSans-Roman-35"/>
      </g>
     </g>
    </g>
    <g id="xtick_3">
     <g id="line2d_9">
      <g>
       <use style="stroke:#000000;stroke-width:0.5;" x="162.15375" xlink:href="#m93b0483c22" y="298.4666"/>
      </g>
     </g>
     <g id="line2d_10">
      <g>
       <use style="stroke:#000000;stroke-width:0.5;" x="162.15375" xlink:href="#m741efc42ff" y="212.0666"/>
      </g>
     </g>
     <g id="text_3">
      <!-- 1.0 -->
      <defs>
       <path d="
M12.4062 8.29688
L28.5156 8.29688
L28.5156 63.9219
L10.9844 60.4062
L10.9844 69.3906
L28.4219 72.9062
L38.2812 72.9062
L38.2812 8.29688
L54.3906 8.29688
L54.3906 0
L12.4062 0
z
" id="BitstreamVeraSans-Roman-31"/>
      </defs>
      <g transform="translate(153.669375 311.584725)scale(0.12 -0.12)">
       <use xlink:href="#BitstreamVeraSans-Roman-31"/>
       <use x="63.623046875" xlink:href="#BitstreamVeraSans-Roman-2e"/>
       <use x="95.41015625" xlink:href="#BitstreamVeraSans-Roman-30"/>
      </g>
     </g>
    </g>
    <g id="xtick_4">
     <g id="line2d_11">
      <g>
       <use style="stroke:#000000;stroke-width:0.5;" x="220.47375" xlink:href="#m93b0483c22" y="298.4666"/>
      </g>
     </g>
     <g id="line2d_12">
      <g>
       <use style="stroke:#000000;stroke-width:0.5;" x="220.47375" xlink:href="#m741efc42ff" y="212.0666"/>
      </g>
     </g>
     <g id="text_4">
      <!-- 1.5 -->
      <g transform="translate(212.115 311.584725)scale(0.12 -0.12)">
       <use xlink:href="#BitstreamVeraSans-Roman-31"/>
       <use x="63.623046875" xlink:href="#BitstreamVeraSans-Roman-2e"/>
       <use x="95.41015625" xlink:href="#BitstreamVeraSans-Roman-35"/>
      </g>
     </g>
    </g>
    <g id="xtick_5">
     <g id="line2d_13">
      <g>
       <use style="stroke:#000000;stroke-width:0.5;" x="278.79375" xlink:href="#m93b0483c22" y="298.4666"/>
      </g>
     </g>
     <g id="line2d_14">
      <g>
       <use style="stroke:#000000;stroke-width:0.5;" x="278.79375" xlink:href="#m741efc42ff" y="212.0666"/>
      </g>
     </g>
     <g id="text_5">
      <!-- 2.0 -->
      <defs>
       <path d="
M19.1875 8.29688
L53.6094 8.29688
L53.6094 0
L7.32812 0
L7.32812 8.29688
Q12.9375 14.1094 22.625 23.8906
Q32.3281 33.6875 34.8125 36.5312
Q39.5469 41.8438 41.4219 45.5312
Q43.3125 49.2188 43.3125 52.7812
Q43.3125 58.5938 39.2344 62.25
Q35.1562 65.9219 28.6094 65.9219
Q23.9688 65.9219 18.8125 64.3125
Q13.6719 62.7031 7.8125 59.4219
L7.8125 69.3906
Q13.7656 71.7812 18.9375 73
Q24.125 74.2188 28.4219 74.2188
Q39.75 74.2188 46.4844 68.5469
Q53.2188 62.8906 53.2188 53.4219
Q53.2188 48.9219 51.5312 44.8906
Q49.8594 40.875 45.4062 35.4062
Q44.1875 33.9844 37.6406 27.2188
Q31.1094 20.4531 19.1875 8.29688" id="BitstreamVeraSans-Roman-32"/>
      </defs>
      <g transform="translate(270.09 311.584725)scale(0.12 -0.12)">
       <use xlink:href="#BitstreamVeraSans-Roman-32"/>
       <use x="63.623046875" xlink:href="#BitstreamVeraSans-Roman-2e"/>
       <use x="95.41015625" xlink:href="#BitstreamVeraSans-Roman-30"/>
      </g>
     </g>
    </g>
   </g>
   <g id="matplotlib.axis_2">
    <g id="text_6">
     <!-- $x(t)$ -->
     <defs>
      <path d="
M31 -24.8125
Q25.4375 -20.4062 21.4062 -14.7188
Q17.3906 -9.03125 14.8125 -2.57812
Q12.25 3.85938 10.9844 10.8906
Q9.71875 17.9219 9.71875 25
Q9.71875 32.1719 10.9844 39.2031
Q12.25 46.2344 14.8594 52.7344
Q17.4844 59.2344 21.5312 64.8906
Q25.5938 70.5625 31 74.8125
Q31 75 31.5 75
L32.4219 75
Q32.7188 75 32.9531 74.7344
Q33.2031 74.4688 33.2031 74.125
Q33.2031 73.6875 33.0156 73.4844
Q28.125 68.7031 24.875 63.2344
Q21.625 57.7656 19.6406 51.5781
Q17.6719 45.4062 16.7969 38.7812
Q15.9219 32.1719 15.9219 25
Q15.9219 -6.78125 32.9062 -23.2969
Q33.2031 -23.5781 33.2031 -24.125
Q33.2031 -24.3594 32.9375 -24.6719
Q32.6719 -25 32.4219 -25
L31.5 -25
Q31 -25 31 -24.8125" id="Cmr10-28"/>
      <path d="
M6.5 -25
Q5.60938 -25 5.60938 -24.125
Q5.60938 -23.6875 5.8125 -23.4844
Q22.9062 -6.78125 22.9062 25
Q22.9062 56.7812 6 73.2969
Q5.60938 73.5312 5.60938 74.125
Q5.60938 74.4688 5.875 74.7344
Q6.15625 75 6.5 75
L7.42188 75
Q7.71875 75 7.90625 74.8125
Q15.0938 69.1406 19.875 61.0312
Q24.6562 52.9375 26.875 43.75
Q29.1094 34.5781 29.1094 25
Q29.1094 17.9219 27.9062 11.0625
Q26.7031 4.20312 24.0938 -2.45312
Q21.4844 -9.125 17.4844 -14.7656
Q13.4844 -20.4062 7.90625 -24.8125
Q7.71875 -25 7.42188 -25
z
" id="Cmr10-29"/>
      <path d="
M7.8125 2.875
Q9.57812 1.51562 12.7969 1.51562
Q15.9219 1.51562 18.3125 4.51562
Q20.7031 7.51562 21.5781 11.0781
L26.125 28.8125
Q27.2031 33.6406 27.2031 35.4062
Q27.2031 37.8906 25.8125 39.75
Q24.4219 41.6094 21.9219 41.6094
Q18.75 41.6094 15.9688 39.625
Q13.1875 37.6406 11.2812 34.5938
Q9.375 31.5469 8.59375 28.4219
Q8.40625 27.7812 7.8125 27.7812
L6.59375 27.7812
Q5.8125 27.7812 5.8125 28.7188
L5.8125 29
Q6.78125 32.7188 9.125 36.25
Q11.4688 39.7969 14.8594 41.9844
Q18.2656 44.1875 22.125 44.1875
Q25.7812 44.1875 28.7344 42.2344
Q31.6875 40.2812 32.9062 36.9219
Q34.625 39.9844 37.2812 42.0781
Q39.9375 44.1875 43.1094 44.1875
Q45.2656 44.1875 47.5 43.4219
Q49.75 42.6719 51.1719 41.1094
Q52.5938 39.5469 52.5938 37.2031
Q52.5938 34.6719 50.9531 32.8281
Q49.3125 31 46.7812 31
Q45.1719 31 44.0938 32.0312
Q43.0156 33.0625 43.0156 34.625
Q43.0156 36.7188 44.4531 38.2969
Q45.9062 39.8906 47.9062 40.1875
Q46.0938 41.6094 42.9219 41.6094
Q39.7031 41.6094 37.3281 38.625
Q34.9688 35.6406 33.9844 31.9844
L29.5938 14.3125
Q28.5156 10.2969 28.5156 7.71875
Q28.5156 5.17188 29.9531 3.34375
Q31.3906 1.51562 33.7969 1.51562
Q38.4844 1.51562 42.1562 5.64062
Q45.8438 9.76562 47.0156 14.7031
Q47.2188 15.2812 47.7969 15.2812
L49.0312 15.2812
Q49.4219 15.2812 49.6562 15.0156
Q49.9062 14.75 49.9062 14.4062
Q49.9062 14.3125 49.8125 14.1094
Q48.3906 8.15625 43.8438 3.51562
Q39.3125 -1.125 33.5938 -1.125
Q29.9375 -1.125 26.9844 0.84375
Q24.0312 2.82812 22.7969 6.20312
Q21.2344 3.26562 18.4688 1.0625
Q15.7188 -1.125 12.5938 -1.125
Q10.4531 -1.125 8.17188 -0.359375
Q5.90625 0.390625 4.48438 1.95312
Q3.07812 3.51562 3.07812 5.90625
Q3.07812 8.25 4.70312 10.1719
Q6.34375 12.1094 8.79688 12.1094
Q10.4531 12.1094 11.5781 11.1094
Q12.7031 10.1094 12.7031 8.5
Q12.7031 6.39062 11.2969 4.82812
Q9.90625 3.26562 7.8125 2.875" id="Cmmi10-78"/>
      <path d="
M6.20312 8.10938
Q6.20312 9.57812 6.5 10.8906
L13.7188 39.5938
L3.21875 39.5938
Q2.20312 39.5938 2.20312 40.9219
Q2.59375 43.1094 3.51562 43.1094
L14.5938 43.1094
L18.6094 59.4219
Q19 60.75 20.1719 61.6719
Q21.3438 62.5938 22.7969 62.5938
Q24.0781 62.5938 24.9219 61.8281
Q25.7812 61.0781 25.7812 59.8125
Q25.7812 59.5156 25.75 59.3438
Q25.7344 59.1875 25.6875 58.9844
L21.6875 43.1094
L31.9844 43.1094
Q33.0156 43.1094 33.0156 41.7969
Q32.9531 41.5469 32.8125 40.9531
Q32.6719 40.375 32.4219 39.9844
Q32.1719 39.5938 31.6875 39.5938
L20.7969 39.5938
L13.625 10.6875
Q12.8906 7.85938 12.8906 5.8125
Q12.8906 1.51562 15.8281 1.51562
Q20.2188 1.51562 23.6094 5.64062
Q27 9.76562 28.8125 14.7031
Q29.2031 15.2812 29.5938 15.2812
L30.8125 15.2812
Q31.2031 15.2812 31.4375 15.0156
Q31.6875 14.75 31.6875 14.4062
Q31.6875 14.2031 31.5938 14.1094
Q29.3906 8.0625 25.1875 3.46875
Q21 -1.125 15.5781 -1.125
Q11.625 -1.125 8.90625 1.45312
Q6.20312 4.04688 6.20312 8.10938" id="Cmmi10-74"/>
     </defs>
     <g transform="translate(36.76375 268.0916)rotate(-90.0)scale(0.15 -0.15)">
      <use xlink:href="#Cmmi10-78"/>
      <use transform="translate(57.080078125 0.0)" xlink:href="#Cmr10-28"/>
      <use transform="translate(95.8984375 0.0)" xlink:href="#Cmmi10-74"/>
      <use transform="translate(131.982421875 0.0)" xlink:href="#Cmr10-29"/>
     </g>
    </g>
   </g>
  </g>
  <g id="axes_2">
   <g id="patch_6">
    <path d="
M330.634 311.427
L442.954 311.427
L442.954 203.427
L330.634 203.427
z
" style="fill:#ffffff;"/>
   </g>
   <g id="line2d_15">
    <path clip-path="url(#pb9c2b6db16)" d="
M330.634 311.427
L332.926 311.427
L335.218 311.427
L337.51 311.427
L339.803 311.427
L342.095 311.427
L344.387 311.427
L346.679 311.427
L348.972 203.949
L351.264 205.228
L353.556 207.579
L355.848 210.93
L358.141 215.18
L360.433 220.205
L362.725 225.864
L365.017 232.002
L367.31 238.464
L369.602 245.095
L371.894 251.747
L374.186 258.289
L376.479 264.603
L378.771 270.595
L381.063 276.189
L383.355 281.331
L385.648 285.989
L387.94 290.149
L390.232 293.813
L392.524 296.997
L394.817 299.728
L397.109 302.04
L399.401 303.974
L401.693 305.57
L403.986 306.872
L406.278 307.921
L408.57 308.757
L410.862 309.414
L413.155 309.926
L415.447 310.319
L417.739 310.617
L420.031 310.841
L422.324 311.008
L424.616 311.13
L426.908 311.219
L429.2 311.282
L431.493 311.328
L433.785 311.359
L436.077 311.381
L438.369 311.397
L440.662 311.407
L442.954 311.414" style="fill:none;stroke:#0000ff;stroke-linecap:square;"/>
   </g>
   <g id="patch_7">
    <path d="
M330.634 203.427
L442.954 203.427" style="fill:none;stroke:#000000;stroke-linecap:square;stroke-linejoin:miter;"/>
   </g>
   <g id="patch_8">
    <path d="
M442.954 311.427
L442.954 203.427" style="fill:none;stroke:#000000;stroke-linecap:square;stroke-linejoin:miter;"/>
   </g>
   <g id="patch_9">
    <path d="
M330.634 311.427
L442.954 311.427" style="fill:none;stroke:#000000;stroke-linecap:square;stroke-linejoin:miter;"/>
   </g>
   <g id="patch_10">
    <path d="
M330.634 311.427
L330.634 203.427" style="fill:none;stroke:#000000;stroke-linecap:square;stroke-linejoin:miter;"/>
   </g>
   <g id="matplotlib.axis_3">
    <g id="text_7">
     <!-- T -->
     <defs>
      <path d="
M-0.296875 72.9062
L61.375 72.9062
L61.375 64.5938
L35.5 64.5938
L35.5 0
L25.5938 0
L25.5938 64.5938
L-0.296875 64.5938
z
" id="BitstreamVeraSans-Roman-54"/>
     </defs>
     <g transform="translate(383.0934375 325.544725)scale(0.12 -0.12)">
      <use xlink:href="#BitstreamVeraSans-Roman-54"/>
     </g>
    </g>
   </g>
   <g id="matplotlib.axis_4"/>
   <g id="patch_11">
    <path d="
M444.964 256.454
Q491.663 257.089 538.363 257.724
L538.383 256.224
Q540.866 257.508 543.349 258.792
Q540.832 260.008 538.315 261.224
L538.336 259.724
Q491.636 259.089 444.937 258.454
L444.964 256.454
z
" style="fill:#808080;stroke:#808080;stroke-linecap:round;"/>
   </g>
   <g id="text_8">
    <!-- Convolve with -->
    <defs>
     <path id="BitstreamVeraSans-Roman-20"/>
     <path d="
M54.8906 33.0156
L54.8906 0
L45.9062 0
L45.9062 32.7188
Q45.9062 40.4844 42.875 44.3281
Q39.8438 48.1875 33.7969 48.1875
Q26.5156 48.1875 22.3125 43.5469
Q18.1094 38.9219 18.1094 30.9062
L18.1094 0
L9.07812 0
L9.07812 54.6875
L18.1094 54.6875
L18.1094 46.1875
Q21.3438 51.125 25.7031 53.5625
Q30.0781 56 35.7969 56
Q45.2188 56 50.0469 50.1719
Q54.8906 44.3438 54.8906 33.0156" id="BitstreamVeraSans-Roman-6e"/>
     <path d="
M9.42188 54.6875
L18.4062 54.6875
L18.4062 0
L9.42188 0
z

M9.42188 75.9844
L18.4062 75.9844
L18.4062 64.5938
L9.42188 64.5938
z
" id="BitstreamVeraSans-Roman-69"/>
     <path d="
M30.6094 48.3906
Q23.3906 48.3906 19.1875 42.75
Q14.9844 37.1094 14.9844 27.2969
Q14.9844 17.4844 19.1562 11.8438
Q23.3438 6.20312 30.6094 6.20312
Q37.7969 6.20312 41.9844 11.8594
Q46.1875 17.5312 46.1875 27.2969
Q46.1875 37.0156 41.9844 42.7031
Q37.7969 48.3906 30.6094 48.3906
M30.6094 56
Q42.3281 56 49.0156 48.375
Q55.7188 40.7656 55.7188 27.2969
Q55.7188 13.875 49.0156 6.21875
Q42.3281 -1.42188 30.6094 -1.42188
Q18.8438 -1.42188 12.1719 6.21875
Q5.51562 13.875 5.51562 27.2969
Q5.51562 40.7656 12.1719 48.375
Q18.8438 56 30.6094 56" id="BitstreamVeraSans-Roman-6f"/>
     <path d="
M9.42188 75.9844
L18.4062 75.9844
L18.4062 0
L9.42188 0
z
" id="BitstreamVeraSans-Roman-6c"/>
     <path d="
M56.2031 29.5938
L56.2031 25.2031
L14.8906 25.2031
Q15.4844 15.9219 20.4844 11.0625
Q25.4844 6.20312 34.4219 6.20312
Q39.5938 6.20312 44.4531 7.46875
Q49.3125 8.73438 54.1094 11.2812
L54.1094 2.78125
Q49.2656 0.734375 44.1875 -0.34375
Q39.1094 -1.42188 33.8906 -1.42188
Q20.7969 -1.42188 13.1562 6.1875
Q5.51562 13.8125 5.51562 26.8125
Q5.51562 40.2344 12.7656 48.1094
Q20.0156 56 32.3281 56
Q43.3594 56 49.7812 48.8906
Q56.2031 41.7969 56.2031 29.5938
M47.2188 32.2344
Q47.125 39.5938 43.0938 43.9844
Q39.0625 48.3906 32.4219 48.3906
Q24.9062 48.3906 20.3906 44.1406
Q15.875 39.8906 15.1875 32.1719
z
" id="BitstreamVeraSans-Roman-65"/>
     <path d="
M64.4062 67.2812
L64.4062 56.8906
Q59.4219 61.5312 53.7812 63.8125
Q48.1406 66.1094 41.7969 66.1094
Q29.2969 66.1094 22.6562 58.4688
Q16.0156 50.8281 16.0156 36.375
Q16.0156 21.9688 22.6562 14.3281
Q29.2969 6.6875 41.7969 6.6875
Q48.1406 6.6875 53.7812 8.98438
Q59.4219 11.2812 64.4062 15.9219
L64.4062 5.60938
Q59.2344 2.09375 53.4375 0.328125
Q47.6562 -1.42188 41.2188 -1.42188
Q24.6562 -1.42188 15.125 8.70312
Q5.60938 18.8438 5.60938 36.375
Q5.60938 53.9531 15.125 64.0781
Q24.6562 74.2188 41.2188 74.2188
Q47.75 74.2188 53.5312 72.4844
Q59.3281 70.75 64.4062 67.2812" id="BitstreamVeraSans-Roman-43"/>
     <path d="
M54.8906 33.0156
L54.8906 0
L45.9062 0
L45.9062 32.7188
Q45.9062 40.4844 42.875 44.3281
Q39.8438 48.1875 33.7969 48.1875
Q26.5156 48.1875 22.3125 43.5469
Q18.1094 38.9219 18.1094 30.9062
L18.1094 0
L9.07812 0
L9.07812 75.9844
L18.1094 75.9844
L18.1094 46.1875
Q21.3438 51.125 25.7031 53.5625
Q30.0781 56 35.7969 56
Q45.2188 56 50.0469 50.1719
Q54.8906 44.3438 54.8906 33.0156" id="BitstreamVeraSans-Roman-68"/>
     <path d="
M2.98438 54.6875
L12.5 54.6875
L29.5938 8.79688
L46.6875 54.6875
L56.2031 54.6875
L35.6875 0
L23.4844 0
z
" id="BitstreamVeraSans-Roman-76"/>
     <path d="
M4.20312 54.6875
L13.1875 54.6875
L24.4219 12.0156
L35.5938 54.6875
L46.1875 54.6875
L57.4219 12.0156
L68.6094 54.6875
L77.5938 54.6875
L63.2812 0
L52.6875 0
L40.9219 44.8281
L29.1094 0
L18.5 0
z
" id="BitstreamVeraSans-Roman-77"/>
     <path d="
M18.3125 70.2188
L18.3125 54.6875
L36.8125 54.6875
L36.8125 47.7031
L18.3125 47.7031
L18.3125 18.0156
Q18.3125 11.3281 20.1406 9.42188
Q21.9688 7.51562 27.5938 7.51562
L36.8125 7.51562
L36.8125 0
L27.5938 0
Q17.1875 0 13.2344 3.875
Q9.28125 7.76562 9.28125 18.0156
L9.28125 47.7031
L2.6875 47.7031
L2.6875 54.6875
L9.28125 54.6875
L9.28125 70.2188
z
" id="BitstreamVeraSans-Roman-74"/>
    </defs>
    <g transform="translate(336.487125 182.30175)scale(0.144 -0.144)">
     <use xlink:href="#BitstreamVeraSans-Roman-43"/>
     <use x="69.82421875" xlink:href="#BitstreamVeraSans-Roman-6f"/>
     <use x="131.005859375" xlink:href="#BitstreamVeraSans-Roman-6e"/>
     <use x="194.384765625" xlink:href="#BitstreamVeraSans-Roman-76"/>
     <use x="253.564453125" xlink:href="#BitstreamVeraSans-Roman-6f"/>
     <use x="314.74609375" xlink:href="#BitstreamVeraSans-Roman-6c"/>
     <use x="342.529296875" xlink:href="#BitstreamVeraSans-Roman-76"/>
     <use x="401.708984375" xlink:href="#BitstreamVeraSans-Roman-65"/>
     <use x="463.232421875" xlink:href="#BitstreamVeraSans-Roman-20"/>
     <use x="495.01953125" xlink:href="#BitstreamVeraSans-Roman-77"/>
     <use x="576.806640625" xlink:href="#BitstreamVeraSans-Roman-69"/>
     <use x="604.58984375" xlink:href="#BitstreamVeraSans-Roman-74"/>
     <use x="643.798828125" xlink:href="#BitstreamVeraSans-Roman-68"/>
    </g>
    <!-- no decision time -->
    <defs>
     <path d="
M45.4062 46.3906
L45.4062 75.9844
L54.3906 75.9844
L54.3906 0
L45.4062 0
L45.4062 8.20312
Q42.5781 3.32812 38.25 0.953125
Q33.9375 -1.42188 27.875 -1.42188
Q17.9688 -1.42188 11.7344 6.48438
Q5.51562 14.4062 5.51562 27.2969
Q5.51562 40.1875 11.7344 48.0938
Q17.9688 56 27.875 56
Q33.9375 56 38.25 53.625
Q42.5781 51.2656 45.4062 46.3906
M14.7969 27.2969
Q14.7969 17.3906 18.875 11.75
Q22.9531 6.10938 30.0781 6.10938
Q37.2031 6.10938 41.2969 11.75
Q45.4062 17.3906 45.4062 27.2969
Q45.4062 37.2031 41.2969 42.8438
Q37.2031 48.4844 30.0781 48.4844
Q22.9531 48.4844 18.875 42.8438
Q14.7969 37.2031 14.7969 27.2969" id="BitstreamVeraSans-Roman-64"/>
     <path d="
M44.2812 53.0781
L44.2812 44.5781
Q40.4844 46.5312 36.375 47.5
Q32.2812 48.4844 27.875 48.4844
Q21.1875 48.4844 17.8438 46.4375
Q14.5 44.3906 14.5 40.2812
Q14.5 37.1562 16.8906 35.375
Q19.2812 33.5938 26.5156 31.9844
L29.5938 31.2969
Q39.1562 29.25 43.1875 25.5156
Q47.2188 21.7812 47.2188 15.0938
Q47.2188 7.46875 41.1875 3.01562
Q35.1562 -1.42188 24.6094 -1.42188
Q20.2188 -1.42188 15.4531 -0.5625
Q10.6875 0.296875 5.42188 2
L5.42188 11.2812
Q10.4062 8.6875 15.2344 7.39062
Q20.0625 6.10938 24.8125 6.10938
Q31.1562 6.10938 34.5625 8.28125
Q37.9844 10.4531 37.9844 14.4062
Q37.9844 18.0625 35.5156 20.0156
Q33.0625 21.9688 24.7031 23.7812
L21.5781 24.5156
Q13.2344 26.2656 9.51562 29.9062
Q5.8125 33.5469 5.8125 39.8906
Q5.8125 47.6094 11.2812 51.7969
Q16.75 56 26.8125 56
Q31.7812 56 36.1719 55.2656
Q40.5781 54.5469 44.2812 53.0781" id="BitstreamVeraSans-Roman-73"/>
     <path d="
M48.7812 52.5938
L48.7812 44.1875
Q44.9688 46.2969 41.1406 47.3438
Q37.3125 48.3906 33.4062 48.3906
Q24.6562 48.3906 19.8125 42.8438
Q14.9844 37.3125 14.9844 27.2969
Q14.9844 17.2812 19.8125 11.7344
Q24.6562 6.20312 33.4062 6.20312
Q37.3125 6.20312 41.1406 7.25
Q44.9688 8.29688 48.7812 10.4062
L48.7812 2.09375
Q45.0156 0.34375 40.9844 -0.53125
Q36.9688 -1.42188 32.4219 -1.42188
Q20.0625 -1.42188 12.7812 6.34375
Q5.51562 14.1094 5.51562 27.2969
Q5.51562 40.6719 12.8594 48.3281
Q20.2188 56 33.0156 56
Q37.1562 56 41.1094 55.1406
Q45.0625 54.2969 48.7812 52.5938" id="BitstreamVeraSans-Roman-63"/>
     <path d="
M52 44.1875
Q55.375 50.25 60.0625 53.125
Q64.75 56 71.0938 56
Q79.6406 56 84.2812 50.0156
Q88.9219 44.0469 88.9219 33.0156
L88.9219 0
L79.8906 0
L79.8906 32.7188
Q79.8906 40.5781 77.0938 44.375
Q74.3125 48.1875 68.6094 48.1875
Q61.625 48.1875 57.5625 43.5469
Q53.5156 38.9219 53.5156 30.9062
L53.5156 0
L44.4844 0
L44.4844 32.7188
Q44.4844 40.625 41.7031 44.4062
Q38.9219 48.1875 33.1094 48.1875
Q26.2188 48.1875 22.1562 43.5312
Q18.1094 38.875 18.1094 30.9062
L18.1094 0
L9.07812 0
L9.07812 54.6875
L18.1094 54.6875
L18.1094 46.1875
Q21.1875 51.2188 25.4844 53.6094
Q29.7812 56 35.6875 56
Q41.6562 56 45.8281 52.9688
Q50 49.9531 52 44.1875" id="BitstreamVeraSans-Roman-6d"/>
    </defs>
    <g transform="translate(327.68625 198.4266)scale(0.144 -0.144)">
     <use xlink:href="#BitstreamVeraSans-Roman-6e"/>
     <use x="63.37890625" xlink:href="#BitstreamVeraSans-Roman-6f"/>
     <use x="124.560546875" xlink:href="#BitstreamVeraSans-Roman-20"/>
     <use x="156.34765625" xlink:href="#BitstreamVeraSans-Roman-64"/>
     <use x="219.82421875" xlink:href="#BitstreamVeraSans-Roman-65"/>
     <use x="281.34765625" xlink:href="#BitstreamVeraSans-Roman-63"/>
     <use x="336.328125" xlink:href="#BitstreamVeraSans-Roman-69"/>
     <use x="364.111328125" xlink:href="#BitstreamVeraSans-Roman-73"/>
     <use x="416.2109375" xlink:href="#BitstreamVeraSans-Roman-69"/>
     <use x="443.994140625" xlink:href="#BitstreamVeraSans-Roman-6f"/>
     <use x="505.17578125" xlink:href="#BitstreamVeraSans-Roman-6e"/>
     <use x="568.5546875" xlink:href="#BitstreamVeraSans-Roman-20"/>
     <use x="600.341796875" xlink:href="#BitstreamVeraSans-Roman-74"/>
     <use x="639.55078125" xlink:href="#BitstreamVeraSans-Roman-69"/>
     <use x="667.333984375" xlink:href="#BitstreamVeraSans-Roman-6d"/>
     <use x="764.74609375" xlink:href="#BitstreamVeraSans-Roman-65"/>
    </g>
   </g>
  </g>
  <g id="axes_3">
   <g id="patch_12">
    <path d="
M563.914 384.867
L823.114 384.867
L823.114 39.2666
L563.914 39.2666
z
" style="fill:#ffffff;"/>
   </g>
   <g id="line2d_16">
    <path clip-path="url(#pfe8e649188)" d="
M563.914 269.365
L567.37 269.365
L567.37 269.667
L574.282 269.667
L574.282 269.063
L577.738 269.063
L577.738 269.365
L581.194 269.365
L581.194 269.516
L584.65 269.516
L584.65 269.667
L588.106 269.667
L588.106 268.61
L591.562 268.61
L591.562 263.782
L595.018 263.782
L595.018 253.823
L598.474 253.823
L598.474 241.147
L601.93 241.147
L601.93 230.132
L605.386 230.132
L605.386 226.812
L608.842 226.812
L608.842 218.211
L612.298 218.211
L612.298 209.157
L615.754 209.157
L615.754 210.364
L619.21 210.364
L619.21 209.761
L622.666 209.761
L622.666 203.574
L626.122 203.574
L626.122 205.083
L629.578 205.083
L629.578 206.139
L633.034 206.139
L633.034 210.666
L636.49 210.666
L636.49 215.042
L639.946 215.042
L639.946 218.664
L643.402 218.664
L643.402 218.966
L646.858 218.966
L646.858 225.756
L650.314 225.756
L650.314 225.001
L653.77 225.001
L653.77 232.999
L657.226 232.999
L657.226 235.413
L660.682 235.413
L660.682 239.94
L664.138 239.94
L664.138 242.204
L667.594 242.204
L667.594 244.769
L671.05 244.769
L671.05 248.39
L674.506 248.39
L674.506 249.899
L677.962 249.899
L677.962 253.068
L681.418 253.068
L681.418 256.69
L684.874 256.69
L684.874 256.237
L688.33 256.237
L688.33 258.048
L691.786 258.048
L691.786 258.802
L695.242 258.802
L695.242 259.707
L698.698 259.707
L698.698 260.764
L702.154 260.764
L702.154 262.273
L705.61 262.273
L705.61 263.48
L709.066 263.48
L709.066 265.743
L712.522 265.743
L712.522 266.045
L715.978 266.045
L715.978 266.498
L719.434 266.498
L719.434 267.554
L722.89 267.554
L722.89 267.856
L729.802 267.856
L729.802 268.761
L736.714 268.761
L736.714 269.063
L740.17 269.063
L740.17 268.459
L743.626 268.459
L743.626 269.214
L747.082 269.214
L747.082 268.761
L750.538 268.761
L750.538 269.063
L753.994 269.063
L753.994 268.459
L757.45 268.459
L757.45 269.214
L760.906 269.214
L760.906 268.761
L764.362 268.761
L764.362 269.365
L767.818 269.365
L767.818 269.214
L771.274 269.214
L771.274 269.063
L774.73 269.063
L774.73 269.516
L778.186 269.516
L778.186 269.214
L781.642 269.214
L781.642 268.912
L785.098 268.912
L785.098 269.365
L788.554 269.365
L788.554 269.667
L792.01 269.667
L792.01 269.063
L795.466 269.063
L795.466 269.214
L798.922 269.214
L798.922 269.365
L802.378 269.365
L802.378 269.516
L805.834 269.516
L805.834 269.063
L809.29 269.063
L809.29 269.516
L816.202 269.516
L816.202 269.667
L819.658 269.667
L819.658 269.365
L823.114 269.365
L823.114 269.516
L830.026 269.516
L830.026 269.214
L833.482 269.214
L833.482 269.516
L840 269.516
L840 269.516" style="fill:none;stroke:#0000ff;stroke-linecap:square;"/>
   </g>
   <g id="line2d_17">
    <path clip-path="url(#pfe8e649188)" d="
M563.914 269.364
L567.37 269.364
L570.826 269.364
L574.282 269.364
L577.738 269.364
L581.194 269.364
L584.65 269.364
L588.106 269.364
L591.562 269.364
L595.018 260.084
L598.474 244.599
L601.93 231.258
L605.386 221.049
L608.842 213.66
L612.298 208.652
L615.754 205.631
L619.21 204.262
L622.666 204.267
L626.122 205.403
L629.578 207.452
L633.034 210.217
L636.49 213.527
L639.946 217.228
L643.402 221.182
L646.858 225.265
L650.314 229.375
L653.77 233.424
L657.226 237.338
L660.682 241.064
L664.138 244.557
L667.594 247.79
L671.05 250.744
L674.506 253.414
L677.962 255.8
L681.418 257.911
L684.874 259.761
L688.33 261.366
L691.786 262.746
L695.242 263.924
L698.698 264.919
L702.154 265.755
L705.61 266.451
L709.066 267.026
L712.522 267.498
L715.978 267.883
L719.434 268.194
L722.89 268.445
L726.346 268.646
L729.802 268.806
L733.258 268.932
L736.714 269.031
L740.17 269.109
L743.626 269.169
L747.082 269.216
L750.538 269.252
L753.994 269.28
L757.45 269.301
L760.906 269.317
L764.362 269.329
L767.818 269.338
L771.274 269.345
L774.73 269.35
L778.186 269.354
L781.642 269.357
L785.098 269.359
L788.554 269.36
L792.01 269.361
L795.466 269.362
L798.922 269.363
L802.378 269.363
L805.834 269.363
L809.29 269.364
L812.746 269.364
L816.202 269.364
L819.658 269.364
L823.114 269.364
L826.57 269.364" style="fill:none;stroke:#0000ff;stroke-linecap:square;stroke-width:3;"/>
   </g>
   <g id="line2d_18">
    <path clip-path="url(#pfe8e649188)" d="
M563.914 269.667
L563.914 270.119
L567.37 270.119
L567.37 270.421
L570.826 270.421
L570.826 269.667
L574.282 269.667
L574.282 270.119
L581.194 270.119
L581.194 270.27
L584.65 270.27
L584.65 269.667
L588.106 269.667
L588.106 270.27
L591.562 270.27
L591.562 270.874
L595.018 270.874
L595.018 271.779
L598.474 271.779
L598.474 274.646
L601.93 274.646
L601.93 276.155
L605.386 276.155
L605.386 277.966
L608.842 277.966
L608.842 277.061
L612.298 277.061
L612.298 278.268
L615.754 278.268
L615.754 280.531
L619.21 280.531
L619.21 279.626
L622.666 279.626
L622.666 276.759
L626.122 276.759
L626.122 279.626
L633.034 279.626
L633.034 278.72
L636.49 278.72
L636.49 280.984
L639.946 280.984
L639.946 279.626
L643.402 279.626
L643.402 277.815
L646.858 277.815
L646.858 276.91
L650.314 276.91
L650.314 276.759
L653.77 276.759
L653.77 277.815
L657.226 277.815
L657.226 276.155
L660.682 276.155
L660.682 276.759
L664.138 276.759
L664.138 276.155
L667.594 276.155
L667.594 274.797
L671.05 274.797
L671.05 274.948
L674.506 274.948
L674.506 274.646
L677.962 274.646
L677.962 273.741
L684.874 273.741
L684.874 273.288
L688.33 273.288
L688.33 273.137
L691.786 273.137
L691.786 271.93
L695.242 271.93
L695.242 272.685
L698.698 272.685
L698.698 271.779
L702.154 271.779
L702.154 271.176
L705.61 271.176
L705.61 271.326
L709.066 271.326
L709.066 271.779
L712.522 271.779
L712.522 271.176
L715.978 271.176
L715.978 271.025
L719.434 271.025
L719.434 270.572
L722.89 270.572
L722.89 269.968
L726.346 269.968
L726.346 270.421
L729.802 270.421
L729.802 269.968
L733.258 269.968
L733.258 270.27
L736.714 270.27
L736.714 269.817
L743.626 269.817
L743.626 270.572
L747.082 270.572
L747.082 270.421
L750.538 270.421
L750.538 269.968
L753.994 269.968
L753.994 270.421
L757.45 270.421
L757.45 269.968
L760.906 269.968
L760.906 269.667
L764.362 269.667
L764.362 269.817
L767.818 269.817
L767.818 270.119
L771.274 270.119
L771.274 269.667
L774.73 269.667
L774.73 270.119
L778.186 270.119
L778.186 270.421
L781.642 270.421
L781.642 269.667
L785.098 269.667
L785.098 270.572
L788.554 270.572
L788.554 269.667
L795.466 269.667
L795.466 269.817
L805.834 269.817
L805.834 270.421
L809.29 270.421
L809.29 270.119
L812.746 270.119
L812.746 269.968
L816.202 269.968
L816.202 270.723
L819.658 270.723
L819.658 269.817
L826.57 269.817
L826.57 270.572
L830.026 270.572
L830.026 269.968
L840 269.968
L840 269.968" style="fill:none;stroke:#ff0000;stroke-linecap:square;"/>
   </g>
   <g id="line2d_19">
    <path clip-path="url(#pfe8e649188)" d="
M563.914 269.969
L567.37 269.969
L570.826 269.969
L574.282 269.969
L577.738 269.969
L581.194 269.969
L584.65 269.969
L588.106 269.969
L591.562 269.969
L595.018 271.655
L598.474 274.739
L601.93 277.558
L605.386 279.842
L608.842 281.604
L612.298 282.895
L615.754 283.773
L619.21 284.292
L622.666 284.5
L626.122 284.441
L629.578 284.157
L633.034 283.69
L636.49 283.075
L639.946 282.348
L643.402 281.538
L646.858 280.676
L650.314 279.786
L653.77 278.89
L657.226 278.008
L660.682 277.153
L664.138 276.338
L667.594 275.573
L671.05 274.863
L674.506 274.213
L677.962 273.623
L681.418 273.094
L684.874 272.623
L688.33 272.209
L691.786 271.848
L695.242 271.536
L698.698 271.267
L702.154 271.039
L705.61 270.845
L709.066 270.683
L712.522 270.548
L715.978 270.436
L719.434 270.343
L722.89 270.268
L726.346 270.206
L729.802 270.156
L733.258 270.116
L736.714 270.084
L740.17 270.059
L743.626 270.039
L747.082 270.023
L750.538 270.01
L753.994 270.001
L757.45 269.993
L760.906 269.987
L764.362 269.983
L767.818 269.979
L771.274 269.977
L774.73 269.975
L778.186 269.973
L781.642 269.972
L785.098 269.971
L788.554 269.971
L792.01 269.97
L795.466 269.97
L798.922 269.97
L802.378 269.97
L805.834 269.969
L809.29 269.969
L812.746 269.969
L816.202 269.969
L819.658 269.969
L823.114 269.969
L826.57 269.969" style="fill:none;stroke:#ff0000;stroke-linecap:square;stroke-width:3;"/>
   </g>
   <g id="line2d_20">
    <path clip-path="url(#pfe8e649188)" d="
M563.914 269.667
L823.114 269.667" style="fill:none;stroke:#000000;stroke-linecap:square;"/>
   </g>
   <g id="patch_13">
    <path d="
M563.914 384.867
L823.114 384.867" style="fill:none;stroke:#000000;stroke-linecap:square;stroke-linejoin:miter;"/>
   </g>
   <g id="patch_14">
    <path d="
M563.914 384.867
L563.914 39.2666" style="fill:none;stroke:#000000;stroke-linecap:square;stroke-linejoin:miter;"/>
   </g>
   <g id="matplotlib.axis_5">
    <g id="xtick_6">
     <g id="line2d_21">
      <g>
       <use style="stroke:#000000;stroke-width:0.5;" x="563.91375" xlink:href="#m93b0483c22" y="384.8666"/>
      </g>
     </g>
     <g id="text_9">
      <!-- 0.0 -->
      <g transform="translate(555.1659375 397.984725)scale(0.12 -0.12)">
       <use xlink:href="#BitstreamVeraSans-Roman-30"/>
       <use x="63.623046875" xlink:href="#BitstreamVeraSans-Roman-2e"/>
       <use x="95.41015625" xlink:href="#BitstreamVeraSans-Roman-30"/>
      </g>
     </g>
    </g>
    <g id="xtick_7">
     <g id="line2d_22">
      <g>
       <use style="stroke:#000000;stroke-width:0.5;" x="607.11375" xlink:href="#m93b0483c22" y="384.8666"/>
      </g>
     </g>
     <g id="text_10">
      <!-- 0.5 -->
      <g transform="translate(598.4915625 397.984725)scale(0.12 -0.12)">
       <use xlink:href="#BitstreamVeraSans-Roman-30"/>
       <use x="63.623046875" xlink:href="#BitstreamVeraSans-Roman-2e"/>
       <use x="95.41015625" xlink:href="#BitstreamVeraSans-Roman-35"/>
      </g>
     </g>
    </g>
    <g id="xtick_8">
     <g id="line2d_23">
      <g>
       <use style="stroke:#000000;stroke-width:0.5;" x="650.31375" xlink:href="#m93b0483c22" y="384.8666"/>
      </g>
     </g>
     <g id="text_11">
      <!-- 1.0 -->
      <g transform="translate(641.829375 397.984725)scale(0.12 -0.12)">
       <use xlink:href="#BitstreamVeraSans-Roman-31"/>
       <use x="63.623046875" xlink:href="#BitstreamVeraSans-Roman-2e"/>
       <use x="95.41015625" xlink:href="#BitstreamVeraSans-Roman-30"/>
      </g>
     </g>
    </g>
    <g id="xtick_9">
     <g id="line2d_24">
      <g>
       <use style="stroke:#000000;stroke-width:0.5;" x="693.51375" xlink:href="#m93b0483c22" y="384.8666"/>
      </g>
     </g>
     <g id="text_12">
      <!-- 1.5 -->
      <g transform="translate(685.155 397.984725)scale(0.12 -0.12)">
       <use xlink:href="#BitstreamVeraSans-Roman-31"/>
       <use x="63.623046875" xlink:href="#BitstreamVeraSans-Roman-2e"/>
       <use x="95.41015625" xlink:href="#BitstreamVeraSans-Roman-35"/>
      </g>
     </g>
    </g>
    <g id="xtick_10">
     <g id="line2d_25">
      <g>
       <use style="stroke:#000000;stroke-width:0.5;" x="736.71375" xlink:href="#m93b0483c22" y="384.8666"/>
      </g>
     </g>
     <g id="text_13">
      <!-- 2.0 -->
      <g transform="translate(728.01 397.984725)scale(0.12 -0.12)">
       <use xlink:href="#BitstreamVeraSans-Roman-32"/>
       <use x="63.623046875" xlink:href="#BitstreamVeraSans-Roman-2e"/>
       <use x="95.41015625" xlink:href="#BitstreamVeraSans-Roman-30"/>
      </g>
     </g>
    </g>
    <g id="xtick_11">
     <g id="line2d_26">
      <g>
       <use style="stroke:#000000;stroke-width:0.5;" x="779.91375" xlink:href="#m93b0483c22" y="384.8666"/>
      </g>
     </g>
     <g id="text_14">
      <!-- 2.5 -->
      <g transform="translate(771.335625 397.984725)scale(0.12 -0.12)">
       <use xlink:href="#BitstreamVeraSans-Roman-32"/>
       <use x="63.623046875" xlink:href="#BitstreamVeraSans-Roman-2e"/>
       <use x="95.41015625" xlink:href="#BitstreamVeraSans-Roman-35"/>
      </g>
     </g>
    </g>
    <g id="xtick_12">
     <g id="line2d_27">
      <g>
       <use style="stroke:#000000;stroke-width:0.5;" x="823.11375" xlink:href="#m93b0483c22" y="384.8666"/>
      </g>
     </g>
     <g id="text_15">
      <!-- 3.0 -->
      <defs>
       <path d="
M40.5781 39.3125
Q47.6562 37.7969 51.625 33
Q55.6094 28.2188 55.6094 21.1875
Q55.6094 10.4062 48.1875 4.48438
Q40.7656 -1.42188 27.0938 -1.42188
Q22.5156 -1.42188 17.6562 -0.515625
Q12.7969 0.390625 7.625 2.20312
L7.625 11.7188
Q11.7188 9.32812 16.5938 8.10938
Q21.4844 6.89062 26.8125 6.89062
Q36.0781 6.89062 40.9375 10.5469
Q45.7969 14.2031 45.7969 21.1875
Q45.7969 27.6406 41.2812 31.2656
Q36.7656 34.9062 28.7188 34.9062
L20.2188 34.9062
L20.2188 43.0156
L29.1094 43.0156
Q36.375 43.0156 40.2344 45.9219
Q44.0938 48.8281 44.0938 54.2969
Q44.0938 59.9062 40.1094 62.9062
Q36.1406 65.9219 28.7188 65.9219
Q24.6562 65.9219 20.0156 65.0312
Q15.375 64.1562 9.8125 62.3125
L9.8125 71.0938
Q15.4375 72.6562 20.3438 73.4375
Q25.25 74.2188 29.5938 74.2188
Q40.8281 74.2188 47.3594 69.1094
Q53.9062 64.0156 53.9062 55.3281
Q53.9062 49.2656 50.4375 45.0938
Q46.9688 40.9219 40.5781 39.3125" id="BitstreamVeraSans-Roman-33"/>
      </defs>
      <g transform="translate(814.4278125 397.984725)scale(0.12 -0.12)">
       <use xlink:href="#BitstreamVeraSans-Roman-33"/>
       <use x="63.623046875" xlink:href="#BitstreamVeraSans-Roman-2e"/>
       <use x="95.41015625" xlink:href="#BitstreamVeraSans-Roman-30"/>
      </g>
     </g>
    </g>
    <g id="text_16">
     <!-- T [s] -->
     <defs>
      <path d="
M8.59375 75.9844
L29.2969 75.9844
L29.2969 69
L17.5781 69
L17.5781 -6.20312
L29.2969 -6.20312
L29.2969 -13.1875
L8.59375 -13.1875
z
" id="BitstreamVeraSans-Roman-5b"/>
      <path d="
M30.4219 75.9844
L30.4219 -13.1875
L9.71875 -13.1875
L9.71875 -6.20312
L21.3906 -6.20312
L21.3906 69
L9.71875 69
L9.71875 75.9844
z
" id="BitstreamVeraSans-Roman-5d"/>
     </defs>
     <g transform="translate(680.6325 414.598475)scale(0.12 -0.12)">
      <use xlink:href="#BitstreamVeraSans-Roman-54"/>
      <use x="61.083984375" xlink:href="#BitstreamVeraSans-Roman-20"/>
      <use x="92.87109375" xlink:href="#BitstreamVeraSans-Roman-5b"/>
      <use x="131.884765625" xlink:href="#BitstreamVeraSans-Roman-73"/>
      <use x="183.984375" xlink:href="#BitstreamVeraSans-Roman-5d"/>
     </g>
    </g>
   </g>
   <g id="matplotlib.axis_6">
    <g id="ytick_1">
     <g id="line2d_28">
      <defs>
       <path d="
M0 0
L4 0" id="m728421d6d4" style="stroke:#000000;stroke-width:0.5;"/>
      </defs>
      <g>
       <use style="stroke:#000000;stroke-width:0.5;" x="563.91375" xlink:href="#m728421d6d4" y="384.8666"/>
      </g>
     </g>
     <g id="text_17">
      <!-- −2 -->
      <defs>
       <path d="
M10.5938 35.5
L73.1875 35.5
L73.1875 27.2031
L10.5938 27.2031
z
" id="BitstreamVeraSans-Roman-2212"/>
      </defs>
      <g transform="translate(544.69625 388.17785)scale(0.12 -0.12)">
       <use xlink:href="#BitstreamVeraSans-Roman-2212"/>
       <use x="83.7890625" xlink:href="#BitstreamVeraSans-Roman-32"/>
      </g>
     </g>
    </g>
    <g id="ytick_2">
     <g id="line2d_29">
      <g>
       <use style="stroke:#000000;stroke-width:0.5;" x="563.91375" xlink:href="#m728421d6d4" y="327.2666"/>
      </g>
     </g>
     <g id="text_18">
      <!-- −1 -->
      <g transform="translate(544.6025 330.57785)scale(0.12 -0.12)">
       <use xlink:href="#BitstreamVeraSans-Roman-2212"/>
       <use x="83.7890625" xlink:href="#BitstreamVeraSans-Roman-31"/>
      </g>
     </g>
    </g>
    <g id="ytick_3">
     <g id="line2d_30">
      <g>
       <use style="stroke:#000000;stroke-width:0.5;" x="563.91375" xlink:href="#m728421d6d4" y="269.6666"/>
      </g>
     </g>
     <g id="text_19">
      <!-- 0 -->
      <g transform="translate(553.866875 272.97785)scale(0.12 -0.12)">
       <use xlink:href="#BitstreamVeraSans-Roman-30"/>
      </g>
     </g>
    </g>
    <g id="ytick_4">
     <g id="line2d_31">
      <g>
       <use style="stroke:#000000;stroke-width:0.5;" x="563.91375" xlink:href="#m728421d6d4" y="212.0666"/>
      </g>
     </g>
     <g id="text_20">
      <!-- 1 -->
      <g transform="translate(554.705 215.37785)scale(0.12 -0.12)">
       <use xlink:href="#BitstreamVeraSans-Roman-31"/>
      </g>
     </g>
    </g>
    <g id="ytick_5">
     <g id="line2d_32">
      <g>
       <use style="stroke:#000000;stroke-width:0.5;" x="563.91375" xlink:href="#m728421d6d4" y="154.4666"/>
      </g>
     </g>
     <g id="text_21">
      <!-- 2 -->
      <g transform="translate(554.36 157.77785)scale(0.12 -0.12)">
       <use xlink:href="#BitstreamVeraSans-Roman-32"/>
      </g>
     </g>
    </g>
    <g id="ytick_6">
     <g id="line2d_33">
      <g>
       <use style="stroke:#000000;stroke-width:0.5;" x="563.91375" xlink:href="#m728421d6d4" y="96.8666"/>
      </g>
     </g>
     <g id="text_22">
      <!-- 3 -->
      <g transform="translate(554.155625 100.17785)scale(0.12 -0.12)">
       <use xlink:href="#BitstreamVeraSans-Roman-33"/>
      </g>
     </g>
    </g>
    <g id="ytick_7">
     <g id="line2d_34">
      <g>
       <use style="stroke:#000000;stroke-width:0.5;" x="563.91375" xlink:href="#m728421d6d4" y="39.2666"/>
      </g>
     </g>
     <g id="text_23">
      <!-- 4 -->
      <defs>
       <path d="
M37.7969 64.3125
L12.8906 25.3906
L37.7969 25.3906
z

M35.2031 72.9062
L47.6094 72.9062
L47.6094 25.3906
L58.0156 25.3906
L58.0156 17.1875
L47.6094 17.1875
L47.6094 0
L37.7969 0
L37.7969 17.1875
L4.89062 17.1875
L4.89062 26.7031
z
" id="BitstreamVeraSans-Roman-34"/>
      </defs>
      <g transform="translate(553.53875 42.57785)scale(0.12 -0.12)">
       <use xlink:href="#BitstreamVeraSans-Roman-34"/>
      </g>
     </g>
    </g>
    <g id="text_24">
     <!-- RT dist -->
     <defs>
      <path d="
M44.3906 34.1875
Q47.5625 33.1094 50.5625 29.5938
Q53.5625 26.0781 56.5938 19.9219
L66.6094 0
L56 0
L46.6875 18.7031
Q43.0625 26.0312 39.6719 28.4219
Q36.2812 30.8125 30.4219 30.8125
L19.6719 30.8125
L19.6719 0
L9.8125 0
L9.8125 72.9062
L32.0781 72.9062
Q44.5781 72.9062 50.7344 67.6719
Q56.8906 62.4531 56.8906 51.9062
Q56.8906 45.0156 53.6875 40.4688
Q50.4844 35.9375 44.3906 34.1875
M19.6719 64.7969
L19.6719 38.9219
L32.0781 38.9219
Q39.2031 38.9219 42.8438 42.2188
Q46.4844 45.5156 46.4844 51.9062
Q46.4844 58.2969 42.8438 61.5469
Q39.2031 64.7969 32.0781 64.7969
z
" id="BitstreamVeraSans-Roman-52"/>
     </defs>
     <g transform="translate(537.106875 232.1825375)rotate(-90.0)scale(0.12 -0.12)">
      <use xlink:href="#BitstreamVeraSans-Roman-52"/>
      <use x="62.232421875" xlink:href="#BitstreamVeraSans-Roman-54"/>
      <use x="123.31640625" xlink:href="#BitstreamVeraSans-Roman-20"/>
      <use x="155.103515625" xlink:href="#BitstreamVeraSans-Roman-64"/>
      <use x="218.580078125" xlink:href="#BitstreamVeraSans-Roman-69"/>
      <use x="246.36328125" xlink:href="#BitstreamVeraSans-Roman-73"/>
      <use x="298.462890625" xlink:href="#BitstreamVeraSans-Roman-74"/>
     </g>
    </g>
   </g>
   <g id="text_25">
    <!-- Response time -->
    <defs>
     <path d="
M18.1094 8.20312
L18.1094 -20.7969
L9.07812 -20.7969
L9.07812 54.6875
L18.1094 54.6875
L18.1094 46.3906
Q20.9531 51.2656 25.2656 53.625
Q29.5938 56 35.5938 56
Q45.5625 56 51.7812 48.0938
Q58.0156 40.1875 58.0156 27.2969
Q58.0156 14.4062 51.7812 6.48438
Q45.5625 -1.42188 35.5938 -1.42188
Q29.5938 -1.42188 25.2656 0.953125
Q20.9531 3.32812 18.1094 8.20312
M48.6875 27.2969
Q48.6875 37.2031 44.6094 42.8438
Q40.5312 48.4844 33.4062 48.4844
Q26.2656 48.4844 22.1875 42.8438
Q18.1094 37.2031 18.1094 27.2969
Q18.1094 17.3906 22.1875 11.75
Q26.2656 6.10938 33.4062 6.10938
Q40.5312 6.10938 44.6094 11.75
Q48.6875 17.3906 48.6875 27.2969" id="BitstreamVeraSans-Roman-70"/>
    </defs>
    <g transform="translate(640.7625 34.2666)scale(0.144 -0.144)">
     <use xlink:href="#BitstreamVeraSans-Roman-52"/>
     <use x="64.982421875" xlink:href="#BitstreamVeraSans-Roman-65"/>
     <use x="126.505859375" xlink:href="#BitstreamVeraSans-Roman-73"/>
     <use x="178.60546875" xlink:href="#BitstreamVeraSans-Roman-70"/>
     <use x="242.08203125" xlink:href="#BitstreamVeraSans-Roman-6f"/>
     <use x="303.263671875" xlink:href="#BitstreamVeraSans-Roman-6e"/>
     <use x="366.642578125" xlink:href="#BitstreamVeraSans-Roman-73"/>
     <use x="418.7421875" xlink:href="#BitstreamVeraSans-Roman-65"/>
     <use x="480.265625" xlink:href="#BitstreamVeraSans-Roman-20"/>
     <use x="512.052734375" xlink:href="#BitstreamVeraSans-Roman-74"/>
     <use x="551.26171875" xlink:href="#BitstreamVeraSans-Roman-69"/>
     <use x="579.044921875" xlink:href="#BitstreamVeraSans-Roman-6d"/>
     <use x="676.45703125" xlink:href="#BitstreamVeraSans-Roman-65"/>
    </g>
   </g>
  </g>
  <g id="axes_4">
   <g id="patch_15">
    <path d="
M45.5138 212.067
L278.794 212.067
L278.794 39.2666
L45.5138 39.2666
z
" style="fill:#ffffff;"/>
   </g>
   <g id="line2d_35">
    <path clip-path="url(#pf7ea89552b)" d="
M45.5138 212.067
L45.5138 195.996
L50.1793 195.996
L50.1793 122.321
L54.8449 122.321
L54.8449 96.1785
L59.5106 96.1785
L59.5106 99.0078
L64.1762 99.0078
L64.1762 114.06
L68.8418 114.06
L68.8418 133.525
L73.5074 133.525
L73.5074 145.748
L78.173 145.748
L78.173 151.293
L82.8385 151.293
L82.8385 163.063
L87.5041 163.063
L87.5041 172.117
L92.1697 172.117
L92.1697 178.568
L96.8354 178.568
L96.8354 188.753
L101.501 188.753
L101.501 187.848
L106.167 187.848
L106.167 191.922
L110.832 191.922
L110.832 196.562
L115.498 196.562
L115.498 201.428
L120.163 201.428
L120.163 201.089
L124.829 201.089
L124.829 203.692
L129.495 203.692
L129.495 202.334
L134.16 202.334
L134.16 206.974
L138.826 206.974
L138.826 207.653
L143.491 207.653
L143.491 207.313
L148.157 207.313
L148.157 207.766
L152.823 207.766
L152.823 209.237
L157.488 209.237
L157.488 210.03
L162.154 210.03
L162.154 210.256
L166.819 210.256
L166.819 210.369
L171.485 210.369
L171.485 210.822
L176.151 210.822
L176.151 211.727
L180.816 211.727
L180.816 211.161
L185.482 211.161
L185.482 211.501
L190.147 211.501
L190.147 211.727
L194.813 211.727
L194.813 211.953
L199.479 211.953
L199.479 211.84
L204.144 211.84
L204.144 211.727
L208.81 211.727
L208.81 212.067
L213.475 212.067
L213.475 211.84
L218.141 211.84
L218.141 211.727
L222.807 211.727
L222.807 211.953
L227.472 211.953
L227.472 212.067
L596.055 212.067
L596.055 212.067" style="fill:none;stroke:#0000ff;stroke-linecap:square;"/>
   </g>
   <g id="line2d_36">
    <path clip-path="url(#pf7ea89552b)" d="
M45.5138 212.067
L50.1793 119.37
L54.8449 56.4677
L59.5106 75.4898
L64.1762 103.136
L68.8418 126.789
L73.5074 145.558
L78.173 160.2
L82.8385 171.584
L87.5041 180.504
L92.1697 187.506
L96.8354 192.969
L101.501 197.235
L106.167 200.579
L110.832 203.209
L115.498 205.262
L120.163 206.848
L124.829 208.088
L129.495 209.043
L134.16 209.78
L138.826 210.347
L143.491 210.779
L148.157 211.109
L152.823 211.358
L157.488 211.545
L162.154 211.686
L166.819 211.79
L171.485 211.868
L176.151 211.925
L180.816 211.966
L185.482 211.996
L190.147 212.018
L194.813 212.033
L199.479 212.044
L204.144 212.052
L208.81 212.057
L213.475 212.061
L218.141 212.063
L222.807 212.065
L227.472 212.066
L232.138 212.067
L236.803 212.067
L241.469 212.067
L246.135 212.067
L250.8 212.067
L255.466 212.067
L260.131 212.067
L264.797 212.067
L269.463 212.067
L274.128 212.067
L278.794 212.067
L283.459 212.067" style="fill:none;stroke:#0000ff;stroke-linecap:square;stroke-width:3;"/>
   </g>
   <g id="patch_16">
    <path d="
M45.5138 212.067
L278.794 212.067" style="fill:none;stroke:#000000;stroke-linecap:square;stroke-linejoin:miter;"/>
   </g>
   <g id="patch_17">
    <path d="
M45.5138 212.067
L45.5138 39.2666" style="fill:none;stroke:#000000;stroke-linecap:square;stroke-linejoin:miter;"/>
   </g>
   <g id="matplotlib.axis_7">
    <g id="xtick_13">
     <g id="line2d_37">
      <g>
       <use style="stroke:#000000;stroke-width:0.5;" x="45.51375" xlink:href="#m93b0483c22" y="212.0666"/>
      </g>
     </g>
    </g>
    <g id="xtick_14">
     <g id="line2d_38">
      <g>
       <use style="stroke:#000000;stroke-width:0.5;" x="103.83375" xlink:href="#m93b0483c22" y="212.0666"/>
      </g>
     </g>
    </g>
    <g id="xtick_15">
     <g id="line2d_39">
      <g>
       <use style="stroke:#000000;stroke-width:0.5;" x="162.15375" xlink:href="#m93b0483c22" y="212.0666"/>
      </g>
     </g>
    </g>
    <g id="xtick_16">
     <g id="line2d_40">
      <g>
       <use style="stroke:#000000;stroke-width:0.5;" x="220.47375" xlink:href="#m93b0483c22" y="212.0666"/>
      </g>
     </g>
    </g>
    <g id="xtick_17">
     <g id="line2d_41">
      <g>
       <use style="stroke:#000000;stroke-width:0.5;" x="278.79375" xlink:href="#m93b0483c22" y="212.0666"/>
      </g>
     </g>
    </g>
   </g>
   <g id="matplotlib.axis_8">
    <g id="ytick_8">
     <g id="line2d_42">
      <g>
       <use style="stroke:#000000;stroke-width:0.5;" x="45.51375" xlink:href="#m728421d6d4" y="212.0666"/>
      </g>
     </g>
     <g id="text_26">
      <!-- 0.0 -->
      <g transform="translate(24.018125 215.37785)scale(0.12 -0.12)">
       <use xlink:href="#BitstreamVeraSans-Roman-30"/>
       <use x="63.623046875" xlink:href="#BitstreamVeraSans-Roman-2e"/>
       <use x="95.41015625" xlink:href="#BitstreamVeraSans-Roman-30"/>
      </g>
     </g>
    </g>
    <g id="ytick_9">
     <g id="line2d_43">
      <g>
       <use style="stroke:#000000;stroke-width:0.5;" x="45.51375" xlink:href="#m728421d6d4" y="190.4666"/>
      </g>
     </g>
     <g id="text_27">
      <!-- 0.5 -->
      <g transform="translate(24.269375 193.77785)scale(0.12 -0.12)">
       <use xlink:href="#BitstreamVeraSans-Roman-30"/>
       <use x="63.623046875" xlink:href="#BitstreamVeraSans-Roman-2e"/>
       <use x="95.41015625" xlink:href="#BitstreamVeraSans-Roman-35"/>
      </g>
     </g>
    </g>
    <g id="ytick_10">
     <g id="line2d_44">
      <g>
       <use style="stroke:#000000;stroke-width:0.5;" x="45.51375" xlink:href="#m728421d6d4" y="168.8666"/>
      </g>
     </g>
     <g id="text_28">
      <!-- 1.0 -->
      <g transform="translate(24.545 172.17785)scale(0.12 -0.12)">
       <use xlink:href="#BitstreamVeraSans-Roman-31"/>
       <use x="63.623046875" xlink:href="#BitstreamVeraSans-Roman-2e"/>
       <use x="95.41015625" xlink:href="#BitstreamVeraSans-Roman-30"/>
      </g>
     </g>
    </g>
    <g id="ytick_11">
     <g id="line2d_45">
      <g>
       <use style="stroke:#000000;stroke-width:0.5;" x="45.51375" xlink:href="#m728421d6d4" y="147.2666"/>
      </g>
     </g>
     <g id="text_29">
      <!-- 1.5 -->
      <g transform="translate(24.79625 150.57785)scale(0.12 -0.12)">
       <use xlink:href="#BitstreamVeraSans-Roman-31"/>
       <use x="63.623046875" xlink:href="#BitstreamVeraSans-Roman-2e"/>
       <use x="95.41015625" xlink:href="#BitstreamVeraSans-Roman-35"/>
      </g>
     </g>
    </g>
    <g id="ytick_12">
     <g id="line2d_46">
      <g>
       <use style="stroke:#000000;stroke-width:0.5;" x="45.51375" xlink:href="#m728421d6d4" y="125.6666"/>
      </g>
     </g>
     <g id="text_30">
      <!-- 2.0 -->
      <g transform="translate(24.10625 128.97785)scale(0.12 -0.12)">
       <use xlink:href="#BitstreamVeraSans-Roman-32"/>
       <use x="63.623046875" xlink:href="#BitstreamVeraSans-Roman-2e"/>
       <use x="95.41015625" xlink:href="#BitstreamVeraSans-Roman-30"/>
      </g>
     </g>
    </g>
    <g id="ytick_13">
     <g id="line2d_47">
      <g>
       <use style="stroke:#000000;stroke-width:0.5;" x="45.51375" xlink:href="#m728421d6d4" y="104.0666"/>
      </g>
     </g>
     <g id="text_31">
      <!-- 2.5 -->
      <g transform="translate(24.3575 107.37785)scale(0.12 -0.12)">
       <use xlink:href="#BitstreamVeraSans-Roman-32"/>
       <use x="63.623046875" xlink:href="#BitstreamVeraSans-Roman-2e"/>
       <use x="95.41015625" xlink:href="#BitstreamVeraSans-Roman-35"/>
      </g>
     </g>
    </g>
    <g id="ytick_14">
     <g id="line2d_48">
      <g>
       <use style="stroke:#000000;stroke-width:0.5;" x="45.51375" xlink:href="#m728421d6d4" y="82.4666"/>
      </g>
     </g>
     <g id="text_32">
      <!-- 3.0 -->
      <g transform="translate(24.141875 85.77785)scale(0.12 -0.12)">
       <use xlink:href="#BitstreamVeraSans-Roman-33"/>
       <use x="63.623046875" xlink:href="#BitstreamVeraSans-Roman-2e"/>
       <use x="95.41015625" xlink:href="#BitstreamVeraSans-Roman-30"/>
      </g>
     </g>
    </g>
    <g id="ytick_15">
     <g id="line2d_49">
      <g>
       <use style="stroke:#000000;stroke-width:0.5;" x="45.51375" xlink:href="#m728421d6d4" y="60.8666"/>
      </g>
     </g>
     <g id="text_33">
      <!-- 3.5 -->
      <g transform="translate(24.393125 64.17785)scale(0.12 -0.12)">
       <use xlink:href="#BitstreamVeraSans-Roman-33"/>
       <use x="63.623046875" xlink:href="#BitstreamVeraSans-Roman-2e"/>
       <use x="95.41015625" xlink:href="#BitstreamVeraSans-Roman-35"/>
      </g>
     </g>
    </g>
    <g id="ytick_16">
     <g id="line2d_50">
      <g>
       <use style="stroke:#000000;stroke-width:0.5;" x="45.51375" xlink:href="#m728421d6d4" y="39.2666"/>
      </g>
     </g>
     <g id="text_34">
      <!-- 4.0 -->
      <g transform="translate(23.81375 42.57785)scale(0.12 -0.12)">
       <use xlink:href="#BitstreamVeraSans-Roman-34"/>
       <use x="63.623046875" xlink:href="#BitstreamVeraSans-Roman-2e"/>
       <use x="95.41015625" xlink:href="#BitstreamVeraSans-Roman-30"/>
      </g>
     </g>
    </g>
    <g id="text_35">
     <!-- Up RT dist -->
     <defs>
      <path d="
M8.6875 72.9062
L18.6094 72.9062
L18.6094 28.6094
Q18.6094 16.8906 22.8438 11.7344
Q27.0938 6.59375 36.625 6.59375
Q46.0938 6.59375 50.3438 11.7344
Q54.5938 16.8906 54.5938 28.6094
L54.5938 72.9062
L64.5 72.9062
L64.5 27.3906
Q64.5 13.1406 57.4375 5.85938
Q50.3906 -1.42188 36.625 -1.42188
Q22.7969 -1.42188 15.7344 5.85938
Q8.6875 13.1406 8.6875 27.3906
z
" id="BitstreamVeraSans-Roman-55"/>
     </defs>
     <g transform="translate(16.318125 155.889725)rotate(-90.0)scale(0.12 -0.12)">
      <use xlink:href="#BitstreamVeraSans-Roman-55"/>
      <use x="73.193359375" xlink:href="#BitstreamVeraSans-Roman-70"/>
      <use x="136.669921875" xlink:href="#BitstreamVeraSans-Roman-20"/>
      <use x="168.45703125" xlink:href="#BitstreamVeraSans-Roman-52"/>
      <use x="230.689453125" xlink:href="#BitstreamVeraSans-Roman-54"/>
      <use x="291.7734375" xlink:href="#BitstreamVeraSans-Roman-20"/>
      <use x="323.560546875" xlink:href="#BitstreamVeraSans-Roman-64"/>
      <use x="387.037109375" xlink:href="#BitstreamVeraSans-Roman-69"/>
      <use x="414.8203125" xlink:href="#BitstreamVeraSans-Roman-73"/>
      <use x="466.919921875" xlink:href="#BitstreamVeraSans-Roman-74"/>
     </g>
    </g>
   </g>
   <g id="patch_18">
    <path d="
M105.657 167.564
Q234.597 147.486 315.294 248.432
L316.465 247.495
Q317.055 250.235 317.601 252.987
Q315.076 251.763 312.56 250.617
L313.731 249.681
Q233.759 149.641 105.964 169.54
L105.657 167.564
z
" style="fill:#808080;stroke:#808080;stroke-linecap:round;"/>
   </g>
   <g id="text_36">
    <!-- Diffusion first -->
    <defs>
     <path d="
M41.1094 46.2969
Q39.5938 47.1719 37.8125 47.5781
Q36.0312 48 33.8906 48
Q26.2656 48 22.1875 43.0469
Q18.1094 38.0938 18.1094 28.8125
L18.1094 0
L9.07812 0
L9.07812 54.6875
L18.1094 54.6875
L18.1094 46.1875
Q20.9531 51.1719 25.4844 53.5781
Q30.0312 56 36.5312 56
Q37.4531 56 38.5781 55.875
Q39.7031 55.7656 41.0625 55.5156
z
" id="BitstreamVeraSans-Roman-72"/>
     <path d="
M8.5 21.5781
L8.5 54.6875
L17.4844 54.6875
L17.4844 21.9219
Q17.4844 14.1562 20.5 10.2656
Q23.5312 6.39062 29.5938 6.39062
Q36.8594 6.39062 41.0781 11.0312
Q45.3125 15.6719 45.3125 23.6875
L45.3125 54.6875
L54.2969 54.6875
L54.2969 0
L45.3125 0
L45.3125 8.40625
Q42.0469 3.42188 37.7188 1
Q33.4062 -1.42188 27.6875 -1.42188
Q18.2656 -1.42188 13.375 4.4375
Q8.5 10.2969 8.5 21.5781" id="BitstreamVeraSans-Roman-75"/>
     <path d="
M19.6719 64.7969
L19.6719 8.10938
L31.5938 8.10938
Q46.6875 8.10938 53.6875 14.9375
Q60.6875 21.7812 60.6875 36.5312
Q60.6875 51.1719 53.6875 57.9844
Q46.6875 64.7969 31.5938 64.7969
z

M9.8125 72.9062
L30.0781 72.9062
Q51.2656 72.9062 61.1719 64.0938
Q71.0938 55.2812 71.0938 36.5312
Q71.0938 17.6719 61.125 8.82812
Q51.1719 0 30.0781 0
L9.8125 0
z
" id="BitstreamVeraSans-Roman-44"/>
     <path d="
M37.1094 75.9844
L37.1094 68.5
L28.5156 68.5
Q23.6875 68.5 21.7969 66.5469
Q19.9219 64.5938 19.9219 59.5156
L19.9219 54.6875
L34.7188 54.6875
L34.7188 47.7031
L19.9219 47.7031
L19.9219 0
L10.8906 0
L10.8906 47.7031
L2.29688 47.7031
L2.29688 54.6875
L10.8906 54.6875
L10.8906 58.5
Q10.8906 67.625 15.1406 71.7969
Q19.3906 75.9844 28.6094 75.9844
z
" id="BitstreamVeraSans-Roman-66"/>
    </defs>
    <g transform="translate(114.0735 18.14175)scale(0.144 -0.144)">
     <use xlink:href="#BitstreamVeraSans-Roman-44"/>
     <use x="77.001953125" xlink:href="#BitstreamVeraSans-Roman-69"/>
     <use x="104.78515625" xlink:href="#BitstreamVeraSans-Roman-66"/>
     <use x="139.990234375" xlink:href="#BitstreamVeraSans-Roman-66"/>
     <use x="175.1953125" xlink:href="#BitstreamVeraSans-Roman-75"/>
     <use x="238.57421875" xlink:href="#BitstreamVeraSans-Roman-73"/>
     <use x="290.673828125" xlink:href="#BitstreamVeraSans-Roman-69"/>
     <use x="318.45703125" xlink:href="#BitstreamVeraSans-Roman-6f"/>
     <use x="379.638671875" xlink:href="#BitstreamVeraSans-Roman-6e"/>
     <use x="443.017578125" xlink:href="#BitstreamVeraSans-Roman-20"/>
     <use x="474.8046875" xlink:href="#BitstreamVeraSans-Roman-66"/>
     <use x="510.009765625" xlink:href="#BitstreamVeraSans-Roman-69"/>
     <use x="537.79296875" xlink:href="#BitstreamVeraSans-Roman-72"/>
     <use x="578.90625" xlink:href="#BitstreamVeraSans-Roman-73"/>
     <use x="631.005859375" xlink:href="#BitstreamVeraSans-Roman-74"/>
    </g>
    <!-- passage time -->
    <defs>
     <path d="
M45.4062 27.9844
Q45.4062 37.75 41.375 43.1094
Q37.3594 48.4844 30.0781 48.4844
Q22.8594 48.4844 18.8281 43.1094
Q14.7969 37.75 14.7969 27.9844
Q14.7969 18.2656 18.8281 12.8906
Q22.8594 7.51562 30.0781 7.51562
Q37.3594 7.51562 41.375 12.8906
Q45.4062 18.2656 45.4062 27.9844
M54.3906 6.78125
Q54.3906 -7.17188 48.1875 -13.9844
Q42 -20.7969 29.2031 -20.7969
Q24.4688 -20.7969 20.2656 -20.0938
Q16.0625 -19.3906 12.1094 -17.9219
L12.1094 -9.1875
Q16.0625 -11.3281 19.9219 -12.3438
Q23.7812 -13.375 27.7812 -13.375
Q36.625 -13.375 41.0156 -8.76562
Q45.4062 -4.15625 45.4062 5.17188
L45.4062 9.625
Q42.625 4.78125 38.2812 2.39062
Q33.9375 0 27.875 0
Q17.8281 0 11.6719 7.65625
Q5.51562 15.3281 5.51562 27.9844
Q5.51562 40.6719 11.6719 48.3281
Q17.8281 56 27.875 56
Q33.9375 56 38.2812 53.6094
Q42.625 51.2188 45.4062 46.3906
L45.4062 54.6875
L54.3906 54.6875
z
" id="BitstreamVeraSans-Roman-67"/>
     <path d="
M34.2812 27.4844
Q23.3906 27.4844 19.1875 25
Q14.9844 22.5156 14.9844 16.5
Q14.9844 11.7188 18.1406 8.90625
Q21.2969 6.10938 26.7031 6.10938
Q34.1875 6.10938 38.7031 11.4062
Q43.2188 16.7031 43.2188 25.4844
L43.2188 27.4844
z

M52.2031 31.2031
L52.2031 0
L43.2188 0
L43.2188 8.29688
Q40.1406 3.32812 35.5469 0.953125
Q30.9531 -1.42188 24.3125 -1.42188
Q15.9219 -1.42188 10.9531 3.29688
Q6 8.01562 6 15.9219
Q6 25.1406 12.1719 29.8281
Q18.3594 34.5156 30.6094 34.5156
L43.2188 34.5156
L43.2188 35.4062
Q43.2188 41.6094 39.1406 45
Q35.0625 48.3906 27.6875 48.3906
Q23 48.3906 18.5469 47.2656
Q14.1094 46.1406 10.0156 43.8906
L10.0156 52.2031
Q14.9375 54.1094 19.5781 55.0469
Q24.2188 56 28.6094 56
Q40.4844 56 46.3438 49.8438
Q52.2031 43.7031 52.2031 31.2031" id="BitstreamVeraSans-Roman-61"/>
    </defs>
    <g transform="translate(114.08475 34.2666)scale(0.144 -0.144)">
     <use xlink:href="#BitstreamVeraSans-Roman-70"/>
     <use x="63.4765625" xlink:href="#BitstreamVeraSans-Roman-61"/>
     <use x="124.755859375" xlink:href="#BitstreamVeraSans-Roman-73"/>
     <use x="176.85546875" xlink:href="#BitstreamVeraSans-Roman-73"/>
     <use x="228.955078125" xlink:href="#BitstreamVeraSans-Roman-61"/>
     <use x="290.234375" xlink:href="#BitstreamVeraSans-Roman-67"/>
     <use x="353.7109375" xlink:href="#BitstreamVeraSans-Roman-65"/>
     <use x="415.234375" xlink:href="#BitstreamVeraSans-Roman-20"/>
     <use x="447.021484375" xlink:href="#BitstreamVeraSans-Roman-74"/>
     <use x="486.23046875" xlink:href="#BitstreamVeraSans-Roman-69"/>
     <use x="514.013671875" xlink:href="#BitstreamVeraSans-Roman-6d"/>
     <use x="611.42578125" xlink:href="#BitstreamVeraSans-Roman-65"/>
    </g>
   </g>
   <g id="legend_1">
    <g id="patch_19">
     <path d="
M140.624 93.0596
L271.594 93.0596
L271.594 46.4666
L140.624 46.4666
z
" style="fill:#ffffff;stroke:#000000;stroke-linejoin:miter;"/>
    </g>
    <g id="line2d_51">
     <path d="
M150.704 58.1283
L170.864 58.1283" style="fill:none;stroke:#0000ff;stroke-linecap:square;"/>
    </g>
    <g id="line2d_52"/>
    <g id="text_37">
     <!-- Simulation -->
     <defs>
      <path d="
M53.5156 70.5156
L53.5156 60.8906
Q47.9062 63.5781 42.9219 64.8906
Q37.9375 66.2188 33.2969 66.2188
Q25.25 66.2188 20.875 63.0938
Q16.5 59.9688 16.5 54.2031
Q16.5 49.3594 19.4062 46.8906
Q22.3125 44.4375 30.4219 42.9219
L36.375 41.7031
Q47.4062 39.5938 52.6562 34.2969
Q57.9062 29 57.9062 20.125
Q57.9062 9.51562 50.7969 4.04688
Q43.7031 -1.42188 29.9844 -1.42188
Q24.8125 -1.42188 18.9688 -0.25
Q13.1406 0.921875 6.89062 3.21875
L6.89062 13.375
Q12.8906 10.0156 18.6562 8.29688
Q24.4219 6.59375 29.9844 6.59375
Q38.4219 6.59375 43.0156 9.90625
Q47.6094 13.2344 47.6094 19.3906
Q47.6094 24.75 44.3125 27.7812
Q41.0156 30.8125 33.5 32.3281
L27.4844 33.5
Q16.4531 35.6875 11.5156 40.375
Q6.59375 45.0625 6.59375 53.4219
Q6.59375 63.0938 13.4062 68.6562
Q20.2188 74.2188 32.1719 74.2188
Q37.3125 74.2188 42.625 73.2812
Q47.9531 72.3594 53.5156 70.5156" id="BitstreamVeraSans-Roman-53"/>
     </defs>
     <g transform="translate(186.7035 63.16835)scale(0.144 -0.144)">
      <use xlink:href="#BitstreamVeraSans-Roman-53"/>
      <use x="63.4765625" xlink:href="#BitstreamVeraSans-Roman-69"/>
      <use x="91.259765625" xlink:href="#BitstreamVeraSans-Roman-6d"/>
      <use x="188.671875" xlink:href="#BitstreamVeraSans-Roman-75"/>
      <use x="252.05078125" xlink:href="#BitstreamVeraSans-Roman-6c"/>
      <use x="279.833984375" xlink:href="#BitstreamVeraSans-Roman-61"/>
      <use x="341.11328125" xlink:href="#BitstreamVeraSans-Roman-74"/>
      <use x="380.322265625" xlink:href="#BitstreamVeraSans-Roman-69"/>
      <use x="408.10546875" xlink:href="#BitstreamVeraSans-Roman-6f"/>
      <use x="469.287109375" xlink:href="#BitstreamVeraSans-Roman-6e"/>
     </g>
    </g>
    <g id="line2d_53">
     <path d="
M150.704 79.2648
L170.864 79.2648" style="fill:none;stroke:#0000ff;stroke-linecap:square;stroke-width:3;"/>
    </g>
    <g id="line2d_54"/>
    <g id="text_38">
     <!-- Theoretical -->
     <g transform="translate(186.7035 84.30485)scale(0.144 -0.144)">
      <use xlink:href="#BitstreamVeraSans-Roman-54"/>
      <use x="61.083984375" xlink:href="#BitstreamVeraSans-Roman-68"/>
      <use x="124.462890625" xlink:href="#BitstreamVeraSans-Roman-65"/>
      <use x="185.986328125" xlink:href="#BitstreamVeraSans-Roman-6f"/>
      <use x="247.16796875" xlink:href="#BitstreamVeraSans-Roman-72"/>
      <use x="286.03125" xlink:href="#BitstreamVeraSans-Roman-65"/>
      <use x="347.5546875" xlink:href="#BitstreamVeraSans-Roman-74"/>
      <use x="386.763671875" xlink:href="#BitstreamVeraSans-Roman-69"/>
      <use x="414.546875" xlink:href="#BitstreamVeraSans-Roman-63"/>
      <use x="469.52734375" xlink:href="#BitstreamVeraSans-Roman-61"/>
      <use x="530.806640625" xlink:href="#BitstreamVeraSans-Roman-6c"/>
     </g>
    </g>
   </g>
  </g>
  <g id="axes_5">
   <g id="patch_20">
    <path d="
M45.5138 384.867
L278.794 384.867
L278.794 298.467
L45.5138 298.467
z
" style="fill:#ffffff;"/>
   </g>
   <g id="line2d_55">
    <path clip-path="url(#p3882ee4c42)" d="
M45.5138 298.467
L45.5138 300.504
L50.1793 300.504
L50.1793 311.708
L54.8449 311.708
L54.8449 315.895
L59.5106 315.895
L59.5106 318.272
L64.1762 318.272
L64.1762 313.405
L68.8418 313.405
L68.8418 312.16
L73.5074 312.16
L73.5074 307.973
L78.173 307.973
L78.173 306.502
L82.8385 306.502
L82.8385 307.068
L87.5041 307.068
L87.5041 305.257
L92.1697 305.257
L92.1697 304.804
L96.8354 304.804
L96.8354 305.483
L101.501 305.483
L101.501 304.465
L106.167 304.465
L106.167 303.446
L110.832 303.446
L110.832 302.314
L115.498 302.314
L115.498 301.635
L120.163 301.635
L120.163 301.409
L124.829 301.409
L124.829 300.164
L129.495 300.164
L129.495 300.843
L134.16 300.843
L134.16 299.938
L138.826 299.938
L138.826 300.391
L143.491 300.391
L143.491 299.938
L152.823 299.938
L152.823 299.146
L157.488 299.146
L157.488 299.598
L162.154 299.598
L162.154 299.259
L166.819 299.259
L166.819 299.146
L171.485 299.146
L171.485 298.806
L176.151 298.806
L176.151 299.032
L180.816 299.032
L180.816 298.806
L185.482 298.806
L185.482 298.58
L190.147 298.58
L190.147 298.806
L194.813 298.806
L194.813 298.58
L199.479 298.58
L199.479 299.032
L204.144 299.032
L204.144 298.467
L232.138 298.467
L232.138 298.58
L236.803 298.58
L236.803 298.467
L596.055 298.467
L596.055 298.467" style="fill:none;stroke:#ff0000;stroke-linecap:square;"/>
   </g>
   <g id="line2d_56">
    <path clip-path="url(#p3882ee4c42)" d="
M45.5138 298.467
L50.1793 315.307
L54.8449 329.443
L59.5106 327.252
L64.1762 322.64
L68.8418 318.339
L73.5074 314.697
L78.173 311.689
L82.8385 309.23
L87.5041 307.203
L92.1697 305.529
L96.8354 304.163
L101.501 303.05
L106.167 302.141
L110.832 301.395
L115.498 300.787
L120.163 300.301
L124.829 299.906
L129.495 299.592
L134.16 299.341
L138.826 299.141
L143.491 298.984
L148.157 298.861
L152.823 298.765
L157.488 298.691
L162.154 298.634
L166.819 298.591
L171.485 298.558
L176.151 298.533
L180.816 298.515
L185.482 298.501
L190.147 298.491
L194.813 298.483
L199.479 298.478
L204.144 298.474
L208.81 298.471
L213.475 298.47
L218.141 298.468
L222.807 298.467
L227.472 298.467
L232.138 298.467
L236.803 298.467
L241.469 298.467
L246.135 298.467
L250.8 298.467
L255.466 298.467
L260.131 298.467
L264.797 298.467
L269.463 298.467
L274.128 298.467
L278.794 298.467
L283.459 298.467" style="fill:none;stroke:#ff0000;stroke-linecap:square;stroke-width:3;"/>
   </g>
   <g id="patch_21">
    <path d="
M45.5138 298.467
L278.794 298.467" style="fill:none;stroke:#000000;stroke-linecap:square;stroke-linejoin:miter;"/>
   </g>
   <g id="patch_22">
    <path d="
M45.5138 384.867
L278.794 384.867" style="fill:none;stroke:#000000;stroke-linecap:square;stroke-linejoin:miter;"/>
   </g>
   <g id="patch_23">
    <path d="
M45.5138 384.867
L45.5138 298.467" style="fill:none;stroke:#000000;stroke-linecap:square;stroke-linejoin:miter;"/>
   </g>
   <g id="matplotlib.axis_9">
    <g id="xtick_18">
     <g id="line2d_57">
      <g>
       <use style="stroke:#000000;stroke-width:0.5;" x="45.51375" xlink:href="#m93b0483c22" y="384.8666"/>
      </g>
     </g>
     <g id="text_39">
      <!-- 0.0 -->
      <g transform="translate(36.7659375 397.984725)scale(0.12 -0.12)">
       <use xlink:href="#BitstreamVeraSans-Roman-30"/>
       <use x="63.623046875" xlink:href="#BitstreamVeraSans-Roman-2e"/>
       <use x="95.41015625" xlink:href="#BitstreamVeraSans-Roman-30"/>
      </g>
     </g>
    </g>
    <g id="xtick_19">
     <g id="line2d_58">
      <g>
       <use style="stroke:#000000;stroke-width:0.5;" x="103.83375" xlink:href="#m93b0483c22" y="384.8666"/>
      </g>
     </g>
     <g id="text_40">
      <!-- 0.5 -->
      <g transform="translate(95.2115625 397.984725)scale(0.12 -0.12)">
       <use xlink:href="#BitstreamVeraSans-Roman-30"/>
       <use x="63.623046875" xlink:href="#BitstreamVeraSans-Roman-2e"/>
       <use x="95.41015625" xlink:href="#BitstreamVeraSans-Roman-35"/>
      </g>
     </g>
    </g>
    <g id="xtick_20">
     <g id="line2d_59">
      <g>
       <use style="stroke:#000000;stroke-width:0.5;" x="162.15375" xlink:href="#m93b0483c22" y="384.8666"/>
      </g>
     </g>
     <g id="text_41">
      <!-- 1.0 -->
      <g transform="translate(153.669375 397.984725)scale(0.12 -0.12)">
       <use xlink:href="#BitstreamVeraSans-Roman-31"/>
       <use x="63.623046875" xlink:href="#BitstreamVeraSans-Roman-2e"/>
       <use x="95.41015625" xlink:href="#BitstreamVeraSans-Roman-30"/>
      </g>
     </g>
    </g>
    <g id="xtick_21">
     <g id="line2d_60">
      <g>
       <use style="stroke:#000000;stroke-width:0.5;" x="220.47375" xlink:href="#m93b0483c22" y="384.8666"/>
      </g>
     </g>
     <g id="text_42">
      <!-- 1.5 -->
      <g transform="translate(212.115 397.984725)scale(0.12 -0.12)">
       <use xlink:href="#BitstreamVeraSans-Roman-31"/>
       <use x="63.623046875" xlink:href="#BitstreamVeraSans-Roman-2e"/>
       <use x="95.41015625" xlink:href="#BitstreamVeraSans-Roman-35"/>
      </g>
     </g>
    </g>
    <g id="xtick_22">
     <g id="line2d_61">
      <g>
       <use style="stroke:#000000;stroke-width:0.5;" x="278.79375" xlink:href="#m93b0483c22" y="384.8666"/>
      </g>
     </g>
     <g id="text_43">
      <!-- 2.0 -->
      <g transform="translate(270.09 397.984725)scale(0.12 -0.12)">
       <use xlink:href="#BitstreamVeraSans-Roman-32"/>
       <use x="63.623046875" xlink:href="#BitstreamVeraSans-Roman-2e"/>
       <use x="95.41015625" xlink:href="#BitstreamVeraSans-Roman-30"/>
      </g>
     </g>
    </g>
    <g id="text_44">
     <!-- T [s] -->
     <g transform="translate(149.2725 414.598475)scale(0.12 -0.12)">
      <use xlink:href="#BitstreamVeraSans-Roman-54"/>
      <use x="61.083984375" xlink:href="#BitstreamVeraSans-Roman-20"/>
      <use x="92.87109375" xlink:href="#BitstreamVeraSans-Roman-5b"/>
      <use x="131.884765625" xlink:href="#BitstreamVeraSans-Roman-73"/>
      <use x="183.984375" xlink:href="#BitstreamVeraSans-Roman-5d"/>
     </g>
    </g>
   </g>
   <g id="matplotlib.axis_10">
    <g id="ytick_17">
     <g id="line2d_62">
      <g>
       <use style="stroke:#000000;stroke-width:0.5;" x="45.51375" xlink:href="#m728421d6d4" y="298.4666"/>
      </g>
     </g>
     <g id="text_45">
      <!-- 0.0 -->
      <g transform="translate(24.018125 301.77785)scale(0.12 -0.12)">
       <use xlink:href="#BitstreamVeraSans-Roman-30"/>
       <use x="63.623046875" xlink:href="#BitstreamVeraSans-Roman-2e"/>
       <use x="95.41015625" xlink:href="#BitstreamVeraSans-Roman-30"/>
      </g>
     </g>
    </g>
    <g id="ytick_18">
     <g id="line2d_63">
      <g>
       <use style="stroke:#000000;stroke-width:0.5;" x="45.51375" xlink:href="#m728421d6d4" y="320.0666"/>
      </g>
     </g>
     <g id="text_46">
      <!-- 0.5 -->
      <g transform="translate(24.269375 323.37785)scale(0.12 -0.12)">
       <use xlink:href="#BitstreamVeraSans-Roman-30"/>
       <use x="63.623046875" xlink:href="#BitstreamVeraSans-Roman-2e"/>
       <use x="95.41015625" xlink:href="#BitstreamVeraSans-Roman-35"/>
      </g>
     </g>
    </g>
    <g id="ytick_19">
     <g id="line2d_64">
      <g>
       <use style="stroke:#000000;stroke-width:0.5;" x="45.51375" xlink:href="#m728421d6d4" y="341.6666"/>
      </g>
     </g>
     <g id="text_47">
      <!-- 1.0 -->
      <g transform="translate(24.545 344.97785)scale(0.12 -0.12)">
       <use xlink:href="#BitstreamVeraSans-Roman-31"/>
       <use x="63.623046875" xlink:href="#BitstreamVeraSans-Roman-2e"/>
       <use x="95.41015625" xlink:href="#BitstreamVeraSans-Roman-30"/>
      </g>
     </g>
    </g>
    <g id="ytick_20">
     <g id="line2d_65">
      <g>
       <use style="stroke:#000000;stroke-width:0.5;" x="45.51375" xlink:href="#m728421d6d4" y="363.2666"/>
      </g>
     </g>
     <g id="text_48">
      <!-- 1.5 -->
      <g transform="translate(24.79625 366.57785)scale(0.12 -0.12)">
       <use xlink:href="#BitstreamVeraSans-Roman-31"/>
       <use x="63.623046875" xlink:href="#BitstreamVeraSans-Roman-2e"/>
       <use x="95.41015625" xlink:href="#BitstreamVeraSans-Roman-35"/>
      </g>
     </g>
    </g>
    <g id="ytick_21">
     <g id="line2d_66">
      <g>
       <use style="stroke:#000000;stroke-width:0.5;" x="45.51375" xlink:href="#m728421d6d4" y="384.8666"/>
      </g>
     </g>
     <g id="text_49">
      <!-- 2.0 -->
      <g transform="translate(24.10625 388.17785)scale(0.12 -0.12)">
       <use xlink:href="#BitstreamVeraSans-Roman-32"/>
       <use x="63.623046875" xlink:href="#BitstreamVeraSans-Roman-2e"/>
       <use x="95.41015625" xlink:href="#BitstreamVeraSans-Roman-30"/>
      </g>
     </g>
    </g>
    <g id="text_50">
     <!-- Down RT dist -->
     <g transform="translate(16.5225 380.6900375)rotate(-90.0)scale(0.12 -0.12)">
      <use xlink:href="#BitstreamVeraSans-Roman-44"/>
      <use x="77.001953125" xlink:href="#BitstreamVeraSans-Roman-6f"/>
      <use x="138.18359375" xlink:href="#BitstreamVeraSans-Roman-77"/>
      <use x="219.970703125" xlink:href="#BitstreamVeraSans-Roman-6e"/>
      <use x="283.349609375" xlink:href="#BitstreamVeraSans-Roman-20"/>
      <use x="315.13671875" xlink:href="#BitstreamVeraSans-Roman-52"/>
      <use x="377.369140625" xlink:href="#BitstreamVeraSans-Roman-54"/>
      <use x="438.453125" xlink:href="#BitstreamVeraSans-Roman-20"/>
      <use x="470.240234375" xlink:href="#BitstreamVeraSans-Roman-64"/>
      <use x="533.716796875" xlink:href="#BitstreamVeraSans-Roman-69"/>
      <use x="561.5" xlink:href="#BitstreamVeraSans-Roman-73"/>
      <use x="613.599609375" xlink:href="#BitstreamVeraSans-Roman-74"/>
     </g>
    </g>
   </g>
   <g id="patch_24">
    <path d="
M106.017 319.612
Q226.682 351.205 313.26 263.169
L312.19 262.117
Q314.812 261.234 317.449 260.272
Q316.625 262.956 315.755 265.623
L314.686 264.571
Q227.296 353.434 105.51 321.546
L106.017 319.612
z
" style="fill:#808080;stroke:#808080;stroke-linecap:round;"/>
   </g>
  </g>
 </g>
 <defs>
  <clipPath id="p5bbb9315a8">
   <rect height="86.4" width="233.28" x="45.51375" y="212.0666"/>
  </clipPath>
  <clipPath id="pb9c2b6db16">
   <rect height="108.0" width="112.32" x="330.63375" y="203.4266"/>
  </clipPath>
  <clipPath id="pf7ea89552b">
   <rect height="172.8" width="233.28" x="45.51375" y="39.2666"/>
  </clipPath>
  <clipPath id="p3882ee4c42">
   <rect height="86.4" width="233.28" x="45.51375" y="298.4666"/>
  </clipPath>
  <clipPath id="pfe8e649188">
   <rect height="345.6" width="259.2" x="563.91375" y="39.2666"/>
  </clipPath>
 </defs>
</svg>
