<?xml version="1.0" encoding="utf-8" standalone="no"?>
<!DOCTYPE svg PUBLIC "-//W3C//DTD SVG 1.1//EN"
  "http://www.w3.org/Graphics/SVG/1.1/DTD/svg11.dtd">
<!-- Created with matplotlib (http://matplotlib.org/) -->
<svg height="424pt" version="1.1" viewBox="0 0 838 424" width="838pt" xmlns="http://www.w3.org/2000/svg" xmlns:xlink="http://www.w3.org/1999/xlink">
 <defs>
  <style type="text/css">
*{stroke-linecap:butt;stroke-linejoin:round;}
  </style>
 </defs>
 <g id="figure_1">
  <g id="patch_1">
   <path d="
M0 424.294
L838.813 424.294
L838.813 0
L0 0
z
" style="fill:#ffffff;"/>
  </g>
  <g id="axes_1">
   <g id="patch_2">
    <path d="
M45.3094 298.467
L278.589 298.467
L278.589 212.067
L45.3094 212.067
z
" style="fill:#ffffff;"/>
   </g>
   <g id="line2d_1">
    <path clip-path="url(#pe54f74f0aa)" d="
M45.3094 227.237
L54.6406 227.613
L63.9718 228.074
L73.303 228.597
L82.6342 229.13
L91.9654 229.69
L101.297 230.253
L110.628 230.808
L119.959 231.35
L129.29 231.882
L138.621 232.409
L147.953 232.93
L157.284 233.415
L166.615 233.895
L175.946 234.373
L185.277 234.807
L194.609 235.259
L203.94 235.66
L213.271 236.077
L222.602 236.465
L231.933 236.844
L241.265 237.231
L250.596 237.563
L259.927 237.909
L269.258 238.259
L278.589 238.57
L287.921 238.87" style="fill:none;stroke:#0000ff;stroke-dasharray:6.000000,6.000000;stroke-dashoffset:0.0;"/>
   </g>
   <g id="line2d_2">
    <path clip-path="url(#pe54f74f0aa)" d="
M45.3094 283.297
L54.6406 282.92
L63.9718 282.459
L73.303 281.936
L82.6342 281.403
L91.9654 280.844
L101.297 280.28
L110.628 279.726
L119.959 279.183
L129.29 278.651
L138.621 278.124
L147.953 277.603
L157.284 277.118
L166.615 276.638
L175.946 276.16
L185.277 275.726
L194.609 275.274
L203.94 274.873
L213.271 274.456
L222.602 274.068
L231.933 273.689
L241.265 273.302
L250.596 272.97
L259.927 272.625
L269.258 272.274
L278.589 271.964
L287.921 271.663" style="fill:none;stroke:#ff0000;stroke-dasharray:6.000000,6.000000;stroke-dashoffset:0.0;"/>
   </g>
   <g id="line2d_3">
    <path clip-path="url(#pe54f74f0aa)" d="
M45.3094 255.267
L45.5427 257.803
L45.7759 255.411
L46.0092 261.438
L46.2425 260.695
L46.4758 261.781
L46.9423 259.891
L47.1756 259.665
L47.6422 254.017
L47.8755 250.131
L48.1087 250.57
L48.5753 247.203
L48.8086 245.363
L49.0419 246.172
L49.2751 244.538
L49.5084 241.805
L49.7417 241.96
L50.2083 239.379
L50.4415 234.394
L50.6748 235.083
L50.9081 236.658
L51.1414 236.847
L51.3747 232.483
L51.6079 233.57
L51.8412 234.026
L52.0745 233.951
L52.3078 234.311
L52.5411 230.347
L52.7743 231.14
L53.2409 228.74
L53.4742 229.755
L53.7075 235.312
L53.9407 236.814
L54.174 234.643
L54.4073 238.2
L54.6406 236.945
L54.8739 239.127
L55.1071 235.668
L55.5737 243.353
L55.807 242.841
L56.0403 242.902
L56.2735 246.097
L56.5068 247.239
L56.7401 247.29
L56.9734 242.69
L57.2067 240.874
L57.6732 250.21
L57.9065 251.437
L58.1398 249.932
L58.3731 251.128
L58.8396 248.451
L59.0729 249.496
L59.3062 252.415
L59.5395 249.542
L59.7727 248.529
L60.006 249.162
L60.2393 251.076
L60.4726 250.344
L60.7059 248.282
L60.9391 251.558
L61.639 256.222
L62.1055 248.597
L62.3388 249.147
L62.5721 246.956
L62.8054 246.516
L63.0387 247.461
L63.5052 248.072
L63.7385 246.841
L63.9718 246.678
L64.2051 246.156
L64.4383 247.421
L64.6716 249.331
L64.9049 247.781
L65.1382 248.111
L65.3715 249.39
L65.6047 247.853
L65.838 249.121
L66.0713 247.005
L66.3046 246.757
L66.5379 250.771
L66.7711 251.474
L67.0044 250.042
L67.2377 252.876
L67.7043 246.781
L67.9375 246.54
L68.4041 250.402
L68.6374 251.676
L68.8707 252.201
L69.1039 257.515
L69.3372 257.039
L69.5705 255.997
L70.0371 262.976
L70.2703 264.523
L70.5036 263.322
L70.7369 266.613
L70.9702 261.722
L71.2035 262.887
L71.4367 267.14
L71.67 267.562
L71.9033 265.701
L72.1366 267.632
L72.3699 266.754
L72.6031 271.553
L73.0697 274.362
L73.303 270.859
L73.7695 267.757
L74.0028 262.415
L74.7027 267.258
L74.9359 267.574
L75.1692 269.748
L75.4025 273.372
L75.6358 270.98
L75.8691 274.269
L76.1023 274.765
L76.3356 271.354
L76.5689 275.292
L77.2687 279.218
L77.502 278.059
L77.7353 273.807
L78.2019 272.762
L78.4351 277.695
L78.6684 277.218
L78.9017 276.18
L79.6015 280.059
L79.8348 277.928
L80.3014 281.537
L80.3014 281.537" style="fill:none;stroke:#ff0000;stroke-linecap:square;"/>
   </g>
   <g id="line2d_4">
    <path clip-path="url(#pe54f74f0aa)" d="
M45.3094 255.267
L45.5427 257.23
L45.7759 257.23
L46.0092 259.906
L46.2425 260.052
L46.4758 261.274
L46.7091 257.501
L46.9423 261.151
L47.4089 263.087
L48.1087 257.796
L48.342 263.349
L48.8086 260.69
L49.0419 257.767
L49.2751 260.491
L49.5084 258.483
L49.7417 258.108
L49.975 257.256
L50.2083 256.954
L50.4415 261.542
L50.6748 260.128
L50.9081 253.764
L51.1414 250.931
L51.6079 255.205
L52.0745 253.256
L52.3078 253.066
L52.5411 253.213
L52.7743 254.899
L53.0076 254.988
L53.4742 260.495
L53.7075 258.45
L53.9407 259.352
L54.174 261.89
L54.4073 259.975
L54.6406 260.636
L55.1071 252.765
L55.3404 255.992
L55.5737 256.445
L55.807 258.912
L56.0403 259.564
L56.2735 259.221
L56.5068 261.621
L56.9734 263.201
L57.6732 267.173
L57.9065 267.532
L58.1398 266.151
L58.3731 268.2
L58.6063 264.085
L58.8396 265.87
L59.0729 271.777
L59.5395 271.082
L59.7727 268.44
L60.006 270.042
L60.2393 269.632
L60.4726 267.841
L61.1724 260.572
L61.4057 263.168
L61.639 263.269
L61.8723 262.47
L62.1055 263.626
L62.3388 262.773
L62.5721 263.583
L62.8054 263.671
L63.0387 263.638
L63.2719 259.091
L63.5052 259.784
L63.7385 261.649
L63.9718 261.854
L64.2051 261.09
L64.4383 259.036
L64.6716 255.299
L64.9049 255.952
L65.1382 258.034
L65.6047 255.803
L65.838 260.627
L66.0713 261.53
L66.3046 256.907
L66.5379 254.817
L66.7711 254.153
L67.0044 249.317
L67.471 255.457
L67.7043 253.514
L67.9375 257.134
L68.4041 252.779
L68.8707 259.942
L69.1039 251.28
L69.3372 249.473
L70.0371 255.186
L70.2703 253.189
L70.5036 253.356
L70.7369 253.346
L70.9702 257.599
L71.2035 255.596
L71.4367 256.658
L71.9033 251.954
L72.1366 255.083
L72.6031 254.611
L72.8364 262.525
L73.0697 265.826
L73.303 266.097
L73.5363 268.987
L74.0028 262.538
L74.2361 266.09
L74.7027 269.297
L75.1692 257.599
L75.4025 258.153
L75.6358 251.878
L75.8691 254.826
L76.1023 254.239
L76.5689 247.833
L76.8022 248.209
L77.0355 248.256
L77.2687 249.661
L77.502 244.794
L77.7353 244.173
L77.9686 243.124
L78.2019 237.175
L78.4351 239.132
L78.6684 238.314
L78.9017 233.027
L79.135 237.13
L79.8348 229.873
L80.0681 230.773
L80.3014 228.997
L80.3014 228.997" style="fill:none;stroke:#0000ff;stroke-linecap:square;"/>
   </g>
   <g id="patch_3">
    <path d="
M45.3094 212.067
L278.589 212.067" style="fill:none;stroke:#000000;stroke-linecap:square;stroke-linejoin:miter;"/>
   </g>
   <g id="patch_4">
    <path d="
M45.3094 298.467
L278.589 298.467" style="fill:none;stroke:#000000;stroke-linecap:square;stroke-linejoin:miter;"/>
   </g>
   <g id="patch_5">
    <path d="
M45.3094 298.467
L45.3094 212.067" style="fill:none;stroke:#000000;stroke-linecap:square;stroke-linejoin:miter;"/>
   </g>
   <g id="matplotlib.axis_1">
    <g id="xtick_1">
     <g id="line2d_5">
      <defs>
       <path d="
M0 0
L0 -4" id="m93b0483c22" style="stroke:#000000;stroke-width:0.5;"/>
      </defs>
      <g>
       <use style="stroke:#000000;stroke-width:0.5;" x="45.309375" xlink:href="#m93b0483c22" y="298.4666"/>
      </g>
     </g>
     <g id="line2d_6">
      <defs>
       <path d="
M0 0
L0 4" id="m741efc42ff" style="stroke:#000000;stroke-width:0.5;"/>
      </defs>
      <g>
       <use style="stroke:#000000;stroke-width:0.5;" x="45.309375" xlink:href="#m741efc42ff" y="212.0666"/>
      </g>
     </g>
    </g>
    <g id="xtick_2">
     <g id="line2d_7">
      <g>
       <use style="stroke:#000000;stroke-width:0.5;" x="91.965375" xlink:href="#m93b0483c22" y="298.4666"/>
      </g>
     </g>
     <g id="line2d_8">
      <g>
       <use style="stroke:#000000;stroke-width:0.5;" x="91.965375" xlink:href="#m741efc42ff" y="212.0666"/>
      </g>
     </g>
    </g>
    <g id="xtick_3">
     <g id="line2d_9">
      <g>
       <use style="stroke:#000000;stroke-width:0.5;" x="138.621375" xlink:href="#m93b0483c22" y="298.4666"/>
      </g>
     </g>
     <g id="line2d_10">
      <g>
       <use style="stroke:#000000;stroke-width:0.5;" x="138.621375" xlink:href="#m741efc42ff" y="212.0666"/>
      </g>
     </g>
    </g>
    <g id="xtick_4">
     <g id="line2d_11">
      <g>
       <use style="stroke:#000000;stroke-width:0.5;" x="185.277375" xlink:href="#m93b0483c22" y="298.4666"/>
      </g>
     </g>
     <g id="line2d_12">
      <g>
       <use style="stroke:#000000;stroke-width:0.5;" x="185.277375" xlink:href="#m741efc42ff" y="212.0666"/>
      </g>
     </g>
    </g>
    <g id="xtick_5">
     <g id="line2d_13">
      <g>
       <use style="stroke:#000000;stroke-width:0.5;" x="231.933375" xlink:href="#m93b0483c22" y="298.4666"/>
      </g>
     </g>
     <g id="line2d_14">
      <g>
       <use style="stroke:#000000;stroke-width:0.5;" x="231.933375" xlink:href="#m741efc42ff" y="212.0666"/>
      </g>
     </g>
    </g>
    <g id="xtick_6">
     <g id="line2d_15">
      <g>
       <use style="stroke:#000000;stroke-width:0.5;" x="278.589375" xlink:href="#m93b0483c22" y="298.4666"/>
      </g>
     </g>
     <g id="line2d_16">
      <g>
       <use style="stroke:#000000;stroke-width:0.5;" x="278.589375" xlink:href="#m741efc42ff" y="212.0666"/>
      </g>
     </g>
    </g>
   </g>
   <g id="matplotlib.axis_2">
    <g id="text_1">
     <!-- $x(t)$ -->
     <defs>
      <path d="
M31 -24.8125
Q25.4375 -20.4062 21.4062 -14.7188
Q17.3906 -9.03125 14.8125 -2.57812
Q12.25 3.85938 10.9844 10.8906
Q9.71875 17.9219 9.71875 25
Q9.71875 32.1719 10.9844 39.2031
Q12.25 46.2344 14.8594 52.7344
Q17.4844 59.2344 21.5312 64.8906
Q25.5938 70.5625 31 74.8125
Q31 75 31.5 75
L32.4219 75
Q32.7188 75 32.9531 74.7344
Q33.2031 74.4688 33.2031 74.125
Q33.2031 73.6875 33.0156 73.4844
Q28.125 68.7031 24.875 63.2344
Q21.625 57.7656 19.6406 51.5781
Q17.6719 45.4062 16.7969 38.7812
Q15.9219 32.1719 15.9219 25
Q15.9219 -6.78125 32.9062 -23.2969
Q33.2031 -23.5781 33.2031 -24.125
Q33.2031 -24.3594 32.9375 -24.6719
Q32.6719 -25 32.4219 -25
L31.5 -25
Q31 -25 31 -24.8125" id="Cmr10-28"/>
      <path d="
M6.5 -25
Q5.60938 -25 5.60938 -24.125
Q5.60938 -23.6875 5.8125 -23.4844
Q22.9062 -6.78125 22.9062 25
Q22.9062 56.7812 6 73.2969
Q5.60938 73.5312 5.60938 74.125
Q5.60938 74.4688 5.875 74.7344
Q6.15625 75 6.5 75
L7.42188 75
Q7.71875 75 7.90625 74.8125
Q15.0938 69.1406 19.875 61.0312
Q24.6562 52.9375 26.875 43.75
Q29.1094 34.5781 29.1094 25
Q29.1094 17.9219 27.9062 11.0625
Q26.7031 4.20312 24.0938 -2.45312
Q21.4844 -9.125 17.4844 -14.7656
Q13.4844 -20.4062 7.90625 -24.8125
Q7.71875 -25 7.42188 -25
z
" id="Cmr10-29"/>
      <path d="
M7.8125 2.875
Q9.57812 1.51562 12.7969 1.51562
Q15.9219 1.51562 18.3125 4.51562
Q20.7031 7.51562 21.5781 11.0781
L26.125 28.8125
Q27.2031 33.6406 27.2031 35.4062
Q27.2031 37.8906 25.8125 39.75
Q24.4219 41.6094 21.9219 41.6094
Q18.75 41.6094 15.9688 39.625
Q13.1875 37.6406 11.2812 34.5938
Q9.375 31.5469 8.59375 28.4219
Q8.40625 27.7812 7.8125 27.7812
L6.59375 27.7812
Q5.8125 27.7812 5.8125 28.7188
L5.8125 29
Q6.78125 32.7188 9.125 36.25
Q11.4688 39.7969 14.8594 41.9844
Q18.2656 44.1875 22.125 44.1875
Q25.7812 44.1875 28.7344 42.2344
Q31.6875 40.2812 32.9062 36.9219
Q34.625 39.9844 37.2812 42.0781
Q39.9375 44.1875 43.1094 44.1875
Q45.2656 44.1875 47.5 43.4219
Q49.75 42.6719 51.1719 41.1094
Q52.5938 39.5469 52.5938 37.2031
Q52.5938 34.6719 50.9531 32.8281
Q49.3125 31 46.7812 31
Q45.1719 31 44.0938 32.0312
Q43.0156 33.0625 43.0156 34.625
Q43.0156 36.7188 44.4531 38.2969
Q45.9062 39.8906 47.9062 40.1875
Q46.0938 41.6094 42.9219 41.6094
Q39.7031 41.6094 37.3281 38.625
Q34.9688 35.6406 33.9844 31.9844
L29.5938 14.3125
Q28.5156 10.2969 28.5156 7.71875
Q28.5156 5.17188 29.9531 3.34375
Q31.3906 1.51562 33.7969 1.51562
Q38.4844 1.51562 42.1562 5.64062
Q45.8438 9.76562 47.0156 14.7031
Q47.2188 15.2812 47.7969 15.2812
L49.0312 15.2812
Q49.4219 15.2812 49.6562 15.0156
Q49.9062 14.75 49.9062 14.4062
Q49.9062 14.3125 49.8125 14.1094
Q48.3906 8.15625 43.8438 3.51562
Q39.3125 -1.125 33.5938 -1.125
Q29.9375 -1.125 26.9844 0.84375
Q24.0312 2.82812 22.7969 6.20312
Q21.2344 3.26562 18.4688 1.0625
Q15.7188 -1.125 12.5938 -1.125
Q10.4531 -1.125 8.17188 -0.359375
Q5.90625 0.390625 4.48438 1.95312
Q3.07812 3.51562 3.07812 5.90625
Q3.07812 8.25 4.70312 10.1719
Q6.34375 12.1094 8.79688 12.1094
Q10.4531 12.1094 11.5781 11.1094
Q12.7031 10.1094 12.7031 8.5
Q12.7031 6.39062 11.2969 4.82812
Q9.90625 3.26562 7.8125 2.875" id="Cmmi10-78"/>
      <path d="
M6.20312 8.10938
Q6.20312 9.57812 6.5 10.8906
L13.7188 39.5938
L3.21875 39.5938
Q2.20312 39.5938 2.20312 40.9219
Q2.59375 43.1094 3.51562 43.1094
L14.5938 43.1094
L18.6094 59.4219
Q19 60.75 20.1719 61.6719
Q21.3438 62.5938 22.7969 62.5938
Q24.0781 62.5938 24.9219 61.8281
Q25.7812 61.0781 25.7812 59.8125
Q25.7812 59.5156 25.75 59.3438
Q25.7344 59.1875 25.6875 58.9844
L21.6875 43.1094
L31.9844 43.1094
Q33.0156 43.1094 33.0156 41.7969
Q32.9531 41.5469 32.8125 40.9531
Q32.6719 40.375 32.4219 39.9844
Q32.1719 39.5938 31.6875 39.5938
L20.7969 39.5938
L13.625 10.6875
Q12.8906 7.85938 12.8906 5.8125
Q12.8906 1.51562 15.8281 1.51562
Q20.2188 1.51562 23.6094 5.64062
Q27 9.76562 28.8125 14.7031
Q29.2031 15.2812 29.5938 15.2812
L30.8125 15.2812
Q31.2031 15.2812 31.4375 15.0156
Q31.6875 14.75 31.6875 14.4062
Q31.6875 14.2031 31.5938 14.1094
Q29.3906 8.0625 25.1875 3.46875
Q21 -1.125 15.5781 -1.125
Q11.625 -1.125 8.90625 1.45312
Q6.20312 4.04688 6.20312 8.10938" id="Cmmi10-74"/>
     </defs>
     <g transform="translate(36.559375 268.0916)rotate(-90.0)scale(0.15 -0.15)">
      <use xlink:href="#Cmmi10-78"/>
      <use transform="translate(57.080078125 0.0)" xlink:href="#Cmr10-28"/>
      <use transform="translate(95.8984375 0.0)" xlink:href="#Cmmi10-74"/>
      <use transform="translate(131.982421875 0.0)" xlink:href="#Cmr10-29"/>
     </g>
    </g>
   </g>
  </g>
  <g id="axes_2">
   <g id="patch_6">
    <path d="
M330.429 311.427
L442.749 311.427
L442.749 203.427
L330.429 203.427
z
" style="fill:#ffffff;"/>
   </g>
   <g id="line2d_17">
    <path clip-path="url(#p6241a6e02f)" d="
M330.429 311.427
L332.722 311.427
L335.014 311.427
L337.306 311.427
L339.598 311.427
L341.891 311.427
L344.183 311.427
L346.475 311.427
L348.767 203.949
L351.06 205.228
L353.352 207.579
L355.644 210.93
L357.936 215.18
L360.229 220.205
L362.521 225.864
L364.813 232.002
L367.105 238.464
L369.398 245.095
L371.69 251.747
L373.982 258.289
L376.274 264.603
L378.567 270.595
L380.859 276.189
L383.151 281.331
L385.443 285.989
L387.735 290.149
L390.028 293.813
L392.32 296.997
L394.612 299.728
L396.904 302.04
L399.197 303.974
L401.489 305.57
L403.781 306.872
L406.073 307.921
L408.366 308.757
L410.658 309.414
L412.95 309.926
L415.242 310.319
L417.535 310.617
L419.827 310.841
L422.119 311.008
L424.411 311.13
L426.704 311.219
L428.996 311.282
L431.288 311.328
L433.58 311.359
L435.873 311.381
L438.165 311.397
L440.457 311.407
L442.749 311.414" style="fill:none;stroke:#0000ff;stroke-linecap:square;"/>
   </g>
   <g id="patch_7">
    <path d="
M330.429 203.427
L442.749 203.427" style="fill:none;stroke:#000000;stroke-linecap:square;stroke-linejoin:miter;"/>
   </g>
   <g id="patch_8">
    <path d="
M442.749 311.427
L442.749 203.427" style="fill:none;stroke:#000000;stroke-linecap:square;stroke-linejoin:miter;"/>
   </g>
   <g id="patch_9">
    <path d="
M330.429 311.427
L442.749 311.427" style="fill:none;stroke:#000000;stroke-linecap:square;stroke-linejoin:miter;"/>
   </g>
   <g id="patch_10">
    <path d="
M330.429 311.427
L330.429 203.427" style="fill:none;stroke:#000000;stroke-linecap:square;stroke-linejoin:miter;"/>
   </g>
   <g id="matplotlib.axis_3">
    <g id="text_2">
     <!-- T -->
     <defs>
      <path d="
M-0.296875 72.9062
L61.375 72.9062
L61.375 64.5938
L35.5 64.5938
L35.5 0
L25.5938 0
L25.5938 64.5938
L-0.296875 64.5938
z
" id="BitstreamVeraSans-Roman-54"/>
     </defs>
     <g transform="translate(382.8890625 325.544725)scale(0.12 -0.12)">
      <use xlink:href="#BitstreamVeraSans-Roman-54"/>
     </g>
    </g>
   </g>
   <g id="matplotlib.axis_4"/>
   <g id="patch_11">
    <path d="
M444.761 256.454
Q491.502 257.089 538.242 257.724
L538.262 256.224
Q540.744 257.508 543.226 258.792
Q540.71 260.008 538.194 261.224
L538.215 259.724
Q491.474 259.089 444.734 258.454
L444.761 256.454
z
" style="fill:#808080;stroke:#808080;stroke-linecap:round;"/>
   </g>
   <g id="text_3">
    <!-- Convolve with -->
    <defs>
     <path id="BitstreamVeraSans-Roman-20"/>
     <path d="
M54.8906 33.0156
L54.8906 0
L45.9062 0
L45.9062 32.7188
Q45.9062 40.4844 42.875 44.3281
Q39.8438 48.1875 33.7969 48.1875
Q26.5156 48.1875 22.3125 43.5469
Q18.1094 38.9219 18.1094 30.9062
L18.1094 0
L9.07812 0
L9.07812 54.6875
L18.1094 54.6875
L18.1094 46.1875
Q21.3438 51.125 25.7031 53.5625
Q30.0781 56 35.7969 56
Q45.2188 56 50.0469 50.1719
Q54.8906 44.3438 54.8906 33.0156" id="BitstreamVeraSans-Roman-6e"/>
     <path d="
M9.42188 54.6875
L18.4062 54.6875
L18.4062 0
L9.42188 0
z

M9.42188 75.9844
L18.4062 75.9844
L18.4062 64.5938
L9.42188 64.5938
z
" id="BitstreamVeraSans-Roman-69"/>
     <path d="
M30.6094 48.3906
Q23.3906 48.3906 19.1875 42.75
Q14.9844 37.1094 14.9844 27.2969
Q14.9844 17.4844 19.1562 11.8438
Q23.3438 6.20312 30.6094 6.20312
Q37.7969 6.20312 41.9844 11.8594
Q46.1875 17.5312 46.1875 27.2969
Q46.1875 37.0156 41.9844 42.7031
Q37.7969 48.3906 30.6094 48.3906
M30.6094 56
Q42.3281 56 49.0156 48.375
Q55.7188 40.7656 55.7188 27.2969
Q55.7188 13.875 49.0156 6.21875
Q42.3281 -1.42188 30.6094 -1.42188
Q18.8438 -1.42188 12.1719 6.21875
Q5.51562 13.875 5.51562 27.2969
Q5.51562 40.7656 12.1719 48.375
Q18.8438 56 30.6094 56" id="BitstreamVeraSans-Roman-6f"/>
     <path d="
M9.42188 75.9844
L18.4062 75.9844
L18.4062 0
L9.42188 0
z
" id="BitstreamVeraSans-Roman-6c"/>
     <path d="
M56.2031 29.5938
L56.2031 25.2031
L14.8906 25.2031
Q15.4844 15.9219 20.4844 11.0625
Q25.4844 6.20312 34.4219 6.20312
Q39.5938 6.20312 44.4531 7.46875
Q49.3125 8.73438 54.1094 11.2812
L54.1094 2.78125
Q49.2656 0.734375 44.1875 -0.34375
Q39.1094 -1.42188 33.8906 -1.42188
Q20.7969 -1.42188 13.1562 6.1875
Q5.51562 13.8125 5.51562 26.8125
Q5.51562 40.2344 12.7656 48.1094
Q20.0156 56 32.3281 56
Q43.3594 56 49.7812 48.8906
Q56.2031 41.7969 56.2031 29.5938
M47.2188 32.2344
Q47.125 39.5938 43.0938 43.9844
Q39.0625 48.3906 32.4219 48.3906
Q24.9062 48.3906 20.3906 44.1406
Q15.875 39.8906 15.1875 32.1719
z
" id="BitstreamVeraSans-Roman-65"/>
     <path d="
M64.4062 67.2812
L64.4062 56.8906
Q59.4219 61.5312 53.7812 63.8125
Q48.1406 66.1094 41.7969 66.1094
Q29.2969 66.1094 22.6562 58.4688
Q16.0156 50.8281 16.0156 36.375
Q16.0156 21.9688 22.6562 14.3281
Q29.2969 6.6875 41.7969 6.6875
Q48.1406 6.6875 53.7812 8.98438
Q59.4219 11.2812 64.4062 15.9219
L64.4062 5.60938
Q59.2344 2.09375 53.4375 0.328125
Q47.6562 -1.42188 41.2188 -1.42188
Q24.6562 -1.42188 15.125 8.70312
Q5.60938 18.8438 5.60938 36.375
Q5.60938 53.9531 15.125 64.0781
Q24.6562 74.2188 41.2188 74.2188
Q47.75 74.2188 53.5312 72.4844
Q59.3281 70.75 64.4062 67.2812" id="BitstreamVeraSans-Roman-43"/>
     <path d="
M54.8906 33.0156
L54.8906 0
L45.9062 0
L45.9062 32.7188
Q45.9062 40.4844 42.875 44.3281
Q39.8438 48.1875 33.7969 48.1875
Q26.5156 48.1875 22.3125 43.5469
Q18.1094 38.9219 18.1094 30.9062
L18.1094 0
L9.07812 0
L9.07812 75.9844
L18.1094 75.9844
L18.1094 46.1875
Q21.3438 51.125 25.7031 53.5625
Q30.0781 56 35.7969 56
Q45.2188 56 50.0469 50.1719
Q54.8906 44.3438 54.8906 33.0156" id="BitstreamVeraSans-Roman-68"/>
     <path d="
M2.98438 54.6875
L12.5 54.6875
L29.5938 8.79688
L46.6875 54.6875
L56.2031 54.6875
L35.6875 0
L23.4844 0
z
" id="BitstreamVeraSans-Roman-76"/>
     <path d="
M4.20312 54.6875
L13.1875 54.6875
L24.4219 12.0156
L35.5938 54.6875
L46.1875 54.6875
L57.4219 12.0156
L68.6094 54.6875
L77.5938 54.6875
L63.2812 0
L52.6875 0
L40.9219 44.8281
L29.1094 0
L18.5 0
z
" id="BitstreamVeraSans-Roman-77"/>
     <path d="
M18.3125 70.2188
L18.3125 54.6875
L36.8125 54.6875
L36.8125 47.7031
L18.3125 47.7031
L18.3125 18.0156
Q18.3125 11.3281 20.1406 9.42188
Q21.9688 7.51562 27.5938 7.51562
L36.8125 7.51562
L36.8125 0
L27.5938 0
Q17.1875 0 13.2344 3.875
Q9.28125 7.76562 9.28125 18.0156
L9.28125 47.7031
L2.6875 47.7031
L2.6875 54.6875
L9.28125 54.6875
L9.28125 70.2188
z
" id="BitstreamVeraSans-Roman-74"/>
    </defs>
    <g transform="translate(336.28275 182.30175)scale(0.144 -0.144)">
     <use xlink:href="#BitstreamVeraSans-Roman-43"/>
     <use x="69.82421875" xlink:href="#BitstreamVeraSans-Roman-6f"/>
     <use x="131.005859375" xlink:href="#BitstreamVeraSans-Roman-6e"/>
     <use x="194.384765625" xlink:href="#BitstreamVeraSans-Roman-76"/>
     <use x="253.564453125" xlink:href="#BitstreamVeraSans-Roman-6f"/>
     <use x="314.74609375" xlink:href="#BitstreamVeraSans-Roman-6c"/>
     <use x="342.529296875" xlink:href="#BitstreamVeraSans-Roman-76"/>
     <use x="401.708984375" xlink:href="#BitstreamVeraSans-Roman-65"/>
     <use x="463.232421875" xlink:href="#BitstreamVeraSans-Roman-20"/>
     <use x="495.01953125" xlink:href="#BitstreamVeraSans-Roman-77"/>
     <use x="576.806640625" xlink:href="#BitstreamVeraSans-Roman-69"/>
     <use x="604.58984375" xlink:href="#BitstreamVeraSans-Roman-74"/>
     <use x="643.798828125" xlink:href="#BitstreamVeraSans-Roman-68"/>
    </g>
    <!-- no decision time -->
    <defs>
     <path d="
M45.4062 46.3906
L45.4062 75.9844
L54.3906 75.9844
L54.3906 0
L45.4062 0
L45.4062 8.20312
Q42.5781 3.32812 38.25 0.953125
Q33.9375 -1.42188 27.875 -1.42188
Q17.9688 -1.42188 11.7344 6.48438
Q5.51562 14.4062 5.51562 27.2969
Q5.51562 40.1875 11.7344 48.0938
Q17.9688 56 27.875 56
Q33.9375 56 38.25 53.625
Q42.5781 51.2656 45.4062 46.3906
M14.7969 27.2969
Q14.7969 17.3906 18.875 11.75
Q22.9531 6.10938 30.0781 6.10938
Q37.2031 6.10938 41.2969 11.75
Q45.4062 17.3906 45.4062 27.2969
Q45.4062 37.2031 41.2969 42.8438
Q37.2031 48.4844 30.0781 48.4844
Q22.9531 48.4844 18.875 42.8438
Q14.7969 37.2031 14.7969 27.2969" id="BitstreamVeraSans-Roman-64"/>
     <path d="
M44.2812 53.0781
L44.2812 44.5781
Q40.4844 46.5312 36.375 47.5
Q32.2812 48.4844 27.875 48.4844
Q21.1875 48.4844 17.8438 46.4375
Q14.5 44.3906 14.5 40.2812
Q14.5 37.1562 16.8906 35.375
Q19.2812 33.5938 26.5156 31.9844
L29.5938 31.2969
Q39.1562 29.25 43.1875 25.5156
Q47.2188 21.7812 47.2188 15.0938
Q47.2188 7.46875 41.1875 3.01562
Q35.1562 -1.42188 24.6094 -1.42188
Q20.2188 -1.42188 15.4531 -0.5625
Q10.6875 0.296875 5.42188 2
L5.42188 11.2812
Q10.4062 8.6875 15.2344 7.39062
Q20.0625 6.10938 24.8125 6.10938
Q31.1562 6.10938 34.5625 8.28125
Q37.9844 10.4531 37.9844 14.4062
Q37.9844 18.0625 35.5156 20.0156
Q33.0625 21.9688 24.7031 23.7812
L21.5781 24.5156
Q13.2344 26.2656 9.51562 29.9062
Q5.8125 33.5469 5.8125 39.8906
Q5.8125 47.6094 11.2812 51.7969
Q16.75 56 26.8125 56
Q31.7812 56 36.1719 55.2656
Q40.5781 54.5469 44.2812 53.0781" id="BitstreamVeraSans-Roman-73"/>
     <path d="
M48.7812 52.5938
L48.7812 44.1875
Q44.9688 46.2969 41.1406 47.3438
Q37.3125 48.3906 33.4062 48.3906
Q24.6562 48.3906 19.8125 42.8438
Q14.9844 37.3125 14.9844 27.2969
Q14.9844 17.2812 19.8125 11.7344
Q24.6562 6.20312 33.4062 6.20312
Q37.3125 6.20312 41.1406 7.25
Q44.9688 8.29688 48.7812 10.4062
L48.7812 2.09375
Q45.0156 0.34375 40.9844 -0.53125
Q36.9688 -1.42188 32.4219 -1.42188
Q20.0625 -1.42188 12.7812 6.34375
Q5.51562 14.1094 5.51562 27.2969
Q5.51562 40.6719 12.8594 48.3281
Q20.2188 56 33.0156 56
Q37.1562 56 41.1094 55.1406
Q45.0625 54.2969 48.7812 52.5938" id="BitstreamVeraSans-Roman-63"/>
     <path d="
M52 44.1875
Q55.375 50.25 60.0625 53.125
Q64.75 56 71.0938 56
Q79.6406 56 84.2812 50.0156
Q88.9219 44.0469 88.9219 33.0156
L88.9219 0
L79.8906 0
L79.8906 32.7188
Q79.8906 40.5781 77.0938 44.375
Q74.3125 48.1875 68.6094 48.1875
Q61.625 48.1875 57.5625 43.5469
Q53.5156 38.9219 53.5156 30.9062
L53.5156 0
L44.4844 0
L44.4844 32.7188
Q44.4844 40.625 41.7031 44.4062
Q38.9219 48.1875 33.1094 48.1875
Q26.2188 48.1875 22.1562 43.5312
Q18.1094 38.875 18.1094 30.9062
L18.1094 0
L9.07812 0
L9.07812 54.6875
L18.1094 54.6875
L18.1094 46.1875
Q21.1875 51.2188 25.4844 53.6094
Q29.7812 56 35.6875 56
Q41.6562 56 45.8281 52.9688
Q50 49.9531 52 44.1875" id="BitstreamVeraSans-Roman-6d"/>
    </defs>
    <g transform="translate(327.481875 198.4266)scale(0.144 -0.144)">
     <use xlink:href="#BitstreamVeraSans-Roman-6e"/>
     <use x="63.37890625" xlink:href="#BitstreamVeraSans-Roman-6f"/>
     <use x="124.560546875" xlink:href="#BitstreamVeraSans-Roman-20"/>
     <use x="156.34765625" xlink:href="#BitstreamVeraSans-Roman-64"/>
     <use x="219.82421875" xlink:href="#BitstreamVeraSans-Roman-65"/>
     <use x="281.34765625" xlink:href="#BitstreamVeraSans-Roman-63"/>
     <use x="336.328125" xlink:href="#BitstreamVeraSans-Roman-69"/>
     <use x="364.111328125" xlink:href="#BitstreamVeraSans-Roman-73"/>
     <use x="416.2109375" xlink:href="#BitstreamVeraSans-Roman-69"/>
     <use x="443.994140625" xlink:href="#BitstreamVeraSans-Roman-6f"/>
     <use x="505.17578125" xlink:href="#BitstreamVeraSans-Roman-6e"/>
     <use x="568.5546875" xlink:href="#BitstreamVeraSans-Roman-20"/>
     <use x="600.341796875" xlink:href="#BitstreamVeraSans-Roman-74"/>
     <use x="639.55078125" xlink:href="#BitstreamVeraSans-Roman-69"/>
     <use x="667.333984375" xlink:href="#BitstreamVeraSans-Roman-6d"/>
     <use x="764.74609375" xlink:href="#BitstreamVeraSans-Roman-65"/>
    </g>
   </g>
  </g>
  <g id="axes_3">
   <g id="patch_12">
    <path d="
M563.709 384.867
L822.909 384.867
L822.909 39.2666
L563.709 39.2666
z
" style="fill:#ffffff;"/>
   </g>
   <g id="line2d_18">
    <path clip-path="url(#p9803da60d2)" d="
M563.709 269.408
L563.709 269.494
L574.077 269.494
L574.077 269.667
L579.261 269.667
L579.261 269.408
L584.445 269.408
L584.445 269.58
L594.813 269.58
L594.813 269.408
L599.997 269.408
L599.997 267.597
L605.181 267.597
L605.181 260.785
L610.365 260.785
L610.365 249.317
L615.549 249.317
L615.549 240.263
L620.733 240.263
L620.733 237.677
L625.917 237.677
L625.917 232.848
L631.101 232.848
L631.101 230.434
L636.285 230.434
L636.285 230.261
L641.469 230.261
L641.469 231.296
L646.653 231.296
L646.653 228.709
L651.837 228.709
L651.837 231.986
L657.021 231.986
L657.021 234.141
L662.205 234.141
L662.205 239.056
L667.389 239.056
L667.389 238.453
L672.573 238.453
L672.573 239.832
L677.757 239.832
L677.757 243.971
L682.941 243.971
L682.941 248.11
L688.125 248.11
L688.125 250.611
L693.309 250.611
L693.309 252.852
L698.493 252.852
L698.493 256.388
L703.677 256.388
L703.677 256.129
L708.861 256.129
L708.861 258.285
L714.045 258.285
L714.045 260.182
L719.229 260.182
L719.229 259.923
L724.413 259.923
L724.413 262.682
L729.597 262.682
L729.597 264.579
L734.781 264.579
L734.781 264.924
L745.149 265.01
L745.149 265.786
L750.333 265.786
L750.333 267.338
L755.517 267.338
L755.517 268.287
L771.069 268.287
L771.069 268.028
L776.253 268.028
L776.253 268.546
L781.437 268.546
L781.437 269.063
L791.805 269.063
L791.805 269.235
L796.989 269.235
L796.989 269.063
L807.357 269.149
L807.357 269.58
L812.541 269.58
L812.541 269.408
L822.909 269.322
L822.909 269.667
L828.093 269.667
L828.093 269.322
L833.277 269.322
L833.277 269.494
L838.461 269.494
L838.461 269.322
L839.813 269.322
L839.813 269.322" style="fill:none;stroke:#0000ff;stroke-linecap:square;"/>
   </g>
   <g id="line2d_19">
    <path clip-path="url(#p9803da60d2)" d="
M563.709 269.494
L568.893 269.494
L574.077 269.494
L579.261 269.494
L584.445 269.494
L589.629 269.494
L594.813 269.494
L599.997 269.494
L605.181 269.494
L610.365 253.956
L615.549 242.638
L620.733 235.743
L625.917 231.89
L631.101 230.119
L636.285 229.794
L641.469 230.481
L646.653 231.88
L651.837 233.774
L657.021 236.008
L662.205 238.461
L667.389 241.04
L672.573 243.666
L677.757 246.279
L682.941 248.828
L688.125 251.269
L693.309 253.573
L698.493 255.715
L703.677 257.68
L708.861 259.457
L714.045 261.046
L719.229 262.449
L724.413 263.673
L729.597 264.728
L734.781 265.627
L739.965 266.385
L745.149 267.018
L750.333 267.539
L755.517 267.965
L760.701 268.308
L765.885 268.583
L771.069 268.8
L776.253 268.971
L781.437 269.103
L786.621 269.204
L791.805 269.281
L796.989 269.339
L802.173 269.382
L807.357 269.414
L812.541 269.437
L817.725 269.454
L822.909 269.466
L828.093 269.474" style="fill:none;stroke:#0000ff;stroke-linecap:square;stroke-width:3;"/>
   </g>
   <g id="line2d_20">
    <path clip-path="url(#p9803da60d2)" d="
M563.709 269.667
L563.709 270.012
L568.893 270.012
L568.893 269.839
L584.445 269.839
L584.445 270.098
L589.629 270.098
L589.629 269.925
L599.997 269.925
L599.997 270.184
L605.181 270.184
L605.181 271.908
L610.365 271.908
L610.365 273.547
L615.549 273.547
L615.549 275.616
L620.733 275.616
L620.733 278.375
L625.917 278.375
L625.917 279.841
L631.101 279.841
L631.101 279.065
L641.469 279.065
L641.469 280.359
L651.837 280.359
L651.837 278.634
L657.021 278.634
L657.021 279.755
L662.205 279.755
L662.205 277.686
L667.389 277.686
L667.389 277.427
L672.573 277.427
L672.573 277.772
L677.757 277.772
L677.757 275.099
L682.941 275.099
L682.941 276.565
L688.125 276.565
L688.125 275.702
L693.309 275.702
L693.309 274.84
L698.493 274.84
L698.493 274.409
L703.677 274.409
L703.677 273.116
L708.861 273.116
L708.861 272.598
L714.045 272.598
L714.045 271.822
L724.413 271.736
L724.413 272.685
L729.597 272.685
L729.597 271.219
L734.781 271.219
L734.781 270.701
L739.965 270.701
L739.965 270.874
L755.517 270.788
L755.517 270.27
L771.069 270.184
L771.069 269.839
L776.253 269.839
L776.253 270.443
L781.437 270.443
L781.437 269.667
L786.621 269.667
L786.621 270.098
L791.805 270.098
L791.805 269.839
L802.173 269.839
L802.173 270.098
L807.357 270.098
L807.357 269.925
L833.277 269.925
L833.277 269.753
L839.813 269.839
L839.813 269.839" style="fill:none;stroke:#ff0000;stroke-linecap:square;"/>
   </g>
   <g id="line2d_21">
    <path clip-path="url(#p9803da60d2)" d="
M563.709 269.839
L568.893 269.839
L574.077 269.839
L579.261 269.839
L584.445 269.839
L589.629 269.839
L594.813 269.839
L599.997 269.839
L605.181 269.839
L610.365 274.668
L615.549 278.45
L620.733 280.899
L625.917 282.363
L631.101 283.118
L636.285 283.357
L641.469 283.224
L646.653 282.82
L651.837 282.225
L657.021 281.497
L662.205 280.68
L667.389 279.809
L672.573 278.915
L677.757 278.019
L682.941 277.141
L688.125 276.295
L693.309 275.494
L698.493 274.747
L703.677 274.059
L708.861 273.435
L714.045 272.875
L719.229 272.378
L724.413 271.944
L729.597 271.568
L734.781 271.247
L739.965 270.974
L745.149 270.747
L750.333 270.558
L755.517 270.404
L760.701 270.279
L765.885 270.178
L771.069 270.098
L776.253 270.036
L781.437 269.987
L786.621 269.949
L791.805 269.92
L796.989 269.899
L802.173 269.882
L807.357 269.87
L812.541 269.861
L817.725 269.855
L822.909 269.85
L828.093 269.847" style="fill:none;stroke:#ff0000;stroke-linecap:square;stroke-width:3;"/>
   </g>
   <g id="line2d_22">
    <path clip-path="url(#p9803da60d2)" d="
M563.709 269.667
L839.813 269.667" style="fill:none;stroke:#000000;stroke-linecap:square;"/>
   </g>
   <g id="patch_13">
    <path d="
M563.709 384.867
L822.909 384.867" style="fill:none;stroke:#000000;stroke-linecap:square;stroke-linejoin:miter;"/>
   </g>
   <g id="patch_14">
    <path d="
M563.709 384.867
L563.709 39.2666" style="fill:none;stroke:#000000;stroke-linecap:square;stroke-linejoin:miter;"/>
   </g>
   <g id="matplotlib.axis_5">
    <g id="xtick_7">
     <g id="line2d_23">
      <g>
       <use style="stroke:#000000;stroke-width:0.5;" x="563.709375" xlink:href="#m93b0483c22" y="384.8666"/>
      </g>
     </g>
     <g id="text_4">
      <!-- 0.0 -->
      <defs>
       <path d="
M31.7812 66.4062
Q24.1719 66.4062 20.3281 58.9062
Q16.5 51.4219 16.5 36.375
Q16.5 21.3906 20.3281 13.8906
Q24.1719 6.39062 31.7812 6.39062
Q39.4531 6.39062 43.2812 13.8906
Q47.125 21.3906 47.125 36.375
Q47.125 51.4219 43.2812 58.9062
Q39.4531 66.4062 31.7812 66.4062
M31.7812 74.2188
Q44.0469 74.2188 50.5156 64.5156
Q56.9844 54.8281 56.9844 36.375
Q56.9844 17.9688 50.5156 8.26562
Q44.0469 -1.42188 31.7812 -1.42188
Q19.5312 -1.42188 13.0625 8.26562
Q6.59375 17.9688 6.59375 36.375
Q6.59375 54.8281 13.0625 64.5156
Q19.5312 74.2188 31.7812 74.2188" id="BitstreamVeraSans-Roman-30"/>
       <path d="
M10.6875 12.4062
L21 12.4062
L21 0
L10.6875 0
z
" id="BitstreamVeraSans-Roman-2e"/>
      </defs>
      <g transform="translate(554.9615625 397.984725)scale(0.12 -0.12)">
       <use xlink:href="#BitstreamVeraSans-Roman-30"/>
       <use x="63.623046875" xlink:href="#BitstreamVeraSans-Roman-2e"/>
       <use x="95.41015625" xlink:href="#BitstreamVeraSans-Roman-30"/>
      </g>
     </g>
    </g>
    <g id="xtick_8">
     <g id="line2d_24">
      <g>
       <use style="stroke:#000000;stroke-width:0.5;" x="628.509375" xlink:href="#m93b0483c22" y="384.8666"/>
      </g>
     </g>
     <g id="text_5">
      <!-- 0.5 -->
      <defs>
       <path d="
M10.7969 72.9062
L49.5156 72.9062
L49.5156 64.5938
L19.8281 64.5938
L19.8281 46.7344
Q21.9688 47.4688 24.1094 47.8281
Q26.2656 48.1875 28.4219 48.1875
Q40.625 48.1875 47.75 41.5
Q54.8906 34.8125 54.8906 23.3906
Q54.8906 11.625 47.5625 5.09375
Q40.2344 -1.42188 26.9062 -1.42188
Q22.3125 -1.42188 17.5469 -0.640625
Q12.7969 0.140625 7.71875 1.70312
L7.71875 11.625
Q12.1094 9.23438 16.7969 8.0625
Q21.4844 6.89062 26.7031 6.89062
Q35.1562 6.89062 40.0781 11.3281
Q45.0156 15.7656 45.0156 23.3906
Q45.0156 31 40.0781 35.4375
Q35.1562 39.8906 26.7031 39.8906
Q22.75 39.8906 18.8125 39.0156
Q14.8906 38.1406 10.7969 36.2812
z
" id="BitstreamVeraSans-Roman-35"/>
      </defs>
      <g transform="translate(619.8871875 397.984725)scale(0.12 -0.12)">
       <use xlink:href="#BitstreamVeraSans-Roman-30"/>
       <use x="63.623046875" xlink:href="#BitstreamVeraSans-Roman-2e"/>
       <use x="95.41015625" xlink:href="#BitstreamVeraSans-Roman-35"/>
      </g>
     </g>
    </g>
    <g id="xtick_9">
     <g id="line2d_25">
      <g>
       <use style="stroke:#000000;stroke-width:0.5;" x="693.309375" xlink:href="#m93b0483c22" y="384.8666"/>
      </g>
     </g>
     <g id="text_6">
      <!-- 1.0 -->
      <defs>
       <path d="
M12.4062 8.29688
L28.5156 8.29688
L28.5156 63.9219
L10.9844 60.4062
L10.9844 69.3906
L28.4219 72.9062
L38.2812 72.9062
L38.2812 8.29688
L54.3906 8.29688
L54.3906 0
L12.4062 0
z
" id="BitstreamVeraSans-Roman-31"/>
      </defs>
      <g transform="translate(684.825 397.984725)scale(0.12 -0.12)">
       <use xlink:href="#BitstreamVeraSans-Roman-31"/>
       <use x="63.623046875" xlink:href="#BitstreamVeraSans-Roman-2e"/>
       <use x="95.41015625" xlink:href="#BitstreamVeraSans-Roman-30"/>
      </g>
     </g>
    </g>
    <g id="xtick_10">
     <g id="line2d_26">
      <g>
       <use style="stroke:#000000;stroke-width:0.5;" x="758.109375" xlink:href="#m93b0483c22" y="384.8666"/>
      </g>
     </g>
     <g id="text_7">
      <!-- 1.5 -->
      <g transform="translate(749.750625 397.984725)scale(0.12 -0.12)">
       <use xlink:href="#BitstreamVeraSans-Roman-31"/>
       <use x="63.623046875" xlink:href="#BitstreamVeraSans-Roman-2e"/>
       <use x="95.41015625" xlink:href="#BitstreamVeraSans-Roman-35"/>
      </g>
     </g>
    </g>
    <g id="xtick_11">
     <g id="line2d_27">
      <g>
       <use style="stroke:#000000;stroke-width:0.5;" x="822.909375" xlink:href="#m93b0483c22" y="384.8666"/>
      </g>
     </g>
     <g id="text_8">
      <!-- 2.0 -->
      <defs>
       <path d="
M19.1875 8.29688
L53.6094 8.29688
L53.6094 0
L7.32812 0
L7.32812 8.29688
Q12.9375 14.1094 22.625 23.8906
Q32.3281 33.6875 34.8125 36.5312
Q39.5469 41.8438 41.4219 45.5312
Q43.3125 49.2188 43.3125 52.7812
Q43.3125 58.5938 39.2344 62.25
Q35.1562 65.9219 28.6094 65.9219
Q23.9688 65.9219 18.8125 64.3125
Q13.6719 62.7031 7.8125 59.4219
L7.8125 69.3906
Q13.7656 71.7812 18.9375 73
Q24.125 74.2188 28.4219 74.2188
Q39.75 74.2188 46.4844 68.5469
Q53.2188 62.8906 53.2188 53.4219
Q53.2188 48.9219 51.5312 44.8906
Q49.8594 40.875 45.4062 35.4062
Q44.1875 33.9844 37.6406 27.2188
Q31.1094 20.4531 19.1875 8.29688" id="BitstreamVeraSans-Roman-32"/>
      </defs>
      <g transform="translate(814.205625 397.984725)scale(0.12 -0.12)">
       <use xlink:href="#BitstreamVeraSans-Roman-32"/>
       <use x="63.623046875" xlink:href="#BitstreamVeraSans-Roman-2e"/>
       <use x="95.41015625" xlink:href="#BitstreamVeraSans-Roman-30"/>
      </g>
     </g>
    </g>
    <g id="text_9">
     <!-- T [s] -->
     <defs>
      <path d="
M8.59375 75.9844
L29.2969 75.9844
L29.2969 69
L17.5781 69
L17.5781 -6.20312
L29.2969 -6.20312
L29.2969 -13.1875
L8.59375 -13.1875
z
" id="BitstreamVeraSans-Roman-5b"/>
      <path d="
M30.4219 75.9844
L30.4219 -13.1875
L9.71875 -13.1875
L9.71875 -6.20312
L21.3906 -6.20312
L21.3906 69
L9.71875 69
L9.71875 75.9844
z
" id="BitstreamVeraSans-Roman-5d"/>
     </defs>
     <g transform="translate(680.428125 414.598475)scale(0.12 -0.12)">
      <use xlink:href="#BitstreamVeraSans-Roman-54"/>
      <use x="61.083984375" xlink:href="#BitstreamVeraSans-Roman-20"/>
      <use x="92.87109375" xlink:href="#BitstreamVeraSans-Roman-5b"/>
      <use x="131.884765625" xlink:href="#BitstreamVeraSans-Roman-73"/>
      <use x="183.984375" xlink:href="#BitstreamVeraSans-Roman-5d"/>
     </g>
    </g>
   </g>
   <g id="matplotlib.axis_6">
    <g id="ytick_1">
     <g id="line2d_28">
      <defs>
       <path d="
M0 0
L4 0" id="m728421d6d4" style="stroke:#000000;stroke-width:0.5;"/>
      </defs>
      <g>
       <use style="stroke:#000000;stroke-width:0.5;" x="563.709375" xlink:href="#m728421d6d4" y="335.495171429"/>
      </g>
     </g>
     <g id="text_10">
      <!-- −2 -->
      <defs>
       <path d="
M10.5938 35.5
L73.1875 35.5
L73.1875 27.2031
L10.5938 27.2031
z
" id="BitstreamVeraSans-Roman-2212"/>
      </defs>
      <g transform="translate(544.491875 338.806421429)scale(0.12 -0.12)">
       <use xlink:href="#BitstreamVeraSans-Roman-2212"/>
       <use x="83.7890625" xlink:href="#BitstreamVeraSans-Roman-32"/>
      </g>
     </g>
    </g>
    <g id="ytick_2">
     <g id="line2d_29">
      <g>
       <use style="stroke:#000000;stroke-width:0.5;" x="563.709375" xlink:href="#m728421d6d4" y="269.6666"/>
      </g>
     </g>
     <g id="text_11">
      <!-- 0 -->
      <g transform="translate(553.6625 272.97785)scale(0.12 -0.12)">
       <use xlink:href="#BitstreamVeraSans-Roman-30"/>
      </g>
     </g>
    </g>
    <g id="ytick_3">
     <g id="line2d_30">
      <g>
       <use style="stroke:#000000;stroke-width:0.5;" x="563.709375" xlink:href="#m728421d6d4" y="203.838028571"/>
      </g>
     </g>
     <g id="text_12">
      <!-- 2 -->
      <g transform="translate(554.155625 207.149278571)scale(0.12 -0.12)">
       <use xlink:href="#BitstreamVeraSans-Roman-32"/>
      </g>
     </g>
    </g>
    <g id="ytick_4">
     <g id="line2d_31">
      <g>
       <use style="stroke:#000000;stroke-width:0.5;" x="563.709375" xlink:href="#m728421d6d4" y="138.009457143"/>
      </g>
     </g>
     <g id="text_13">
      <!-- 4 -->
      <defs>
       <path d="
M37.7969 64.3125
L12.8906 25.3906
L37.7969 25.3906
z

M35.2031 72.9062
L47.6094 72.9062
L47.6094 25.3906
L58.0156 25.3906
L58.0156 17.1875
L47.6094 17.1875
L47.6094 0
L37.7969 0
L37.7969 17.1875
L4.89062 17.1875
L4.89062 26.7031
z
" id="BitstreamVeraSans-Roman-34"/>
      </defs>
      <g transform="translate(553.334375 141.320707143)scale(0.12 -0.12)">
       <use xlink:href="#BitstreamVeraSans-Roman-34"/>
      </g>
     </g>
    </g>
    <g id="ytick_5">
     <g id="line2d_32">
      <g>
       <use style="stroke:#000000;stroke-width:0.5;" x="563.709375" xlink:href="#m728421d6d4" y="72.1808857143"/>
      </g>
     </g>
     <g id="text_14">
      <!-- 6 -->
      <defs>
       <path d="
M33.0156 40.375
Q26.375 40.375 22.4844 35.8281
Q18.6094 31.2969 18.6094 23.3906
Q18.6094 15.5312 22.4844 10.9531
Q26.375 6.39062 33.0156 6.39062
Q39.6562 6.39062 43.5312 10.9531
Q47.4062 15.5312 47.4062 23.3906
Q47.4062 31.2969 43.5312 35.8281
Q39.6562 40.375 33.0156 40.375
M52.5938 71.2969
L52.5938 62.3125
Q48.875 64.0625 45.0938 64.9844
Q41.3125 65.9219 37.5938 65.9219
Q27.8281 65.9219 22.6719 59.3281
Q17.5312 52.7344 16.7969 39.4062
Q19.6719 43.6562 24.0156 45.9219
Q28.375 48.1875 33.5938 48.1875
Q44.5781 48.1875 50.9531 41.5156
Q57.3281 34.8594 57.3281 23.3906
Q57.3281 12.1562 50.6875 5.35938
Q44.0469 -1.42188 33.0156 -1.42188
Q20.3594 -1.42188 13.6719 8.26562
Q6.98438 17.9688 6.98438 36.375
Q6.98438 53.6562 15.1875 63.9375
Q23.3906 74.2188 37.2031 74.2188
Q40.9219 74.2188 44.7031 73.4844
Q48.4844 72.75 52.5938 71.2969" id="BitstreamVeraSans-Roman-36"/>
      </defs>
      <g transform="translate(553.668125 75.4921357143)scale(0.12 -0.12)">
       <use xlink:href="#BitstreamVeraSans-Roman-36"/>
      </g>
     </g>
    </g>
    <g id="text_15">
     <!-- RT dist -->
     <defs>
      <path d="
M44.3906 34.1875
Q47.5625 33.1094 50.5625 29.5938
Q53.5625 26.0781 56.5938 19.9219
L66.6094 0
L56 0
L46.6875 18.7031
Q43.0625 26.0312 39.6719 28.4219
Q36.2812 30.8125 30.4219 30.8125
L19.6719 30.8125
L19.6719 0
L9.8125 0
L9.8125 72.9062
L32.0781 72.9062
Q44.5781 72.9062 50.7344 67.6719
Q56.8906 62.4531 56.8906 51.9062
Q56.8906 45.0156 53.6875 40.4688
Q50.4844 35.9375 44.3906 34.1875
M19.6719 64.7969
L19.6719 38.9219
L32.0781 38.9219
Q39.2031 38.9219 42.8438 42.2188
Q46.4844 45.5156 46.4844 51.9062
Q46.4844 58.2969 42.8438 61.5469
Q39.2031 64.7969 32.0781 64.7969
z
" id="BitstreamVeraSans-Roman-52"/>
     </defs>
     <g transform="translate(536.99625 232.1825375)rotate(-90.0)scale(0.12 -0.12)">
      <use xlink:href="#BitstreamVeraSans-Roman-52"/>
      <use x="62.232421875" xlink:href="#BitstreamVeraSans-Roman-54"/>
      <use x="123.31640625" xlink:href="#BitstreamVeraSans-Roman-20"/>
      <use x="155.103515625" xlink:href="#BitstreamVeraSans-Roman-64"/>
      <use x="218.580078125" xlink:href="#BitstreamVeraSans-Roman-69"/>
      <use x="246.36328125" xlink:href="#BitstreamVeraSans-Roman-73"/>
      <use x="298.462890625" xlink:href="#BitstreamVeraSans-Roman-74"/>
     </g>
    </g>
   </g>
   <g id="text_16">
    <!-- Response time -->
    <defs>
     <path d="
M18.1094 8.20312
L18.1094 -20.7969
L9.07812 -20.7969
L9.07812 54.6875
L18.1094 54.6875
L18.1094 46.3906
Q20.9531 51.2656 25.2656 53.625
Q29.5938 56 35.5938 56
Q45.5625 56 51.7812 48.0938
Q58.0156 40.1875 58.0156 27.2969
Q58.0156 14.4062 51.7812 6.48438
Q45.5625 -1.42188 35.5938 -1.42188
Q29.5938 -1.42188 25.2656 0.953125
Q20.9531 3.32812 18.1094 8.20312
M48.6875 27.2969
Q48.6875 37.2031 44.6094 42.8438
Q40.5312 48.4844 33.4062 48.4844
Q26.2656 48.4844 22.1875 42.8438
Q18.1094 37.2031 18.1094 27.2969
Q18.1094 17.3906 22.1875 11.75
Q26.2656 6.10938 33.4062 6.10938
Q40.5312 6.10938 44.6094 11.75
Q48.6875 17.3906 48.6875 27.2969" id="BitstreamVeraSans-Roman-70"/>
    </defs>
    <g transform="translate(640.558125 34.2666)scale(0.144 -0.144)">
     <use xlink:href="#BitstreamVeraSans-Roman-52"/>
     <use x="64.982421875" xlink:href="#BitstreamVeraSans-Roman-65"/>
     <use x="126.505859375" xlink:href="#BitstreamVeraSans-Roman-73"/>
     <use x="178.60546875" xlink:href="#BitstreamVeraSans-Roman-70"/>
     <use x="242.08203125" xlink:href="#BitstreamVeraSans-Roman-6f"/>
     <use x="303.263671875" xlink:href="#BitstreamVeraSans-Roman-6e"/>
     <use x="366.642578125" xlink:href="#BitstreamVeraSans-Roman-73"/>
     <use x="418.7421875" xlink:href="#BitstreamVeraSans-Roman-65"/>
     <use x="480.265625" xlink:href="#BitstreamVeraSans-Roman-20"/>
     <use x="512.052734375" xlink:href="#BitstreamVeraSans-Roman-74"/>
     <use x="551.26171875" xlink:href="#BitstreamVeraSans-Roman-69"/>
     <use x="579.044921875" xlink:href="#BitstreamVeraSans-Roman-6d"/>
     <use x="676.45703125" xlink:href="#BitstreamVeraSans-Roman-65"/>
    </g>
   </g>
  </g>
  <g id="axes_4">
   <g id="patch_15">
    <path d="
M45.3094 212.067
L278.589 212.067
L278.589 39.2666
L45.3094 39.2666
z
" style="fill:#ffffff;"/>
   </g>
   <g id="line2d_33">
    <path clip-path="url(#pc3080921fd)" d="
M45.3094 212.067
L45.3094 163.952
L54.6406 163.952
L54.6406 107.69
L63.9718 107.69
L63.9718 123.34
L73.303 123.34
L73.303 145.521
L82.6342 145.521
L82.6342 161.042
L91.9654 161.042
L91.9654 175.658
L101.297 175.658
L101.297 184.065
L110.628 184.065
L110.628 192.278
L119.959 192.278
L119.959 198.033
L129.29 198.033
L129.29 201.59
L138.621 201.59
L138.621 205.212
L147.953 205.212
L147.953 206.699
L157.284 206.699
L157.284 208.316
L166.615 208.316
L166.615 209.48
L175.946 209.48
L175.946 209.803
L185.277 209.803
L185.277 211.355
L194.609 211.355
L194.609 211.614
L203.94 211.614
L203.94 211.42
L213.271 211.42
L213.271 211.873
L231.933 211.873
L231.933 212.067
L839.813 212.067
L839.813 212.067" style="fill:none;stroke:#0000ff;stroke-linecap:square;"/>
   </g>
   <g id="line2d_34">
    <path clip-path="url(#pc3080921fd)" d="
M45.3094 212.067
L54.6406 56.8504
L63.9718 97.4917
L73.303 139.079
L82.6342 166.273
L91.9654 183.638
L101.297 194.678
L110.628 201.608
L119.959 205.89
L129.29 208.49
L138.621 210.039
L147.953 210.944
L157.284 211.461
L166.615 211.749
L175.946 211.905
L185.277 211.987
L194.609 212.029
L203.94 212.05
L213.271 212.06
L222.602 212.064
L231.933 212.066
L241.265 212.067
L250.596 212.067
L259.927 212.067
L269.258 212.067
L278.589 212.067
L287.921 212.067" style="fill:none;stroke:#0000ff;stroke-linecap:square;stroke-width:3;"/>
   </g>
   <g id="patch_16">
    <path d="
M45.3094 212.067
L278.589 212.067" style="fill:none;stroke:#000000;stroke-linecap:square;stroke-linejoin:miter;"/>
   </g>
   <g id="patch_17">
    <path d="
M45.3094 212.067
L45.3094 39.2666" style="fill:none;stroke:#000000;stroke-linecap:square;stroke-linejoin:miter;"/>
   </g>
   <g id="matplotlib.axis_7">
    <g id="xtick_12">
     <g id="line2d_35">
      <g>
       <use style="stroke:#000000;stroke-width:0.5;" x="45.309375" xlink:href="#m93b0483c22" y="212.0666"/>
      </g>
     </g>
    </g>
    <g id="xtick_13">
     <g id="line2d_36">
      <g>
       <use style="stroke:#000000;stroke-width:0.5;" x="91.965375" xlink:href="#m93b0483c22" y="212.0666"/>
      </g>
     </g>
    </g>
    <g id="xtick_14">
     <g id="line2d_37">
      <g>
       <use style="stroke:#000000;stroke-width:0.5;" x="138.621375" xlink:href="#m93b0483c22" y="212.0666"/>
      </g>
     </g>
    </g>
    <g id="xtick_15">
     <g id="line2d_38">
      <g>
       <use style="stroke:#000000;stroke-width:0.5;" x="185.277375" xlink:href="#m93b0483c22" y="212.0666"/>
      </g>
     </g>
    </g>
    <g id="xtick_16">
     <g id="line2d_39">
      <g>
       <use style="stroke:#000000;stroke-width:0.5;" x="231.933375" xlink:href="#m93b0483c22" y="212.0666"/>
      </g>
     </g>
    </g>
    <g id="xtick_17">
     <g id="line2d_40">
      <g>
       <use style="stroke:#000000;stroke-width:0.5;" x="278.589375" xlink:href="#m93b0483c22" y="212.0666"/>
      </g>
     </g>
    </g>
   </g>
   <g id="matplotlib.axis_8">
    <g id="ytick_6">
     <g id="line2d_41">
      <g>
       <use style="stroke:#000000;stroke-width:0.5;" x="45.309375" xlink:href="#m728421d6d4" y="212.0666"/>
      </g>
     </g>
     <g id="text_17">
      <!-- 0 -->
      <g transform="translate(35.2625 215.37785)scale(0.12 -0.12)">
       <use xlink:href="#BitstreamVeraSans-Roman-30"/>
      </g>
     </g>
    </g>
    <g id="ytick_7">
     <g id="line2d_42">
      <g>
       <use style="stroke:#000000;stroke-width:0.5;" x="45.309375" xlink:href="#m728421d6d4" y="187.380885714"/>
      </g>
     </g>
     <g id="text_18">
      <!-- 1 -->
      <g transform="translate(36.100625 190.692135714)scale(0.12 -0.12)">
       <use xlink:href="#BitstreamVeraSans-Roman-31"/>
      </g>
     </g>
    </g>
    <g id="ytick_8">
     <g id="line2d_43">
      <g>
       <use style="stroke:#000000;stroke-width:0.5;" x="45.309375" xlink:href="#m728421d6d4" y="162.695171429"/>
      </g>
     </g>
     <g id="text_19">
      <!-- 2 -->
      <g transform="translate(35.755625 166.006421429)scale(0.12 -0.12)">
       <use xlink:href="#BitstreamVeraSans-Roman-32"/>
      </g>
     </g>
    </g>
    <g id="ytick_9">
     <g id="line2d_44">
      <g>
       <use style="stroke:#000000;stroke-width:0.5;" x="45.309375" xlink:href="#m728421d6d4" y="138.009457143"/>
      </g>
     </g>
     <g id="text_20">
      <!-- 3 -->
      <defs>
       <path d="
M40.5781 39.3125
Q47.6562 37.7969 51.625 33
Q55.6094 28.2188 55.6094 21.1875
Q55.6094 10.4062 48.1875 4.48438
Q40.7656 -1.42188 27.0938 -1.42188
Q22.5156 -1.42188 17.6562 -0.515625
Q12.7969 0.390625 7.625 2.20312
L7.625 11.7188
Q11.7188 9.32812 16.5938 8.10938
Q21.4844 6.89062 26.8125 6.89062
Q36.0781 6.89062 40.9375 10.5469
Q45.7969 14.2031 45.7969 21.1875
Q45.7969 27.6406 41.2812 31.2656
Q36.7656 34.9062 28.7188 34.9062
L20.2188 34.9062
L20.2188 43.0156
L29.1094 43.0156
Q36.375 43.0156 40.2344 45.9219
Q44.0938 48.8281 44.0938 54.2969
Q44.0938 59.9062 40.1094 62.9062
Q36.1406 65.9219 28.7188 65.9219
Q24.6562 65.9219 20.0156 65.0312
Q15.375 64.1562 9.8125 62.3125
L9.8125 71.0938
Q15.4375 72.6562 20.3438 73.4375
Q25.25 74.2188 29.5938 74.2188
Q40.8281 74.2188 47.3594 69.1094
Q53.9062 64.0156 53.9062 55.3281
Q53.9062 49.2656 50.4375 45.0938
Q46.9688 40.9219 40.5781 39.3125" id="BitstreamVeraSans-Roman-33"/>
      </defs>
      <g transform="translate(35.55125 141.320707143)scale(0.12 -0.12)">
       <use xlink:href="#BitstreamVeraSans-Roman-33"/>
      </g>
     </g>
    </g>
    <g id="ytick_10">
     <g id="line2d_45">
      <g>
       <use style="stroke:#000000;stroke-width:0.5;" x="45.309375" xlink:href="#m728421d6d4" y="113.323742857"/>
      </g>
     </g>
     <g id="text_21">
      <!-- 4 -->
      <g transform="translate(34.934375 116.634992857)scale(0.12 -0.12)">
       <use xlink:href="#BitstreamVeraSans-Roman-34"/>
      </g>
     </g>
    </g>
    <g id="ytick_11">
     <g id="line2d_46">
      <g>
       <use style="stroke:#000000;stroke-width:0.5;" x="45.309375" xlink:href="#m728421d6d4" y="88.6380285714"/>
      </g>
     </g>
     <g id="text_22">
      <!-- 5 -->
      <g transform="translate(35.64875 91.9492785714)scale(0.12 -0.12)">
       <use xlink:href="#BitstreamVeraSans-Roman-35"/>
      </g>
     </g>
    </g>
    <g id="ytick_12">
     <g id="line2d_47">
      <g>
       <use style="stroke:#000000;stroke-width:0.5;" x="45.309375" xlink:href="#m728421d6d4" y="63.9523142857"/>
      </g>
     </g>
     <g id="text_23">
      <!-- 6 -->
      <g transform="translate(35.268125 67.2635642857)scale(0.12 -0.12)">
       <use xlink:href="#BitstreamVeraSans-Roman-36"/>
      </g>
     </g>
    </g>
    <g id="ytick_13">
     <g id="line2d_48">
      <g>
       <use style="stroke:#000000;stroke-width:0.5;" x="45.309375" xlink:href="#m728421d6d4" y="39.2666"/>
      </g>
     </g>
     <g id="text_24">
      <!-- 7 -->
      <defs>
       <path d="
M8.20312 72.9062
L55.0781 72.9062
L55.0781 68.7031
L28.6094 0
L18.3125 0
L43.2188 64.5938
L8.20312 64.5938
z
" id="BitstreamVeraSans-Roman-37"/>
      </defs>
      <g transform="translate(35.684375 42.57785)scale(0.12 -0.12)">
       <use xlink:href="#BitstreamVeraSans-Roman-37"/>
      </g>
     </g>
    </g>
    <g id="text_25">
     <!-- Up RT dist -->
     <defs>
      <path d="
M8.6875 72.9062
L18.6094 72.9062
L18.6094 28.6094
Q18.6094 16.8906 22.8438 11.7344
Q27.0938 6.59375 36.625 6.59375
Q46.0938 6.59375 50.3438 11.7344
Q54.5938 16.8906 54.5938 28.6094
L54.5938 72.9062
L64.5 72.9062
L64.5 27.3906
Q64.5 13.1406 57.4375 5.85938
Q50.3906 -1.42188 36.625 -1.42188
Q22.7969 -1.42188 15.7344 5.85938
Q8.6875 13.1406 8.6875 27.3906
z
" id="BitstreamVeraSans-Roman-55"/>
     </defs>
     <g transform="translate(27.43875 155.889725)rotate(-90.0)scale(0.12 -0.12)">
      <use xlink:href="#BitstreamVeraSans-Roman-55"/>
      <use x="73.193359375" xlink:href="#BitstreamVeraSans-Roman-70"/>
      <use x="136.669921875" xlink:href="#BitstreamVeraSans-Roman-20"/>
      <use x="168.45703125" xlink:href="#BitstreamVeraSans-Roman-52"/>
      <use x="230.689453125" xlink:href="#BitstreamVeraSans-Roman-54"/>
      <use x="291.7734375" xlink:href="#BitstreamVeraSans-Roman-20"/>
      <use x="323.560546875" xlink:href="#BitstreamVeraSans-Roman-64"/>
      <use x="387.037109375" xlink:href="#BitstreamVeraSans-Roman-69"/>
      <use x="414.8203125" xlink:href="#BitstreamVeraSans-Roman-73"/>
      <use x="466.919921875" xlink:href="#BitstreamVeraSans-Roman-74"/>
     </g>
    </g>
   </g>
   <g id="patch_18">
    <path d="
M105.453 167.563
Q234.462 147.447 315.224 248.436
L316.395 247.499
Q316.987 250.24 317.534 252.993
Q315.008 251.768 312.491 250.622
L313.662 249.685
Q233.624 149.602 105.761 169.54
L105.453 167.563
z
" style="fill:#808080;stroke:#808080;stroke-linecap:round;"/>
   </g>
   <g id="text_26">
    <!-- Diffusion first -->
    <defs>
     <path d="
M41.1094 46.2969
Q39.5938 47.1719 37.8125 47.5781
Q36.0312 48 33.8906 48
Q26.2656 48 22.1875 43.0469
Q18.1094 38.0938 18.1094 28.8125
L18.1094 0
L9.07812 0
L9.07812 54.6875
L18.1094 54.6875
L18.1094 46.1875
Q20.9531 51.1719 25.4844 53.5781
Q30.0312 56 36.5312 56
Q37.4531 56 38.5781 55.875
Q39.7031 55.7656 41.0625 55.5156
z
" id="BitstreamVeraSans-Roman-72"/>
     <path d="
M8.5 21.5781
L8.5 54.6875
L17.4844 54.6875
L17.4844 21.9219
Q17.4844 14.1562 20.5 10.2656
Q23.5312 6.39062 29.5938 6.39062
Q36.8594 6.39062 41.0781 11.0312
Q45.3125 15.6719 45.3125 23.6875
L45.3125 54.6875
L54.2969 54.6875
L54.2969 0
L45.3125 0
L45.3125 8.40625
Q42.0469 3.42188 37.7188 1
Q33.4062 -1.42188 27.6875 -1.42188
Q18.2656 -1.42188 13.375 4.4375
Q8.5 10.2969 8.5 21.5781" id="BitstreamVeraSans-Roman-75"/>
     <path d="
M19.6719 64.7969
L19.6719 8.10938
L31.5938 8.10938
Q46.6875 8.10938 53.6875 14.9375
Q60.6875 21.7812 60.6875 36.5312
Q60.6875 51.1719 53.6875 57.9844
Q46.6875 64.7969 31.5938 64.7969
z

M9.8125 72.9062
L30.0781 72.9062
Q51.2656 72.9062 61.1719 64.0938
Q71.0938 55.2812 71.0938 36.5312
Q71.0938 17.6719 61.125 8.82812
Q51.1719 0 30.0781 0
L9.8125 0
z
" id="BitstreamVeraSans-Roman-44"/>
     <path d="
M37.1094 75.9844
L37.1094 68.5
L28.5156 68.5
Q23.6875 68.5 21.7969 66.5469
Q19.9219 64.5938 19.9219 59.5156
L19.9219 54.6875
L34.7188 54.6875
L34.7188 47.7031
L19.9219 47.7031
L19.9219 0
L10.8906 0
L10.8906 47.7031
L2.29688 47.7031
L2.29688 54.6875
L10.8906 54.6875
L10.8906 58.5
Q10.8906 67.625 15.1406 71.7969
Q19.3906 75.9844 28.6094 75.9844
z
" id="BitstreamVeraSans-Roman-66"/>
    </defs>
    <g transform="translate(113.869125 18.14175)scale(0.144 -0.144)">
     <use xlink:href="#BitstreamVeraSans-Roman-44"/>
     <use x="77.001953125" xlink:href="#BitstreamVeraSans-Roman-69"/>
     <use x="104.78515625" xlink:href="#BitstreamVeraSans-Roman-66"/>
     <use x="139.990234375" xlink:href="#BitstreamVeraSans-Roman-66"/>
     <use x="175.1953125" xlink:href="#BitstreamVeraSans-Roman-75"/>
     <use x="238.57421875" xlink:href="#BitstreamVeraSans-Roman-73"/>
     <use x="290.673828125" xlink:href="#BitstreamVeraSans-Roman-69"/>
     <use x="318.45703125" xlink:href="#BitstreamVeraSans-Roman-6f"/>
     <use x="379.638671875" xlink:href="#BitstreamVeraSans-Roman-6e"/>
     <use x="443.017578125" xlink:href="#BitstreamVeraSans-Roman-20"/>
     <use x="474.8046875" xlink:href="#BitstreamVeraSans-Roman-66"/>
     <use x="510.009765625" xlink:href="#BitstreamVeraSans-Roman-69"/>
     <use x="537.79296875" xlink:href="#BitstreamVeraSans-Roman-72"/>
     <use x="578.90625" xlink:href="#BitstreamVeraSans-Roman-73"/>
     <use x="631.005859375" xlink:href="#BitstreamVeraSans-Roman-74"/>
    </g>
    <!-- passage time -->
    <defs>
     <path d="
M45.4062 27.9844
Q45.4062 37.75 41.375 43.1094
Q37.3594 48.4844 30.0781 48.4844
Q22.8594 48.4844 18.8281 43.1094
Q14.7969 37.75 14.7969 27.9844
Q14.7969 18.2656 18.8281 12.8906
Q22.8594 7.51562 30.0781 7.51562
Q37.3594 7.51562 41.375 12.8906
Q45.4062 18.2656 45.4062 27.9844
M54.3906 6.78125
Q54.3906 -7.17188 48.1875 -13.9844
Q42 -20.7969 29.2031 -20.7969
Q24.4688 -20.7969 20.2656 -20.0938
Q16.0625 -19.3906 12.1094 -17.9219
L12.1094 -9.1875
Q16.0625 -11.3281 19.9219 -12.3438
Q23.7812 -13.375 27.7812 -13.375
Q36.625 -13.375 41.0156 -8.76562
Q45.4062 -4.15625 45.4062 5.17188
L45.4062 9.625
Q42.625 4.78125 38.2812 2.39062
Q33.9375 0 27.875 0
Q17.8281 0 11.6719 7.65625
Q5.51562 15.3281 5.51562 27.9844
Q5.51562 40.6719 11.6719 48.3281
Q17.8281 56 27.875 56
Q33.9375 56 38.2812 53.6094
Q42.625 51.2188 45.4062 46.3906
L45.4062 54.6875
L54.3906 54.6875
z
" id="BitstreamVeraSans-Roman-67"/>
     <path d="
M34.2812 27.4844
Q23.3906 27.4844 19.1875 25
Q14.9844 22.5156 14.9844 16.5
Q14.9844 11.7188 18.1406 8.90625
Q21.2969 6.10938 26.7031 6.10938
Q34.1875 6.10938 38.7031 11.4062
Q43.2188 16.7031 43.2188 25.4844
L43.2188 27.4844
z

M52.2031 31.2031
L52.2031 0
L43.2188 0
L43.2188 8.29688
Q40.1406 3.32812 35.5469 0.953125
Q30.9531 -1.42188 24.3125 -1.42188
Q15.9219 -1.42188 10.9531 3.29688
Q6 8.01562 6 15.9219
Q6 25.1406 12.1719 29.8281
Q18.3594 34.5156 30.6094 34.5156
L43.2188 34.5156
L43.2188 35.4062
Q43.2188 41.6094 39.1406 45
Q35.0625 48.3906 27.6875 48.3906
Q23 48.3906 18.5469 47.2656
Q14.1094 46.1406 10.0156 43.8906
L10.0156 52.2031
Q14.9375 54.1094 19.5781 55.0469
Q24.2188 56 28.6094 56
Q40.4844 56 46.3438 49.8438
Q52.2031 43.7031 52.2031 31.2031" id="BitstreamVeraSans-Roman-61"/>
    </defs>
    <g transform="translate(113.880375 34.2666)scale(0.144 -0.144)">
     <use xlink:href="#BitstreamVeraSans-Roman-70"/>
     <use x="63.4765625" xlink:href="#BitstreamVeraSans-Roman-61"/>
     <use x="124.755859375" xlink:href="#BitstreamVeraSans-Roman-73"/>
     <use x="176.85546875" xlink:href="#BitstreamVeraSans-Roman-73"/>
     <use x="228.955078125" xlink:href="#BitstreamVeraSans-Roman-61"/>
     <use x="290.234375" xlink:href="#BitstreamVeraSans-Roman-67"/>
     <use x="353.7109375" xlink:href="#BitstreamVeraSans-Roman-65"/>
     <use x="415.234375" xlink:href="#BitstreamVeraSans-Roman-20"/>
     <use x="447.021484375" xlink:href="#BitstreamVeraSans-Roman-74"/>
     <use x="486.23046875" xlink:href="#BitstreamVeraSans-Roman-69"/>
     <use x="514.013671875" xlink:href="#BitstreamVeraSans-Roman-6d"/>
     <use x="611.42578125" xlink:href="#BitstreamVeraSans-Roman-65"/>
    </g>
   </g>
   <g id="legend_1">
    <g id="patch_19">
     <path d="
M140.419 93.0596
L271.389 93.0596
L271.389 46.4666
L140.419 46.4666
z
" style="fill:#ffffff;stroke:#000000;stroke-linejoin:miter;"/>
    </g>
    <g id="line2d_49">
     <path d="
M150.499 58.1283
L170.659 58.1283" style="fill:none;stroke:#0000ff;stroke-linecap:square;"/>
    </g>
    <g id="line2d_50"/>
    <g id="text_27">
     <!-- Simulation -->
     <defs>
      <path d="
M53.5156 70.5156
L53.5156 60.8906
Q47.9062 63.5781 42.9219 64.8906
Q37.9375 66.2188 33.2969 66.2188
Q25.25 66.2188 20.875 63.0938
Q16.5 59.9688 16.5 54.2031
Q16.5 49.3594 19.4062 46.8906
Q22.3125 44.4375 30.4219 42.9219
L36.375 41.7031
Q47.4062 39.5938 52.6562 34.2969
Q57.9062 29 57.9062 20.125
Q57.9062 9.51562 50.7969 4.04688
Q43.7031 -1.42188 29.9844 -1.42188
Q24.8125 -1.42188 18.9688 -0.25
Q13.1406 0.921875 6.89062 3.21875
L6.89062 13.375
Q12.8906 10.0156 18.6562 8.29688
Q24.4219 6.59375 29.9844 6.59375
Q38.4219 6.59375 43.0156 9.90625
Q47.6094 13.2344 47.6094 19.3906
Q47.6094 24.75 44.3125 27.7812
Q41.0156 30.8125 33.5 32.3281
L27.4844 33.5
Q16.4531 35.6875 11.5156 40.375
Q6.59375 45.0625 6.59375 53.4219
Q6.59375 63.0938 13.4062 68.6562
Q20.2188 74.2188 32.1719 74.2188
Q37.3125 74.2188 42.625 73.2812
Q47.9531 72.3594 53.5156 70.5156" id="BitstreamVeraSans-Roman-53"/>
     </defs>
     <g transform="translate(186.499125 63.16835)scale(0.144 -0.144)">
      <use xlink:href="#BitstreamVeraSans-Roman-53"/>
      <use x="63.4765625" xlink:href="#BitstreamVeraSans-Roman-69"/>
      <use x="91.259765625" xlink:href="#BitstreamVeraSans-Roman-6d"/>
      <use x="188.671875" xlink:href="#BitstreamVeraSans-Roman-75"/>
      <use x="252.05078125" xlink:href="#BitstreamVeraSans-Roman-6c"/>
      <use x="279.833984375" xlink:href="#BitstreamVeraSans-Roman-61"/>
      <use x="341.11328125" xlink:href="#BitstreamVeraSans-Roman-74"/>
      <use x="380.322265625" xlink:href="#BitstreamVeraSans-Roman-69"/>
      <use x="408.10546875" xlink:href="#BitstreamVeraSans-Roman-6f"/>
      <use x="469.287109375" xlink:href="#BitstreamVeraSans-Roman-6e"/>
     </g>
    </g>
    <g id="line2d_51">
     <path d="
M150.499 79.2648
L170.659 79.2648" style="fill:none;stroke:#0000ff;stroke-linecap:square;stroke-width:3;"/>
    </g>
    <g id="line2d_52"/>
    <g id="text_28">
     <!-- Theoretical -->
     <g transform="translate(186.499125 84.30485)scale(0.144 -0.144)">
      <use xlink:href="#BitstreamVeraSans-Roman-54"/>
      <use x="61.083984375" xlink:href="#BitstreamVeraSans-Roman-68"/>
      <use x="124.462890625" xlink:href="#BitstreamVeraSans-Roman-65"/>
      <use x="185.986328125" xlink:href="#BitstreamVeraSans-Roman-6f"/>
      <use x="247.16796875" xlink:href="#BitstreamVeraSans-Roman-72"/>
      <use x="286.03125" xlink:href="#BitstreamVeraSans-Roman-65"/>
      <use x="347.5546875" xlink:href="#BitstreamVeraSans-Roman-74"/>
      <use x="386.763671875" xlink:href="#BitstreamVeraSans-Roman-69"/>
      <use x="414.546875" xlink:href="#BitstreamVeraSans-Roman-63"/>
      <use x="469.52734375" xlink:href="#BitstreamVeraSans-Roman-61"/>
      <use x="530.806640625" xlink:href="#BitstreamVeraSans-Roman-6c"/>
     </g>
    </g>
   </g>
  </g>
  <g id="axes_5">
   <g id="patch_20">
    <path d="
M45.3094 384.867
L278.589 384.867
L278.589 298.467
L45.3094 298.467
z
" style="fill:#ffffff;"/>
   </g>
   <g id="line2d_53">
    <path clip-path="url(#p113d322877)" d="
M45.3094 298.467
L45.3094 309.46
L54.6406 309.46
L54.6406 321.101
L63.9718 321.101
L63.9718 319.678
L73.303 319.678
L73.303 314.634
L82.6342 314.634
L82.6342 313.47
L91.9654 313.47
L91.9654 308.49
L101.297 308.49
L101.297 306.421
L110.628 306.421
L110.628 303.576
L119.959 303.576
L119.959 302.605
L129.29 302.605
L129.29 301.894
L138.621 301.894
L138.621 301.7
L147.953 301.7
L147.953 300.73
L157.284 300.73
L157.284 299.372
L175.946 299.437
L175.946 299.113
L203.94 299.049
L203.94 298.596
L231.933 298.531
L231.933 298.467
L250.596 298.467
L250.596 298.596
L269.258 298.531
L269.258 298.467
L839.813 298.467
L839.813 298.467" style="fill:none;stroke:#ff0000;stroke-linecap:square;"/>
   </g>
   <g id="line2d_54">
    <path clip-path="url(#p113d322877)" d="
M45.3094 298.467
L54.6406 346.705
L63.9718 336.718
L73.303 324.226
L82.6342 315.446
L91.9654 309.504
L101.297 305.513
L110.628 302.877
L119.959 301.169
L129.29 300.087
L138.621 299.416
L147.953 299.009
L157.284 298.768
L166.615 298.629
L175.946 298.552
L185.277 298.509
L194.609 298.487
L203.94 298.476
L213.271 298.47
L222.602 298.468
L231.933 298.467
L241.265 298.467
L250.596 298.467
L259.927 298.467
L269.258 298.467
L278.589 298.467
L287.921 298.467" style="fill:none;stroke:#ff0000;stroke-linecap:square;stroke-width:3;"/>
   </g>
   <g id="patch_21">
    <path d="
M45.3094 298.467
L278.589 298.467" style="fill:none;stroke:#000000;stroke-linecap:square;stroke-linejoin:miter;"/>
   </g>
   <g id="patch_22">
    <path d="
M45.3094 384.867
L278.589 384.867" style="fill:none;stroke:#000000;stroke-linecap:square;stroke-linejoin:miter;"/>
   </g>
   <g id="patch_23">
    <path d="
M45.3094 384.867
L45.3094 298.467" style="fill:none;stroke:#000000;stroke-linecap:square;stroke-linejoin:miter;"/>
   </g>
   <g id="matplotlib.axis_9">
    <g id="xtick_18">
     <g id="line2d_55">
      <g>
       <use style="stroke:#000000;stroke-width:0.5;" x="45.309375" xlink:href="#m93b0483c22" y="384.8666"/>
      </g>
     </g>
     <g id="text_29">
      <!-- 0.0 -->
      <g transform="translate(36.5615625 397.984725)scale(0.12 -0.12)">
       <use xlink:href="#BitstreamVeraSans-Roman-30"/>
       <use x="63.623046875" xlink:href="#BitstreamVeraSans-Roman-2e"/>
       <use x="95.41015625" xlink:href="#BitstreamVeraSans-Roman-30"/>
      </g>
     </g>
    </g>
    <g id="xtick_19">
     <g id="line2d_56">
      <g>
       <use style="stroke:#000000;stroke-width:0.5;" x="91.965375" xlink:href="#m93b0483c22" y="384.8666"/>
      </g>
     </g>
     <g id="text_30">
      <!-- 0.2 -->
      <g transform="translate(83.4200625 397.984725)scale(0.12 -0.12)">
       <use xlink:href="#BitstreamVeraSans-Roman-30"/>
       <use x="63.623046875" xlink:href="#BitstreamVeraSans-Roman-2e"/>
       <use x="95.41015625" xlink:href="#BitstreamVeraSans-Roman-32"/>
      </g>
     </g>
    </g>
    <g id="xtick_20">
     <g id="line2d_57">
      <g>
       <use style="stroke:#000000;stroke-width:0.5;" x="138.621375" xlink:href="#m93b0483c22" y="384.8666"/>
      </g>
     </g>
     <g id="text_31">
      <!-- 0.4 -->
      <g transform="translate(129.8116875 397.984725)scale(0.12 -0.12)">
       <use xlink:href="#BitstreamVeraSans-Roman-30"/>
       <use x="63.623046875" xlink:href="#BitstreamVeraSans-Roman-2e"/>
       <use x="95.41015625" xlink:href="#BitstreamVeraSans-Roman-34"/>
      </g>
     </g>
    </g>
    <g id="xtick_21">
     <g id="line2d_58">
      <g>
       <use style="stroke:#000000;stroke-width:0.5;" x="185.277375" xlink:href="#m93b0483c22" y="384.8666"/>
      </g>
     </g>
     <g id="text_32">
      <!-- 0.6 -->
      <g transform="translate(176.5089375 397.984725)scale(0.12 -0.12)">
       <use xlink:href="#BitstreamVeraSans-Roman-30"/>
       <use x="63.623046875" xlink:href="#BitstreamVeraSans-Roman-2e"/>
       <use x="95.41015625" xlink:href="#BitstreamVeraSans-Roman-36"/>
      </g>
     </g>
    </g>
    <g id="xtick_22">
     <g id="line2d_59">
      <g>
       <use style="stroke:#000000;stroke-width:0.5;" x="231.933375" xlink:href="#m93b0483c22" y="384.8666"/>
      </g>
     </g>
     <g id="text_33">
      <!-- 0.8 -->
      <defs>
       <path d="
M31.7812 34.625
Q24.75 34.625 20.7188 30.8594
Q16.7031 27.0938 16.7031 20.5156
Q16.7031 13.9219 20.7188 10.1562
Q24.75 6.39062 31.7812 6.39062
Q38.8125 6.39062 42.8594 10.1719
Q46.9219 13.9688 46.9219 20.5156
Q46.9219 27.0938 42.8906 30.8594
Q38.875 34.625 31.7812 34.625
M21.9219 38.8125
Q15.5781 40.375 12.0312 44.7188
Q8.5 49.0781 8.5 55.3281
Q8.5 64.0625 14.7188 69.1406
Q20.9531 74.2188 31.7812 74.2188
Q42.6719 74.2188 48.875 69.1406
Q55.0781 64.0625 55.0781 55.3281
Q55.0781 49.0781 51.5312 44.7188
Q48 40.375 41.7031 38.8125
Q48.8281 37.1562 52.7969 32.3125
Q56.7812 27.4844 56.7812 20.5156
Q56.7812 9.90625 50.3125 4.23438
Q43.8438 -1.42188 31.7812 -1.42188
Q19.7344 -1.42188 13.25 4.23438
Q6.78125 9.90625 6.78125 20.5156
Q6.78125 27.4844 10.7812 32.3125
Q14.7969 37.1562 21.9219 38.8125
M18.3125 54.3906
Q18.3125 48.7344 21.8438 45.5625
Q25.3906 42.3906 31.7812 42.3906
Q38.1406 42.3906 41.7188 45.5625
Q45.3125 48.7344 45.3125 54.3906
Q45.3125 60.0625 41.7188 63.2344
Q38.1406 66.4062 31.7812 66.4062
Q25.3906 66.4062 21.8438 63.2344
Q18.3125 60.0625 18.3125 54.3906" id="BitstreamVeraSans-Roman-38"/>
      </defs>
      <g transform="translate(223.19775 397.984725)scale(0.12 -0.12)">
       <use xlink:href="#BitstreamVeraSans-Roman-30"/>
       <use x="63.623046875" xlink:href="#BitstreamVeraSans-Roman-2e"/>
       <use x="95.41015625" xlink:href="#BitstreamVeraSans-Roman-38"/>
      </g>
     </g>
    </g>
    <g id="xtick_23">
     <g id="line2d_60">
      <g>
       <use style="stroke:#000000;stroke-width:0.5;" x="278.589375" xlink:href="#m93b0483c22" y="384.8666"/>
      </g>
     </g>
     <g id="text_34">
      <!-- 1.0 -->
      <g transform="translate(270.105 397.984725)scale(0.12 -0.12)">
       <use xlink:href="#BitstreamVeraSans-Roman-31"/>
       <use x="63.623046875" xlink:href="#BitstreamVeraSans-Roman-2e"/>
       <use x="95.41015625" xlink:href="#BitstreamVeraSans-Roman-30"/>
      </g>
     </g>
    </g>
    <g id="text_35">
     <!-- T [s] -->
     <g transform="translate(149.068125 414.598475)scale(0.12 -0.12)">
      <use xlink:href="#BitstreamVeraSans-Roman-54"/>
      <use x="61.083984375" xlink:href="#BitstreamVeraSans-Roman-20"/>
      <use x="92.87109375" xlink:href="#BitstreamVeraSans-Roman-5b"/>
      <use x="131.884765625" xlink:href="#BitstreamVeraSans-Roman-73"/>
      <use x="183.984375" xlink:href="#BitstreamVeraSans-Roman-5d"/>
     </g>
    </g>
   </g>
   <g id="matplotlib.axis_10">
    <g id="ytick_14">
     <g id="line2d_61">
      <g>
       <use style="stroke:#000000;stroke-width:0.5;" x="45.309375" xlink:href="#m728421d6d4" y="298.4666"/>
      </g>
     </g>
     <g id="text_36">
      <!-- 0.0 -->
      <g transform="translate(23.81375 301.77785)scale(0.12 -0.12)">
       <use xlink:href="#BitstreamVeraSans-Roman-30"/>
       <use x="63.623046875" xlink:href="#BitstreamVeraSans-Roman-2e"/>
       <use x="95.41015625" xlink:href="#BitstreamVeraSans-Roman-30"/>
      </g>
     </g>
    </g>
    <g id="ytick_15">
     <g id="line2d_62">
      <g>
       <use style="stroke:#000000;stroke-width:0.5;" x="45.309375" xlink:href="#m728421d6d4" y="310.809457143"/>
      </g>
     </g>
     <g id="text_37">
      <!-- 0.5 -->
      <g transform="translate(24.065 314.120707143)scale(0.12 -0.12)">
       <use xlink:href="#BitstreamVeraSans-Roman-30"/>
       <use x="63.623046875" xlink:href="#BitstreamVeraSans-Roman-2e"/>
       <use x="95.41015625" xlink:href="#BitstreamVeraSans-Roman-35"/>
      </g>
     </g>
    </g>
    <g id="ytick_16">
     <g id="line2d_63">
      <g>
       <use style="stroke:#000000;stroke-width:0.5;" x="45.309375" xlink:href="#m728421d6d4" y="323.152314286"/>
      </g>
     </g>
     <g id="text_38">
      <!-- 1.0 -->
      <g transform="translate(24.340625 326.463564286)scale(0.12 -0.12)">
       <use xlink:href="#BitstreamVeraSans-Roman-31"/>
       <use x="63.623046875" xlink:href="#BitstreamVeraSans-Roman-2e"/>
       <use x="95.41015625" xlink:href="#BitstreamVeraSans-Roman-30"/>
      </g>
     </g>
    </g>
    <g id="ytick_17">
     <g id="line2d_64">
      <g>
       <use style="stroke:#000000;stroke-width:0.5;" x="45.309375" xlink:href="#m728421d6d4" y="335.495171429"/>
      </g>
     </g>
     <g id="text_39">
      <!-- 1.5 -->
      <g transform="translate(24.591875 338.806421429)scale(0.12 -0.12)">
       <use xlink:href="#BitstreamVeraSans-Roman-31"/>
       <use x="63.623046875" xlink:href="#BitstreamVeraSans-Roman-2e"/>
       <use x="95.41015625" xlink:href="#BitstreamVeraSans-Roman-35"/>
      </g>
     </g>
    </g>
    <g id="ytick_18">
     <g id="line2d_65">
      <g>
       <use style="stroke:#000000;stroke-width:0.5;" x="45.309375" xlink:href="#m728421d6d4" y="347.838028571"/>
      </g>
     </g>
     <g id="text_40">
      <!-- 2.0 -->
      <g transform="translate(23.901875 351.149278571)scale(0.12 -0.12)">
       <use xlink:href="#BitstreamVeraSans-Roman-32"/>
       <use x="63.623046875" xlink:href="#BitstreamVeraSans-Roman-2e"/>
       <use x="95.41015625" xlink:href="#BitstreamVeraSans-Roman-30"/>
      </g>
     </g>
    </g>
    <g id="ytick_19">
     <g id="line2d_66">
      <g>
       <use style="stroke:#000000;stroke-width:0.5;" x="45.309375" xlink:href="#m728421d6d4" y="360.180885714"/>
      </g>
     </g>
     <g id="text_41">
      <!-- 2.5 -->
      <g transform="translate(24.153125 363.492135714)scale(0.12 -0.12)">
       <use xlink:href="#BitstreamVeraSans-Roman-32"/>
       <use x="63.623046875" xlink:href="#BitstreamVeraSans-Roman-2e"/>
       <use x="95.41015625" xlink:href="#BitstreamVeraSans-Roman-35"/>
      </g>
     </g>
    </g>
    <g id="ytick_20">
     <g id="line2d_67">
      <g>
       <use style="stroke:#000000;stroke-width:0.5;" x="45.309375" xlink:href="#m728421d6d4" y="372.523742857"/>
      </g>
     </g>
     <g id="text_42">
      <!-- 3.0 -->
      <g transform="translate(23.9375 375.834992857)scale(0.12 -0.12)">
       <use xlink:href="#BitstreamVeraSans-Roman-33"/>
       <use x="63.623046875" xlink:href="#BitstreamVeraSans-Roman-2e"/>
       <use x="95.41015625" xlink:href="#BitstreamVeraSans-Roman-30"/>
      </g>
     </g>
    </g>
    <g id="ytick_21">
     <g id="line2d_68">
      <g>
       <use style="stroke:#000000;stroke-width:0.5;" x="45.309375" xlink:href="#m728421d6d4" y="384.8666"/>
      </g>
     </g>
     <g id="text_43">
      <!-- 3.5 -->
      <g transform="translate(24.18875 388.17785)scale(0.12 -0.12)">
       <use xlink:href="#BitstreamVeraSans-Roman-33"/>
       <use x="63.623046875" xlink:href="#BitstreamVeraSans-Roman-2e"/>
       <use x="95.41015625" xlink:href="#BitstreamVeraSans-Roman-35"/>
      </g>
     </g>
    </g>
    <g id="text_44">
     <!-- Down RT dist -->
     <g transform="translate(16.318125 380.6900375)rotate(-90.0)scale(0.12 -0.12)">
      <use xlink:href="#BitstreamVeraSans-Roman-44"/>
      <use x="77.001953125" xlink:href="#BitstreamVeraSans-Roman-6f"/>
      <use x="138.18359375" xlink:href="#BitstreamVeraSans-Roman-77"/>
      <use x="219.970703125" xlink:href="#BitstreamVeraSans-Roman-6e"/>
      <use x="283.349609375" xlink:href="#BitstreamVeraSans-Roman-20"/>
      <use x="315.13671875" xlink:href="#BitstreamVeraSans-Roman-52"/>
      <use x="377.369140625" xlink:href="#BitstreamVeraSans-Roman-54"/>
      <use x="438.453125" xlink:href="#BitstreamVeraSans-Roman-20"/>
      <use x="470.240234375" xlink:href="#BitstreamVeraSans-Roman-64"/>
      <use x="533.716796875" xlink:href="#BitstreamVeraSans-Roman-69"/>
      <use x="561.5" xlink:href="#BitstreamVeraSans-Roman-73"/>
      <use x="613.599609375" xlink:href="#BitstreamVeraSans-Roman-74"/>
     </g>
    </g>
   </g>
   <g id="patch_24">
    <path d="
M105.814 319.612
Q226.547 351.245 313.191 263.165
L312.122 262.113
Q314.741 261.233 317.377 260.273
Q316.554 262.955 315.686 265.62
L314.617 264.568
Q227.16 353.473 105.307 321.547
L105.814 319.612
z
" style="fill:#808080;stroke:#808080;stroke-linecap:round;"/>
   </g>
  </g>
 </g>
 <defs>
  <clipPath id="pe54f74f0aa">
   <rect height="86.4" width="233.28" x="45.309375" y="212.0666"/>
  </clipPath>
  <clipPath id="p6241a6e02f">
   <rect height="108.0" width="112.32" x="330.429375" y="203.4266"/>
  </clipPath>
  <clipPath id="pc3080921fd">
   <rect height="172.8" width="233.28" x="45.309375" y="39.2666"/>
  </clipPath>
  <clipPath id="p9803da60d2">
   <rect height="345.6" width="259.2" x="563.709375" y="39.2666"/>
  </clipPath>
  <clipPath id="p113d322877">
   <rect height="86.4" width="233.28" x="45.309375" y="298.4666"/>
  </clipPath>
 </defs>
</svg>
