<?xml version="1.0" encoding="utf-8" standalone="no"?>
<!DOCTYPE svg PUBLIC "-//W3C//DTD SVG 1.1//EN"
  "http://www.w3.org/Graphics/SVG/1.1/DTD/svg11.dtd">
<!-- Created with matplotlib (http://matplotlib.org/) -->
<svg height="424pt" version="1.1" viewBox="0 0 838 424" width="838pt" xmlns="http://www.w3.org/2000/svg" xmlns:xlink="http://www.w3.org/1999/xlink">
 <defs>
  <style type="text/css">
*{stroke-linecap:butt;stroke-linejoin:round;}
  </style>
 </defs>
 <g id="figure_1">
  <g id="patch_1">
   <path d="
M0 424.294
L839 424.294
L839 0
L0 0
z
" style="fill:#ffffff;"/>
  </g>
  <g id="axes_1">
   <g id="patch_2">
    <path d="
M45.5138 298.467
L278.794 298.467
L278.794 212.067
L45.5138 212.067
z
" style="fill:#ffffff;"/>
   </g>
   <g id="line2d_1">
    <path clip-path="url(#p5bbb9315a8)" d="
M45.5138 212.408
L50.1793 212.128
L54.8449 212.067
L59.5106 212.128
L64.1762 212.314
L68.8418 212.591
L73.5074 212.918
L78.173 213.276
L82.8385 213.674
L87.5041 214.097
L92.1697 214.519
L96.8354 214.952
L101.501 215.407
L106.167 215.88
L110.832 216.347
L115.498 216.79
L120.163 217.263
L124.829 217.712
L129.495 218.163
L134.16 218.618
L138.826 219.048
L143.491 219.493
L148.157 219.914
L152.823 220.338
L157.488 220.765
L162.154 221.153
L166.819 221.576
L171.485 221.951
L176.151 222.335
L180.816 222.741
L185.482 223.085
L190.147 223.443
L194.813 223.825
L199.479 224.172
L204.144 224.49
L208.81 224.839
L213.475 225.197
L218.141 225.504
L222.807 225.797
L227.472 226.116
L232.138 226.451
L236.803 226.767
L241.469 227.018
L246.135 227.292
L250.8 227.585
L255.466 227.893
L260.131 228.192
L264.797 228.421
L269.463 228.656
L274.128 228.907
L278.794 229.173
L283.459 229.449" style="fill:none;stroke:#0000ff;stroke-dasharray:6.000000,6.000000;stroke-dashoffset:0.0;"/>
   </g>
   <g id="line2d_2">
    <path clip-path="url(#p5bbb9315a8)" d="
M45.5138 298.125
L50.1793 298.405
L54.8449 298.467
L59.5106 298.406
L64.1762 298.219
L68.8418 297.942
L73.5074 297.615
L78.173 297.257
L82.8385 296.859
L87.5041 296.436
L92.1697 296.014
L96.8354 295.581
L101.501 295.127
L106.167 294.653
L110.832 294.186
L115.498 293.744
L120.163 293.271
L124.829 292.822
L129.495 292.371
L134.16 291.915
L138.826 291.485
L143.491 291.04
L148.157 290.619
L152.823 290.196
L157.488 289.769
L162.154 289.38
L166.819 288.957
L171.485 288.583
L176.151 288.198
L180.816 287.793
L185.482 287.448
L190.147 287.09
L194.813 286.708
L199.479 286.361
L204.144 286.043
L208.81 285.694
L213.475 285.336
L218.141 285.029
L222.807 284.736
L227.472 284.417
L232.138 284.082
L236.803 283.767
L241.469 283.515
L246.135 283.241
L250.8 282.948
L255.466 282.64
L260.131 282.342
L264.797 282.112
L269.463 281.877
L274.128 281.626
L278.794 281.36
L283.459 281.085" style="fill:none;stroke:#ff0000;stroke-dasharray:6.000000,6.000000;stroke-dashoffset:0.0;"/>
   </g>
   <g id="line2d_3">
    <path clip-path="url(#p5bbb9315a8)" d="
M45.5138 255.267
L45.6304 260.11
L45.747 258.45
L45.9803 248.915
L46.2136 248.019
L46.4469 250.655
L46.5635 247.018
L46.6802 248.7
L46.7968 252.597
L46.9134 250.975
L47.1467 255.465
L47.2634 256.539
L47.38 251.432
L47.4966 257.417
L47.7299 254.487
L47.9632 258.558
L48.0798 254.997
L48.1965 257.87
L48.3131 256.576
L48.4297 256.89
L48.5464 256.697
L48.663 258.446
L48.7797 258.321
L48.8963 260.042
L49.013 259.089
L49.1296 263.057
L49.2462 258.437
L49.3629 264.934
L49.4795 263.904
L49.5962 264.617
L49.8294 260.297
L49.9461 260.383
L50.296 257.863
L50.4126 257.164
L50.5293 258.71
L50.6459 261.935
L50.7626 258.554
L50.8792 264.533
L50.9958 263.604
L51.1125 260.632
L51.2291 260.555
L51.3458 260.079
L51.4624 261.025
L51.579 263.134
L52.0456 252.371
L52.1622 257.553
L52.2789 256.894
L52.3955 261.002
L52.5121 257.248
L52.6288 259.618
L52.8621 253.347
L52.9787 254.262
L53.212 252.721
L53.3286 256.272
L53.4453 253.833
L53.5619 255.398
L53.9118 248.884
L54.0285 251.527
L54.1451 250.089
L54.2617 245.008
L54.3784 246.342
L54.495 243.275
L54.6117 243.225
L54.8449 235.964
L54.9616 237.044
L55.0782 233.427
L55.1949 233.897
L55.3115 234.906
L55.5448 243.345
L55.6614 246.177
L55.8947 240.592
L56.0114 238.609
L56.128 241.217
L56.3613 237.329
L56.4779 235.816
L56.5945 236.531
L56.9445 234.272
L57.0611 235.059
L57.2944 228.809
L57.411 231.436
L57.6443 226.079
L57.761 226.053
L57.8776 223.397
L57.9942 229.521
L58.2275 226.756
L58.3441 226.473
L58.5774 230.73
L58.6941 230.934
L58.9274 226.966
L59.044 228.485
L59.1606 226.766
L59.2773 228.365
L59.3939 227.423
L59.5106 228.025
L59.6272 232.464
L59.7438 232.486
L59.8605 234.333
L59.9771 232.56
L60.0938 232.693
L60.2104 236.545
L60.4437 233.06
L60.5603 239.634
L60.7936 234.598
L60.9102 233.635
L61.0269 236.065
L61.4934 229.053
L61.6101 229.593
L61.8434 235.248
L62.0766 238.387
L62.1933 237.384
L62.3099 238.949
L62.4265 237.97
L62.5432 235.517
L62.6598 237.522
L62.7765 233.246
L62.8931 235.362
L63.0097 234.998
L63.3597 239.546
L63.4763 236.537
L63.7096 244.689
L63.8262 240.901
L63.9429 241.961
L64.1762 247.859
L64.2928 246.56
L64.4094 243.488
L64.5261 244.295
L64.7593 240.275
L64.876 241.281
L64.9926 244.214
L65.1093 243.701
L65.4592 237.413
L65.5758 233.756
L65.8091 238.417
L65.9257 235.16
L66.0424 236.81
L66.159 234.098
L66.2757 227.706
L66.5089 230.104
L66.6256 228.244
L66.7422 231.133
L67.0922 221.333
L67.2088 220.199
L67.4421 227.409
L67.5587 224.672
L67.6753 225.872
L67.9086 223.206
L68.0253 222.962
L68.1419 222.457
L68.3752 212.615
L68.4918 214.878
L68.8418 212.591
L68.8418 212.591" style="fill:none;stroke:#0000ff;stroke-linecap:square;"/>
   </g>
   <g id="line2d_4">
    <path clip-path="url(#p5bbb9315a8)" d="
M45.5138 255.267
L45.6304 257.309
L45.747 257.242
L45.9803 254.299
L46.0969 254.372
L46.5635 261.625
L46.7968 254.851
L46.9134 254.259
L47.2634 249.027
L47.38 253.427
L47.4966 252.811
L47.9632 262.744
L48.0798 261.904
L48.1965 256.033
L48.3131 256.461
L48.663 260.892
L48.7797 259.809
L49.1296 267.335
L49.2462 267
L49.3629 261.744
L49.4795 264.455
L49.5962 262.96
L49.9461 250.103
L50.0627 247.867
L50.296 253.49
L50.4126 251.259
L50.5293 254.85
L50.6459 262.606
L50.7626 256.733
L50.8792 258.965
L50.9958 265.885
L51.3458 262.631
L51.4624 261.586
L51.579 263.125
L51.6957 262.971
L51.8123 266.16
L52.1622 262.532
L52.2789 262.19
L52.3955 263.185
L52.6288 267.114
L52.7454 268.194
L52.8621 271.686
L52.9787 271.482
L53.3286 263.129
L53.5619 260.23
L53.9118 266.323
L54.1451 268.294
L54.2617 269.831
L54.495 266.445
L54.6117 264.748
L55.1949 274.582
L55.4282 280.668
L55.5448 278.295
L55.6614 279.415
L55.8947 287.465
L56.0114 284.606
L56.128 286.037
L56.2446 286.056
L56.3613 285.095
L56.4779 280.58
L56.5945 281.744
L56.7112 284.604
L56.9445 278.268
L57.411 268.162
L57.5277 270.486
L57.761 262.381
L58.1109 264.88
L58.2275 269.011
L58.3441 264.594
L58.4608 264.579
L58.5774 268.704
L58.6941 268.448
L58.9274 264.003
L59.044 263.199
L59.1606 264.254
L59.2773 262.839
L59.6272 266.938
L59.7438 266.525
L60.327 281.75
L60.5603 274.977
L60.6769 274.349
L60.9102 286.716
L61.0269 284.628
L61.1435 285.061
L61.2602 288.785
L61.3768 282.128
L61.6101 285.748
L61.7267 283.562
L61.8434 285.493
L61.96 282.662
L62.0766 290.994
L62.1933 290.355
L62.3099 286.996
L62.5432 290.122
L62.6598 286.609
L63.1264 292.309
L63.3597 286.776
L63.593 292.381
L63.7096 292.14
L63.8262 296.312
L63.9429 296.341
L64.0595 297.103
L64.1762 295.39
L64.2928 296.018
L64.6427 292.288
L64.7593 289.166
L64.876 290.391
L64.9926 284.226
L65.3426 290.228
L65.5758 285.128
L66.2757 294.409
L66.3923 293.805
L66.5089 290.954
L66.6256 292.166
L66.7422 290.768
L66.8589 292.95
L67.2088 286.498
L67.3254 288.711
L67.5587 293.777
L67.6753 294.935
L67.792 294.585
L67.9086 294.648
L68.0253 295.974
L68.1419 295.868
L68.2585 296.228
L68.7251 289.321
L68.8418 289.758
L69.1917 284.407
L69.3083 284.718
L69.4249 283.701
L69.6582 284.445
L69.7749 284.624
L69.8915 282.167
L70.0082 283.088
L70.2414 280.68
L70.4747 285.438
L70.9413 296.052
L71.0579 297.639
L71.2912 296.333
L71.4078 295.808
L71.5245 295.871
L71.6411 297.746
L71.6411 297.746" style="fill:none;stroke:#ff0000;stroke-linecap:square;"/>
   </g>
   <g id="patch_3">
    <path d="
M45.5138 212.067
L278.794 212.067" style="fill:none;stroke:#000000;stroke-linecap:square;stroke-linejoin:miter;"/>
   </g>
   <g id="patch_4">
    <path d="
M278.794 298.467
L278.794 212.067" style="fill:none;stroke:#000000;stroke-linecap:square;stroke-linejoin:miter;"/>
   </g>
   <g id="patch_5">
    <path d="
M45.5138 298.467
L278.794 298.467" style="fill:none;stroke:#000000;stroke-linecap:square;stroke-linejoin:miter;"/>
   </g>
   <g id="patch_6">
    <path d="
M45.5138 298.467
L45.5138 212.067" style="fill:none;stroke:#000000;stroke-linecap:square;stroke-linejoin:miter;"/>
   </g>
   <g id="matplotlib.axis_1">
    <g id="xtick_1">
     <g id="line2d_5">
      <defs>
       <path d="
M0 0
L0 -4" id="m93b0483c22" style="stroke:#000000;stroke-width:0.5;"/>
      </defs>
      <g>
       <use style="stroke:#000000;stroke-width:0.5;" x="45.51375" xlink:href="#m93b0483c22" y="298.4666"/>
      </g>
     </g>
     <g id="line2d_6">
      <defs>
       <path d="
M0 0
L0 4" id="m741efc42ff" style="stroke:#000000;stroke-width:0.5;"/>
      </defs>
      <g>
       <use style="stroke:#000000;stroke-width:0.5;" x="45.51375" xlink:href="#m741efc42ff" y="212.0666"/>
      </g>
     </g>
    </g>
    <g id="xtick_2">
     <g id="line2d_7">
      <g>
       <use style="stroke:#000000;stroke-width:0.5;" x="103.83375" xlink:href="#m93b0483c22" y="298.4666"/>
      </g>
     </g>
     <g id="line2d_8">
      <g>
       <use style="stroke:#000000;stroke-width:0.5;" x="103.83375" xlink:href="#m741efc42ff" y="212.0666"/>
      </g>
     </g>
    </g>
    <g id="xtick_3">
     <g id="line2d_9">
      <g>
       <use style="stroke:#000000;stroke-width:0.5;" x="162.15375" xlink:href="#m93b0483c22" y="298.4666"/>
      </g>
     </g>
     <g id="line2d_10">
      <g>
       <use style="stroke:#000000;stroke-width:0.5;" x="162.15375" xlink:href="#m741efc42ff" y="212.0666"/>
      </g>
     </g>
    </g>
    <g id="xtick_4">
     <g id="line2d_11">
      <g>
       <use style="stroke:#000000;stroke-width:0.5;" x="220.47375" xlink:href="#m93b0483c22" y="298.4666"/>
      </g>
     </g>
     <g id="line2d_12">
      <g>
       <use style="stroke:#000000;stroke-width:0.5;" x="220.47375" xlink:href="#m741efc42ff" y="212.0666"/>
      </g>
     </g>
    </g>
    <g id="xtick_5">
     <g id="line2d_13">
      <g>
       <use style="stroke:#000000;stroke-width:0.5;" x="278.79375" xlink:href="#m93b0483c22" y="298.4666"/>
      </g>
     </g>
     <g id="line2d_14">
      <g>
       <use style="stroke:#000000;stroke-width:0.5;" x="278.79375" xlink:href="#m741efc42ff" y="212.0666"/>
      </g>
     </g>
    </g>
   </g>
   <g id="matplotlib.axis_2">
    <g id="text_1">
     <!-- $x(t)$ -->
     <defs>
      <path d="
M31 -24.8125
Q25.4375 -20.4062 21.4062 -14.7188
Q17.3906 -9.03125 14.8125 -2.57812
Q12.25 3.85938 10.9844 10.8906
Q9.71875 17.9219 9.71875 25
Q9.71875 32.1719 10.9844 39.2031
Q12.25 46.2344 14.8594 52.7344
Q17.4844 59.2344 21.5312 64.8906
Q25.5938 70.5625 31 74.8125
Q31 75 31.5 75
L32.4219 75
Q32.7188 75 32.9531 74.7344
Q33.2031 74.4688 33.2031 74.125
Q33.2031 73.6875 33.0156 73.4844
Q28.125 68.7031 24.875 63.2344
Q21.625 57.7656 19.6406 51.5781
Q17.6719 45.4062 16.7969 38.7812
Q15.9219 32.1719 15.9219 25
Q15.9219 -6.78125 32.9062 -23.2969
Q33.2031 -23.5781 33.2031 -24.125
Q33.2031 -24.3594 32.9375 -24.6719
Q32.6719 -25 32.4219 -25
L31.5 -25
Q31 -25 31 -24.8125" id="Cmr10-28"/>
      <path d="
M6.5 -25
Q5.60938 -25 5.60938 -24.125
Q5.60938 -23.6875 5.8125 -23.4844
Q22.9062 -6.78125 22.9062 25
Q22.9062 56.7812 6 73.2969
Q5.60938 73.5312 5.60938 74.125
Q5.60938 74.4688 5.875 74.7344
Q6.15625 75 6.5 75
L7.42188 75
Q7.71875 75 7.90625 74.8125
Q15.0938 69.1406 19.875 61.0312
Q24.6562 52.9375 26.875 43.75
Q29.1094 34.5781 29.1094 25
Q29.1094 17.9219 27.9062 11.0625
Q26.7031 4.20312 24.0938 -2.45312
Q21.4844 -9.125 17.4844 -14.7656
Q13.4844 -20.4062 7.90625 -24.8125
Q7.71875 -25 7.42188 -25
z
" id="Cmr10-29"/>
      <path d="
M7.8125 2.875
Q9.57812 1.51562 12.7969 1.51562
Q15.9219 1.51562 18.3125 4.51562
Q20.7031 7.51562 21.5781 11.0781
L26.125 28.8125
Q27.2031 33.6406 27.2031 35.4062
Q27.2031 37.8906 25.8125 39.75
Q24.4219 41.6094 21.9219 41.6094
Q18.75 41.6094 15.9688 39.625
Q13.1875 37.6406 11.2812 34.5938
Q9.375 31.5469 8.59375 28.4219
Q8.40625 27.7812 7.8125 27.7812
L6.59375 27.7812
Q5.8125 27.7812 5.8125 28.7188
L5.8125 29
Q6.78125 32.7188 9.125 36.25
Q11.4688 39.7969 14.8594 41.9844
Q18.2656 44.1875 22.125 44.1875
Q25.7812 44.1875 28.7344 42.2344
Q31.6875 40.2812 32.9062 36.9219
Q34.625 39.9844 37.2812 42.0781
Q39.9375 44.1875 43.1094 44.1875
Q45.2656 44.1875 47.5 43.4219
Q49.75 42.6719 51.1719 41.1094
Q52.5938 39.5469 52.5938 37.2031
Q52.5938 34.6719 50.9531 32.8281
Q49.3125 31 46.7812 31
Q45.1719 31 44.0938 32.0312
Q43.0156 33.0625 43.0156 34.625
Q43.0156 36.7188 44.4531 38.2969
Q45.9062 39.8906 47.9062 40.1875
Q46.0938 41.6094 42.9219 41.6094
Q39.7031 41.6094 37.3281 38.625
Q34.9688 35.6406 33.9844 31.9844
L29.5938 14.3125
Q28.5156 10.2969 28.5156 7.71875
Q28.5156 5.17188 29.9531 3.34375
Q31.3906 1.51562 33.7969 1.51562
Q38.4844 1.51562 42.1562 5.64062
Q45.8438 9.76562 47.0156 14.7031
Q47.2188 15.2812 47.7969 15.2812
L49.0312 15.2812
Q49.4219 15.2812 49.6562 15.0156
Q49.9062 14.75 49.9062 14.4062
Q49.9062 14.3125 49.8125 14.1094
Q48.3906 8.15625 43.8438 3.51562
Q39.3125 -1.125 33.5938 -1.125
Q29.9375 -1.125 26.9844 0.84375
Q24.0312 2.82812 22.7969 6.20312
Q21.2344 3.26562 18.4688 1.0625
Q15.7188 -1.125 12.5938 -1.125
Q10.4531 -1.125 8.17188 -0.359375
Q5.90625 0.390625 4.48438 1.95312
Q3.07812 3.51562 3.07812 5.90625
Q3.07812 8.25 4.70312 10.1719
Q6.34375 12.1094 8.79688 12.1094
Q10.4531 12.1094 11.5781 11.1094
Q12.7031 10.1094 12.7031 8.5
Q12.7031 6.39062 11.2969 4.82812
Q9.90625 3.26562 7.8125 2.875" id="Cmmi10-78"/>
      <path d="
M6.20312 8.10938
Q6.20312 9.57812 6.5 10.8906
L13.7188 39.5938
L3.21875 39.5938
Q2.20312 39.5938 2.20312 40.9219
Q2.59375 43.1094 3.51562 43.1094
L14.5938 43.1094
L18.6094 59.4219
Q19 60.75 20.1719 61.6719
Q21.3438 62.5938 22.7969 62.5938
Q24.0781 62.5938 24.9219 61.8281
Q25.7812 61.0781 25.7812 59.8125
Q25.7812 59.5156 25.75 59.3438
Q25.7344 59.1875 25.6875 58.9844
L21.6875 43.1094
L31.9844 43.1094
Q33.0156 43.1094 33.0156 41.7969
Q32.9531 41.5469 32.8125 40.9531
Q32.6719 40.375 32.4219 39.9844
Q32.1719 39.5938 31.6875 39.5938
L20.7969 39.5938
L13.625 10.6875
Q12.8906 7.85938 12.8906 5.8125
Q12.8906 1.51562 15.8281 1.51562
Q20.2188 1.51562 23.6094 5.64062
Q27 9.76562 28.8125 14.7031
Q29.2031 15.2812 29.5938 15.2812
L30.8125 15.2812
Q31.2031 15.2812 31.4375 15.0156
Q31.6875 14.75 31.6875 14.4062
Q31.6875 14.2031 31.5938 14.1094
Q29.3906 8.0625 25.1875 3.46875
Q21 -1.125 15.5781 -1.125
Q11.625 -1.125 8.90625 1.45312
Q6.20312 4.04688 6.20312 8.10938" id="Cmmi10-74"/>
     </defs>
     <g transform="translate(36.76375 268.0916)rotate(-90.0)scale(0.15 -0.15)">
      <use xlink:href="#Cmmi10-78"/>
      <use transform="translate(57.080078125 0.0)" xlink:href="#Cmr10-28"/>
      <use transform="translate(95.8984375 0.0)" xlink:href="#Cmmi10-74"/>
      <use transform="translate(131.982421875 0.0)" xlink:href="#Cmr10-29"/>
     </g>
    </g>
   </g>
  </g>
  <g id="axes_2">
   <g id="patch_7">
    <path d="
M330.634 311.427
L442.954 311.427
L442.954 203.427
L330.634 203.427
z
" style="fill:#ffffff;"/>
   </g>
   <g id="line2d_15">
    <path clip-path="url(#pb9c2b6db16)" d="
M330.634 311.427
L332.926 311.427
L335.218 311.427
L337.51 311.427
L339.803 311.427
L342.095 311.427
L344.387 311.427
L346.679 311.427
L348.972 203.949
L351.264 205.228
L353.556 207.579
L355.848 210.93
L358.141 215.18
L360.433 220.205
L362.725 225.864
L365.017 232.002
L367.31 238.464
L369.602 245.095
L371.894 251.747
L374.186 258.289
L376.479 264.603
L378.771 270.595
L381.063 276.189
L383.355 281.331
L385.648 285.989
L387.94 290.149
L390.232 293.813
L392.524 296.997
L394.817 299.728
L397.109 302.04
L399.401 303.974
L401.693 305.57
L403.986 306.872
L406.278 307.921
L408.57 308.757
L410.862 309.414
L413.155 309.926
L415.447 310.319
L417.739 310.617
L420.031 310.841
L422.324 311.008
L424.616 311.13
L426.908 311.219
L429.2 311.282
L431.493 311.328
L433.785 311.359
L436.077 311.381
L438.369 311.397
L440.662 311.407
L442.954 311.414" style="fill:none;stroke:#0000ff;stroke-linecap:square;"/>
   </g>
   <g id="patch_8">
    <path d="
M330.634 203.427
L442.954 203.427" style="fill:none;stroke:#000000;stroke-linecap:square;stroke-linejoin:miter;"/>
   </g>
   <g id="patch_9">
    <path d="
M442.954 311.427
L442.954 203.427" style="fill:none;stroke:#000000;stroke-linecap:square;stroke-linejoin:miter;"/>
   </g>
   <g id="patch_10">
    <path d="
M330.634 311.427
L442.954 311.427" style="fill:none;stroke:#000000;stroke-linecap:square;stroke-linejoin:miter;"/>
   </g>
   <g id="patch_11">
    <path d="
M330.634 311.427
L330.634 203.427" style="fill:none;stroke:#000000;stroke-linecap:square;stroke-linejoin:miter;"/>
   </g>
   <g id="matplotlib.axis_3">
    <g id="text_2">
     <!-- T -->
     <defs>
      <path d="
M-0.296875 72.9062
L61.375 72.9062
L61.375 64.5938
L35.5 64.5938
L35.5 0
L25.5938 0
L25.5938 64.5938
L-0.296875 64.5938
z
" id="BitstreamVeraSans-Roman-54"/>
     </defs>
     <g transform="translate(383.0934375 325.544725)scale(0.12 -0.12)">
      <use xlink:href="#BitstreamVeraSans-Roman-54"/>
     </g>
    </g>
   </g>
   <g id="matplotlib.axis_4"/>
   <g id="patch_12">
    <path d="
M444.964 256.454
Q491.663 257.089 538.363 257.724
L538.383 256.224
Q540.866 257.508 543.349 258.792
Q540.832 260.008 538.315 261.224
L538.336 259.724
Q491.636 259.089 444.937 258.454
L444.964 256.454
z
" style="fill:#808080;stroke:#808080;stroke-linecap:round;"/>
   </g>
   <g id="text_3">
    <!-- Convolve with -->
    <defs>
     <path id="BitstreamVeraSans-Roman-20"/>
     <path d="
M54.8906 33.0156
L54.8906 0
L45.9062 0
L45.9062 32.7188
Q45.9062 40.4844 42.875 44.3281
Q39.8438 48.1875 33.7969 48.1875
Q26.5156 48.1875 22.3125 43.5469
Q18.1094 38.9219 18.1094 30.9062
L18.1094 0
L9.07812 0
L9.07812 54.6875
L18.1094 54.6875
L18.1094 46.1875
Q21.3438 51.125 25.7031 53.5625
Q30.0781 56 35.7969 56
Q45.2188 56 50.0469 50.1719
Q54.8906 44.3438 54.8906 33.0156" id="BitstreamVeraSans-Roman-6e"/>
     <path d="
M9.42188 54.6875
L18.4062 54.6875
L18.4062 0
L9.42188 0
z

M9.42188 75.9844
L18.4062 75.9844
L18.4062 64.5938
L9.42188 64.5938
z
" id="BitstreamVeraSans-Roman-69"/>
     <path d="
M30.6094 48.3906
Q23.3906 48.3906 19.1875 42.75
Q14.9844 37.1094 14.9844 27.2969
Q14.9844 17.4844 19.1562 11.8438
Q23.3438 6.20312 30.6094 6.20312
Q37.7969 6.20312 41.9844 11.8594
Q46.1875 17.5312 46.1875 27.2969
Q46.1875 37.0156 41.9844 42.7031
Q37.7969 48.3906 30.6094 48.3906
M30.6094 56
Q42.3281 56 49.0156 48.375
Q55.7188 40.7656 55.7188 27.2969
Q55.7188 13.875 49.0156 6.21875
Q42.3281 -1.42188 30.6094 -1.42188
Q18.8438 -1.42188 12.1719 6.21875
Q5.51562 13.875 5.51562 27.2969
Q5.51562 40.7656 12.1719 48.375
Q18.8438 56 30.6094 56" id="BitstreamVeraSans-Roman-6f"/>
     <path d="
M9.42188 75.9844
L18.4062 75.9844
L18.4062 0
L9.42188 0
z
" id="BitstreamVeraSans-Roman-6c"/>
     <path d="
M56.2031 29.5938
L56.2031 25.2031
L14.8906 25.2031
Q15.4844 15.9219 20.4844 11.0625
Q25.4844 6.20312 34.4219 6.20312
Q39.5938 6.20312 44.4531 7.46875
Q49.3125 8.73438 54.1094 11.2812
L54.1094 2.78125
Q49.2656 0.734375 44.1875 -0.34375
Q39.1094 -1.42188 33.8906 -1.42188
Q20.7969 -1.42188 13.1562 6.1875
Q5.51562 13.8125 5.51562 26.8125
Q5.51562 40.2344 12.7656 48.1094
Q20.0156 56 32.3281 56
Q43.3594 56 49.7812 48.8906
Q56.2031 41.7969 56.2031 29.5938
M47.2188 32.2344
Q47.125 39.5938 43.0938 43.9844
Q39.0625 48.3906 32.4219 48.3906
Q24.9062 48.3906 20.3906 44.1406
Q15.875 39.8906 15.1875 32.1719
z
" id="BitstreamVeraSans-Roman-65"/>
     <path d="
M64.4062 67.2812
L64.4062 56.8906
Q59.4219 61.5312 53.7812 63.8125
Q48.1406 66.1094 41.7969 66.1094
Q29.2969 66.1094 22.6562 58.4688
Q16.0156 50.8281 16.0156 36.375
Q16.0156 21.9688 22.6562 14.3281
Q29.2969 6.6875 41.7969 6.6875
Q48.1406 6.6875 53.7812 8.98438
Q59.4219 11.2812 64.4062 15.9219
L64.4062 5.60938
Q59.2344 2.09375 53.4375 0.328125
Q47.6562 -1.42188 41.2188 -1.42188
Q24.6562 -1.42188 15.125 8.70312
Q5.60938 18.8438 5.60938 36.375
Q5.60938 53.9531 15.125 64.0781
Q24.6562 74.2188 41.2188 74.2188
Q47.75 74.2188 53.5312 72.4844
Q59.3281 70.75 64.4062 67.2812" id="BitstreamVeraSans-Roman-43"/>
     <path d="
M54.8906 33.0156
L54.8906 0
L45.9062 0
L45.9062 32.7188
Q45.9062 40.4844 42.875 44.3281
Q39.8438 48.1875 33.7969 48.1875
Q26.5156 48.1875 22.3125 43.5469
Q18.1094 38.9219 18.1094 30.9062
L18.1094 0
L9.07812 0
L9.07812 75.9844
L18.1094 75.9844
L18.1094 46.1875
Q21.3438 51.125 25.7031 53.5625
Q30.0781 56 35.7969 56
Q45.2188 56 50.0469 50.1719
Q54.8906 44.3438 54.8906 33.0156" id="BitstreamVeraSans-Roman-68"/>
     <path d="
M2.98438 54.6875
L12.5 54.6875
L29.5938 8.79688
L46.6875 54.6875
L56.2031 54.6875
L35.6875 0
L23.4844 0
z
" id="BitstreamVeraSans-Roman-76"/>
     <path d="
M4.20312 54.6875
L13.1875 54.6875
L24.4219 12.0156
L35.5938 54.6875
L46.1875 54.6875
L57.4219 12.0156
L68.6094 54.6875
L77.5938 54.6875
L63.2812 0
L52.6875 0
L40.9219 44.8281
L29.1094 0
L18.5 0
z
" id="BitstreamVeraSans-Roman-77"/>
     <path d="
M18.3125 70.2188
L18.3125 54.6875
L36.8125 54.6875
L36.8125 47.7031
L18.3125 47.7031
L18.3125 18.0156
Q18.3125 11.3281 20.1406 9.42188
Q21.9688 7.51562 27.5938 7.51562
L36.8125 7.51562
L36.8125 0
L27.5938 0
Q17.1875 0 13.2344 3.875
Q9.28125 7.76562 9.28125 18.0156
L9.28125 47.7031
L2.6875 47.7031
L2.6875 54.6875
L9.28125 54.6875
L9.28125 70.2188
z
" id="BitstreamVeraSans-Roman-74"/>
    </defs>
    <g transform="translate(336.487125 182.30175)scale(0.144 -0.144)">
     <use xlink:href="#BitstreamVeraSans-Roman-43"/>
     <use x="69.82421875" xlink:href="#BitstreamVeraSans-Roman-6f"/>
     <use x="131.005859375" xlink:href="#BitstreamVeraSans-Roman-6e"/>
     <use x="194.384765625" xlink:href="#BitstreamVeraSans-Roman-76"/>
     <use x="253.564453125" xlink:href="#BitstreamVeraSans-Roman-6f"/>
     <use x="314.74609375" xlink:href="#BitstreamVeraSans-Roman-6c"/>
     <use x="342.529296875" xlink:href="#BitstreamVeraSans-Roman-76"/>
     <use x="401.708984375" xlink:href="#BitstreamVeraSans-Roman-65"/>
     <use x="463.232421875" xlink:href="#BitstreamVeraSans-Roman-20"/>
     <use x="495.01953125" xlink:href="#BitstreamVeraSans-Roman-77"/>
     <use x="576.806640625" xlink:href="#BitstreamVeraSans-Roman-69"/>
     <use x="604.58984375" xlink:href="#BitstreamVeraSans-Roman-74"/>
     <use x="643.798828125" xlink:href="#BitstreamVeraSans-Roman-68"/>
    </g>
    <!-- no decision time -->
    <defs>
     <path d="
M45.4062 46.3906
L45.4062 75.9844
L54.3906 75.9844
L54.3906 0
L45.4062 0
L45.4062 8.20312
Q42.5781 3.32812 38.25 0.953125
Q33.9375 -1.42188 27.875 -1.42188
Q17.9688 -1.42188 11.7344 6.48438
Q5.51562 14.4062 5.51562 27.2969
Q5.51562 40.1875 11.7344 48.0938
Q17.9688 56 27.875 56
Q33.9375 56 38.25 53.625
Q42.5781 51.2656 45.4062 46.3906
M14.7969 27.2969
Q14.7969 17.3906 18.875 11.75
Q22.9531 6.10938 30.0781 6.10938
Q37.2031 6.10938 41.2969 11.75
Q45.4062 17.3906 45.4062 27.2969
Q45.4062 37.2031 41.2969 42.8438
Q37.2031 48.4844 30.0781 48.4844
Q22.9531 48.4844 18.875 42.8438
Q14.7969 37.2031 14.7969 27.2969" id="BitstreamVeraSans-Roman-64"/>
     <path d="
M44.2812 53.0781
L44.2812 44.5781
Q40.4844 46.5312 36.375 47.5
Q32.2812 48.4844 27.875 48.4844
Q21.1875 48.4844 17.8438 46.4375
Q14.5 44.3906 14.5 40.2812
Q14.5 37.1562 16.8906 35.375
Q19.2812 33.5938 26.5156 31.9844
L29.5938 31.2969
Q39.1562 29.25 43.1875 25.5156
Q47.2188 21.7812 47.2188 15.0938
Q47.2188 7.46875 41.1875 3.01562
Q35.1562 -1.42188 24.6094 -1.42188
Q20.2188 -1.42188 15.4531 -0.5625
Q10.6875 0.296875 5.42188 2
L5.42188 11.2812
Q10.4062 8.6875 15.2344 7.39062
Q20.0625 6.10938 24.8125 6.10938
Q31.1562 6.10938 34.5625 8.28125
Q37.9844 10.4531 37.9844 14.4062
Q37.9844 18.0625 35.5156 20.0156
Q33.0625 21.9688 24.7031 23.7812
L21.5781 24.5156
Q13.2344 26.2656 9.51562 29.9062
Q5.8125 33.5469 5.8125 39.8906
Q5.8125 47.6094 11.2812 51.7969
Q16.75 56 26.8125 56
Q31.7812 56 36.1719 55.2656
Q40.5781 54.5469 44.2812 53.0781" id="BitstreamVeraSans-Roman-73"/>
     <path d="
M48.7812 52.5938
L48.7812 44.1875
Q44.9688 46.2969 41.1406 47.3438
Q37.3125 48.3906 33.4062 48.3906
Q24.6562 48.3906 19.8125 42.8438
Q14.9844 37.3125 14.9844 27.2969
Q14.9844 17.2812 19.8125 11.7344
Q24.6562 6.20312 33.4062 6.20312
Q37.3125 6.20312 41.1406 7.25
Q44.9688 8.29688 48.7812 10.4062
L48.7812 2.09375
Q45.0156 0.34375 40.9844 -0.53125
Q36.9688 -1.42188 32.4219 -1.42188
Q20.0625 -1.42188 12.7812 6.34375
Q5.51562 14.1094 5.51562 27.2969
Q5.51562 40.6719 12.8594 48.3281
Q20.2188 56 33.0156 56
Q37.1562 56 41.1094 55.1406
Q45.0625 54.2969 48.7812 52.5938" id="BitstreamVeraSans-Roman-63"/>
     <path d="
M52 44.1875
Q55.375 50.25 60.0625 53.125
Q64.75 56 71.0938 56
Q79.6406 56 84.2812 50.0156
Q88.9219 44.0469 88.9219 33.0156
L88.9219 0
L79.8906 0
L79.8906 32.7188
Q79.8906 40.5781 77.0938 44.375
Q74.3125 48.1875 68.6094 48.1875
Q61.625 48.1875 57.5625 43.5469
Q53.5156 38.9219 53.5156 30.9062
L53.5156 0
L44.4844 0
L44.4844 32.7188
Q44.4844 40.625 41.7031 44.4062
Q38.9219 48.1875 33.1094 48.1875
Q26.2188 48.1875 22.1562 43.5312
Q18.1094 38.875 18.1094 30.9062
L18.1094 0
L9.07812 0
L9.07812 54.6875
L18.1094 54.6875
L18.1094 46.1875
Q21.1875 51.2188 25.4844 53.6094
Q29.7812 56 35.6875 56
Q41.6562 56 45.8281 52.9688
Q50 49.9531 52 44.1875" id="BitstreamVeraSans-Roman-6d"/>
    </defs>
    <g transform="translate(327.68625 198.4266)scale(0.144 -0.144)">
     <use xlink:href="#BitstreamVeraSans-Roman-6e"/>
     <use x="63.37890625" xlink:href="#BitstreamVeraSans-Roman-6f"/>
     <use x="124.560546875" xlink:href="#BitstreamVeraSans-Roman-20"/>
     <use x="156.34765625" xlink:href="#BitstreamVeraSans-Roman-64"/>
     <use x="219.82421875" xlink:href="#BitstreamVeraSans-Roman-65"/>
     <use x="281.34765625" xlink:href="#BitstreamVeraSans-Roman-63"/>
     <use x="336.328125" xlink:href="#BitstreamVeraSans-Roman-69"/>
     <use x="364.111328125" xlink:href="#BitstreamVeraSans-Roman-73"/>
     <use x="416.2109375" xlink:href="#BitstreamVeraSans-Roman-69"/>
     <use x="443.994140625" xlink:href="#BitstreamVeraSans-Roman-6f"/>
     <use x="505.17578125" xlink:href="#BitstreamVeraSans-Roman-6e"/>
     <use x="568.5546875" xlink:href="#BitstreamVeraSans-Roman-20"/>
     <use x="600.341796875" xlink:href="#BitstreamVeraSans-Roman-74"/>
     <use x="639.55078125" xlink:href="#BitstreamVeraSans-Roman-69"/>
     <use x="667.333984375" xlink:href="#BitstreamVeraSans-Roman-6d"/>
     <use x="764.74609375" xlink:href="#BitstreamVeraSans-Roman-65"/>
    </g>
   </g>
  </g>
  <g id="axes_3">
   <g id="patch_13">
    <path d="
M563.914 384.867
L823.114 384.867
L823.114 39.2666
L563.914 39.2666
z
" style="fill:#ffffff;"/>
   </g>
   <g id="line2d_16">
    <path clip-path="url(#pfe8e649188)" d="
M563.914 269.365
L567.37 269.365
L567.37 269.063
L570.826 269.063
L570.826 269.214
L574.282 269.214
L574.282 269.516
L577.738 269.516
L577.738 269.365
L581.194 269.365
L581.194 268.912
L584.65 268.912
L584.65 269.516
L588.106 269.516
L588.106 268.61
L591.562 268.61
L591.562 263.329
L595.018 263.329
L595.018 251.559
L598.474 251.559
L598.474 238.884
L601.93 238.884
L601.93 233.602
L605.386 233.602
L605.386 224.7
L608.842 224.7
L608.842 219.871
L612.298 219.871
L612.298 213.986
L615.754 213.986
L615.754 208.856
L619.21 208.856
L619.21 205.083
L622.666 205.083
L622.666 207.95
L626.122 207.95
L626.122 209.157
L629.578 209.157
L629.578 207.196
L633.034 207.196
L633.034 211.421
L636.49 211.421
L636.49 213.382
L639.946 213.382
L639.946 213.081
L643.402 213.081
L643.402 218.362
L646.858 218.362
L646.858 226.209
L650.314 226.209
L650.314 225.303
L653.77 225.303
L653.77 232.094
L657.226 232.094
L657.226 234.357
L660.682 234.357
L660.682 234.961
L664.138 234.961
L664.138 244.769
L667.594 244.769
L667.594 244.165
L671.05 244.165
L671.05 245.976
L674.506 245.976
L674.506 249.447
L677.962 249.447
L677.962 253.521
L681.418 253.521
L681.418 257.897
L684.874 257.897
L684.874 257.444
L688.33 257.444
L688.33 257.897
L691.786 257.897
L691.786 260.009
L695.242 260.009
L695.242 261.066
L698.698 261.066
L698.698 263.178
L702.154 263.178
L702.154 263.782
L705.61 263.782
L705.61 265.743
L709.066 265.743
L709.066 265.592
L712.522 265.592
L712.522 266.347
L715.978 266.347
L715.978 266.498
L719.434 266.498
L719.434 265.894
L722.89 265.894
L722.89 267.252
L726.346 267.252
L726.346 267.403
L729.802 267.403
L729.802 268.158
L733.258 268.158
L733.258 269.214
L736.714 269.214
L736.714 267.856
L740.17 267.856
L740.17 268.61
L743.626 268.61
L743.626 268.912
L747.082 268.912
L747.082 269.214
L753.994 269.214
L753.994 268.761
L757.45 268.761
L757.45 269.214
L760.906 269.214
L760.906 268.912
L764.362 268.912
L764.362 269.214
L771.274 269.214
L771.274 269.063
L774.73 269.063
L774.73 269.667
L778.186 269.667
L778.186 269.214
L785.098 269.214
L785.098 269.365
L792.01 269.365
L792.01 269.516
L795.466 269.516
L795.466 269.063
L798.922 269.063
L798.922 269.516
L802.378 269.516
L802.378 269.365
L816.202 269.365
L816.202 269.516
L819.658 269.516
L819.658 269.214
L826.57 269.214
L826.57 269.667
L830.026 269.667
L830.026 269.214
L833.482 269.214
L833.482 269.667
L836.938 269.667
L836.938 268.912
L840 268.912
L840 268.912" style="fill:none;stroke:#0000ff;stroke-linecap:square;"/>
   </g>
   <g id="line2d_17">
    <path clip-path="url(#pfe8e649188)" d="
M563.914 269.364
L567.37 269.364
L570.826 269.364
L574.282 269.364
L577.738 269.364
L581.194 269.364
L584.65 269.364
L588.106 269.364
L591.562 269.364
L595.018 260.084
L598.474 244.599
L601.93 231.258
L605.386 221.049
L608.842 213.66
L612.298 208.652
L615.754 205.631
L619.21 204.262
L622.666 204.267
L626.122 205.403
L629.578 207.452
L633.034 210.217
L636.49 213.527
L639.946 217.228
L643.402 221.182
L646.858 225.265
L650.314 229.375
L653.77 233.424
L657.226 237.338
L660.682 241.064
L664.138 244.557
L667.594 247.79
L671.05 250.744
L674.506 253.414
L677.962 255.8
L681.418 257.911
L684.874 259.761
L688.33 261.366
L691.786 262.746
L695.242 263.924
L698.698 264.919
L702.154 265.755
L705.61 266.451
L709.066 267.026
L712.522 267.498
L715.978 267.883
L719.434 268.194
L722.89 268.445
L726.346 268.646
L729.802 268.806
L733.258 268.932
L736.714 269.031
L740.17 269.109
L743.626 269.169
L747.082 269.216
L750.538 269.252
L753.994 269.28
L757.45 269.301
L760.906 269.317
L764.362 269.329
L767.818 269.338
L771.274 269.345
L774.73 269.35
L778.186 269.354
L781.642 269.357
L785.098 269.359
L788.554 269.36
L792.01 269.361
L795.466 269.362
L798.922 269.363
L802.378 269.363
L805.834 269.363
L809.29 269.364
L812.746 269.364
L816.202 269.364
L819.658 269.364
L823.114 269.364
L826.57 269.364" style="fill:none;stroke:#0000ff;stroke-linecap:square;stroke-width:3;"/>
   </g>
   <g id="line2d_18">
    <path clip-path="url(#pfe8e649188)" d="
M563.914 269.817
L567.37 269.817
L567.37 269.817
L567.37 269.817
L570.826 269.817
L570.826 270.119
L574.282 270.119
L574.282 269.968
L577.738 269.968
L577.738 270.119
L584.65 270.119
L584.65 269.667
L588.106 269.667
L588.106 270.421
L591.562 270.421
L591.562 270.27
L595.018 270.27
L595.018 273.137
L598.474 273.137
L598.474 273.741
L601.93 273.741
L601.93 275.25
L605.386 275.25
L605.386 278.419
L608.842 278.419
L608.842 278.268
L612.298 278.268
L612.298 280.531
L615.754 280.531
L615.754 278.569
L619.21 278.569
L619.21 278.72
L622.666 278.72
L622.666 279.475
L626.122 279.475
L626.122 280.682
L629.578 280.682
L629.578 279.475
L633.034 279.475
L633.034 279.173
L636.49 279.173
L636.49 280.38
L639.946 280.38
L639.946 279.173
L643.402 279.173
L643.402 280.833
L646.858 280.833
L646.858 277.815
L650.314 277.815
L650.314 276.759
L653.77 276.759
L653.77 276.91
L657.226 276.91
L657.226 276.004
L660.682 276.004
L660.682 276.306
L664.138 276.306
L664.138 275.401
L667.594 275.401
L667.594 275.853
L671.05 275.853
L671.05 275.25
L674.506 275.25
L674.506 273.288
L677.962 273.288
L677.962 274.948
L681.418 274.948
L681.418 271.779
L684.874 271.779
L684.874 271.477
L688.33 271.477
L688.33 272.232
L691.786 272.232
L691.786 272.081
L698.698 272.081
L698.698 271.628
L705.61 271.628
L705.61 270.723
L712.522 270.723
L712.522 270.572
L715.978 270.572
L715.978 270.421
L719.434 270.421
L719.434 270.119
L726.346 270.119
L726.346 270.572
L729.802 270.572
L729.802 270.119
L733.258 270.119
L733.258 270.421
L740.17 270.421
L740.17 270.27
L743.626 270.27
L743.626 269.817
L747.082 269.817
L747.082 270.27
L750.538 270.27
L750.538 270.421
L753.994 270.421
L753.994 269.817
L757.45 269.817
L757.45 270.119
L764.362 270.119
L764.362 269.817
L771.274 269.817
L771.274 270.421
L774.73 270.421
L774.73 269.968
L778.186 269.968
L778.186 270.27
L781.642 270.27
L781.642 270.119
L785.098 270.119
L785.098 269.968
L795.466 269.968
L795.466 270.421
L798.922 270.421
L798.922 269.817
L802.378 269.817
L802.378 269.968
L805.834 269.968
L805.834 270.27
L809.29 270.27
L809.29 269.968
L812.746 269.968
L812.746 269.667
L816.202 269.667
L816.202 270.27
L819.658 270.27
L819.658 269.667
L823.114 269.667
L823.114 269.817
L830.026 269.817
L830.026 269.968
L833.482 269.968
L833.482 270.27
L836.938 270.27
L836.938 270.119
L840 270.119
L840 270.119" style="fill:none;stroke:#ff0000;stroke-linecap:square;"/>
   </g>
   <g id="line2d_19">
    <path clip-path="url(#pfe8e649188)" d="
M563.914 269.969
L567.37 269.969
L570.826 269.969
L574.282 269.969
L577.738 269.969
L581.194 269.969
L584.65 269.969
L588.106 269.969
L591.562 269.969
L595.018 271.655
L598.474 274.739
L601.93 277.558
L605.386 279.842
L608.842 281.604
L612.298 282.895
L615.754 283.773
L619.21 284.292
L622.666 284.5
L626.122 284.441
L629.578 284.157
L633.034 283.69
L636.49 283.075
L639.946 282.348
L643.402 281.538
L646.858 280.676
L650.314 279.786
L653.77 278.89
L657.226 278.008
L660.682 277.153
L664.138 276.338
L667.594 275.573
L671.05 274.863
L674.506 274.213
L677.962 273.623
L681.418 273.094
L684.874 272.623
L688.33 272.209
L691.786 271.848
L695.242 271.536
L698.698 271.267
L702.154 271.039
L705.61 270.845
L709.066 270.683
L712.522 270.548
L715.978 270.436
L719.434 270.343
L722.89 270.268
L726.346 270.206
L729.802 270.156
L733.258 270.116
L736.714 270.084
L740.17 270.059
L743.626 270.039
L747.082 270.023
L750.538 270.01
L753.994 270.001
L757.45 269.993
L760.906 269.987
L764.362 269.983
L767.818 269.979
L771.274 269.977
L774.73 269.975
L778.186 269.973
L781.642 269.972
L785.098 269.971
L788.554 269.971
L792.01 269.97
L795.466 269.97
L798.922 269.97
L802.378 269.97
L805.834 269.969
L809.29 269.969
L812.746 269.969
L816.202 269.969
L819.658 269.969
L823.114 269.969
L826.57 269.969" style="fill:none;stroke:#ff0000;stroke-linecap:square;stroke-width:3;"/>
   </g>
   <g id="line2d_20">
    <path clip-path="url(#pfe8e649188)" d="
M563.914 269.667
L823.114 269.667" style="fill:none;stroke:#000000;stroke-linecap:square;"/>
   </g>
   <g id="patch_14">
    <path d="
M563.914 39.2666
L823.114 39.2666" style="fill:none;stroke:#000000;stroke-linecap:square;stroke-linejoin:miter;"/>
   </g>
   <g id="patch_15">
    <path d="
M823.114 384.867
L823.114 39.2666" style="fill:none;stroke:#000000;stroke-linecap:square;stroke-linejoin:miter;"/>
   </g>
   <g id="patch_16">
    <path d="
M563.914 384.867
L823.114 384.867" style="fill:none;stroke:#000000;stroke-linecap:square;stroke-linejoin:miter;"/>
   </g>
   <g id="patch_17">
    <path d="
M563.914 384.867
L563.914 39.2666" style="fill:none;stroke:#000000;stroke-linecap:square;stroke-linejoin:miter;"/>
   </g>
   <g id="matplotlib.axis_5">
    <g id="xtick_6">
     <g id="line2d_21">
      <g>
       <use style="stroke:#000000;stroke-width:0.5;" x="563.91375" xlink:href="#m93b0483c22" y="384.8666"/>
      </g>
     </g>
     <g id="line2d_22">
      <g>
       <use style="stroke:#000000;stroke-width:0.5;" x="563.91375" xlink:href="#m741efc42ff" y="39.2666"/>
      </g>
     </g>
     <g id="text_4">
      <!-- 0.0 -->
      <defs>
       <path d="
M31.7812 66.4062
Q24.1719 66.4062 20.3281 58.9062
Q16.5 51.4219 16.5 36.375
Q16.5 21.3906 20.3281 13.8906
Q24.1719 6.39062 31.7812 6.39062
Q39.4531 6.39062 43.2812 13.8906
Q47.125 21.3906 47.125 36.375
Q47.125 51.4219 43.2812 58.9062
Q39.4531 66.4062 31.7812 66.4062
M31.7812 74.2188
Q44.0469 74.2188 50.5156 64.5156
Q56.9844 54.8281 56.9844 36.375
Q56.9844 17.9688 50.5156 8.26562
Q44.0469 -1.42188 31.7812 -1.42188
Q19.5312 -1.42188 13.0625 8.26562
Q6.59375 17.9688 6.59375 36.375
Q6.59375 54.8281 13.0625 64.5156
Q19.5312 74.2188 31.7812 74.2188" id="BitstreamVeraSans-Roman-30"/>
       <path d="
M10.6875 12.4062
L21 12.4062
L21 0
L10.6875 0
z
" id="BitstreamVeraSans-Roman-2e"/>
      </defs>
      <g transform="translate(555.1659375 397.984725)scale(0.12 -0.12)">
       <use xlink:href="#BitstreamVeraSans-Roman-30"/>
       <use x="63.623046875" xlink:href="#BitstreamVeraSans-Roman-2e"/>
       <use x="95.41015625" xlink:href="#BitstreamVeraSans-Roman-30"/>
      </g>
     </g>
    </g>
    <g id="xtick_7">
     <g id="line2d_23">
      <g>
       <use style="stroke:#000000;stroke-width:0.5;" x="607.11375" xlink:href="#m93b0483c22" y="384.8666"/>
      </g>
     </g>
     <g id="line2d_24">
      <g>
       <use style="stroke:#000000;stroke-width:0.5;" x="607.11375" xlink:href="#m741efc42ff" y="39.2666"/>
      </g>
     </g>
     <g id="text_5">
      <!-- 0.5 -->
      <defs>
       <path d="
M10.7969 72.9062
L49.5156 72.9062
L49.5156 64.5938
L19.8281 64.5938
L19.8281 46.7344
Q21.9688 47.4688 24.1094 47.8281
Q26.2656 48.1875 28.4219 48.1875
Q40.625 48.1875 47.75 41.5
Q54.8906 34.8125 54.8906 23.3906
Q54.8906 11.625 47.5625 5.09375
Q40.2344 -1.42188 26.9062 -1.42188
Q22.3125 -1.42188 17.5469 -0.640625
Q12.7969 0.140625 7.71875 1.70312
L7.71875 11.625
Q12.1094 9.23438 16.7969 8.0625
Q21.4844 6.89062 26.7031 6.89062
Q35.1562 6.89062 40.0781 11.3281
Q45.0156 15.7656 45.0156 23.3906
Q45.0156 31 40.0781 35.4375
Q35.1562 39.8906 26.7031 39.8906
Q22.75 39.8906 18.8125 39.0156
Q14.8906 38.1406 10.7969 36.2812
z
" id="BitstreamVeraSans-Roman-35"/>
      </defs>
      <g transform="translate(598.4915625 397.984725)scale(0.12 -0.12)">
       <use xlink:href="#BitstreamVeraSans-Roman-30"/>
       <use x="63.623046875" xlink:href="#BitstreamVeraSans-Roman-2e"/>
       <use x="95.41015625" xlink:href="#BitstreamVeraSans-Roman-35"/>
      </g>
     </g>
    </g>
    <g id="xtick_8">
     <g id="line2d_25">
      <g>
       <use style="stroke:#000000;stroke-width:0.5;" x="650.31375" xlink:href="#m93b0483c22" y="384.8666"/>
      </g>
     </g>
     <g id="line2d_26">
      <g>
       <use style="stroke:#000000;stroke-width:0.5;" x="650.31375" xlink:href="#m741efc42ff" y="39.2666"/>
      </g>
     </g>
     <g id="text_6">
      <!-- 1.0 -->
      <defs>
       <path d="
M12.4062 8.29688
L28.5156 8.29688
L28.5156 63.9219
L10.9844 60.4062
L10.9844 69.3906
L28.4219 72.9062
L38.2812 72.9062
L38.2812 8.29688
L54.3906 8.29688
L54.3906 0
L12.4062 0
z
" id="BitstreamVeraSans-Roman-31"/>
      </defs>
      <g transform="translate(641.829375 397.984725)scale(0.12 -0.12)">
       <use xlink:href="#BitstreamVeraSans-Roman-31"/>
       <use x="63.623046875" xlink:href="#BitstreamVeraSans-Roman-2e"/>
       <use x="95.41015625" xlink:href="#BitstreamVeraSans-Roman-30"/>
      </g>
     </g>
    </g>
    <g id="xtick_9">
     <g id="line2d_27">
      <g>
       <use style="stroke:#000000;stroke-width:0.5;" x="693.51375" xlink:href="#m93b0483c22" y="384.8666"/>
      </g>
     </g>
     <g id="line2d_28">
      <g>
       <use style="stroke:#000000;stroke-width:0.5;" x="693.51375" xlink:href="#m741efc42ff" y="39.2666"/>
      </g>
     </g>
     <g id="text_7">
      <!-- 1.5 -->
      <g transform="translate(685.155 397.984725)scale(0.12 -0.12)">
       <use xlink:href="#BitstreamVeraSans-Roman-31"/>
       <use x="63.623046875" xlink:href="#BitstreamVeraSans-Roman-2e"/>
       <use x="95.41015625" xlink:href="#BitstreamVeraSans-Roman-35"/>
      </g>
     </g>
    </g>
    <g id="xtick_10">
     <g id="line2d_29">
      <g>
       <use style="stroke:#000000;stroke-width:0.5;" x="736.71375" xlink:href="#m93b0483c22" y="384.8666"/>
      </g>
     </g>
     <g id="line2d_30">
      <g>
       <use style="stroke:#000000;stroke-width:0.5;" x="736.71375" xlink:href="#m741efc42ff" y="39.2666"/>
      </g>
     </g>
     <g id="text_8">
      <!-- 2.0 -->
      <defs>
       <path d="
M19.1875 8.29688
L53.6094 8.29688
L53.6094 0
L7.32812 0
L7.32812 8.29688
Q12.9375 14.1094 22.625 23.8906
Q32.3281 33.6875 34.8125 36.5312
Q39.5469 41.8438 41.4219 45.5312
Q43.3125 49.2188 43.3125 52.7812
Q43.3125 58.5938 39.2344 62.25
Q35.1562 65.9219 28.6094 65.9219
Q23.9688 65.9219 18.8125 64.3125
Q13.6719 62.7031 7.8125 59.4219
L7.8125 69.3906
Q13.7656 71.7812 18.9375 73
Q24.125 74.2188 28.4219 74.2188
Q39.75 74.2188 46.4844 68.5469
Q53.2188 62.8906 53.2188 53.4219
Q53.2188 48.9219 51.5312 44.8906
Q49.8594 40.875 45.4062 35.4062
Q44.1875 33.9844 37.6406 27.2188
Q31.1094 20.4531 19.1875 8.29688" id="BitstreamVeraSans-Roman-32"/>
      </defs>
      <g transform="translate(728.01 397.984725)scale(0.12 -0.12)">
       <use xlink:href="#BitstreamVeraSans-Roman-32"/>
       <use x="63.623046875" xlink:href="#BitstreamVeraSans-Roman-2e"/>
       <use x="95.41015625" xlink:href="#BitstreamVeraSans-Roman-30"/>
      </g>
     </g>
    </g>
    <g id="xtick_11">
     <g id="line2d_31">
      <g>
       <use style="stroke:#000000;stroke-width:0.5;" x="779.91375" xlink:href="#m93b0483c22" y="384.8666"/>
      </g>
     </g>
     <g id="line2d_32">
      <g>
       <use style="stroke:#000000;stroke-width:0.5;" x="779.91375" xlink:href="#m741efc42ff" y="39.2666"/>
      </g>
     </g>
     <g id="text_9">
      <!-- 2.5 -->
      <g transform="translate(771.335625 397.984725)scale(0.12 -0.12)">
       <use xlink:href="#BitstreamVeraSans-Roman-32"/>
       <use x="63.623046875" xlink:href="#BitstreamVeraSans-Roman-2e"/>
       <use x="95.41015625" xlink:href="#BitstreamVeraSans-Roman-35"/>
      </g>
     </g>
    </g>
    <g id="xtick_12">
     <g id="line2d_33">
      <g>
       <use style="stroke:#000000;stroke-width:0.5;" x="823.11375" xlink:href="#m93b0483c22" y="384.8666"/>
      </g>
     </g>
     <g id="line2d_34">
      <g>
       <use style="stroke:#000000;stroke-width:0.5;" x="823.11375" xlink:href="#m741efc42ff" y="39.2666"/>
      </g>
     </g>
     <g id="text_10">
      <!-- 3.0 -->
      <defs>
       <path d="
M40.5781 39.3125
Q47.6562 37.7969 51.625 33
Q55.6094 28.2188 55.6094 21.1875
Q55.6094 10.4062 48.1875 4.48438
Q40.7656 -1.42188 27.0938 -1.42188
Q22.5156 -1.42188 17.6562 -0.515625
Q12.7969 0.390625 7.625 2.20312
L7.625 11.7188
Q11.7188 9.32812 16.5938 8.10938
Q21.4844 6.89062 26.8125 6.89062
Q36.0781 6.89062 40.9375 10.5469
Q45.7969 14.2031 45.7969 21.1875
Q45.7969 27.6406 41.2812 31.2656
Q36.7656 34.9062 28.7188 34.9062
L20.2188 34.9062
L20.2188 43.0156
L29.1094 43.0156
Q36.375 43.0156 40.2344 45.9219
Q44.0938 48.8281 44.0938 54.2969
Q44.0938 59.9062 40.1094 62.9062
Q36.1406 65.9219 28.7188 65.9219
Q24.6562 65.9219 20.0156 65.0312
Q15.375 64.1562 9.8125 62.3125
L9.8125 71.0938
Q15.4375 72.6562 20.3438 73.4375
Q25.25 74.2188 29.5938 74.2188
Q40.8281 74.2188 47.3594 69.1094
Q53.9062 64.0156 53.9062 55.3281
Q53.9062 49.2656 50.4375 45.0938
Q46.9688 40.9219 40.5781 39.3125" id="BitstreamVeraSans-Roman-33"/>
      </defs>
      <g transform="translate(814.4278125 397.984725)scale(0.12 -0.12)">
       <use xlink:href="#BitstreamVeraSans-Roman-33"/>
       <use x="63.623046875" xlink:href="#BitstreamVeraSans-Roman-2e"/>
       <use x="95.41015625" xlink:href="#BitstreamVeraSans-Roman-30"/>
      </g>
     </g>
    </g>
    <g id="text_11">
     <!-- T [s] -->
     <defs>
      <path d="
M8.59375 75.9844
L29.2969 75.9844
L29.2969 69
L17.5781 69
L17.5781 -6.20312
L29.2969 -6.20312
L29.2969 -13.1875
L8.59375 -13.1875
z
" id="BitstreamVeraSans-Roman-5b"/>
      <path d="
M30.4219 75.9844
L30.4219 -13.1875
L9.71875 -13.1875
L9.71875 -6.20312
L21.3906 -6.20312
L21.3906 69
L9.71875 69
L9.71875 75.9844
z
" id="BitstreamVeraSans-Roman-5d"/>
     </defs>
     <g transform="translate(680.6325 414.598475)scale(0.12 -0.12)">
      <use xlink:href="#BitstreamVeraSans-Roman-54"/>
      <use x="61.083984375" xlink:href="#BitstreamVeraSans-Roman-20"/>
      <use x="92.87109375" xlink:href="#BitstreamVeraSans-Roman-5b"/>
      <use x="131.884765625" xlink:href="#BitstreamVeraSans-Roman-73"/>
      <use x="183.984375" xlink:href="#BitstreamVeraSans-Roman-5d"/>
     </g>
    </g>
   </g>
   <g id="matplotlib.axis_6">
    <g id="ytick_1">
     <g id="line2d_35">
      <defs>
       <path d="
M0 0
L4 0" id="m728421d6d4" style="stroke:#000000;stroke-width:0.5;"/>
      </defs>
      <g>
       <use style="stroke:#000000;stroke-width:0.5;" x="563.91375" xlink:href="#m728421d6d4" y="384.8666"/>
      </g>
     </g>
     <g id="line2d_36">
      <defs>
       <path d="
M0 0
L-4 0" id="mcb0005524f" style="stroke:#000000;stroke-width:0.5;"/>
      </defs>
      <g>
       <use style="stroke:#000000;stroke-width:0.5;" x="823.11375" xlink:href="#mcb0005524f" y="384.8666"/>
      </g>
     </g>
     <g id="text_12">
      <!-- −2 -->
      <defs>
       <path d="
M10.5938 35.5
L73.1875 35.5
L73.1875 27.2031
L10.5938 27.2031
z
" id="BitstreamVeraSans-Roman-2212"/>
      </defs>
      <g transform="translate(544.69625 388.17785)scale(0.12 -0.12)">
       <use xlink:href="#BitstreamVeraSans-Roman-2212"/>
       <use x="83.7890625" xlink:href="#BitstreamVeraSans-Roman-32"/>
      </g>
     </g>
    </g>
    <g id="ytick_2">
     <g id="line2d_37">
      <g>
       <use style="stroke:#000000;stroke-width:0.5;" x="563.91375" xlink:href="#m728421d6d4" y="327.2666"/>
      </g>
     </g>
     <g id="line2d_38">
      <g>
       <use style="stroke:#000000;stroke-width:0.5;" x="823.11375" xlink:href="#mcb0005524f" y="327.2666"/>
      </g>
     </g>
     <g id="text_13">
      <!-- −1 -->
      <g transform="translate(544.6025 330.57785)scale(0.12 -0.12)">
       <use xlink:href="#BitstreamVeraSans-Roman-2212"/>
       <use x="83.7890625" xlink:href="#BitstreamVeraSans-Roman-31"/>
      </g>
     </g>
    </g>
    <g id="ytick_3">
     <g id="line2d_39">
      <g>
       <use style="stroke:#000000;stroke-width:0.5;" x="563.91375" xlink:href="#m728421d6d4" y="269.6666"/>
      </g>
     </g>
     <g id="line2d_40">
      <g>
       <use style="stroke:#000000;stroke-width:0.5;" x="823.11375" xlink:href="#mcb0005524f" y="269.6666"/>
      </g>
     </g>
     <g id="text_14">
      <!-- 0 -->
      <g transform="translate(553.866875 272.97785)scale(0.12 -0.12)">
       <use xlink:href="#BitstreamVeraSans-Roman-30"/>
      </g>
     </g>
    </g>
    <g id="ytick_4">
     <g id="line2d_41">
      <g>
       <use style="stroke:#000000;stroke-width:0.5;" x="563.91375" xlink:href="#m728421d6d4" y="212.0666"/>
      </g>
     </g>
     <g id="line2d_42">
      <g>
       <use style="stroke:#000000;stroke-width:0.5;" x="823.11375" xlink:href="#mcb0005524f" y="212.0666"/>
      </g>
     </g>
     <g id="text_15">
      <!-- 1 -->
      <g transform="translate(554.705 215.37785)scale(0.12 -0.12)">
       <use xlink:href="#BitstreamVeraSans-Roman-31"/>
      </g>
     </g>
    </g>
    <g id="ytick_5">
     <g id="line2d_43">
      <g>
       <use style="stroke:#000000;stroke-width:0.5;" x="563.91375" xlink:href="#m728421d6d4" y="154.4666"/>
      </g>
     </g>
     <g id="line2d_44">
      <g>
       <use style="stroke:#000000;stroke-width:0.5;" x="823.11375" xlink:href="#mcb0005524f" y="154.4666"/>
      </g>
     </g>
     <g id="text_16">
      <!-- 2 -->
      <g transform="translate(554.36 157.77785)scale(0.12 -0.12)">
       <use xlink:href="#BitstreamVeraSans-Roman-32"/>
      </g>
     </g>
    </g>
    <g id="ytick_6">
     <g id="line2d_45">
      <g>
       <use style="stroke:#000000;stroke-width:0.5;" x="563.91375" xlink:href="#m728421d6d4" y="96.8666"/>
      </g>
     </g>
     <g id="line2d_46">
      <g>
       <use style="stroke:#000000;stroke-width:0.5;" x="823.11375" xlink:href="#mcb0005524f" y="96.8666"/>
      </g>
     </g>
     <g id="text_17">
      <!-- 3 -->
      <g transform="translate(554.155625 100.17785)scale(0.12 -0.12)">
       <use xlink:href="#BitstreamVeraSans-Roman-33"/>
      </g>
     </g>
    </g>
    <g id="ytick_7">
     <g id="line2d_47">
      <g>
       <use style="stroke:#000000;stroke-width:0.5;" x="563.91375" xlink:href="#m728421d6d4" y="39.2666"/>
      </g>
     </g>
     <g id="line2d_48">
      <g>
       <use style="stroke:#000000;stroke-width:0.5;" x="823.11375" xlink:href="#mcb0005524f" y="39.2666"/>
      </g>
     </g>
     <g id="text_18">
      <!-- 4 -->
      <defs>
       <path d="
M37.7969 64.3125
L12.8906 25.3906
L37.7969 25.3906
z

M35.2031 72.9062
L47.6094 72.9062
L47.6094 25.3906
L58.0156 25.3906
L58.0156 17.1875
L47.6094 17.1875
L47.6094 0
L37.7969 0
L37.7969 17.1875
L4.89062 17.1875
L4.89062 26.7031
z
" id="BitstreamVeraSans-Roman-34"/>
      </defs>
      <g transform="translate(553.53875 42.57785)scale(0.12 -0.12)">
       <use xlink:href="#BitstreamVeraSans-Roman-34"/>
      </g>
     </g>
    </g>
    <g id="text_19">
     <!-- RT dist -->
     <defs>
      <path d="
M44.3906 34.1875
Q47.5625 33.1094 50.5625 29.5938
Q53.5625 26.0781 56.5938 19.9219
L66.6094 0
L56 0
L46.6875 18.7031
Q43.0625 26.0312 39.6719 28.4219
Q36.2812 30.8125 30.4219 30.8125
L19.6719 30.8125
L19.6719 0
L9.8125 0
L9.8125 72.9062
L32.0781 72.9062
Q44.5781 72.9062 50.7344 67.6719
Q56.8906 62.4531 56.8906 51.9062
Q56.8906 45.0156 53.6875 40.4688
Q50.4844 35.9375 44.3906 34.1875
M19.6719 64.7969
L19.6719 38.9219
L32.0781 38.9219
Q39.2031 38.9219 42.8438 42.2188
Q46.4844 45.5156 46.4844 51.9062
Q46.4844 58.2969 42.8438 61.5469
Q39.2031 64.7969 32.0781 64.7969
z
" id="BitstreamVeraSans-Roman-52"/>
     </defs>
     <g transform="translate(537.106875 232.1825375)rotate(-90.0)scale(0.12 -0.12)">
      <use xlink:href="#BitstreamVeraSans-Roman-52"/>
      <use x="62.232421875" xlink:href="#BitstreamVeraSans-Roman-54"/>
      <use x="123.31640625" xlink:href="#BitstreamVeraSans-Roman-20"/>
      <use x="155.103515625" xlink:href="#BitstreamVeraSans-Roman-64"/>
      <use x="218.580078125" xlink:href="#BitstreamVeraSans-Roman-69"/>
      <use x="246.36328125" xlink:href="#BitstreamVeraSans-Roman-73"/>
      <use x="298.462890625" xlink:href="#BitstreamVeraSans-Roman-74"/>
     </g>
    </g>
   </g>
   <g id="text_20">
    <!-- Response time -->
    <defs>
     <path d="
M18.1094 8.20312
L18.1094 -20.7969
L9.07812 -20.7969
L9.07812 54.6875
L18.1094 54.6875
L18.1094 46.3906
Q20.9531 51.2656 25.2656 53.625
Q29.5938 56 35.5938 56
Q45.5625 56 51.7812 48.0938
Q58.0156 40.1875 58.0156 27.2969
Q58.0156 14.4062 51.7812 6.48438
Q45.5625 -1.42188 35.5938 -1.42188
Q29.5938 -1.42188 25.2656 0.953125
Q20.9531 3.32812 18.1094 8.20312
M48.6875 27.2969
Q48.6875 37.2031 44.6094 42.8438
Q40.5312 48.4844 33.4062 48.4844
Q26.2656 48.4844 22.1875 42.8438
Q18.1094 37.2031 18.1094 27.2969
Q18.1094 17.3906 22.1875 11.75
Q26.2656 6.10938 33.4062 6.10938
Q40.5312 6.10938 44.6094 11.75
Q48.6875 17.3906 48.6875 27.2969" id="BitstreamVeraSans-Roman-70"/>
    </defs>
    <g transform="translate(640.7625 34.2666)scale(0.144 -0.144)">
     <use xlink:href="#BitstreamVeraSans-Roman-52"/>
     <use x="64.982421875" xlink:href="#BitstreamVeraSans-Roman-65"/>
     <use x="126.505859375" xlink:href="#BitstreamVeraSans-Roman-73"/>
     <use x="178.60546875" xlink:href="#BitstreamVeraSans-Roman-70"/>
     <use x="242.08203125" xlink:href="#BitstreamVeraSans-Roman-6f"/>
     <use x="303.263671875" xlink:href="#BitstreamVeraSans-Roman-6e"/>
     <use x="366.642578125" xlink:href="#BitstreamVeraSans-Roman-73"/>
     <use x="418.7421875" xlink:href="#BitstreamVeraSans-Roman-65"/>
     <use x="480.265625" xlink:href="#BitstreamVeraSans-Roman-20"/>
     <use x="512.052734375" xlink:href="#BitstreamVeraSans-Roman-74"/>
     <use x="551.26171875" xlink:href="#BitstreamVeraSans-Roman-69"/>
     <use x="579.044921875" xlink:href="#BitstreamVeraSans-Roman-6d"/>
     <use x="676.45703125" xlink:href="#BitstreamVeraSans-Roman-65"/>
    </g>
   </g>
  </g>
  <g id="axes_4">
   <g id="patch_18">
    <path d="
M45.5138 212.067
L278.794 212.067
L278.794 39.2666
L45.5138 39.2666
z
" style="fill:#ffffff;"/>
   </g>
   <g id="line2d_49">
    <path clip-path="url(#pf7ea89552b)" d="
M45.5138 212.067
L45.5138 197.354
L50.1793 197.354
L50.1793 124.358
L54.8449 124.358
L54.8449 88.0301
L59.5106 88.0301
L59.5106 98.2156
L64.1762 98.2156
L64.1762 115.191
L68.8418 115.191
L68.8418 131.375
L73.5074 131.375
L73.5074 143.145
L78.173 143.145
L78.173 152.878
L82.8385 152.878
L82.8385 162.158
L87.5041 162.158
L87.5041 173.814
L92.1697 173.814
L92.1697 180.831
L96.8354 180.831
L96.8354 185.245
L101.501 185.245
L101.501 190.224
L106.167 190.224
L106.167 194.751
L110.832 194.751
L110.832 196.449
L115.498 196.449
L115.498 199.844
L120.163 199.844
L120.163 201.089
L124.829 201.089
L124.829 203.126
L129.495 203.126
L129.495 205.276
L134.16 205.276
L134.16 206.521
L138.826 206.521
L138.826 206.861
L143.491 206.861
L143.491 208.671
L148.157 208.671
L148.157 209.464
L152.823 209.464
L152.823 209.011
L157.488 209.011
L157.488 209.35
L162.154 209.35
L162.154 210.482
L166.819 210.482
L166.819 211.048
L171.485 211.048
L171.485 210.822
L176.151 210.822
L176.151 211.048
L180.816 211.048
L180.816 210.709
L185.482 210.709
L185.482 211.614
L190.147 211.614
L190.147 211.501
L194.813 211.501
L194.813 211.614
L199.479 211.614
L199.479 211.727
L204.144 211.727
L204.144 211.274
L208.81 211.274
L208.81 211.953
L213.475 211.953
L213.475 211.84
L218.141 211.84
L218.141 211.953
L227.472 211.953
L227.472 212.067
L278.794 212.067
L278.794 211.953
L283.459 211.953
L283.459 212.067
L596.055 212.067
L596.055 212.067" style="fill:none;stroke:#0000ff;stroke-linecap:square;"/>
   </g>
   <g id="line2d_50">
    <path clip-path="url(#pf7ea89552b)" d="
M45.5138 212.067
L50.1793 119.37
L54.8449 56.4677
L59.5106 75.4898
L64.1762 103.136
L68.8418 126.789
L73.5074 145.558
L78.173 160.2
L82.8385 171.584
L87.5041 180.504
L92.1697 187.506
L96.8354 192.969
L101.501 197.235
L106.167 200.579
L110.832 203.209
L115.498 205.262
L120.163 206.848
L124.829 208.088
L129.495 209.043
L134.16 209.78
L138.826 210.347
L143.491 210.779
L148.157 211.109
L152.823 211.358
L157.488 211.545
L162.154 211.686
L166.819 211.79
L171.485 211.868
L176.151 211.925
L180.816 211.966
L185.482 211.996
L190.147 212.018
L194.813 212.033
L199.479 212.044
L204.144 212.052
L208.81 212.057
L213.475 212.061
L218.141 212.063
L222.807 212.065
L227.472 212.066
L232.138 212.067
L236.803 212.067
L241.469 212.067
L246.135 212.067
L250.8 212.067
L255.466 212.067
L260.131 212.067
L264.797 212.067
L269.463 212.067
L274.128 212.067
L278.794 212.067
L283.459 212.067" style="fill:none;stroke:#0000ff;stroke-linecap:square;stroke-width:3;"/>
   </g>
   <g id="patch_19">
    <path d="
M45.5138 212.067
L278.794 212.067" style="fill:none;stroke:#000000;stroke-linecap:square;stroke-linejoin:miter;"/>
   </g>
   <g id="patch_20">
    <path d="
M45.5138 212.067
L45.5138 39.2666" style="fill:none;stroke:#000000;stroke-linecap:square;stroke-linejoin:miter;"/>
   </g>
   <g id="matplotlib.axis_7">
    <g id="xtick_13">
     <g id="line2d_51">
      <g>
       <use style="stroke:#000000;stroke-width:0.5;" x="45.51375" xlink:href="#m93b0483c22" y="212.0666"/>
      </g>
     </g>
     <g id="text_21">
      <!-- 0.0 -->
      <g transform="translate(36.7659375 225.184725)scale(0.12 -0.12)">
       <use xlink:href="#BitstreamVeraSans-Roman-30"/>
       <use x="63.623046875" xlink:href="#BitstreamVeraSans-Roman-2e"/>
       <use x="95.41015625" xlink:href="#BitstreamVeraSans-Roman-30"/>
      </g>
     </g>
    </g>
    <g id="xtick_14">
     <g id="line2d_52">
      <g>
       <use style="stroke:#000000;stroke-width:0.5;" x="103.83375" xlink:href="#m93b0483c22" y="212.0666"/>
      </g>
     </g>
     <g id="text_22">
      <!-- 0.5 -->
      <g transform="translate(95.2115625 225.184725)scale(0.12 -0.12)">
       <use xlink:href="#BitstreamVeraSans-Roman-30"/>
       <use x="63.623046875" xlink:href="#BitstreamVeraSans-Roman-2e"/>
       <use x="95.41015625" xlink:href="#BitstreamVeraSans-Roman-35"/>
      </g>
     </g>
    </g>
    <g id="xtick_15">
     <g id="line2d_53">
      <g>
       <use style="stroke:#000000;stroke-width:0.5;" x="162.15375" xlink:href="#m93b0483c22" y="212.0666"/>
      </g>
     </g>
     <g id="text_23">
      <!-- 1.0 -->
      <g transform="translate(153.669375 225.184725)scale(0.12 -0.12)">
       <use xlink:href="#BitstreamVeraSans-Roman-31"/>
       <use x="63.623046875" xlink:href="#BitstreamVeraSans-Roman-2e"/>
       <use x="95.41015625" xlink:href="#BitstreamVeraSans-Roman-30"/>
      </g>
     </g>
    </g>
    <g id="xtick_16">
     <g id="line2d_54">
      <g>
       <use style="stroke:#000000;stroke-width:0.5;" x="220.47375" xlink:href="#m93b0483c22" y="212.0666"/>
      </g>
     </g>
     <g id="text_24">
      <!-- 1.5 -->
      <g transform="translate(212.115 225.184725)scale(0.12 -0.12)">
       <use xlink:href="#BitstreamVeraSans-Roman-31"/>
       <use x="63.623046875" xlink:href="#BitstreamVeraSans-Roman-2e"/>
       <use x="95.41015625" xlink:href="#BitstreamVeraSans-Roman-35"/>
      </g>
     </g>
    </g>
    <g id="xtick_17">
     <g id="line2d_55">
      <g>
       <use style="stroke:#000000;stroke-width:0.5;" x="278.79375" xlink:href="#m93b0483c22" y="212.0666"/>
      </g>
     </g>
     <g id="text_25">
      <!-- 2.0 -->
      <g transform="translate(270.09 225.184725)scale(0.12 -0.12)">
       <use xlink:href="#BitstreamVeraSans-Roman-32"/>
       <use x="63.623046875" xlink:href="#BitstreamVeraSans-Roman-2e"/>
       <use x="95.41015625" xlink:href="#BitstreamVeraSans-Roman-30"/>
      </g>
     </g>
    </g>
   </g>
   <g id="matplotlib.axis_8">
    <g id="ytick_8">
     <g id="line2d_56">
      <g>
       <use style="stroke:#000000;stroke-width:0.5;" x="45.51375" xlink:href="#m728421d6d4" y="212.0666"/>
      </g>
     </g>
     <g id="text_26">
      <!-- 0.0 -->
      <g transform="translate(24.018125 215.37785)scale(0.12 -0.12)">
       <use xlink:href="#BitstreamVeraSans-Roman-30"/>
       <use x="63.623046875" xlink:href="#BitstreamVeraSans-Roman-2e"/>
       <use x="95.41015625" xlink:href="#BitstreamVeraSans-Roman-30"/>
      </g>
     </g>
    </g>
    <g id="ytick_9">
     <g id="line2d_57">
      <g>
       <use style="stroke:#000000;stroke-width:0.5;" x="45.51375" xlink:href="#m728421d6d4" y="190.4666"/>
      </g>
     </g>
     <g id="text_27">
      <!-- 0.5 -->
      <g transform="translate(24.269375 193.77785)scale(0.12 -0.12)">
       <use xlink:href="#BitstreamVeraSans-Roman-30"/>
       <use x="63.623046875" xlink:href="#BitstreamVeraSans-Roman-2e"/>
       <use x="95.41015625" xlink:href="#BitstreamVeraSans-Roman-35"/>
      </g>
     </g>
    </g>
    <g id="ytick_10">
     <g id="line2d_58">
      <g>
       <use style="stroke:#000000;stroke-width:0.5;" x="45.51375" xlink:href="#m728421d6d4" y="168.8666"/>
      </g>
     </g>
     <g id="text_28">
      <!-- 1.0 -->
      <g transform="translate(24.545 172.17785)scale(0.12 -0.12)">
       <use xlink:href="#BitstreamVeraSans-Roman-31"/>
       <use x="63.623046875" xlink:href="#BitstreamVeraSans-Roman-2e"/>
       <use x="95.41015625" xlink:href="#BitstreamVeraSans-Roman-30"/>
      </g>
     </g>
    </g>
    <g id="ytick_11">
     <g id="line2d_59">
      <g>
       <use style="stroke:#000000;stroke-width:0.5;" x="45.51375" xlink:href="#m728421d6d4" y="147.2666"/>
      </g>
     </g>
     <g id="text_29">
      <!-- 1.5 -->
      <g transform="translate(24.79625 150.57785)scale(0.12 -0.12)">
       <use xlink:href="#BitstreamVeraSans-Roman-31"/>
       <use x="63.623046875" xlink:href="#BitstreamVeraSans-Roman-2e"/>
       <use x="95.41015625" xlink:href="#BitstreamVeraSans-Roman-35"/>
      </g>
     </g>
    </g>
    <g id="ytick_12">
     <g id="line2d_60">
      <g>
       <use style="stroke:#000000;stroke-width:0.5;" x="45.51375" xlink:href="#m728421d6d4" y="125.6666"/>
      </g>
     </g>
     <g id="text_30">
      <!-- 2.0 -->
      <g transform="translate(24.10625 128.97785)scale(0.12 -0.12)">
       <use xlink:href="#BitstreamVeraSans-Roman-32"/>
       <use x="63.623046875" xlink:href="#BitstreamVeraSans-Roman-2e"/>
       <use x="95.41015625" xlink:href="#BitstreamVeraSans-Roman-30"/>
      </g>
     </g>
    </g>
    <g id="ytick_13">
     <g id="line2d_61">
      <g>
       <use style="stroke:#000000;stroke-width:0.5;" x="45.51375" xlink:href="#m728421d6d4" y="104.0666"/>
      </g>
     </g>
     <g id="text_31">
      <!-- 2.5 -->
      <g transform="translate(24.3575 107.37785)scale(0.12 -0.12)">
       <use xlink:href="#BitstreamVeraSans-Roman-32"/>
       <use x="63.623046875" xlink:href="#BitstreamVeraSans-Roman-2e"/>
       <use x="95.41015625" xlink:href="#BitstreamVeraSans-Roman-35"/>
      </g>
     </g>
    </g>
    <g id="ytick_14">
     <g id="line2d_62">
      <g>
       <use style="stroke:#000000;stroke-width:0.5;" x="45.51375" xlink:href="#m728421d6d4" y="82.4666"/>
      </g>
     </g>
     <g id="text_32">
      <!-- 3.0 -->
      <g transform="translate(24.141875 85.77785)scale(0.12 -0.12)">
       <use xlink:href="#BitstreamVeraSans-Roman-33"/>
       <use x="63.623046875" xlink:href="#BitstreamVeraSans-Roman-2e"/>
       <use x="95.41015625" xlink:href="#BitstreamVeraSans-Roman-30"/>
      </g>
     </g>
    </g>
    <g id="ytick_15">
     <g id="line2d_63">
      <g>
       <use style="stroke:#000000;stroke-width:0.5;" x="45.51375" xlink:href="#m728421d6d4" y="60.8666"/>
      </g>
     </g>
     <g id="text_33">
      <!-- 3.5 -->
      <g transform="translate(24.393125 64.17785)scale(0.12 -0.12)">
       <use xlink:href="#BitstreamVeraSans-Roman-33"/>
       <use x="63.623046875" xlink:href="#BitstreamVeraSans-Roman-2e"/>
       <use x="95.41015625" xlink:href="#BitstreamVeraSans-Roman-35"/>
      </g>
     </g>
    </g>
    <g id="ytick_16">
     <g id="line2d_64">
      <g>
       <use style="stroke:#000000;stroke-width:0.5;" x="45.51375" xlink:href="#m728421d6d4" y="39.2666"/>
      </g>
     </g>
     <g id="text_34">
      <!-- 4.0 -->
      <g transform="translate(23.81375 42.57785)scale(0.12 -0.12)">
       <use xlink:href="#BitstreamVeraSans-Roman-34"/>
       <use x="63.623046875" xlink:href="#BitstreamVeraSans-Roman-2e"/>
       <use x="95.41015625" xlink:href="#BitstreamVeraSans-Roman-30"/>
      </g>
     </g>
    </g>
    <g id="text_35">
     <!-- Up RT dist -->
     <defs>
      <path d="
M8.6875 72.9062
L18.6094 72.9062
L18.6094 28.6094
Q18.6094 16.8906 22.8438 11.7344
Q27.0938 6.59375 36.625 6.59375
Q46.0938 6.59375 50.3438 11.7344
Q54.5938 16.8906 54.5938 28.6094
L54.5938 72.9062
L64.5 72.9062
L64.5 27.3906
Q64.5 13.1406 57.4375 5.85938
Q50.3906 -1.42188 36.625 -1.42188
Q22.7969 -1.42188 15.7344 5.85938
Q8.6875 13.1406 8.6875 27.3906
z
" id="BitstreamVeraSans-Roman-55"/>
     </defs>
     <g transform="translate(16.318125 155.889725)rotate(-90.0)scale(0.12 -0.12)">
      <use xlink:href="#BitstreamVeraSans-Roman-55"/>
      <use x="73.193359375" xlink:href="#BitstreamVeraSans-Roman-70"/>
      <use x="136.669921875" xlink:href="#BitstreamVeraSans-Roman-20"/>
      <use x="168.45703125" xlink:href="#BitstreamVeraSans-Roman-52"/>
      <use x="230.689453125" xlink:href="#BitstreamVeraSans-Roman-54"/>
      <use x="291.7734375" xlink:href="#BitstreamVeraSans-Roman-20"/>
      <use x="323.560546875" xlink:href="#BitstreamVeraSans-Roman-64"/>
      <use x="387.037109375" xlink:href="#BitstreamVeraSans-Roman-69"/>
      <use x="414.8203125" xlink:href="#BitstreamVeraSans-Roman-73"/>
      <use x="466.919921875" xlink:href="#BitstreamVeraSans-Roman-74"/>
     </g>
    </g>
   </g>
   <g id="patch_21">
    <path d="
M105.657 167.564
Q234.597 147.486 315.294 248.432
L316.465 247.495
Q317.055 250.235 317.601 252.987
Q315.076 251.763 312.56 250.617
L313.731 249.681
Q233.759 149.641 105.964 169.54
L105.657 167.564
z
" style="fill:#808080;stroke:#808080;stroke-linecap:round;"/>
   </g>
   <g id="text_36">
    <!-- Diffusion first -->
    <defs>
     <path d="
M41.1094 46.2969
Q39.5938 47.1719 37.8125 47.5781
Q36.0312 48 33.8906 48
Q26.2656 48 22.1875 43.0469
Q18.1094 38.0938 18.1094 28.8125
L18.1094 0
L9.07812 0
L9.07812 54.6875
L18.1094 54.6875
L18.1094 46.1875
Q20.9531 51.1719 25.4844 53.5781
Q30.0312 56 36.5312 56
Q37.4531 56 38.5781 55.875
Q39.7031 55.7656 41.0625 55.5156
z
" id="BitstreamVeraSans-Roman-72"/>
     <path d="
M8.5 21.5781
L8.5 54.6875
L17.4844 54.6875
L17.4844 21.9219
Q17.4844 14.1562 20.5 10.2656
Q23.5312 6.39062 29.5938 6.39062
Q36.8594 6.39062 41.0781 11.0312
Q45.3125 15.6719 45.3125 23.6875
L45.3125 54.6875
L54.2969 54.6875
L54.2969 0
L45.3125 0
L45.3125 8.40625
Q42.0469 3.42188 37.7188 1
Q33.4062 -1.42188 27.6875 -1.42188
Q18.2656 -1.42188 13.375 4.4375
Q8.5 10.2969 8.5 21.5781" id="BitstreamVeraSans-Roman-75"/>
     <path d="
M19.6719 64.7969
L19.6719 8.10938
L31.5938 8.10938
Q46.6875 8.10938 53.6875 14.9375
Q60.6875 21.7812 60.6875 36.5312
Q60.6875 51.1719 53.6875 57.9844
Q46.6875 64.7969 31.5938 64.7969
z

M9.8125 72.9062
L30.0781 72.9062
Q51.2656 72.9062 61.1719 64.0938
Q71.0938 55.2812 71.0938 36.5312
Q71.0938 17.6719 61.125 8.82812
Q51.1719 0 30.0781 0
L9.8125 0
z
" id="BitstreamVeraSans-Roman-44"/>
     <path d="
M37.1094 75.9844
L37.1094 68.5
L28.5156 68.5
Q23.6875 68.5 21.7969 66.5469
Q19.9219 64.5938 19.9219 59.5156
L19.9219 54.6875
L34.7188 54.6875
L34.7188 47.7031
L19.9219 47.7031
L19.9219 0
L10.8906 0
L10.8906 47.7031
L2.29688 47.7031
L2.29688 54.6875
L10.8906 54.6875
L10.8906 58.5
Q10.8906 67.625 15.1406 71.7969
Q19.3906 75.9844 28.6094 75.9844
z
" id="BitstreamVeraSans-Roman-66"/>
    </defs>
    <g transform="translate(114.0735 18.14175)scale(0.144 -0.144)">
     <use xlink:href="#BitstreamVeraSans-Roman-44"/>
     <use x="77.001953125" xlink:href="#BitstreamVeraSans-Roman-69"/>
     <use x="104.78515625" xlink:href="#BitstreamVeraSans-Roman-66"/>
     <use x="139.990234375" xlink:href="#BitstreamVeraSans-Roman-66"/>
     <use x="175.1953125" xlink:href="#BitstreamVeraSans-Roman-75"/>
     <use x="238.57421875" xlink:href="#BitstreamVeraSans-Roman-73"/>
     <use x="290.673828125" xlink:href="#BitstreamVeraSans-Roman-69"/>
     <use x="318.45703125" xlink:href="#BitstreamVeraSans-Roman-6f"/>
     <use x="379.638671875" xlink:href="#BitstreamVeraSans-Roman-6e"/>
     <use x="443.017578125" xlink:href="#BitstreamVeraSans-Roman-20"/>
     <use x="474.8046875" xlink:href="#BitstreamVeraSans-Roman-66"/>
     <use x="510.009765625" xlink:href="#BitstreamVeraSans-Roman-69"/>
     <use x="537.79296875" xlink:href="#BitstreamVeraSans-Roman-72"/>
     <use x="578.90625" xlink:href="#BitstreamVeraSans-Roman-73"/>
     <use x="631.005859375" xlink:href="#BitstreamVeraSans-Roman-74"/>
    </g>
    <!-- passage time -->
    <defs>
     <path d="
M45.4062 27.9844
Q45.4062 37.75 41.375 43.1094
Q37.3594 48.4844 30.0781 48.4844
Q22.8594 48.4844 18.8281 43.1094
Q14.7969 37.75 14.7969 27.9844
Q14.7969 18.2656 18.8281 12.8906
Q22.8594 7.51562 30.0781 7.51562
Q37.3594 7.51562 41.375 12.8906
Q45.4062 18.2656 45.4062 27.9844
M54.3906 6.78125
Q54.3906 -7.17188 48.1875 -13.9844
Q42 -20.7969 29.2031 -20.7969
Q24.4688 -20.7969 20.2656 -20.0938
Q16.0625 -19.3906 12.1094 -17.9219
L12.1094 -9.1875
Q16.0625 -11.3281 19.9219 -12.3438
Q23.7812 -13.375 27.7812 -13.375
Q36.625 -13.375 41.0156 -8.76562
Q45.4062 -4.15625 45.4062 5.17188
L45.4062 9.625
Q42.625 4.78125 38.2812 2.39062
Q33.9375 0 27.875 0
Q17.8281 0 11.6719 7.65625
Q5.51562 15.3281 5.51562 27.9844
Q5.51562 40.6719 11.6719 48.3281
Q17.8281 56 27.875 56
Q33.9375 56 38.2812 53.6094
Q42.625 51.2188 45.4062 46.3906
L45.4062 54.6875
L54.3906 54.6875
z
" id="BitstreamVeraSans-Roman-67"/>
     <path d="
M34.2812 27.4844
Q23.3906 27.4844 19.1875 25
Q14.9844 22.5156 14.9844 16.5
Q14.9844 11.7188 18.1406 8.90625
Q21.2969 6.10938 26.7031 6.10938
Q34.1875 6.10938 38.7031 11.4062
Q43.2188 16.7031 43.2188 25.4844
L43.2188 27.4844
z

M52.2031 31.2031
L52.2031 0
L43.2188 0
L43.2188 8.29688
Q40.1406 3.32812 35.5469 0.953125
Q30.9531 -1.42188 24.3125 -1.42188
Q15.9219 -1.42188 10.9531 3.29688
Q6 8.01562 6 15.9219
Q6 25.1406 12.1719 29.8281
Q18.3594 34.5156 30.6094 34.5156
L43.2188 34.5156
L43.2188 35.4062
Q43.2188 41.6094 39.1406 45
Q35.0625 48.3906 27.6875 48.3906
Q23 48.3906 18.5469 47.2656
Q14.1094 46.1406 10.0156 43.8906
L10.0156 52.2031
Q14.9375 54.1094 19.5781 55.0469
Q24.2188 56 28.6094 56
Q40.4844 56 46.3438 49.8438
Q52.2031 43.7031 52.2031 31.2031" id="BitstreamVeraSans-Roman-61"/>
    </defs>
    <g transform="translate(114.08475 34.2666)scale(0.144 -0.144)">
     <use xlink:href="#BitstreamVeraSans-Roman-70"/>
     <use x="63.4765625" xlink:href="#BitstreamVeraSans-Roman-61"/>
     <use x="124.755859375" xlink:href="#BitstreamVeraSans-Roman-73"/>
     <use x="176.85546875" xlink:href="#BitstreamVeraSans-Roman-73"/>
     <use x="228.955078125" xlink:href="#BitstreamVeraSans-Roman-61"/>
     <use x="290.234375" xlink:href="#BitstreamVeraSans-Roman-67"/>
     <use x="353.7109375" xlink:href="#BitstreamVeraSans-Roman-65"/>
     <use x="415.234375" xlink:href="#BitstreamVeraSans-Roman-20"/>
     <use x="447.021484375" xlink:href="#BitstreamVeraSans-Roman-74"/>
     <use x="486.23046875" xlink:href="#BitstreamVeraSans-Roman-69"/>
     <use x="514.013671875" xlink:href="#BitstreamVeraSans-Roman-6d"/>
     <use x="611.42578125" xlink:href="#BitstreamVeraSans-Roman-65"/>
    </g>
   </g>
   <g id="legend_1">
    <g id="patch_22">
     <path d="
M140.624 93.0596
L271.594 93.0596
L271.594 46.4666
L140.624 46.4666
z
" style="fill:#ffffff;stroke:#000000;stroke-linejoin:miter;"/>
    </g>
    <g id="line2d_65">
     <path d="
M150.704 58.1283
L170.864 58.1283" style="fill:none;stroke:#0000ff;stroke-linecap:square;"/>
    </g>
    <g id="line2d_66"/>
    <g id="text_37">
     <!-- Simulation -->
     <defs>
      <path d="
M53.5156 70.5156
L53.5156 60.8906
Q47.9062 63.5781 42.9219 64.8906
Q37.9375 66.2188 33.2969 66.2188
Q25.25 66.2188 20.875 63.0938
Q16.5 59.9688 16.5 54.2031
Q16.5 49.3594 19.4062 46.8906
Q22.3125 44.4375 30.4219 42.9219
L36.375 41.7031
Q47.4062 39.5938 52.6562 34.2969
Q57.9062 29 57.9062 20.125
Q57.9062 9.51562 50.7969 4.04688
Q43.7031 -1.42188 29.9844 -1.42188
Q24.8125 -1.42188 18.9688 -0.25
Q13.1406 0.921875 6.89062 3.21875
L6.89062 13.375
Q12.8906 10.0156 18.6562 8.29688
Q24.4219 6.59375 29.9844 6.59375
Q38.4219 6.59375 43.0156 9.90625
Q47.6094 13.2344 47.6094 19.3906
Q47.6094 24.75 44.3125 27.7812
Q41.0156 30.8125 33.5 32.3281
L27.4844 33.5
Q16.4531 35.6875 11.5156 40.375
Q6.59375 45.0625 6.59375 53.4219
Q6.59375 63.0938 13.4062 68.6562
Q20.2188 74.2188 32.1719 74.2188
Q37.3125 74.2188 42.625 73.2812
Q47.9531 72.3594 53.5156 70.5156" id="BitstreamVeraSans-Roman-53"/>
     </defs>
     <g transform="translate(186.7035 63.16835)scale(0.144 -0.144)">
      <use xlink:href="#BitstreamVeraSans-Roman-53"/>
      <use x="63.4765625" xlink:href="#BitstreamVeraSans-Roman-69"/>
      <use x="91.259765625" xlink:href="#BitstreamVeraSans-Roman-6d"/>
      <use x="188.671875" xlink:href="#BitstreamVeraSans-Roman-75"/>
      <use x="252.05078125" xlink:href="#BitstreamVeraSans-Roman-6c"/>
      <use x="279.833984375" xlink:href="#BitstreamVeraSans-Roman-61"/>
      <use x="341.11328125" xlink:href="#BitstreamVeraSans-Roman-74"/>
      <use x="380.322265625" xlink:href="#BitstreamVeraSans-Roman-69"/>
      <use x="408.10546875" xlink:href="#BitstreamVeraSans-Roman-6f"/>
      <use x="469.287109375" xlink:href="#BitstreamVeraSans-Roman-6e"/>
     </g>
    </g>
    <g id="line2d_67">
     <path d="
M150.704 79.2648
L170.864 79.2648" style="fill:none;stroke:#0000ff;stroke-linecap:square;stroke-width:3;"/>
    </g>
    <g id="line2d_68"/>
    <g id="text_38">
     <!-- Theoretical -->
     <g transform="translate(186.7035 84.30485)scale(0.144 -0.144)">
      <use xlink:href="#BitstreamVeraSans-Roman-54"/>
      <use x="61.083984375" xlink:href="#BitstreamVeraSans-Roman-68"/>
      <use x="124.462890625" xlink:href="#BitstreamVeraSans-Roman-65"/>
      <use x="185.986328125" xlink:href="#BitstreamVeraSans-Roman-6f"/>
      <use x="247.16796875" xlink:href="#BitstreamVeraSans-Roman-72"/>
      <use x="286.03125" xlink:href="#BitstreamVeraSans-Roman-65"/>
      <use x="347.5546875" xlink:href="#BitstreamVeraSans-Roman-74"/>
      <use x="386.763671875" xlink:href="#BitstreamVeraSans-Roman-69"/>
      <use x="414.546875" xlink:href="#BitstreamVeraSans-Roman-63"/>
      <use x="469.52734375" xlink:href="#BitstreamVeraSans-Roman-61"/>
      <use x="530.806640625" xlink:href="#BitstreamVeraSans-Roman-6c"/>
     </g>
    </g>
   </g>
  </g>
  <g id="axes_5">
   <g id="patch_23">
    <path d="
M45.5138 384.867
L278.794 384.867
L278.794 298.467
L45.5138 298.467
z
" style="fill:#ffffff;"/>
   </g>
   <g id="line2d_69">
    <path clip-path="url(#p3882ee4c42)" d="
M45.5138 298.467
L45.5138 300.277
L50.1793 300.277
L50.1793 310.802
L54.8449 310.802
L54.8449 314.763
L59.5106 314.763
L59.5106 315.329
L64.1762 315.329
L64.1762 314.763
L68.8418 314.763
L68.8418 313.292
L73.5074 313.292
L73.5074 311.595
L78.173 311.595
L78.173 309.218
L82.8385 309.218
L82.8385 307.181
L87.5041 307.181
L87.5041 305.257
L92.1697 305.257
L92.1697 304.578
L96.8354 304.578
L96.8354 304.804
L101.501 304.804
L101.501 303.333
L106.167 303.333
L106.167 301.975
L110.832 301.975
L110.832 301.296
L115.498 301.296
L115.498 302.201
L120.163 302.201
L120.163 301.07
L124.829 301.07
L124.829 300.617
L129.495 300.617
L129.495 299.938
L134.16 299.938
L134.16 300.843
L138.826 300.843
L138.826 299.598
L143.491 299.598
L143.491 300.051
L152.823 300.051
L152.823 299.372
L157.488 299.372
L157.488 299.146
L162.154 299.146
L162.154 299.032
L171.485 299.032
L171.485 298.58
L180.816 298.58
L180.816 298.806
L185.482 298.806
L185.482 298.58
L194.813 298.58
L194.813 298.467
L199.479 298.467
L199.479 298.693
L204.144 298.693
L204.144 298.467
L208.81 298.467
L208.81 298.58
L213.475 298.58
L213.475 298.467
L232.138 298.467
L232.138 298.58
L236.803 298.58
L236.803 298.467
L596.055 298.467
L596.055 298.467" style="fill:none;stroke:#ff0000;stroke-linecap:square;"/>
   </g>
   <g id="line2d_70">
    <path clip-path="url(#p3882ee4c42)" d="
M45.5138 298.467
L50.1793 315.307
L54.8449 329.443
L59.5106 327.252
L64.1762 322.64
L68.8418 318.339
L73.5074 314.697
L78.173 311.689
L82.8385 309.23
L87.5041 307.203
L92.1697 305.529
L96.8354 304.163
L101.501 303.05
L106.167 302.141
L110.832 301.395
L115.498 300.787
L120.163 300.301
L124.829 299.906
L129.495 299.592
L134.16 299.341
L138.826 299.141
L143.491 298.984
L148.157 298.861
L152.823 298.765
L157.488 298.691
L162.154 298.634
L166.819 298.591
L171.485 298.558
L176.151 298.533
L180.816 298.515
L185.482 298.501
L190.147 298.491
L194.813 298.483
L199.479 298.478
L204.144 298.474
L208.81 298.471
L213.475 298.47
L218.141 298.468
L222.807 298.467
L227.472 298.467
L232.138 298.467
L236.803 298.467
L241.469 298.467
L246.135 298.467
L250.8 298.467
L255.466 298.467
L260.131 298.467
L264.797 298.467
L269.463 298.467
L274.128 298.467
L278.794 298.467
L283.459 298.467" style="fill:none;stroke:#ff0000;stroke-linecap:square;stroke-width:3;"/>
   </g>
   <g id="patch_24">
    <path d="
M45.5138 298.467
L278.794 298.467" style="fill:none;stroke:#000000;stroke-linecap:square;stroke-linejoin:miter;"/>
   </g>
   <g id="patch_25">
    <path d="
M278.794 384.867
L278.794 298.467" style="fill:none;stroke:#000000;stroke-linecap:square;stroke-linejoin:miter;"/>
   </g>
   <g id="patch_26">
    <path d="
M45.5138 384.867
L278.794 384.867" style="fill:none;stroke:#000000;stroke-linecap:square;stroke-linejoin:miter;"/>
   </g>
   <g id="patch_27">
    <path d="
M45.5138 384.867
L45.5138 298.467" style="fill:none;stroke:#000000;stroke-linecap:square;stroke-linejoin:miter;"/>
   </g>
   <g id="matplotlib.axis_9">
    <g id="xtick_18">
     <g id="line2d_71">
      <g>
       <use style="stroke:#000000;stroke-width:0.5;" x="45.51375" xlink:href="#m93b0483c22" y="384.8666"/>
      </g>
     </g>
     <g id="line2d_72">
      <g>
       <use style="stroke:#000000;stroke-width:0.5;" x="45.51375" xlink:href="#m741efc42ff" y="298.4666"/>
      </g>
     </g>
     <g id="text_39">
      <!-- 0.0 -->
      <g transform="translate(36.7659375 397.984725)scale(0.12 -0.12)">
       <use xlink:href="#BitstreamVeraSans-Roman-30"/>
       <use x="63.623046875" xlink:href="#BitstreamVeraSans-Roman-2e"/>
       <use x="95.41015625" xlink:href="#BitstreamVeraSans-Roman-30"/>
      </g>
     </g>
    </g>
    <g id="xtick_19">
     <g id="line2d_73">
      <g>
       <use style="stroke:#000000;stroke-width:0.5;" x="103.83375" xlink:href="#m93b0483c22" y="384.8666"/>
      </g>
     </g>
     <g id="line2d_74">
      <g>
       <use style="stroke:#000000;stroke-width:0.5;" x="103.83375" xlink:href="#m741efc42ff" y="298.4666"/>
      </g>
     </g>
     <g id="text_40">
      <!-- 0.5 -->
      <g transform="translate(95.2115625 397.984725)scale(0.12 -0.12)">
       <use xlink:href="#BitstreamVeraSans-Roman-30"/>
       <use x="63.623046875" xlink:href="#BitstreamVeraSans-Roman-2e"/>
       <use x="95.41015625" xlink:href="#BitstreamVeraSans-Roman-35"/>
      </g>
     </g>
    </g>
    <g id="xtick_20">
     <g id="line2d_75">
      <g>
       <use style="stroke:#000000;stroke-width:0.5;" x="162.15375" xlink:href="#m93b0483c22" y="384.8666"/>
      </g>
     </g>
     <g id="line2d_76">
      <g>
       <use style="stroke:#000000;stroke-width:0.5;" x="162.15375" xlink:href="#m741efc42ff" y="298.4666"/>
      </g>
     </g>
     <g id="text_41">
      <!-- 1.0 -->
      <g transform="translate(153.669375 397.984725)scale(0.12 -0.12)">
       <use xlink:href="#BitstreamVeraSans-Roman-31"/>
       <use x="63.623046875" xlink:href="#BitstreamVeraSans-Roman-2e"/>
       <use x="95.41015625" xlink:href="#BitstreamVeraSans-Roman-30"/>
      </g>
     </g>
    </g>
    <g id="xtick_21">
     <g id="line2d_77">
      <g>
       <use style="stroke:#000000;stroke-width:0.5;" x="220.47375" xlink:href="#m93b0483c22" y="384.8666"/>
      </g>
     </g>
     <g id="line2d_78">
      <g>
       <use style="stroke:#000000;stroke-width:0.5;" x="220.47375" xlink:href="#m741efc42ff" y="298.4666"/>
      </g>
     </g>
     <g id="text_42">
      <!-- 1.5 -->
      <g transform="translate(212.115 397.984725)scale(0.12 -0.12)">
       <use xlink:href="#BitstreamVeraSans-Roman-31"/>
       <use x="63.623046875" xlink:href="#BitstreamVeraSans-Roman-2e"/>
       <use x="95.41015625" xlink:href="#BitstreamVeraSans-Roman-35"/>
      </g>
     </g>
    </g>
    <g id="xtick_22">
     <g id="line2d_79">
      <g>
       <use style="stroke:#000000;stroke-width:0.5;" x="278.79375" xlink:href="#m93b0483c22" y="384.8666"/>
      </g>
     </g>
     <g id="line2d_80">
      <g>
       <use style="stroke:#000000;stroke-width:0.5;" x="278.79375" xlink:href="#m741efc42ff" y="298.4666"/>
      </g>
     </g>
     <g id="text_43">
      <!-- 2.0 -->
      <g transform="translate(270.09 397.984725)scale(0.12 -0.12)">
       <use xlink:href="#BitstreamVeraSans-Roman-32"/>
       <use x="63.623046875" xlink:href="#BitstreamVeraSans-Roman-2e"/>
       <use x="95.41015625" xlink:href="#BitstreamVeraSans-Roman-30"/>
      </g>
     </g>
    </g>
    <g id="text_44">
     <!-- T [s] -->
     <g transform="translate(149.2725 414.598475)scale(0.12 -0.12)">
      <use xlink:href="#BitstreamVeraSans-Roman-54"/>
      <use x="61.083984375" xlink:href="#BitstreamVeraSans-Roman-20"/>
      <use x="92.87109375" xlink:href="#BitstreamVeraSans-Roman-5b"/>
      <use x="131.884765625" xlink:href="#BitstreamVeraSans-Roman-73"/>
      <use x="183.984375" xlink:href="#BitstreamVeraSans-Roman-5d"/>
     </g>
    </g>
   </g>
   <g id="matplotlib.axis_10">
    <g id="ytick_17">
     <g id="line2d_81">
      <g>
       <use style="stroke:#000000;stroke-width:0.5;" x="45.51375" xlink:href="#m728421d6d4" y="298.4666"/>
      </g>
     </g>
     <g id="line2d_82">
      <g>
       <use style="stroke:#000000;stroke-width:0.5;" x="278.79375" xlink:href="#mcb0005524f" y="298.4666"/>
      </g>
     </g>
     <g id="text_45">
      <!-- 0.0 -->
      <g transform="translate(24.018125 301.77785)scale(0.12 -0.12)">
       <use xlink:href="#BitstreamVeraSans-Roman-30"/>
       <use x="63.623046875" xlink:href="#BitstreamVeraSans-Roman-2e"/>
       <use x="95.41015625" xlink:href="#BitstreamVeraSans-Roman-30"/>
      </g>
     </g>
    </g>
    <g id="ytick_18">
     <g id="line2d_83">
      <g>
       <use style="stroke:#000000;stroke-width:0.5;" x="45.51375" xlink:href="#m728421d6d4" y="320.0666"/>
      </g>
     </g>
     <g id="line2d_84">
      <g>
       <use style="stroke:#000000;stroke-width:0.5;" x="278.79375" xlink:href="#mcb0005524f" y="320.0666"/>
      </g>
     </g>
     <g id="text_46">
      <!-- 0.5 -->
      <g transform="translate(24.269375 323.37785)scale(0.12 -0.12)">
       <use xlink:href="#BitstreamVeraSans-Roman-30"/>
       <use x="63.623046875" xlink:href="#BitstreamVeraSans-Roman-2e"/>
       <use x="95.41015625" xlink:href="#BitstreamVeraSans-Roman-35"/>
      </g>
     </g>
    </g>
    <g id="ytick_19">
     <g id="line2d_85">
      <g>
       <use style="stroke:#000000;stroke-width:0.5;" x="45.51375" xlink:href="#m728421d6d4" y="341.6666"/>
      </g>
     </g>
     <g id="line2d_86">
      <g>
       <use style="stroke:#000000;stroke-width:0.5;" x="278.79375" xlink:href="#mcb0005524f" y="341.6666"/>
      </g>
     </g>
     <g id="text_47">
      <!-- 1.0 -->
      <g transform="translate(24.545 344.97785)scale(0.12 -0.12)">
       <use xlink:href="#BitstreamVeraSans-Roman-31"/>
       <use x="63.623046875" xlink:href="#BitstreamVeraSans-Roman-2e"/>
       <use x="95.41015625" xlink:href="#BitstreamVeraSans-Roman-30"/>
      </g>
     </g>
    </g>
    <g id="ytick_20">
     <g id="line2d_87">
      <g>
       <use style="stroke:#000000;stroke-width:0.5;" x="45.51375" xlink:href="#m728421d6d4" y="363.2666"/>
      </g>
     </g>
     <g id="line2d_88">
      <g>
       <use style="stroke:#000000;stroke-width:0.5;" x="278.79375" xlink:href="#mcb0005524f" y="363.2666"/>
      </g>
     </g>
     <g id="text_48">
      <!-- 1.5 -->
      <g transform="translate(24.79625 366.57785)scale(0.12 -0.12)">
       <use xlink:href="#BitstreamVeraSans-Roman-31"/>
       <use x="63.623046875" xlink:href="#BitstreamVeraSans-Roman-2e"/>
       <use x="95.41015625" xlink:href="#BitstreamVeraSans-Roman-35"/>
      </g>
     </g>
    </g>
    <g id="ytick_21">
     <g id="line2d_89">
      <g>
       <use style="stroke:#000000;stroke-width:0.5;" x="45.51375" xlink:href="#m728421d6d4" y="384.8666"/>
      </g>
     </g>
     <g id="line2d_90">
      <g>
       <use style="stroke:#000000;stroke-width:0.5;" x="278.79375" xlink:href="#mcb0005524f" y="384.8666"/>
      </g>
     </g>
     <g id="text_49">
      <!-- 2.0 -->
      <g transform="translate(24.10625 388.17785)scale(0.12 -0.12)">
       <use xlink:href="#BitstreamVeraSans-Roman-32"/>
       <use x="63.623046875" xlink:href="#BitstreamVeraSans-Roman-2e"/>
       <use x="95.41015625" xlink:href="#BitstreamVeraSans-Roman-30"/>
      </g>
     </g>
    </g>
    <g id="text_50">
     <!-- Down RT dist -->
     <g transform="translate(16.5225 380.6900375)rotate(-90.0)scale(0.12 -0.12)">
      <use xlink:href="#BitstreamVeraSans-Roman-44"/>
      <use x="77.001953125" xlink:href="#BitstreamVeraSans-Roman-6f"/>
      <use x="138.18359375" xlink:href="#BitstreamVeraSans-Roman-77"/>
      <use x="219.970703125" xlink:href="#BitstreamVeraSans-Roman-6e"/>
      <use x="283.349609375" xlink:href="#BitstreamVeraSans-Roman-20"/>
      <use x="315.13671875" xlink:href="#BitstreamVeraSans-Roman-52"/>
      <use x="377.369140625" xlink:href="#BitstreamVeraSans-Roman-54"/>
      <use x="438.453125" xlink:href="#BitstreamVeraSans-Roman-20"/>
      <use x="470.240234375" xlink:href="#BitstreamVeraSans-Roman-64"/>
      <use x="533.716796875" xlink:href="#BitstreamVeraSans-Roman-69"/>
      <use x="561.5" xlink:href="#BitstreamVeraSans-Roman-73"/>
      <use x="613.599609375" xlink:href="#BitstreamVeraSans-Roman-74"/>
     </g>
    </g>
   </g>
   <g id="patch_28">
    <path d="
M106.017 319.612
Q226.682 351.205 313.26 263.169
L312.19 262.117
Q314.812 261.234 317.449 260.272
Q316.625 262.956 315.755 265.623
L314.686 264.571
Q227.296 353.434 105.51 321.546
L106.017 319.612
z
" style="fill:#808080;stroke:#808080;stroke-linecap:round;"/>
   </g>
  </g>
 </g>
 <defs>
  <clipPath id="p5bbb9315a8">
   <rect height="86.4" width="233.28" x="45.51375" y="212.0666"/>
  </clipPath>
  <clipPath id="pb9c2b6db16">
   <rect height="108.0" width="112.32" x="330.63375" y="203.4266"/>
  </clipPath>
  <clipPath id="pf7ea89552b">
   <rect height="172.8" width="233.28" x="45.51375" y="39.2666"/>
  </clipPath>
  <clipPath id="p3882ee4c42">
   <rect height="86.4" width="233.28" x="45.51375" y="298.4666"/>
  </clipPath>
  <clipPath id="pfe8e649188">
   <rect height="345.6" width="259.2" x="563.91375" y="39.2666"/>
  </clipPath>
 </defs>
</svg>
