<?xml version="1.0" encoding="utf-8" standalone="no"?>
<!DOCTYPE svg PUBLIC "-//W3C//DTD SVG 1.1//EN"
  "http://www.w3.org/Graphics/SVG/1.1/DTD/svg11.dtd">
<!-- Created with matplotlib (http://matplotlib.org/) -->
<svg height="424pt" version="1.1" viewBox="0 0 839 424" width="839pt" xmlns="http://www.w3.org/2000/svg" xmlns:xlink="http://www.w3.org/1999/xlink">
 <defs>
  <style type="text/css">
*{stroke-linecap:butt;stroke-linejoin:round;}
  </style>
 </defs>
 <g id="figure_1">
  <g id="patch_1">
   <path d="
M0 424.294
L839.017 424.294
L839.017 0
L0 0
z
" style="fill:#ffffff;"/>
  </g>
  <g id="axes_1">
   <g id="patch_2">
    <path d="
M45.5138 298.467
L278.794 298.467
L278.794 212.067
L45.5138 212.067
z
" style="fill:#ffffff;"/>
   </g>
   <g id="line2d_1">
    <path clip-path="url(#p5bbb9315a8)" d="
M45.5138 228.973
L54.8449 229.434
L64.1762 229.967
L73.5074 230.519
L82.8385 231.108
L92.1697 231.691
L101.501 232.267
L110.832 232.839
L120.163 233.401
L129.495 233.939
L138.826 234.454
L148.157 234.968
L157.488 235.471
L166.819 235.929
L176.151 236.4
L185.482 236.828
L194.813 237.27
L204.144 237.66
L213.475 238.068
L222.807 238.44
L232.138 238.806
L241.469 239.177
L250.8 239.503
L260.131 239.829
L269.463 240.163
L278.794 240.478
L288.125 240.752" style="fill:none;stroke:#0000ff;stroke-dasharray:6.000000,6.000000;stroke-dashoffset:0.0;"/>
   </g>
   <g id="line2d_2">
    <path clip-path="url(#p5bbb9315a8)" d="
M45.5138 281.56
L54.8449 281.099
L64.1762 280.566
L73.5074 280.014
L82.8385 279.425
L92.1697 278.842
L101.501 278.266
L110.832 277.694
L120.163 277.132
L129.495 276.594
L138.826 276.08
L148.157 275.566
L157.488 275.062
L166.819 274.604
L176.151 274.133
L185.482 273.705
L194.813 273.263
L204.144 272.873
L213.475 272.465
L222.807 272.093
L232.138 271.727
L241.469 271.356
L250.8 271.03
L260.131 270.705
L269.463 270.371
L278.794 270.055
L288.125 269.781" style="fill:none;stroke:#ff0000;stroke-dasharray:6.000000,6.000000;stroke-dashoffset:0.0;"/>
   </g>
   <g id="line2d_3">
    <path clip-path="url(#p5bbb9315a8)" d="
M45.5138 255.267
L45.747 252.296
L46.2136 256.112
L46.6802 251.85
L46.9134 249.913
L47.1467 249.16
L47.38 245.064
L47.6133 242.959
L47.8466 239.087
L48.0798 239.64
L48.5464 235.715
L48.7797 240.866
L49.013 241.757
L49.2462 240.378
L49.4795 243.259
L49.7128 241.718
L50.1793 246.346
L50.4126 246.882
L50.6459 248.821
L50.8792 247.419
L51.1125 247.382
L51.3458 247.724
L51.579 244.116
L52.2789 253.667
L52.5121 252.734
L52.7454 253.798
L52.9787 257.961
L53.4453 251.119
L53.9118 253.854
L54.1451 257.384
L54.3784 258.817
L54.6117 258.323
L55.5448 261.283
L55.7781 259.562
L56.0114 258.81
L56.2446 256.165
L56.4779 256.397
L56.7112 257.03
L57.1778 261.089
L57.411 260.724
L58.3441 267.852
L58.5774 266.172
L58.8107 265.906
L59.044 266.022
L59.2773 267.639
L59.5106 266.803
L59.7438 270.76
L59.9771 266.455
L60.2104 270.199
L60.6769 267.999
L60.9102 264.2
L61.1435 263.531
L61.3768 265.311
L61.6101 264.183
L61.8434 258.691
L62.0766 257.766
L62.3099 254.851
L62.5432 255.937
L62.7765 260.342
L63.0097 262.606
L63.243 266.481
L63.4763 267.975
L63.7096 265.774
L63.9429 264.743
L64.1762 260.114
L64.4094 258.015
L64.876 263.861
L65.1093 263.808
L65.5758 267.213
L66.0424 262.549
L66.2757 262.566
L66.5089 261.762
L66.7422 259.38
L67.4421 264.569
L67.6753 264.334
L67.9086 262.796
L68.6085 253.797
L68.8418 253.587
L69.075 254.4
L69.3083 256.482
L69.5416 256.598
L69.7749 256.949
L70.0082 256.546
L70.2414 261.83
L70.4747 258.921
L70.708 262.159
L70.9413 262.879
L71.1745 264.544
L71.6411 261.377
L71.8744 263.375
L72.5742 253.707
L72.8075 253.745
L73.0408 257.282
L73.2741 255.487
L73.5074 251.282
L73.9739 247.707
L74.2072 248.131
L74.4405 246.368
L74.6737 245.729
L74.907 246.246
L75.1403 245.364
L75.8401 239.476
L76.0734 237.495
L76.3067 237.384
L76.54 236.792
L77.2398 243.839
L77.4731 244.158
L77.7064 245.002
L77.9397 242.172
L78.173 242.326
L78.4062 241.677
L78.6395 239.827
L78.8728 241.282
L79.1061 241.992
L79.3393 240.876
L80.0392 233.932
L80.2725 235.499
L80.739 231.145
L80.9723 230.99
L80.9723 230.99" style="fill:none;stroke:#0000ff;stroke-linecap:square;"/>
   </g>
   <g id="line2d_4">
    <path clip-path="url(#p5bbb9315a8)" d="
M45.5138 255.267
L45.747 258.824
L45.9803 261.021
L46.2136 260.149
L46.4469 260.577
L46.6802 260.573
L46.9134 260.861
L47.38 255.011
L47.6133 252.83
L47.8466 256.56
L48.0798 257.55
L48.3131 256.233
L48.5464 260.567
L48.7797 256.564
L49.013 256.638
L49.2462 258.285
L49.4795 257.444
L49.9461 259.775
L50.1793 263.958
L50.4126 263.59
L50.6459 262.503
L50.8792 260.489
L51.3458 262.187
L51.579 263.711
L51.8123 261.558
L52.0456 261.544
L52.2789 259.685
L52.5121 258.814
L52.7454 261.596
L52.9787 260.329
L53.212 263.714
L53.4453 261.487
L53.6786 266.755
L53.9118 261.198
L54.1451 261.059
L54.3784 258.345
L54.6117 259.027
L54.8449 261.501
L55.0782 258.578
L55.3115 258.566
L55.5448 254.477
L55.7781 255.424
L56.0114 260.251
L56.4779 264.659
L56.9445 265.447
L57.1778 265.867
L57.411 264.236
L57.6443 260.133
L58.1109 257.04
L58.3441 255.649
L58.8107 251.294
L59.044 249.298
L59.2773 252.351
L59.5106 248.715
L59.7438 249.051
L59.9771 247.772
L60.2104 247.224
L60.9102 244.309
L61.6101 238.91
L61.8434 238.121
L62.5432 244.702
L63.0097 253.43
L63.243 252.598
L63.7096 245.074
L63.9429 243.777
L64.1762 244.728
L64.4094 248.359
L64.876 242.646
L65.1093 241.371
L65.3426 244.926
L65.5758 243.944
L65.8091 242.461
L66.0424 241.717
L66.2757 239.307
L66.5089 238.345
L66.9755 243.317
L67.2088 242.175
L67.4421 239.973
L67.6753 239.993
L67.9086 240.765
L68.1419 242.334
L68.3752 238.376
L68.8418 240.482
L69.075 244.337
L69.3083 243.985
L69.5416 241.588
L70.0082 244.361
L70.2414 241.74
L70.4747 242.753
L70.708 246.875
L71.1745 245.489
L71.4078 247.526
L71.6411 247.895
L71.8744 250.085
L72.1077 246.373
L72.3409 246.233
L72.5742 244.175
L72.8075 243.932
L73.0408 243.489
L73.2741 243.559
L73.5074 243.414
L73.7406 244.231
L73.9739 242.764
L74.2072 244.567
L74.4405 244.964
L74.6737 244.394
L74.907 242.697
L75.1403 244.025
L75.3736 243.237
L75.6069 246.968
L76.0734 242.152
L76.7733 236.332
L77.2398 238.989
L77.4731 238.381
L78.173 247.338
L78.4062 245.01
L78.6395 252.156
L78.8728 253.406
L79.3393 251.172
L79.5726 245.542
L79.8059 245.669
L80.0392 246.199
L80.2725 248.333
L80.5058 249.341
L80.9723 254.884
L81.2056 253.958
L81.4389 254.966
L81.6721 254.876
L82.1387 251.717
L82.372 254.908
L82.6053 247.644
L82.8385 246.924
L83.0718 246.766
L83.3051 245.842
L83.5384 248.581
L83.7717 252.967
L84.005 254.279
L84.2382 253.6
L84.4715 254.07
L84.7048 255.03
L84.9381 258.53
L85.1713 259.842
L85.4046 262.866
L85.6379 262.837
L86.1045 265.913
L86.571 262.759
L87.2709 265.614
L87.5041 267.723
L87.7374 271.051
L87.9707 271.234
L88.204 274.021
L88.4373 273.751
L88.6705 272.72
L88.9038 274.147
L89.1371 269.829
L89.3704 274.836
L89.6037 274.46
L89.837 278.988
L89.837 278.988" style="fill:none;stroke:#ff0000;stroke-linecap:square;"/>
   </g>
   <g id="patch_3">
    <path d="
M45.5138 212.067
L278.794 212.067" style="fill:none;stroke:#000000;stroke-linecap:square;stroke-linejoin:miter;"/>
   </g>
   <g id="patch_4">
    <path d="
M45.5138 298.467
L278.794 298.467" style="fill:none;stroke:#000000;stroke-linecap:square;stroke-linejoin:miter;"/>
   </g>
   <g id="patch_5">
    <path d="
M45.5138 298.467
L45.5138 212.067" style="fill:none;stroke:#000000;stroke-linecap:square;stroke-linejoin:miter;"/>
   </g>
   <g id="matplotlib.axis_1">
    <g id="xtick_1">
     <g id="line2d_5">
      <defs>
       <path d="
M0 0
L0 -4" id="m93b0483c22" style="stroke:#000000;stroke-width:0.5;"/>
      </defs>
      <g>
       <use style="stroke:#000000;stroke-width:0.5;" x="45.51375" xlink:href="#m93b0483c22" y="298.4666"/>
      </g>
     </g>
     <g id="line2d_6">
      <defs>
       <path d="
M0 0
L0 4" id="m741efc42ff" style="stroke:#000000;stroke-width:0.5;"/>
      </defs>
      <g>
       <use style="stroke:#000000;stroke-width:0.5;" x="45.51375" xlink:href="#m741efc42ff" y="212.0666"/>
      </g>
     </g>
    </g>
    <g id="xtick_2">
     <g id="line2d_7">
      <g>
       <use style="stroke:#000000;stroke-width:0.5;" x="92.16975" xlink:href="#m93b0483c22" y="298.4666"/>
      </g>
     </g>
     <g id="line2d_8">
      <g>
       <use style="stroke:#000000;stroke-width:0.5;" x="92.16975" xlink:href="#m741efc42ff" y="212.0666"/>
      </g>
     </g>
    </g>
    <g id="xtick_3">
     <g id="line2d_9">
      <g>
       <use style="stroke:#000000;stroke-width:0.5;" x="138.82575" xlink:href="#m93b0483c22" y="298.4666"/>
      </g>
     </g>
     <g id="line2d_10">
      <g>
       <use style="stroke:#000000;stroke-width:0.5;" x="138.82575" xlink:href="#m741efc42ff" y="212.0666"/>
      </g>
     </g>
    </g>
    <g id="xtick_4">
     <g id="line2d_11">
      <g>
       <use style="stroke:#000000;stroke-width:0.5;" x="185.48175" xlink:href="#m93b0483c22" y="298.4666"/>
      </g>
     </g>
     <g id="line2d_12">
      <g>
       <use style="stroke:#000000;stroke-width:0.5;" x="185.48175" xlink:href="#m741efc42ff" y="212.0666"/>
      </g>
     </g>
    </g>
    <g id="xtick_5">
     <g id="line2d_13">
      <g>
       <use style="stroke:#000000;stroke-width:0.5;" x="232.13775" xlink:href="#m93b0483c22" y="298.4666"/>
      </g>
     </g>
     <g id="line2d_14">
      <g>
       <use style="stroke:#000000;stroke-width:0.5;" x="232.13775" xlink:href="#m741efc42ff" y="212.0666"/>
      </g>
     </g>
    </g>
    <g id="xtick_6">
     <g id="line2d_15">
      <g>
       <use style="stroke:#000000;stroke-width:0.5;" x="278.79375" xlink:href="#m93b0483c22" y="298.4666"/>
      </g>
     </g>
     <g id="line2d_16">
      <g>
       <use style="stroke:#000000;stroke-width:0.5;" x="278.79375" xlink:href="#m741efc42ff" y="212.0666"/>
      </g>
     </g>
    </g>
   </g>
   <g id="matplotlib.axis_2">
    <g id="text_1">
     <!-- $x(t)$ -->
     <defs>
      <path d="
M31 -24.8125
Q25.4375 -20.4062 21.4062 -14.7188
Q17.3906 -9.03125 14.8125 -2.57812
Q12.25 3.85938 10.9844 10.8906
Q9.71875 17.9219 9.71875 25
Q9.71875 32.1719 10.9844 39.2031
Q12.25 46.2344 14.8594 52.7344
Q17.4844 59.2344 21.5312 64.8906
Q25.5938 70.5625 31 74.8125
Q31 75 31.5 75
L32.4219 75
Q32.7188 75 32.9531 74.7344
Q33.2031 74.4688 33.2031 74.125
Q33.2031 73.6875 33.0156 73.4844
Q28.125 68.7031 24.875 63.2344
Q21.625 57.7656 19.6406 51.5781
Q17.6719 45.4062 16.7969 38.7812
Q15.9219 32.1719 15.9219 25
Q15.9219 -6.78125 32.9062 -23.2969
Q33.2031 -23.5781 33.2031 -24.125
Q33.2031 -24.3594 32.9375 -24.6719
Q32.6719 -25 32.4219 -25
L31.5 -25
Q31 -25 31 -24.8125" id="Cmr10-28"/>
      <path d="
M6.5 -25
Q5.60938 -25 5.60938 -24.125
Q5.60938 -23.6875 5.8125 -23.4844
Q22.9062 -6.78125 22.9062 25
Q22.9062 56.7812 6 73.2969
Q5.60938 73.5312 5.60938 74.125
Q5.60938 74.4688 5.875 74.7344
Q6.15625 75 6.5 75
L7.42188 75
Q7.71875 75 7.90625 74.8125
Q15.0938 69.1406 19.875 61.0312
Q24.6562 52.9375 26.875 43.75
Q29.1094 34.5781 29.1094 25
Q29.1094 17.9219 27.9062 11.0625
Q26.7031 4.20312 24.0938 -2.45312
Q21.4844 -9.125 17.4844 -14.7656
Q13.4844 -20.4062 7.90625 -24.8125
Q7.71875 -25 7.42188 -25
z
" id="Cmr10-29"/>
      <path d="
M7.8125 2.875
Q9.57812 1.51562 12.7969 1.51562
Q15.9219 1.51562 18.3125 4.51562
Q20.7031 7.51562 21.5781 11.0781
L26.125 28.8125
Q27.2031 33.6406 27.2031 35.4062
Q27.2031 37.8906 25.8125 39.75
Q24.4219 41.6094 21.9219 41.6094
Q18.75 41.6094 15.9688 39.625
Q13.1875 37.6406 11.2812 34.5938
Q9.375 31.5469 8.59375 28.4219
Q8.40625 27.7812 7.8125 27.7812
L6.59375 27.7812
Q5.8125 27.7812 5.8125 28.7188
L5.8125 29
Q6.78125 32.7188 9.125 36.25
Q11.4688 39.7969 14.8594 41.9844
Q18.2656 44.1875 22.125 44.1875
Q25.7812 44.1875 28.7344 42.2344
Q31.6875 40.2812 32.9062 36.9219
Q34.625 39.9844 37.2812 42.0781
Q39.9375 44.1875 43.1094 44.1875
Q45.2656 44.1875 47.5 43.4219
Q49.75 42.6719 51.1719 41.1094
Q52.5938 39.5469 52.5938 37.2031
Q52.5938 34.6719 50.9531 32.8281
Q49.3125 31 46.7812 31
Q45.1719 31 44.0938 32.0312
Q43.0156 33.0625 43.0156 34.625
Q43.0156 36.7188 44.4531 38.2969
Q45.9062 39.8906 47.9062 40.1875
Q46.0938 41.6094 42.9219 41.6094
Q39.7031 41.6094 37.3281 38.625
Q34.9688 35.6406 33.9844 31.9844
L29.5938 14.3125
Q28.5156 10.2969 28.5156 7.71875
Q28.5156 5.17188 29.9531 3.34375
Q31.3906 1.51562 33.7969 1.51562
Q38.4844 1.51562 42.1562 5.64062
Q45.8438 9.76562 47.0156 14.7031
Q47.2188 15.2812 47.7969 15.2812
L49.0312 15.2812
Q49.4219 15.2812 49.6562 15.0156
Q49.9062 14.75 49.9062 14.4062
Q49.9062 14.3125 49.8125 14.1094
Q48.3906 8.15625 43.8438 3.51562
Q39.3125 -1.125 33.5938 -1.125
Q29.9375 -1.125 26.9844 0.84375
Q24.0312 2.82812 22.7969 6.20312
Q21.2344 3.26562 18.4688 1.0625
Q15.7188 -1.125 12.5938 -1.125
Q10.4531 -1.125 8.17188 -0.359375
Q5.90625 0.390625 4.48438 1.95312
Q3.07812 3.51562 3.07812 5.90625
Q3.07812 8.25 4.70312 10.1719
Q6.34375 12.1094 8.79688 12.1094
Q10.4531 12.1094 11.5781 11.1094
Q12.7031 10.1094 12.7031 8.5
Q12.7031 6.39062 11.2969 4.82812
Q9.90625 3.26562 7.8125 2.875" id="Cmmi10-78"/>
      <path d="
M6.20312 8.10938
Q6.20312 9.57812 6.5 10.8906
L13.7188 39.5938
L3.21875 39.5938
Q2.20312 39.5938 2.20312 40.9219
Q2.59375 43.1094 3.51562 43.1094
L14.5938 43.1094
L18.6094 59.4219
Q19 60.75 20.1719 61.6719
Q21.3438 62.5938 22.7969 62.5938
Q24.0781 62.5938 24.9219 61.8281
Q25.7812 61.0781 25.7812 59.8125
Q25.7812 59.5156 25.75 59.3438
Q25.7344 59.1875 25.6875 58.9844
L21.6875 43.1094
L31.9844 43.1094
Q33.0156 43.1094 33.0156 41.7969
Q32.9531 41.5469 32.8125 40.9531
Q32.6719 40.375 32.4219 39.9844
Q32.1719 39.5938 31.6875 39.5938
L20.7969 39.5938
L13.625 10.6875
Q12.8906 7.85938 12.8906 5.8125
Q12.8906 1.51562 15.8281 1.51562
Q20.2188 1.51562 23.6094 5.64062
Q27 9.76562 28.8125 14.7031
Q29.2031 15.2812 29.5938 15.2812
L30.8125 15.2812
Q31.2031 15.2812 31.4375 15.0156
Q31.6875 14.75 31.6875 14.4062
Q31.6875 14.2031 31.5938 14.1094
Q29.3906 8.0625 25.1875 3.46875
Q21 -1.125 15.5781 -1.125
Q11.625 -1.125 8.90625 1.45312
Q6.20312 4.04688 6.20312 8.10938" id="Cmmi10-74"/>
     </defs>
     <g transform="translate(36.76375 268.0916)rotate(-90.0)scale(0.15 -0.15)">
      <use xlink:href="#Cmmi10-78"/>
      <use transform="translate(57.080078125 0.0)" xlink:href="#Cmr10-28"/>
      <use transform="translate(95.8984375 0.0)" xlink:href="#Cmmi10-74"/>
      <use transform="translate(131.982421875 0.0)" xlink:href="#Cmr10-29"/>
     </g>
    </g>
   </g>
  </g>
  <g id="axes_2">
   <g id="patch_6">
    <path d="
M330.634 311.427
L442.954 311.427
L442.954 203.427
L330.634 203.427
z
" style="fill:#ffffff;"/>
   </g>
   <g id="line2d_17">
    <path clip-path="url(#pb9c2b6db16)" d="
M330.634 311.427
L332.926 311.427
L335.218 311.427
L337.51 311.427
L339.803 311.427
L342.095 311.427
L344.387 311.427
L346.679 311.427
L348.972 203.949
L351.264 205.228
L353.556 207.579
L355.848 210.93
L358.141 215.18
L360.433 220.205
L362.725 225.864
L365.017 232.002
L367.31 238.464
L369.602 245.095
L371.894 251.747
L374.186 258.289
L376.479 264.603
L378.771 270.595
L381.063 276.189
L383.355 281.331
L385.648 285.989
L387.94 290.149
L390.232 293.813
L392.524 296.997
L394.817 299.728
L397.109 302.04
L399.401 303.974
L401.693 305.57
L403.986 306.872
L406.278 307.921
L408.57 308.757
L410.862 309.414
L413.155 309.926
L415.447 310.319
L417.739 310.617
L420.031 310.841
L422.324 311.008
L424.616 311.13
L426.908 311.219
L429.2 311.282
L431.493 311.328
L433.785 311.359
L436.077 311.381
L438.369 311.397
L440.662 311.407
L442.954 311.414" style="fill:none;stroke:#0000ff;stroke-linecap:square;"/>
   </g>
   <g id="patch_7">
    <path d="
M330.634 203.427
L442.954 203.427" style="fill:none;stroke:#000000;stroke-linecap:square;stroke-linejoin:miter;"/>
   </g>
   <g id="patch_8">
    <path d="
M442.954 311.427
L442.954 203.427" style="fill:none;stroke:#000000;stroke-linecap:square;stroke-linejoin:miter;"/>
   </g>
   <g id="patch_9">
    <path d="
M330.634 311.427
L442.954 311.427" style="fill:none;stroke:#000000;stroke-linecap:square;stroke-linejoin:miter;"/>
   </g>
   <g id="patch_10">
    <path d="
M330.634 311.427
L330.634 203.427" style="fill:none;stroke:#000000;stroke-linecap:square;stroke-linejoin:miter;"/>
   </g>
   <g id="matplotlib.axis_3">
    <g id="text_2">
     <!-- T -->
     <defs>
      <path d="
M-0.296875 72.9062
L61.375 72.9062
L61.375 64.5938
L35.5 64.5938
L35.5 0
L25.5938 0
L25.5938 64.5938
L-0.296875 64.5938
z
" id="BitstreamVeraSans-Roman-54"/>
     </defs>
     <g transform="translate(383.0934375 325.544725)scale(0.12 -0.12)">
      <use xlink:href="#BitstreamVeraSans-Roman-54"/>
     </g>
    </g>
   </g>
   <g id="matplotlib.axis_4"/>
   <g id="patch_11">
    <path d="
M444.964 256.454
Q491.669 257.089 538.374 257.724
L538.394 256.224
Q540.877 257.508 543.36 258.792
Q540.843 260.008 538.326 261.224
L538.346 259.724
Q491.642 259.089 444.937 258.454
L444.964 256.454
z
" style="fill:#808080;stroke:#808080;stroke-linecap:round;"/>
   </g>
   <g id="text_3">
    <!-- Convolve with -->
    <defs>
     <path id="BitstreamVeraSans-Roman-20"/>
     <path d="
M54.8906 33.0156
L54.8906 0
L45.9062 0
L45.9062 32.7188
Q45.9062 40.4844 42.875 44.3281
Q39.8438 48.1875 33.7969 48.1875
Q26.5156 48.1875 22.3125 43.5469
Q18.1094 38.9219 18.1094 30.9062
L18.1094 0
L9.07812 0
L9.07812 54.6875
L18.1094 54.6875
L18.1094 46.1875
Q21.3438 51.125 25.7031 53.5625
Q30.0781 56 35.7969 56
Q45.2188 56 50.0469 50.1719
Q54.8906 44.3438 54.8906 33.0156" id="BitstreamVeraSans-Roman-6e"/>
     <path d="
M9.42188 54.6875
L18.4062 54.6875
L18.4062 0
L9.42188 0
z

M9.42188 75.9844
L18.4062 75.9844
L18.4062 64.5938
L9.42188 64.5938
z
" id="BitstreamVeraSans-Roman-69"/>
     <path d="
M30.6094 48.3906
Q23.3906 48.3906 19.1875 42.75
Q14.9844 37.1094 14.9844 27.2969
Q14.9844 17.4844 19.1562 11.8438
Q23.3438 6.20312 30.6094 6.20312
Q37.7969 6.20312 41.9844 11.8594
Q46.1875 17.5312 46.1875 27.2969
Q46.1875 37.0156 41.9844 42.7031
Q37.7969 48.3906 30.6094 48.3906
M30.6094 56
Q42.3281 56 49.0156 48.375
Q55.7188 40.7656 55.7188 27.2969
Q55.7188 13.875 49.0156 6.21875
Q42.3281 -1.42188 30.6094 -1.42188
Q18.8438 -1.42188 12.1719 6.21875
Q5.51562 13.875 5.51562 27.2969
Q5.51562 40.7656 12.1719 48.375
Q18.8438 56 30.6094 56" id="BitstreamVeraSans-Roman-6f"/>
     <path d="
M9.42188 75.9844
L18.4062 75.9844
L18.4062 0
L9.42188 0
z
" id="BitstreamVeraSans-Roman-6c"/>
     <path d="
M56.2031 29.5938
L56.2031 25.2031
L14.8906 25.2031
Q15.4844 15.9219 20.4844 11.0625
Q25.4844 6.20312 34.4219 6.20312
Q39.5938 6.20312 44.4531 7.46875
Q49.3125 8.73438 54.1094 11.2812
L54.1094 2.78125
Q49.2656 0.734375 44.1875 -0.34375
Q39.1094 -1.42188 33.8906 -1.42188
Q20.7969 -1.42188 13.1562 6.1875
Q5.51562 13.8125 5.51562 26.8125
Q5.51562 40.2344 12.7656 48.1094
Q20.0156 56 32.3281 56
Q43.3594 56 49.7812 48.8906
Q56.2031 41.7969 56.2031 29.5938
M47.2188 32.2344
Q47.125 39.5938 43.0938 43.9844
Q39.0625 48.3906 32.4219 48.3906
Q24.9062 48.3906 20.3906 44.1406
Q15.875 39.8906 15.1875 32.1719
z
" id="BitstreamVeraSans-Roman-65"/>
     <path d="
M64.4062 67.2812
L64.4062 56.8906
Q59.4219 61.5312 53.7812 63.8125
Q48.1406 66.1094 41.7969 66.1094
Q29.2969 66.1094 22.6562 58.4688
Q16.0156 50.8281 16.0156 36.375
Q16.0156 21.9688 22.6562 14.3281
Q29.2969 6.6875 41.7969 6.6875
Q48.1406 6.6875 53.7812 8.98438
Q59.4219 11.2812 64.4062 15.9219
L64.4062 5.60938
Q59.2344 2.09375 53.4375 0.328125
Q47.6562 -1.42188 41.2188 -1.42188
Q24.6562 -1.42188 15.125 8.70312
Q5.60938 18.8438 5.60938 36.375
Q5.60938 53.9531 15.125 64.0781
Q24.6562 74.2188 41.2188 74.2188
Q47.75 74.2188 53.5312 72.4844
Q59.3281 70.75 64.4062 67.2812" id="BitstreamVeraSans-Roman-43"/>
     <path d="
M54.8906 33.0156
L54.8906 0
L45.9062 0
L45.9062 32.7188
Q45.9062 40.4844 42.875 44.3281
Q39.8438 48.1875 33.7969 48.1875
Q26.5156 48.1875 22.3125 43.5469
Q18.1094 38.9219 18.1094 30.9062
L18.1094 0
L9.07812 0
L9.07812 75.9844
L18.1094 75.9844
L18.1094 46.1875
Q21.3438 51.125 25.7031 53.5625
Q30.0781 56 35.7969 56
Q45.2188 56 50.0469 50.1719
Q54.8906 44.3438 54.8906 33.0156" id="BitstreamVeraSans-Roman-68"/>
     <path d="
M2.98438 54.6875
L12.5 54.6875
L29.5938 8.79688
L46.6875 54.6875
L56.2031 54.6875
L35.6875 0
L23.4844 0
z
" id="BitstreamVeraSans-Roman-76"/>
     <path d="
M4.20312 54.6875
L13.1875 54.6875
L24.4219 12.0156
L35.5938 54.6875
L46.1875 54.6875
L57.4219 12.0156
L68.6094 54.6875
L77.5938 54.6875
L63.2812 0
L52.6875 0
L40.9219 44.8281
L29.1094 0
L18.5 0
z
" id="BitstreamVeraSans-Roman-77"/>
     <path d="
M18.3125 70.2188
L18.3125 54.6875
L36.8125 54.6875
L36.8125 47.7031
L18.3125 47.7031
L18.3125 18.0156
Q18.3125 11.3281 20.1406 9.42188
Q21.9688 7.51562 27.5938 7.51562
L36.8125 7.51562
L36.8125 0
L27.5938 0
Q17.1875 0 13.2344 3.875
Q9.28125 7.76562 9.28125 18.0156
L9.28125 47.7031
L2.6875 47.7031
L2.6875 54.6875
L9.28125 54.6875
L9.28125 70.2188
z
" id="BitstreamVeraSans-Roman-74"/>
    </defs>
    <g transform="translate(336.487125 182.30175)scale(0.144 -0.144)">
     <use xlink:href="#BitstreamVeraSans-Roman-43"/>
     <use x="69.82421875" xlink:href="#BitstreamVeraSans-Roman-6f"/>
     <use x="131.005859375" xlink:href="#BitstreamVeraSans-Roman-6e"/>
     <use x="194.384765625" xlink:href="#BitstreamVeraSans-Roman-76"/>
     <use x="253.564453125" xlink:href="#BitstreamVeraSans-Roman-6f"/>
     <use x="314.74609375" xlink:href="#BitstreamVeraSans-Roman-6c"/>
     <use x="342.529296875" xlink:href="#BitstreamVeraSans-Roman-76"/>
     <use x="401.708984375" xlink:href="#BitstreamVeraSans-Roman-65"/>
     <use x="463.232421875" xlink:href="#BitstreamVeraSans-Roman-20"/>
     <use x="495.01953125" xlink:href="#BitstreamVeraSans-Roman-77"/>
     <use x="576.806640625" xlink:href="#BitstreamVeraSans-Roman-69"/>
     <use x="604.58984375" xlink:href="#BitstreamVeraSans-Roman-74"/>
     <use x="643.798828125" xlink:href="#BitstreamVeraSans-Roman-68"/>
    </g>
    <!-- no decision time -->
    <defs>
     <path d="
M45.4062 46.3906
L45.4062 75.9844
L54.3906 75.9844
L54.3906 0
L45.4062 0
L45.4062 8.20312
Q42.5781 3.32812 38.25 0.953125
Q33.9375 -1.42188 27.875 -1.42188
Q17.9688 -1.42188 11.7344 6.48438
Q5.51562 14.4062 5.51562 27.2969
Q5.51562 40.1875 11.7344 48.0938
Q17.9688 56 27.875 56
Q33.9375 56 38.25 53.625
Q42.5781 51.2656 45.4062 46.3906
M14.7969 27.2969
Q14.7969 17.3906 18.875 11.75
Q22.9531 6.10938 30.0781 6.10938
Q37.2031 6.10938 41.2969 11.75
Q45.4062 17.3906 45.4062 27.2969
Q45.4062 37.2031 41.2969 42.8438
Q37.2031 48.4844 30.0781 48.4844
Q22.9531 48.4844 18.875 42.8438
Q14.7969 37.2031 14.7969 27.2969" id="BitstreamVeraSans-Roman-64"/>
     <path d="
M44.2812 53.0781
L44.2812 44.5781
Q40.4844 46.5312 36.375 47.5
Q32.2812 48.4844 27.875 48.4844
Q21.1875 48.4844 17.8438 46.4375
Q14.5 44.3906 14.5 40.2812
Q14.5 37.1562 16.8906 35.375
Q19.2812 33.5938 26.5156 31.9844
L29.5938 31.2969
Q39.1562 29.25 43.1875 25.5156
Q47.2188 21.7812 47.2188 15.0938
Q47.2188 7.46875 41.1875 3.01562
Q35.1562 -1.42188 24.6094 -1.42188
Q20.2188 -1.42188 15.4531 -0.5625
Q10.6875 0.296875 5.42188 2
L5.42188 11.2812
Q10.4062 8.6875 15.2344 7.39062
Q20.0625 6.10938 24.8125 6.10938
Q31.1562 6.10938 34.5625 8.28125
Q37.9844 10.4531 37.9844 14.4062
Q37.9844 18.0625 35.5156 20.0156
Q33.0625 21.9688 24.7031 23.7812
L21.5781 24.5156
Q13.2344 26.2656 9.51562 29.9062
Q5.8125 33.5469 5.8125 39.8906
Q5.8125 47.6094 11.2812 51.7969
Q16.75 56 26.8125 56
Q31.7812 56 36.1719 55.2656
Q40.5781 54.5469 44.2812 53.0781" id="BitstreamVeraSans-Roman-73"/>
     <path d="
M48.7812 52.5938
L48.7812 44.1875
Q44.9688 46.2969 41.1406 47.3438
Q37.3125 48.3906 33.4062 48.3906
Q24.6562 48.3906 19.8125 42.8438
Q14.9844 37.3125 14.9844 27.2969
Q14.9844 17.2812 19.8125 11.7344
Q24.6562 6.20312 33.4062 6.20312
Q37.3125 6.20312 41.1406 7.25
Q44.9688 8.29688 48.7812 10.4062
L48.7812 2.09375
Q45.0156 0.34375 40.9844 -0.53125
Q36.9688 -1.42188 32.4219 -1.42188
Q20.0625 -1.42188 12.7812 6.34375
Q5.51562 14.1094 5.51562 27.2969
Q5.51562 40.6719 12.8594 48.3281
Q20.2188 56 33.0156 56
Q37.1562 56 41.1094 55.1406
Q45.0625 54.2969 48.7812 52.5938" id="BitstreamVeraSans-Roman-63"/>
     <path d="
M52 44.1875
Q55.375 50.25 60.0625 53.125
Q64.75 56 71.0938 56
Q79.6406 56 84.2812 50.0156
Q88.9219 44.0469 88.9219 33.0156
L88.9219 0
L79.8906 0
L79.8906 32.7188
Q79.8906 40.5781 77.0938 44.375
Q74.3125 48.1875 68.6094 48.1875
Q61.625 48.1875 57.5625 43.5469
Q53.5156 38.9219 53.5156 30.9062
L53.5156 0
L44.4844 0
L44.4844 32.7188
Q44.4844 40.625 41.7031 44.4062
Q38.9219 48.1875 33.1094 48.1875
Q26.2188 48.1875 22.1562 43.5312
Q18.1094 38.875 18.1094 30.9062
L18.1094 0
L9.07812 0
L9.07812 54.6875
L18.1094 54.6875
L18.1094 46.1875
Q21.1875 51.2188 25.4844 53.6094
Q29.7812 56 35.6875 56
Q41.6562 56 45.8281 52.9688
Q50 49.9531 52 44.1875" id="BitstreamVeraSans-Roman-6d"/>
    </defs>
    <g transform="translate(327.68625 198.4266)scale(0.144 -0.144)">
     <use xlink:href="#BitstreamVeraSans-Roman-6e"/>
     <use x="63.37890625" xlink:href="#BitstreamVeraSans-Roman-6f"/>
     <use x="124.560546875" xlink:href="#BitstreamVeraSans-Roman-20"/>
     <use x="156.34765625" xlink:href="#BitstreamVeraSans-Roman-64"/>
     <use x="219.82421875" xlink:href="#BitstreamVeraSans-Roman-65"/>
     <use x="281.34765625" xlink:href="#BitstreamVeraSans-Roman-63"/>
     <use x="336.328125" xlink:href="#BitstreamVeraSans-Roman-69"/>
     <use x="364.111328125" xlink:href="#BitstreamVeraSans-Roman-73"/>
     <use x="416.2109375" xlink:href="#BitstreamVeraSans-Roman-69"/>
     <use x="443.994140625" xlink:href="#BitstreamVeraSans-Roman-6f"/>
     <use x="505.17578125" xlink:href="#BitstreamVeraSans-Roman-6e"/>
     <use x="568.5546875" xlink:href="#BitstreamVeraSans-Roman-20"/>
     <use x="600.341796875" xlink:href="#BitstreamVeraSans-Roman-74"/>
     <use x="639.55078125" xlink:href="#BitstreamVeraSans-Roman-69"/>
     <use x="667.333984375" xlink:href="#BitstreamVeraSans-Roman-6d"/>
     <use x="764.74609375" xlink:href="#BitstreamVeraSans-Roman-65"/>
    </g>
   </g>
  </g>
  <g id="axes_3">
   <g id="patch_12">
    <path d="
M563.914 384.867
L823.114 384.867
L823.114 39.2666
L563.914 39.2666
z
" style="fill:#ffffff;"/>
   </g>
   <g id="line2d_18">
    <path clip-path="url(#pfe8e649188)" d="
M563.914 269.516
L563.914 269.289
L574.282 269.214
L574.282 269.667
L584.65 269.591
L584.65 269.516
L600.202 269.516
L600.202 267.177
L605.386 267.177
L605.386 260.16
L610.57 260.16
L610.57 251.031
L615.754 251.031
L615.754 244.542
L620.938 244.542
L620.938 242.128
L626.122 242.128
L626.122 236.092
L631.306 236.092
L631.306 236.696
L636.49 236.696
L636.49 233.904
L641.674 233.904
L641.674 239.638
L646.858 239.638
L646.858 236.092
L652.042 236.092
L652.042 237.526
L657.226 237.526
L657.226 240.468
L662.41 240.468
L662.41 239.714
L667.594 239.714
L667.594 244.392
L672.778 244.392
L672.778 245.599
L677.962 245.599
L677.962 248.692
L683.146 248.692
L683.146 251.333
L688.33 251.333
L688.33 252.766
L693.514 252.766
L693.514 255.86
L698.698 255.86
L698.698 257.746
L703.882 257.746
L703.882 258.274
L709.066 258.274
L709.066 259.557
L714.25 259.557
L714.25 261.895
L719.434 261.895
L719.434 262.952
L724.618 262.952
L724.618 263.857
L729.802 263.857
L729.802 264.989
L734.986 264.989
L734.986 265.894
L740.17 265.894
L740.17 266.724
L745.354 266.724
L745.354 267.705
L755.722 267.705
L755.722 268.309
L760.906 268.309
L760.906 268.459
L766.09 268.459
L766.09 268.761
L771.274 268.761
L771.274 269.214
L776.458 269.214
L776.458 268.761
L781.642 268.761
L781.642 268.988
L792.01 268.988
L792.01 269.365
L807.562 269.44
L807.562 269.667
L812.746 269.667
L812.746 269.44
L817.93 269.44
L817.93 269.667
L823.114 269.667
L823.114 269.44
L838.666 269.365
L838.666 269.591
L840.017 269.591
L840.017 269.591" style="fill:none;stroke:#0000ff;stroke-linecap:square;"/>
   </g>
   <g id="line2d_19">
    <path clip-path="url(#pfe8e649188)" d="
M563.914 269.515
L569.098 269.515
L574.282 269.515
L579.466 269.515
L584.65 269.515
L589.834 269.515
L595.018 269.515
L600.202 269.515
L605.386 269.515
L610.57 254.311
L615.754 244.364
L620.938 238.707
L626.122 235.82
L631.306 234.741
L636.49 234.854
L641.674 235.764
L646.858 237.212
L652.042 239.023
L657.226 241.074
L662.41 243.272
L667.594 245.546
L672.778 247.839
L677.962 250.1
L683.146 252.291
L688.33 254.379
L693.514 256.339
L698.698 258.152
L703.882 259.808
L709.066 261.3
L714.25 262.627
L719.434 263.794
L724.618 264.807
L729.802 265.676
L734.986 266.414
L740.17 267.033
L745.354 267.547
L750.538 267.968
L755.722 268.31
L760.906 268.585
L766.09 268.804
L771.274 268.976
L776.458 269.11
L781.642 269.213
L786.826 269.292
L792.01 269.352
L797.194 269.396
L802.378 269.429
L807.562 269.454
L812.746 269.471
L817.93 269.484
L823.114 269.493
L828.298 269.5" style="fill:none;stroke:#0000ff;stroke-linecap:square;stroke-width:3;"/>
   </g>
   <g id="line2d_20">
    <path clip-path="url(#pfe8e649188)" d="
M563.914 269.742
L563.914 269.893
L579.466 269.893
L579.466 269.667
L584.65 269.667
L584.65 269.968
L600.202 269.968
L600.202 270.647
L605.386 270.647
L605.386 272.911
L610.57 272.911
L610.57 273.741
L615.754 273.741
L615.754 276.532
L620.938 276.532
L620.938 278.796
L626.122 278.796
L626.122 279.55
L631.306 279.55
L631.306 278.645
L636.49 278.645
L636.49 278.419
L641.674 278.419
L641.674 279.399
L646.858 279.399
L646.858 277.966
L652.042 277.966
L652.042 279.022
L657.226 279.022
L657.226 277.89
L662.41 277.89
L662.41 276.608
L667.594 276.608
L667.594 278.569
L672.778 278.569
L672.778 276.306
L677.962 276.306
L677.962 276.004
L683.146 276.004
L683.146 276.231
L688.33 276.231
L688.33 273.816
L693.514 273.816
L693.514 274.043
L698.698 274.043
L698.698 273.213
L703.882 273.213
L703.882 273.59
L709.066 273.59
L709.066 272.685
L719.434 272.76
L719.434 272.156
L729.802 272.156
L729.802 271.251
L734.986 271.251
L734.986 270.647
L740.17 270.647
L740.17 271.1
L745.354 271.1
L745.354 270.723
L750.538 270.723
L750.538 270.044
L760.906 270.119
L760.906 270.27
L766.09 270.27
L766.09 270.044
L771.274 270.044
L771.274 269.893
L776.458 269.893
L776.458 270.27
L781.642 270.27
L781.642 269.968
L792.01 269.893
L792.01 269.742
L802.378 269.667
L802.378 270.119
L807.562 270.119
L807.562 269.893
L817.93 269.817
L817.93 269.667
L823.114 269.667
L823.114 269.893
L828.298 269.893
L828.298 269.667
L833.482 269.667
L833.482 269.817
L838.666 269.817
L838.666 269.968
L840.017 269.968
L840.017 269.968" style="fill:none;stroke:#ff0000;stroke-linecap:square;"/>
   </g>
   <g id="line2d_21">
    <path clip-path="url(#pfe8e649188)" d="
M563.914 269.818
L569.098 269.818
L574.282 269.818
L579.466 269.818
L584.65 269.818
L589.834 269.818
L595.018 269.818
L600.202 269.818
L605.386 269.818
L610.57 274.918
L615.754 278.503
L620.938 280.667
L626.122 281.857
L631.306 282.374
L636.49 282.431
L641.674 282.171
L646.858 281.693
L652.042 281.065
L657.226 280.338
L662.41 279.549
L667.594 278.725
L672.778 277.891
L677.962 277.064
L683.146 276.26
L688.33 275.491
L693.514 274.767
L698.698 274.096
L703.882 273.481
L709.066 272.925
L714.25 272.43
L719.434 271.993
L724.618 271.612
L729.802 271.285
L734.986 271.006
L740.17 270.772
L745.354 270.577
L750.538 270.416
L755.722 270.286
L760.906 270.18
L766.09 270.096
L771.274 270.03
L776.458 269.978
L781.642 269.938
L786.826 269.907
L792.01 269.884
L797.194 269.866
L802.378 269.853
L807.562 269.843
L812.746 269.836
L817.93 269.831
L823.114 269.828
L828.298 269.825" style="fill:none;stroke:#ff0000;stroke-linecap:square;stroke-width:3;"/>
   </g>
   <g id="line2d_22">
    <path clip-path="url(#pfe8e649188)" d="
M563.914 269.667
L840.017 269.667" style="fill:none;stroke:#000000;stroke-linecap:square;"/>
   </g>
   <g id="patch_13">
    <path d="
M563.914 384.867
L823.114 384.867" style="fill:none;stroke:#000000;stroke-linecap:square;stroke-linejoin:miter;"/>
   </g>
   <g id="patch_14">
    <path d="
M563.914 384.867
L563.914 39.2666" style="fill:none;stroke:#000000;stroke-linecap:square;stroke-linejoin:miter;"/>
   </g>
   <g id="matplotlib.axis_5">
    <g id="xtick_7">
     <g id="line2d_23">
      <g>
       <use style="stroke:#000000;stroke-width:0.5;" x="563.91375" xlink:href="#m93b0483c22" y="384.8666"/>
      </g>
     </g>
     <g id="text_4">
      <!-- 0.0 -->
      <defs>
       <path d="
M31.7812 66.4062
Q24.1719 66.4062 20.3281 58.9062
Q16.5 51.4219 16.5 36.375
Q16.5 21.3906 20.3281 13.8906
Q24.1719 6.39062 31.7812 6.39062
Q39.4531 6.39062 43.2812 13.8906
Q47.125 21.3906 47.125 36.375
Q47.125 51.4219 43.2812 58.9062
Q39.4531 66.4062 31.7812 66.4062
M31.7812 74.2188
Q44.0469 74.2188 50.5156 64.5156
Q56.9844 54.8281 56.9844 36.375
Q56.9844 17.9688 50.5156 8.26562
Q44.0469 -1.42188 31.7812 -1.42188
Q19.5312 -1.42188 13.0625 8.26562
Q6.59375 17.9688 6.59375 36.375
Q6.59375 54.8281 13.0625 64.5156
Q19.5312 74.2188 31.7812 74.2188" id="BitstreamVeraSans-Roman-30"/>
       <path d="
M10.6875 12.4062
L21 12.4062
L21 0
L10.6875 0
z
" id="BitstreamVeraSans-Roman-2e"/>
      </defs>
      <g transform="translate(555.1659375 397.984725)scale(0.12 -0.12)">
       <use xlink:href="#BitstreamVeraSans-Roman-30"/>
       <use x="63.623046875" xlink:href="#BitstreamVeraSans-Roman-2e"/>
       <use x="95.41015625" xlink:href="#BitstreamVeraSans-Roman-30"/>
      </g>
     </g>
    </g>
    <g id="xtick_8">
     <g id="line2d_24">
      <g>
       <use style="stroke:#000000;stroke-width:0.5;" x="628.71375" xlink:href="#m93b0483c22" y="384.8666"/>
      </g>
     </g>
     <g id="text_5">
      <!-- 0.5 -->
      <defs>
       <path d="
M10.7969 72.9062
L49.5156 72.9062
L49.5156 64.5938
L19.8281 64.5938
L19.8281 46.7344
Q21.9688 47.4688 24.1094 47.8281
Q26.2656 48.1875 28.4219 48.1875
Q40.625 48.1875 47.75 41.5
Q54.8906 34.8125 54.8906 23.3906
Q54.8906 11.625 47.5625 5.09375
Q40.2344 -1.42188 26.9062 -1.42188
Q22.3125 -1.42188 17.5469 -0.640625
Q12.7969 0.140625 7.71875 1.70312
L7.71875 11.625
Q12.1094 9.23438 16.7969 8.0625
Q21.4844 6.89062 26.7031 6.89062
Q35.1562 6.89062 40.0781 11.3281
Q45.0156 15.7656 45.0156 23.3906
Q45.0156 31 40.0781 35.4375
Q35.1562 39.8906 26.7031 39.8906
Q22.75 39.8906 18.8125 39.0156
Q14.8906 38.1406 10.7969 36.2812
z
" id="BitstreamVeraSans-Roman-35"/>
      </defs>
      <g transform="translate(620.0915625 397.984725)scale(0.12 -0.12)">
       <use xlink:href="#BitstreamVeraSans-Roman-30"/>
       <use x="63.623046875" xlink:href="#BitstreamVeraSans-Roman-2e"/>
       <use x="95.41015625" xlink:href="#BitstreamVeraSans-Roman-35"/>
      </g>
     </g>
    </g>
    <g id="xtick_9">
     <g id="line2d_25">
      <g>
       <use style="stroke:#000000;stroke-width:0.5;" x="693.51375" xlink:href="#m93b0483c22" y="384.8666"/>
      </g>
     </g>
     <g id="text_6">
      <!-- 1.0 -->
      <defs>
       <path d="
M12.4062 8.29688
L28.5156 8.29688
L28.5156 63.9219
L10.9844 60.4062
L10.9844 69.3906
L28.4219 72.9062
L38.2812 72.9062
L38.2812 8.29688
L54.3906 8.29688
L54.3906 0
L12.4062 0
z
" id="BitstreamVeraSans-Roman-31"/>
      </defs>
      <g transform="translate(685.029375 397.984725)scale(0.12 -0.12)">
       <use xlink:href="#BitstreamVeraSans-Roman-31"/>
       <use x="63.623046875" xlink:href="#BitstreamVeraSans-Roman-2e"/>
       <use x="95.41015625" xlink:href="#BitstreamVeraSans-Roman-30"/>
      </g>
     </g>
    </g>
    <g id="xtick_10">
     <g id="line2d_26">
      <g>
       <use style="stroke:#000000;stroke-width:0.5;" x="758.31375" xlink:href="#m93b0483c22" y="384.8666"/>
      </g>
     </g>
     <g id="text_7">
      <!-- 1.5 -->
      <g transform="translate(749.955 397.984725)scale(0.12 -0.12)">
       <use xlink:href="#BitstreamVeraSans-Roman-31"/>
       <use x="63.623046875" xlink:href="#BitstreamVeraSans-Roman-2e"/>
       <use x="95.41015625" xlink:href="#BitstreamVeraSans-Roman-35"/>
      </g>
     </g>
    </g>
    <g id="xtick_11">
     <g id="line2d_27">
      <g>
       <use style="stroke:#000000;stroke-width:0.5;" x="823.11375" xlink:href="#m93b0483c22" y="384.8666"/>
      </g>
     </g>
     <g id="text_8">
      <!-- 2.0 -->
      <defs>
       <path d="
M19.1875 8.29688
L53.6094 8.29688
L53.6094 0
L7.32812 0
L7.32812 8.29688
Q12.9375 14.1094 22.625 23.8906
Q32.3281 33.6875 34.8125 36.5312
Q39.5469 41.8438 41.4219 45.5312
Q43.3125 49.2188 43.3125 52.7812
Q43.3125 58.5938 39.2344 62.25
Q35.1562 65.9219 28.6094 65.9219
Q23.9688 65.9219 18.8125 64.3125
Q13.6719 62.7031 7.8125 59.4219
L7.8125 69.3906
Q13.7656 71.7812 18.9375 73
Q24.125 74.2188 28.4219 74.2188
Q39.75 74.2188 46.4844 68.5469
Q53.2188 62.8906 53.2188 53.4219
Q53.2188 48.9219 51.5312 44.8906
Q49.8594 40.875 45.4062 35.4062
Q44.1875 33.9844 37.6406 27.2188
Q31.1094 20.4531 19.1875 8.29688" id="BitstreamVeraSans-Roman-32"/>
      </defs>
      <g transform="translate(814.41 397.984725)scale(0.12 -0.12)">
       <use xlink:href="#BitstreamVeraSans-Roman-32"/>
       <use x="63.623046875" xlink:href="#BitstreamVeraSans-Roman-2e"/>
       <use x="95.41015625" xlink:href="#BitstreamVeraSans-Roman-30"/>
      </g>
     </g>
    </g>
    <g id="text_9">
     <!-- T [s] -->
     <defs>
      <path d="
M8.59375 75.9844
L29.2969 75.9844
L29.2969 69
L17.5781 69
L17.5781 -6.20312
L29.2969 -6.20312
L29.2969 -13.1875
L8.59375 -13.1875
z
" id="BitstreamVeraSans-Roman-5b"/>
      <path d="
M30.4219 75.9844
L30.4219 -13.1875
L9.71875 -13.1875
L9.71875 -6.20312
L21.3906 -6.20312
L21.3906 69
L9.71875 69
L9.71875 75.9844
z
" id="BitstreamVeraSans-Roman-5d"/>
     </defs>
     <g transform="translate(680.6325 414.598475)scale(0.12 -0.12)">
      <use xlink:href="#BitstreamVeraSans-Roman-54"/>
      <use x="61.083984375" xlink:href="#BitstreamVeraSans-Roman-20"/>
      <use x="92.87109375" xlink:href="#BitstreamVeraSans-Roman-5b"/>
      <use x="131.884765625" xlink:href="#BitstreamVeraSans-Roman-73"/>
      <use x="183.984375" xlink:href="#BitstreamVeraSans-Roman-5d"/>
     </g>
    </g>
   </g>
   <g id="matplotlib.axis_6">
    <g id="ytick_1">
     <g id="line2d_28">
      <defs>
       <path d="
M0 0
L4 0" id="m728421d6d4" style="stroke:#000000;stroke-width:0.5;"/>
      </defs>
      <g>
       <use style="stroke:#000000;stroke-width:0.5;" x="563.91375" xlink:href="#m728421d6d4" y="384.8666"/>
      </g>
     </g>
     <g id="text_10">
      <!-- −4 -->
      <defs>
       <path d="
M10.5938 35.5
L73.1875 35.5
L73.1875 27.2031
L10.5938 27.2031
z
" id="BitstreamVeraSans-Roman-2212"/>
       <path d="
M37.7969 64.3125
L12.8906 25.3906
L37.7969 25.3906
z

M35.2031 72.9062
L47.6094 72.9062
L47.6094 25.3906
L58.0156 25.3906
L58.0156 17.1875
L47.6094 17.1875
L47.6094 0
L37.7969 0
L37.7969 17.1875
L4.89062 17.1875
L4.89062 26.7031
z
" id="BitstreamVeraSans-Roman-34"/>
      </defs>
      <g transform="translate(544.1675 388.17785)scale(0.12 -0.12)">
       <use xlink:href="#BitstreamVeraSans-Roman-2212"/>
       <use x="83.7890625" xlink:href="#BitstreamVeraSans-Roman-34"/>
      </g>
     </g>
    </g>
    <g id="ytick_2">
     <g id="line2d_29">
      <g>
       <use style="stroke:#000000;stroke-width:0.5;" x="563.91375" xlink:href="#m728421d6d4" y="327.2666"/>
      </g>
     </g>
     <g id="text_11">
      <!-- −2 -->
      <g transform="translate(544.69625 330.57785)scale(0.12 -0.12)">
       <use xlink:href="#BitstreamVeraSans-Roman-2212"/>
       <use x="83.7890625" xlink:href="#BitstreamVeraSans-Roman-32"/>
      </g>
     </g>
    </g>
    <g id="ytick_3">
     <g id="line2d_30">
      <g>
       <use style="stroke:#000000;stroke-width:0.5;" x="563.91375" xlink:href="#m728421d6d4" y="269.6666"/>
      </g>
     </g>
     <g id="text_12">
      <!-- 0 -->
      <g transform="translate(553.866875 272.97785)scale(0.12 -0.12)">
       <use xlink:href="#BitstreamVeraSans-Roman-30"/>
      </g>
     </g>
    </g>
    <g id="ytick_4">
     <g id="line2d_31">
      <g>
       <use style="stroke:#000000;stroke-width:0.5;" x="563.91375" xlink:href="#m728421d6d4" y="212.0666"/>
      </g>
     </g>
     <g id="text_13">
      <!-- 2 -->
      <g transform="translate(554.36 215.37785)scale(0.12 -0.12)">
       <use xlink:href="#BitstreamVeraSans-Roman-32"/>
      </g>
     </g>
    </g>
    <g id="ytick_5">
     <g id="line2d_32">
      <g>
       <use style="stroke:#000000;stroke-width:0.5;" x="563.91375" xlink:href="#m728421d6d4" y="154.4666"/>
      </g>
     </g>
     <g id="text_14">
      <!-- 4 -->
      <g transform="translate(553.53875 157.77785)scale(0.12 -0.12)">
       <use xlink:href="#BitstreamVeraSans-Roman-34"/>
      </g>
     </g>
    </g>
    <g id="ytick_6">
     <g id="line2d_33">
      <g>
       <use style="stroke:#000000;stroke-width:0.5;" x="563.91375" xlink:href="#m728421d6d4" y="96.8666"/>
      </g>
     </g>
     <g id="text_15">
      <!-- 6 -->
      <defs>
       <path d="
M33.0156 40.375
Q26.375 40.375 22.4844 35.8281
Q18.6094 31.2969 18.6094 23.3906
Q18.6094 15.5312 22.4844 10.9531
Q26.375 6.39062 33.0156 6.39062
Q39.6562 6.39062 43.5312 10.9531
Q47.4062 15.5312 47.4062 23.3906
Q47.4062 31.2969 43.5312 35.8281
Q39.6562 40.375 33.0156 40.375
M52.5938 71.2969
L52.5938 62.3125
Q48.875 64.0625 45.0938 64.9844
Q41.3125 65.9219 37.5938 65.9219
Q27.8281 65.9219 22.6719 59.3281
Q17.5312 52.7344 16.7969 39.4062
Q19.6719 43.6562 24.0156 45.9219
Q28.375 48.1875 33.5938 48.1875
Q44.5781 48.1875 50.9531 41.5156
Q57.3281 34.8594 57.3281 23.3906
Q57.3281 12.1562 50.6875 5.35938
Q44.0469 -1.42188 33.0156 -1.42188
Q20.3594 -1.42188 13.6719 8.26562
Q6.98438 17.9688 6.98438 36.375
Q6.98438 53.6562 15.1875 63.9375
Q23.3906 74.2188 37.2031 74.2188
Q40.9219 74.2188 44.7031 73.4844
Q48.4844 72.75 52.5938 71.2969" id="BitstreamVeraSans-Roman-36"/>
      </defs>
      <g transform="translate(553.8725 100.17785)scale(0.12 -0.12)">
       <use xlink:href="#BitstreamVeraSans-Roman-36"/>
      </g>
     </g>
    </g>
    <g id="ytick_7">
     <g id="line2d_34">
      <g>
       <use style="stroke:#000000;stroke-width:0.5;" x="563.91375" xlink:href="#m728421d6d4" y="39.2666"/>
      </g>
     </g>
     <g id="text_16">
      <!-- 8 -->
      <defs>
       <path d="
M31.7812 34.625
Q24.75 34.625 20.7188 30.8594
Q16.7031 27.0938 16.7031 20.5156
Q16.7031 13.9219 20.7188 10.1562
Q24.75 6.39062 31.7812 6.39062
Q38.8125 6.39062 42.8594 10.1719
Q46.9219 13.9688 46.9219 20.5156
Q46.9219 27.0938 42.8906 30.8594
Q38.875 34.625 31.7812 34.625
M21.9219 38.8125
Q15.5781 40.375 12.0312 44.7188
Q8.5 49.0781 8.5 55.3281
Q8.5 64.0625 14.7188 69.1406
Q20.9531 74.2188 31.7812 74.2188
Q42.6719 74.2188 48.875 69.1406
Q55.0781 64.0625 55.0781 55.3281
Q55.0781 49.0781 51.5312 44.7188
Q48 40.375 41.7031 38.8125
Q48.8281 37.1562 52.7969 32.3125
Q56.7812 27.4844 56.7812 20.5156
Q56.7812 9.90625 50.3125 4.23438
Q43.8438 -1.42188 31.7812 -1.42188
Q19.7344 -1.42188 13.25 4.23438
Q6.78125 9.90625 6.78125 20.5156
Q6.78125 27.4844 10.7812 32.3125
Q14.7969 37.1562 21.9219 38.8125
M18.3125 54.3906
Q18.3125 48.7344 21.8438 45.5625
Q25.3906 42.3906 31.7812 42.3906
Q38.1406 42.3906 41.7188 45.5625
Q45.3125 48.7344 45.3125 54.3906
Q45.3125 60.0625 41.7188 63.2344
Q38.1406 66.4062 31.7812 66.4062
Q25.3906 66.4062 21.8438 63.2344
Q18.3125 60.0625 18.3125 54.3906" id="BitstreamVeraSans-Roman-38"/>
      </defs>
      <g transform="translate(553.91375 42.57785)scale(0.12 -0.12)">
       <use xlink:href="#BitstreamVeraSans-Roman-38"/>
      </g>
     </g>
    </g>
    <g id="text_17">
     <!-- RT dist -->
     <defs>
      <path d="
M44.3906 34.1875
Q47.5625 33.1094 50.5625 29.5938
Q53.5625 26.0781 56.5938 19.9219
L66.6094 0
L56 0
L46.6875 18.7031
Q43.0625 26.0312 39.6719 28.4219
Q36.2812 30.8125 30.4219 30.8125
L19.6719 30.8125
L19.6719 0
L9.8125 0
L9.8125 72.9062
L32.0781 72.9062
Q44.5781 72.9062 50.7344 67.6719
Q56.8906 62.4531 56.8906 51.9062
Q56.8906 45.0156 53.6875 40.4688
Q50.4844 35.9375 44.3906 34.1875
M19.6719 64.7969
L19.6719 38.9219
L32.0781 38.9219
Q39.2031 38.9219 42.8438 42.2188
Q46.4844 45.5156 46.4844 51.9062
Q46.4844 58.2969 42.8438 61.5469
Q39.2031 64.7969 32.0781 64.7969
z
" id="BitstreamVeraSans-Roman-52"/>
     </defs>
     <g transform="translate(536.671875 232.1825375)rotate(-90.0)scale(0.12 -0.12)">
      <use xlink:href="#BitstreamVeraSans-Roman-52"/>
      <use x="62.232421875" xlink:href="#BitstreamVeraSans-Roman-54"/>
      <use x="123.31640625" xlink:href="#BitstreamVeraSans-Roman-20"/>
      <use x="155.103515625" xlink:href="#BitstreamVeraSans-Roman-64"/>
      <use x="218.580078125" xlink:href="#BitstreamVeraSans-Roman-69"/>
      <use x="246.36328125" xlink:href="#BitstreamVeraSans-Roman-73"/>
      <use x="298.462890625" xlink:href="#BitstreamVeraSans-Roman-74"/>
     </g>
    </g>
   </g>
   <g id="text_18">
    <!-- Response time -->
    <defs>
     <path d="
M18.1094 8.20312
L18.1094 -20.7969
L9.07812 -20.7969
L9.07812 54.6875
L18.1094 54.6875
L18.1094 46.3906
Q20.9531 51.2656 25.2656 53.625
Q29.5938 56 35.5938 56
Q45.5625 56 51.7812 48.0938
Q58.0156 40.1875 58.0156 27.2969
Q58.0156 14.4062 51.7812 6.48438
Q45.5625 -1.42188 35.5938 -1.42188
Q29.5938 -1.42188 25.2656 0.953125
Q20.9531 3.32812 18.1094 8.20312
M48.6875 27.2969
Q48.6875 37.2031 44.6094 42.8438
Q40.5312 48.4844 33.4062 48.4844
Q26.2656 48.4844 22.1875 42.8438
Q18.1094 37.2031 18.1094 27.2969
Q18.1094 17.3906 22.1875 11.75
Q26.2656 6.10938 33.4062 6.10938
Q40.5312 6.10938 44.6094 11.75
Q48.6875 17.3906 48.6875 27.2969" id="BitstreamVeraSans-Roman-70"/>
    </defs>
    <g transform="translate(640.7625 34.2666)scale(0.144 -0.144)">
     <use xlink:href="#BitstreamVeraSans-Roman-52"/>
     <use x="64.982421875" xlink:href="#BitstreamVeraSans-Roman-65"/>
     <use x="126.505859375" xlink:href="#BitstreamVeraSans-Roman-73"/>
     <use x="178.60546875" xlink:href="#BitstreamVeraSans-Roman-70"/>
     <use x="242.08203125" xlink:href="#BitstreamVeraSans-Roman-6f"/>
     <use x="303.263671875" xlink:href="#BitstreamVeraSans-Roman-6e"/>
     <use x="366.642578125" xlink:href="#BitstreamVeraSans-Roman-73"/>
     <use x="418.7421875" xlink:href="#BitstreamVeraSans-Roman-65"/>
     <use x="480.265625" xlink:href="#BitstreamVeraSans-Roman-20"/>
     <use x="512.052734375" xlink:href="#BitstreamVeraSans-Roman-74"/>
     <use x="551.26171875" xlink:href="#BitstreamVeraSans-Roman-69"/>
     <use x="579.044921875" xlink:href="#BitstreamVeraSans-Roman-6d"/>
     <use x="676.45703125" xlink:href="#BitstreamVeraSans-Roman-65"/>
    </g>
   </g>
  </g>
  <g id="axes_4">
   <g id="patch_15">
    <path d="
M45.5138 212.067
L278.794 212.067
L278.794 39.2666
L45.5138 39.2666
z
" style="fill:#ffffff;"/>
   </g>
   <g id="line2d_35">
    <path clip-path="url(#pf7ea89552b)" d="
M45.5138 212.067
L45.5138 160.63
L54.8449 160.63
L54.8449 120.907
L64.1762 120.907
L64.1762 131.941
L73.5074 131.941
L73.5074 153.161
L82.8385 153.161
L82.8385 170.929
L92.1697 170.929
L92.1697 185.188
L101.501 185.188
L101.501 190.847
L110.832 190.847
L110.832 196.392
L120.163 196.392
L120.163 202.56
L129.495 202.56
L129.495 205.333
L138.826 205.333
L138.826 206.691
L148.157 206.691
L148.157 208.615
L157.488 208.615
L157.488 209.86
L166.819 209.86
L166.819 210.369
L176.151 210.369
L176.151 211.218
L185.482 211.218
L185.482 211.331
L194.813 211.331
L194.813 211.501
L204.144 211.501
L204.144 211.784
L213.475 211.784
L213.475 212.01
L222.807 212.01
L222.807 211.897
L241.469 211.897
L241.469 212.067
L250.8 212.067
L250.8 211.953
L260.131 211.953
L260.131 212.067
L840.017 212.067
L840.017 212.067" style="fill:none;stroke:#0000ff;stroke-linecap:square;"/>
   </g>
   <g id="line2d_36">
    <path clip-path="url(#pf7ea89552b)" d="
M45.5138 212.067
L54.8449 60.1825
L64.1762 111.217
L73.5074 151.648
L82.8385 176.402
L92.1697 191.402
L101.501 200.327
L110.832 205.54
L120.163 208.525
L129.495 210.192
L138.826 211.097
L148.157 211.576
L157.488 211.822
L166.819 211.946
L176.151 212.006
L185.482 212.034
L194.813 212.048
L204.144 212.054
L213.475 212.058
L222.807 212.059
L232.138 212.06
L241.469 212.061
L250.8 212.062
L260.131 212.062
L269.463 212.063
L278.794 212.063
L288.125 212.064" style="fill:none;stroke:#0000ff;stroke-linecap:square;stroke-width:3;"/>
   </g>
   <g id="patch_16">
    <path d="
M45.5138 212.067
L278.794 212.067" style="fill:none;stroke:#000000;stroke-linecap:square;stroke-linejoin:miter;"/>
   </g>
   <g id="patch_17">
    <path d="
M45.5138 212.067
L45.5138 39.2666" style="fill:none;stroke:#000000;stroke-linecap:square;stroke-linejoin:miter;"/>
   </g>
   <g id="matplotlib.axis_7">
    <g id="xtick_12">
     <g id="line2d_37">
      <g>
       <use style="stroke:#000000;stroke-width:0.5;" x="45.51375" xlink:href="#m93b0483c22" y="212.0666"/>
      </g>
     </g>
    </g>
    <g id="xtick_13">
     <g id="line2d_38">
      <g>
       <use style="stroke:#000000;stroke-width:0.5;" x="92.16975" xlink:href="#m93b0483c22" y="212.0666"/>
      </g>
     </g>
    </g>
    <g id="xtick_14">
     <g id="line2d_39">
      <g>
       <use style="stroke:#000000;stroke-width:0.5;" x="138.82575" xlink:href="#m93b0483c22" y="212.0666"/>
      </g>
     </g>
    </g>
    <g id="xtick_15">
     <g id="line2d_40">
      <g>
       <use style="stroke:#000000;stroke-width:0.5;" x="185.48175" xlink:href="#m93b0483c22" y="212.0666"/>
      </g>
     </g>
    </g>
    <g id="xtick_16">
     <g id="line2d_41">
      <g>
       <use style="stroke:#000000;stroke-width:0.5;" x="232.13775" xlink:href="#m93b0483c22" y="212.0666"/>
      </g>
     </g>
    </g>
    <g id="xtick_17">
     <g id="line2d_42">
      <g>
       <use style="stroke:#000000;stroke-width:0.5;" x="278.79375" xlink:href="#m93b0483c22" y="212.0666"/>
      </g>
     </g>
    </g>
   </g>
   <g id="matplotlib.axis_8">
    <g id="ytick_8">
     <g id="line2d_43">
      <g>
       <use style="stroke:#000000;stroke-width:0.5;" x="45.51375" xlink:href="#m728421d6d4" y="212.0666"/>
      </g>
     </g>
     <g id="text_19">
      <!-- 0 -->
      <g transform="translate(35.466875 215.37785)scale(0.12 -0.12)">
       <use xlink:href="#BitstreamVeraSans-Roman-30"/>
      </g>
     </g>
    </g>
    <g id="ytick_9">
     <g id="line2d_44">
      <g>
       <use style="stroke:#000000;stroke-width:0.5;" x="45.51375" xlink:href="#m728421d6d4" y="190.4666"/>
      </g>
     </g>
     <g id="text_20">
      <!-- 1 -->
      <g transform="translate(36.305 193.77785)scale(0.12 -0.12)">
       <use xlink:href="#BitstreamVeraSans-Roman-31"/>
      </g>
     </g>
    </g>
    <g id="ytick_10">
     <g id="line2d_45">
      <g>
       <use style="stroke:#000000;stroke-width:0.5;" x="45.51375" xlink:href="#m728421d6d4" y="168.8666"/>
      </g>
     </g>
     <g id="text_21">
      <!-- 2 -->
      <g transform="translate(35.96 172.17785)scale(0.12 -0.12)">
       <use xlink:href="#BitstreamVeraSans-Roman-32"/>
      </g>
     </g>
    </g>
    <g id="ytick_11">
     <g id="line2d_46">
      <g>
       <use style="stroke:#000000;stroke-width:0.5;" x="45.51375" xlink:href="#m728421d6d4" y="147.2666"/>
      </g>
     </g>
     <g id="text_22">
      <!-- 3 -->
      <defs>
       <path d="
M40.5781 39.3125
Q47.6562 37.7969 51.625 33
Q55.6094 28.2188 55.6094 21.1875
Q55.6094 10.4062 48.1875 4.48438
Q40.7656 -1.42188 27.0938 -1.42188
Q22.5156 -1.42188 17.6562 -0.515625
Q12.7969 0.390625 7.625 2.20312
L7.625 11.7188
Q11.7188 9.32812 16.5938 8.10938
Q21.4844 6.89062 26.8125 6.89062
Q36.0781 6.89062 40.9375 10.5469
Q45.7969 14.2031 45.7969 21.1875
Q45.7969 27.6406 41.2812 31.2656
Q36.7656 34.9062 28.7188 34.9062
L20.2188 34.9062
L20.2188 43.0156
L29.1094 43.0156
Q36.375 43.0156 40.2344 45.9219
Q44.0938 48.8281 44.0938 54.2969
Q44.0938 59.9062 40.1094 62.9062
Q36.1406 65.9219 28.7188 65.9219
Q24.6562 65.9219 20.0156 65.0312
Q15.375 64.1562 9.8125 62.3125
L9.8125 71.0938
Q15.4375 72.6562 20.3438 73.4375
Q25.25 74.2188 29.5938 74.2188
Q40.8281 74.2188 47.3594 69.1094
Q53.9062 64.0156 53.9062 55.3281
Q53.9062 49.2656 50.4375 45.0938
Q46.9688 40.9219 40.5781 39.3125" id="BitstreamVeraSans-Roman-33"/>
      </defs>
      <g transform="translate(35.755625 150.57785)scale(0.12 -0.12)">
       <use xlink:href="#BitstreamVeraSans-Roman-33"/>
      </g>
     </g>
    </g>
    <g id="ytick_12">
     <g id="line2d_47">
      <g>
       <use style="stroke:#000000;stroke-width:0.5;" x="45.51375" xlink:href="#m728421d6d4" y="125.6666"/>
      </g>
     </g>
     <g id="text_23">
      <!-- 4 -->
      <g transform="translate(35.13875 128.97785)scale(0.12 -0.12)">
       <use xlink:href="#BitstreamVeraSans-Roman-34"/>
      </g>
     </g>
    </g>
    <g id="ytick_13">
     <g id="line2d_48">
      <g>
       <use style="stroke:#000000;stroke-width:0.5;" x="45.51375" xlink:href="#m728421d6d4" y="104.0666"/>
      </g>
     </g>
     <g id="text_24">
      <!-- 5 -->
      <g transform="translate(35.853125 107.37785)scale(0.12 -0.12)">
       <use xlink:href="#BitstreamVeraSans-Roman-35"/>
      </g>
     </g>
    </g>
    <g id="ytick_14">
     <g id="line2d_49">
      <g>
       <use style="stroke:#000000;stroke-width:0.5;" x="45.51375" xlink:href="#m728421d6d4" y="82.4666"/>
      </g>
     </g>
     <g id="text_25">
      <!-- 6 -->
      <g transform="translate(35.4725 85.77785)scale(0.12 -0.12)">
       <use xlink:href="#BitstreamVeraSans-Roman-36"/>
      </g>
     </g>
    </g>
    <g id="ytick_15">
     <g id="line2d_50">
      <g>
       <use style="stroke:#000000;stroke-width:0.5;" x="45.51375" xlink:href="#m728421d6d4" y="60.8666"/>
      </g>
     </g>
     <g id="text_26">
      <!-- 7 -->
      <defs>
       <path d="
M8.20312 72.9062
L55.0781 72.9062
L55.0781 68.7031
L28.6094 0
L18.3125 0
L43.2188 64.5938
L8.20312 64.5938
z
" id="BitstreamVeraSans-Roman-37"/>
      </defs>
      <g transform="translate(35.88875 64.17785)scale(0.12 -0.12)">
       <use xlink:href="#BitstreamVeraSans-Roman-37"/>
      </g>
     </g>
    </g>
    <g id="ytick_16">
     <g id="line2d_51">
      <g>
       <use style="stroke:#000000;stroke-width:0.5;" x="45.51375" xlink:href="#m728421d6d4" y="39.2666"/>
      </g>
     </g>
     <g id="text_27">
      <!-- 8 -->
      <g transform="translate(35.51375 42.57785)scale(0.12 -0.12)">
       <use xlink:href="#BitstreamVeraSans-Roman-38"/>
      </g>
     </g>
    </g>
    <g id="text_28">
     <!-- Up RT dist -->
     <defs>
      <path d="
M8.6875 72.9062
L18.6094 72.9062
L18.6094 28.6094
Q18.6094 16.8906 22.8438 11.7344
Q27.0938 6.59375 36.625 6.59375
Q46.0938 6.59375 50.3438 11.7344
Q54.5938 16.8906 54.5938 28.6094
L54.5938 72.9062
L64.5 72.9062
L64.5 27.3906
Q64.5 13.1406 57.4375 5.85938
Q50.3906 -1.42188 36.625 -1.42188
Q22.7969 -1.42188 15.7344 5.85938
Q8.6875 13.1406 8.6875 27.3906
z
" id="BitstreamVeraSans-Roman-55"/>
     </defs>
     <g transform="translate(27.643125 155.889725)rotate(-90.0)scale(0.12 -0.12)">
      <use xlink:href="#BitstreamVeraSans-Roman-55"/>
      <use x="73.193359375" xlink:href="#BitstreamVeraSans-Roman-70"/>
      <use x="136.669921875" xlink:href="#BitstreamVeraSans-Roman-20"/>
      <use x="168.45703125" xlink:href="#BitstreamVeraSans-Roman-52"/>
      <use x="230.689453125" xlink:href="#BitstreamVeraSans-Roman-54"/>
      <use x="291.7734375" xlink:href="#BitstreamVeraSans-Roman-20"/>
      <use x="323.560546875" xlink:href="#BitstreamVeraSans-Roman-64"/>
      <use x="387.037109375" xlink:href="#BitstreamVeraSans-Roman-69"/>
      <use x="414.8203125" xlink:href="#BitstreamVeraSans-Roman-73"/>
      <use x="466.919921875" xlink:href="#BitstreamVeraSans-Roman-74"/>
     </g>
    </g>
   </g>
   <g id="patch_18">
    <path d="
M105.657 167.564
Q234.6 147.484 315.3 248.432
L316.472 247.495
Q317.062 250.235 317.607 252.987
Q315.083 251.763 312.566 250.617
L313.738 249.681
Q233.762 149.639 105.965 169.54
L105.657 167.564
z
" style="fill:#808080;stroke:#808080;stroke-linecap:round;"/>
   </g>
   <g id="text_29">
    <!-- Diffusion first -->
    <defs>
     <path d="
M41.1094 46.2969
Q39.5938 47.1719 37.8125 47.5781
Q36.0312 48 33.8906 48
Q26.2656 48 22.1875 43.0469
Q18.1094 38.0938 18.1094 28.8125
L18.1094 0
L9.07812 0
L9.07812 54.6875
L18.1094 54.6875
L18.1094 46.1875
Q20.9531 51.1719 25.4844 53.5781
Q30.0312 56 36.5312 56
Q37.4531 56 38.5781 55.875
Q39.7031 55.7656 41.0625 55.5156
z
" id="BitstreamVeraSans-Roman-72"/>
     <path d="
M8.5 21.5781
L8.5 54.6875
L17.4844 54.6875
L17.4844 21.9219
Q17.4844 14.1562 20.5 10.2656
Q23.5312 6.39062 29.5938 6.39062
Q36.8594 6.39062 41.0781 11.0312
Q45.3125 15.6719 45.3125 23.6875
L45.3125 54.6875
L54.2969 54.6875
L54.2969 0
L45.3125 0
L45.3125 8.40625
Q42.0469 3.42188 37.7188 1
Q33.4062 -1.42188 27.6875 -1.42188
Q18.2656 -1.42188 13.375 4.4375
Q8.5 10.2969 8.5 21.5781" id="BitstreamVeraSans-Roman-75"/>
     <path d="
M19.6719 64.7969
L19.6719 8.10938
L31.5938 8.10938
Q46.6875 8.10938 53.6875 14.9375
Q60.6875 21.7812 60.6875 36.5312
Q60.6875 51.1719 53.6875 57.9844
Q46.6875 64.7969 31.5938 64.7969
z

M9.8125 72.9062
L30.0781 72.9062
Q51.2656 72.9062 61.1719 64.0938
Q71.0938 55.2812 71.0938 36.5312
Q71.0938 17.6719 61.125 8.82812
Q51.1719 0 30.0781 0
L9.8125 0
z
" id="BitstreamVeraSans-Roman-44"/>
     <path d="
M37.1094 75.9844
L37.1094 68.5
L28.5156 68.5
Q23.6875 68.5 21.7969 66.5469
Q19.9219 64.5938 19.9219 59.5156
L19.9219 54.6875
L34.7188 54.6875
L34.7188 47.7031
L19.9219 47.7031
L19.9219 0
L10.8906 0
L10.8906 47.7031
L2.29688 47.7031
L2.29688 54.6875
L10.8906 54.6875
L10.8906 58.5
Q10.8906 67.625 15.1406 71.7969
Q19.3906 75.9844 28.6094 75.9844
z
" id="BitstreamVeraSans-Roman-66"/>
    </defs>
    <g transform="translate(114.0735 18.14175)scale(0.144 -0.144)">
     <use xlink:href="#BitstreamVeraSans-Roman-44"/>
     <use x="77.001953125" xlink:href="#BitstreamVeraSans-Roman-69"/>
     <use x="104.78515625" xlink:href="#BitstreamVeraSans-Roman-66"/>
     <use x="139.990234375" xlink:href="#BitstreamVeraSans-Roman-66"/>
     <use x="175.1953125" xlink:href="#BitstreamVeraSans-Roman-75"/>
     <use x="238.57421875" xlink:href="#BitstreamVeraSans-Roman-73"/>
     <use x="290.673828125" xlink:href="#BitstreamVeraSans-Roman-69"/>
     <use x="318.45703125" xlink:href="#BitstreamVeraSans-Roman-6f"/>
     <use x="379.638671875" xlink:href="#BitstreamVeraSans-Roman-6e"/>
     <use x="443.017578125" xlink:href="#BitstreamVeraSans-Roman-20"/>
     <use x="474.8046875" xlink:href="#BitstreamVeraSans-Roman-66"/>
     <use x="510.009765625" xlink:href="#BitstreamVeraSans-Roman-69"/>
     <use x="537.79296875" xlink:href="#BitstreamVeraSans-Roman-72"/>
     <use x="578.90625" xlink:href="#BitstreamVeraSans-Roman-73"/>
     <use x="631.005859375" xlink:href="#BitstreamVeraSans-Roman-74"/>
    </g>
    <!-- passage time -->
    <defs>
     <path d="
M45.4062 27.9844
Q45.4062 37.75 41.375 43.1094
Q37.3594 48.4844 30.0781 48.4844
Q22.8594 48.4844 18.8281 43.1094
Q14.7969 37.75 14.7969 27.9844
Q14.7969 18.2656 18.8281 12.8906
Q22.8594 7.51562 30.0781 7.51562
Q37.3594 7.51562 41.375 12.8906
Q45.4062 18.2656 45.4062 27.9844
M54.3906 6.78125
Q54.3906 -7.17188 48.1875 -13.9844
Q42 -20.7969 29.2031 -20.7969
Q24.4688 -20.7969 20.2656 -20.0938
Q16.0625 -19.3906 12.1094 -17.9219
L12.1094 -9.1875
Q16.0625 -11.3281 19.9219 -12.3438
Q23.7812 -13.375 27.7812 -13.375
Q36.625 -13.375 41.0156 -8.76562
Q45.4062 -4.15625 45.4062 5.17188
L45.4062 9.625
Q42.625 4.78125 38.2812 2.39062
Q33.9375 0 27.875 0
Q17.8281 0 11.6719 7.65625
Q5.51562 15.3281 5.51562 27.9844
Q5.51562 40.6719 11.6719 48.3281
Q17.8281 56 27.875 56
Q33.9375 56 38.2812 53.6094
Q42.625 51.2188 45.4062 46.3906
L45.4062 54.6875
L54.3906 54.6875
z
" id="BitstreamVeraSans-Roman-67"/>
     <path d="
M34.2812 27.4844
Q23.3906 27.4844 19.1875 25
Q14.9844 22.5156 14.9844 16.5
Q14.9844 11.7188 18.1406 8.90625
Q21.2969 6.10938 26.7031 6.10938
Q34.1875 6.10938 38.7031 11.4062
Q43.2188 16.7031 43.2188 25.4844
L43.2188 27.4844
z

M52.2031 31.2031
L52.2031 0
L43.2188 0
L43.2188 8.29688
Q40.1406 3.32812 35.5469 0.953125
Q30.9531 -1.42188 24.3125 -1.42188
Q15.9219 -1.42188 10.9531 3.29688
Q6 8.01562 6 15.9219
Q6 25.1406 12.1719 29.8281
Q18.3594 34.5156 30.6094 34.5156
L43.2188 34.5156
L43.2188 35.4062
Q43.2188 41.6094 39.1406 45
Q35.0625 48.3906 27.6875 48.3906
Q23 48.3906 18.5469 47.2656
Q14.1094 46.1406 10.0156 43.8906
L10.0156 52.2031
Q14.9375 54.1094 19.5781 55.0469
Q24.2188 56 28.6094 56
Q40.4844 56 46.3438 49.8438
Q52.2031 43.7031 52.2031 31.2031" id="BitstreamVeraSans-Roman-61"/>
    </defs>
    <g transform="translate(114.08475 34.2666)scale(0.144 -0.144)">
     <use xlink:href="#BitstreamVeraSans-Roman-70"/>
     <use x="63.4765625" xlink:href="#BitstreamVeraSans-Roman-61"/>
     <use x="124.755859375" xlink:href="#BitstreamVeraSans-Roman-73"/>
     <use x="176.85546875" xlink:href="#BitstreamVeraSans-Roman-73"/>
     <use x="228.955078125" xlink:href="#BitstreamVeraSans-Roman-61"/>
     <use x="290.234375" xlink:href="#BitstreamVeraSans-Roman-67"/>
     <use x="353.7109375" xlink:href="#BitstreamVeraSans-Roman-65"/>
     <use x="415.234375" xlink:href="#BitstreamVeraSans-Roman-20"/>
     <use x="447.021484375" xlink:href="#BitstreamVeraSans-Roman-74"/>
     <use x="486.23046875" xlink:href="#BitstreamVeraSans-Roman-69"/>
     <use x="514.013671875" xlink:href="#BitstreamVeraSans-Roman-6d"/>
     <use x="611.42578125" xlink:href="#BitstreamVeraSans-Roman-65"/>
    </g>
   </g>
   <g id="legend_1">
    <g id="patch_19">
     <path d="
M143.504 93.0596
L268.714 93.0596
Q271.594 93.0596 271.594 90.1796
L271.594 49.3466
Q271.594 46.4666 268.714 46.4666
L143.504 46.4666
Q140.624 46.4666 140.624 49.3466
L140.624 90.1796
Q140.624 93.0596 143.504 93.0596
z
" style="fill:#ffffff;opacity:0.5;stroke:#000000;stroke-linejoin:miter;"/>
    </g>
    <g id="line2d_52">
     <path d="
M150.704 58.1283
L170.864 58.1283" style="fill:none;stroke:#0000ff;stroke-linecap:square;"/>
    </g>
    <g id="line2d_53"/>
    <g id="text_30">
     <!-- Simulation -->
     <defs>
      <path d="
M53.5156 70.5156
L53.5156 60.8906
Q47.9062 63.5781 42.9219 64.8906
Q37.9375 66.2188 33.2969 66.2188
Q25.25 66.2188 20.875 63.0938
Q16.5 59.9688 16.5 54.2031
Q16.5 49.3594 19.4062 46.8906
Q22.3125 44.4375 30.4219 42.9219
L36.375 41.7031
Q47.4062 39.5938 52.6562 34.2969
Q57.9062 29 57.9062 20.125
Q57.9062 9.51562 50.7969 4.04688
Q43.7031 -1.42188 29.9844 -1.42188
Q24.8125 -1.42188 18.9688 -0.25
Q13.1406 0.921875 6.89062 3.21875
L6.89062 13.375
Q12.8906 10.0156 18.6562 8.29688
Q24.4219 6.59375 29.9844 6.59375
Q38.4219 6.59375 43.0156 9.90625
Q47.6094 13.2344 47.6094 19.3906
Q47.6094 24.75 44.3125 27.7812
Q41.0156 30.8125 33.5 32.3281
L27.4844 33.5
Q16.4531 35.6875 11.5156 40.375
Q6.59375 45.0625 6.59375 53.4219
Q6.59375 63.0938 13.4062 68.6562
Q20.2188 74.2188 32.1719 74.2188
Q37.3125 74.2188 42.625 73.2812
Q47.9531 72.3594 53.5156 70.5156" id="BitstreamVeraSans-Roman-53"/>
     </defs>
     <g transform="translate(186.7035 63.16835)scale(0.144 -0.144)">
      <use xlink:href="#BitstreamVeraSans-Roman-53"/>
      <use x="63.4765625" xlink:href="#BitstreamVeraSans-Roman-69"/>
      <use x="91.259765625" xlink:href="#BitstreamVeraSans-Roman-6d"/>
      <use x="188.671875" xlink:href="#BitstreamVeraSans-Roman-75"/>
      <use x="252.05078125" xlink:href="#BitstreamVeraSans-Roman-6c"/>
      <use x="279.833984375" xlink:href="#BitstreamVeraSans-Roman-61"/>
      <use x="341.11328125" xlink:href="#BitstreamVeraSans-Roman-74"/>
      <use x="380.322265625" xlink:href="#BitstreamVeraSans-Roman-69"/>
      <use x="408.10546875" xlink:href="#BitstreamVeraSans-Roman-6f"/>
      <use x="469.287109375" xlink:href="#BitstreamVeraSans-Roman-6e"/>
     </g>
    </g>
    <g id="line2d_54">
     <path d="
M150.704 79.2648
L170.864 79.2648" style="fill:none;stroke:#0000ff;stroke-linecap:square;stroke-width:3;"/>
    </g>
    <g id="line2d_55"/>
    <g id="text_31">
     <!-- Theoretical -->
     <g transform="translate(186.7035 84.30485)scale(0.144 -0.144)">
      <use xlink:href="#BitstreamVeraSans-Roman-54"/>
      <use x="61.083984375" xlink:href="#BitstreamVeraSans-Roman-68"/>
      <use x="124.462890625" xlink:href="#BitstreamVeraSans-Roman-65"/>
      <use x="185.986328125" xlink:href="#BitstreamVeraSans-Roman-6f"/>
      <use x="247.16796875" xlink:href="#BitstreamVeraSans-Roman-72"/>
      <use x="286.03125" xlink:href="#BitstreamVeraSans-Roman-65"/>
      <use x="347.5546875" xlink:href="#BitstreamVeraSans-Roman-74"/>
      <use x="386.763671875" xlink:href="#BitstreamVeraSans-Roman-69"/>
      <use x="414.546875" xlink:href="#BitstreamVeraSans-Roman-63"/>
      <use x="469.52734375" xlink:href="#BitstreamVeraSans-Roman-61"/>
      <use x="530.806640625" xlink:href="#BitstreamVeraSans-Roman-6c"/>
     </g>
    </g>
   </g>
  </g>
  <g id="axes_5">
   <g id="patch_20">
    <path d="
M45.5138 384.867
L278.794 384.867
L278.794 298.467
L45.5138 298.467
z
" style="fill:#ffffff;"/>
   </g>
   <g id="line2d_56">
    <path clip-path="url(#p3882ee4c42)" d="
M45.5138 298.467
L45.5138 311.877
L54.8449 311.877
L54.8449 324.44
L64.1762 324.44
L64.1762 317.819
L73.5074 317.819
L73.5074 315.782
L82.8385 315.782
L82.8385 310.406
L92.1697 310.406
L92.1697 308.143
L101.501 308.143
L101.501 305.54
L110.832 305.54
L110.832 303.163
L120.163 303.163
L120.163 302.428
L129.495 302.428
L129.495 300.9
L138.826 300.9
L138.826 300.277
L148.157 300.277
L148.157 299.655
L157.488 299.655
L157.488 299.089
L166.819 299.089
L166.819 299.315
L176.151 299.315
L176.151 298.976
L185.482 298.976
L185.482 298.636
L194.813 298.636
L194.813 298.863
L204.144 298.863
L204.144 298.467
L840.017 298.467
L840.017 298.467" style="fill:none;stroke:#ff0000;stroke-linecap:square;"/>
   </g>
   <g id="line2d_57">
    <path clip-path="url(#p3882ee4c42)" d="
M45.5138 298.467
L54.8449 349.414
L64.1762 334.773
L73.5074 321.429
L82.8385 312.708
L92.1697 307.098
L101.501 303.578
L110.832 301.421
L120.163 300.129
L129.495 299.376
L138.826 298.952
L148.157 298.72
L157.488 298.596
L166.819 298.532
L176.151 298.501
L185.482 298.485
L194.813 298.478
L204.144 298.474
L213.475 298.472
L222.807 298.471
L232.138 298.47
L241.469 298.47
L250.8 298.47
L260.131 298.469
L269.463 298.469
L278.794 298.469
L288.125 298.469" style="fill:none;stroke:#ff0000;stroke-linecap:square;stroke-width:3;"/>
   </g>
   <g id="patch_21">
    <path d="
M45.5138 298.467
L278.794 298.467" style="fill:none;stroke:#000000;stroke-linecap:square;stroke-linejoin:miter;"/>
   </g>
   <g id="patch_22">
    <path d="
M45.5138 384.867
L278.794 384.867" style="fill:none;stroke:#000000;stroke-linecap:square;stroke-linejoin:miter;"/>
   </g>
   <g id="patch_23">
    <path d="
M45.5138 384.867
L45.5138 298.467" style="fill:none;stroke:#000000;stroke-linecap:square;stroke-linejoin:miter;"/>
   </g>
   <g id="matplotlib.axis_9">
    <g id="xtick_18">
     <g id="line2d_58">
      <g>
       <use style="stroke:#000000;stroke-width:0.5;" x="45.51375" xlink:href="#m93b0483c22" y="384.8666"/>
      </g>
     </g>
     <g id="text_32">
      <!-- 0.0 -->
      <g transform="translate(36.7659375 397.984725)scale(0.12 -0.12)">
       <use xlink:href="#BitstreamVeraSans-Roman-30"/>
       <use x="63.623046875" xlink:href="#BitstreamVeraSans-Roman-2e"/>
       <use x="95.41015625" xlink:href="#BitstreamVeraSans-Roman-30"/>
      </g>
     </g>
    </g>
    <g id="xtick_19">
     <g id="line2d_59">
      <g>
       <use style="stroke:#000000;stroke-width:0.5;" x="92.16975" xlink:href="#m93b0483c22" y="384.8666"/>
      </g>
     </g>
     <g id="text_33">
      <!-- 0.2 -->
      <g transform="translate(83.6244375 397.984725)scale(0.12 -0.12)">
       <use xlink:href="#BitstreamVeraSans-Roman-30"/>
       <use x="63.623046875" xlink:href="#BitstreamVeraSans-Roman-2e"/>
       <use x="95.41015625" xlink:href="#BitstreamVeraSans-Roman-32"/>
      </g>
     </g>
    </g>
    <g id="xtick_20">
     <g id="line2d_60">
      <g>
       <use style="stroke:#000000;stroke-width:0.5;" x="138.82575" xlink:href="#m93b0483c22" y="384.8666"/>
      </g>
     </g>
     <g id="text_34">
      <!-- 0.4 -->
      <g transform="translate(130.0160625 397.984725)scale(0.12 -0.12)">
       <use xlink:href="#BitstreamVeraSans-Roman-30"/>
       <use x="63.623046875" xlink:href="#BitstreamVeraSans-Roman-2e"/>
       <use x="95.41015625" xlink:href="#BitstreamVeraSans-Roman-34"/>
      </g>
     </g>
    </g>
    <g id="xtick_21">
     <g id="line2d_61">
      <g>
       <use style="stroke:#000000;stroke-width:0.5;" x="185.48175" xlink:href="#m93b0483c22" y="384.8666"/>
      </g>
     </g>
     <g id="text_35">
      <!-- 0.6 -->
      <g transform="translate(176.7133125 397.984725)scale(0.12 -0.12)">
       <use xlink:href="#BitstreamVeraSans-Roman-30"/>
       <use x="63.623046875" xlink:href="#BitstreamVeraSans-Roman-2e"/>
       <use x="95.41015625" xlink:href="#BitstreamVeraSans-Roman-36"/>
      </g>
     </g>
    </g>
    <g id="xtick_22">
     <g id="line2d_62">
      <g>
       <use style="stroke:#000000;stroke-width:0.5;" x="232.13775" xlink:href="#m93b0483c22" y="384.8666"/>
      </g>
     </g>
     <g id="text_36">
      <!-- 0.8 -->
      <g transform="translate(223.402125 397.984725)scale(0.12 -0.12)">
       <use xlink:href="#BitstreamVeraSans-Roman-30"/>
       <use x="63.623046875" xlink:href="#BitstreamVeraSans-Roman-2e"/>
       <use x="95.41015625" xlink:href="#BitstreamVeraSans-Roman-38"/>
      </g>
     </g>
    </g>
    <g id="xtick_23">
     <g id="line2d_63">
      <g>
       <use style="stroke:#000000;stroke-width:0.5;" x="278.79375" xlink:href="#m93b0483c22" y="384.8666"/>
      </g>
     </g>
     <g id="text_37">
      <!-- 1.0 -->
      <g transform="translate(270.309375 397.984725)scale(0.12 -0.12)">
       <use xlink:href="#BitstreamVeraSans-Roman-31"/>
       <use x="63.623046875" xlink:href="#BitstreamVeraSans-Roman-2e"/>
       <use x="95.41015625" xlink:href="#BitstreamVeraSans-Roman-30"/>
      </g>
     </g>
    </g>
    <g id="text_38">
     <!-- T [s] -->
     <g transform="translate(149.2725 414.598475)scale(0.12 -0.12)">
      <use xlink:href="#BitstreamVeraSans-Roman-54"/>
      <use x="61.083984375" xlink:href="#BitstreamVeraSans-Roman-20"/>
      <use x="92.87109375" xlink:href="#BitstreamVeraSans-Roman-5b"/>
      <use x="131.884765625" xlink:href="#BitstreamVeraSans-Roman-73"/>
      <use x="183.984375" xlink:href="#BitstreamVeraSans-Roman-5d"/>
     </g>
    </g>
   </g>
   <g id="matplotlib.axis_10">
    <g id="ytick_17">
     <g id="line2d_64">
      <g>
       <use style="stroke:#000000;stroke-width:0.5;" x="45.51375" xlink:href="#m728421d6d4" y="298.4666"/>
      </g>
     </g>
     <g id="text_39">
      <!-- 0.0 -->
      <g transform="translate(24.018125 301.77785)scale(0.12 -0.12)">
       <use xlink:href="#BitstreamVeraSans-Roman-30"/>
       <use x="63.623046875" xlink:href="#BitstreamVeraSans-Roman-2e"/>
       <use x="95.41015625" xlink:href="#BitstreamVeraSans-Roman-30"/>
      </g>
     </g>
    </g>
    <g id="ytick_18">
     <g id="line2d_65">
      <g>
       <use style="stroke:#000000;stroke-width:0.5;" x="45.51375" xlink:href="#m728421d6d4" y="309.2666"/>
      </g>
     </g>
     <g id="text_40">
      <!-- 0.5 -->
      <g transform="translate(24.269375 312.57785)scale(0.12 -0.12)">
       <use xlink:href="#BitstreamVeraSans-Roman-30"/>
       <use x="63.623046875" xlink:href="#BitstreamVeraSans-Roman-2e"/>
       <use x="95.41015625" xlink:href="#BitstreamVeraSans-Roman-35"/>
      </g>
     </g>
    </g>
    <g id="ytick_19">
     <g id="line2d_66">
      <g>
       <use style="stroke:#000000;stroke-width:0.5;" x="45.51375" xlink:href="#m728421d6d4" y="320.0666"/>
      </g>
     </g>
     <g id="text_41">
      <!-- 1.0 -->
      <g transform="translate(24.545 323.37785)scale(0.12 -0.12)">
       <use xlink:href="#BitstreamVeraSans-Roman-31"/>
       <use x="63.623046875" xlink:href="#BitstreamVeraSans-Roman-2e"/>
       <use x="95.41015625" xlink:href="#BitstreamVeraSans-Roman-30"/>
      </g>
     </g>
    </g>
    <g id="ytick_20">
     <g id="line2d_67">
      <g>
       <use style="stroke:#000000;stroke-width:0.5;" x="45.51375" xlink:href="#m728421d6d4" y="330.8666"/>
      </g>
     </g>
     <g id="text_42">
      <!-- 1.5 -->
      <g transform="translate(24.79625 334.17785)scale(0.12 -0.12)">
       <use xlink:href="#BitstreamVeraSans-Roman-31"/>
       <use x="63.623046875" xlink:href="#BitstreamVeraSans-Roman-2e"/>
       <use x="95.41015625" xlink:href="#BitstreamVeraSans-Roman-35"/>
      </g>
     </g>
    </g>
    <g id="ytick_21">
     <g id="line2d_68">
      <g>
       <use style="stroke:#000000;stroke-width:0.5;" x="45.51375" xlink:href="#m728421d6d4" y="341.6666"/>
      </g>
     </g>
     <g id="text_43">
      <!-- 2.0 -->
      <g transform="translate(24.10625 344.97785)scale(0.12 -0.12)">
       <use xlink:href="#BitstreamVeraSans-Roman-32"/>
       <use x="63.623046875" xlink:href="#BitstreamVeraSans-Roman-2e"/>
       <use x="95.41015625" xlink:href="#BitstreamVeraSans-Roman-30"/>
      </g>
     </g>
    </g>
    <g id="ytick_22">
     <g id="line2d_69">
      <g>
       <use style="stroke:#000000;stroke-width:0.5;" x="45.51375" xlink:href="#m728421d6d4" y="352.4666"/>
      </g>
     </g>
     <g id="text_44">
      <!-- 2.5 -->
      <g transform="translate(24.3575 355.77785)scale(0.12 -0.12)">
       <use xlink:href="#BitstreamVeraSans-Roman-32"/>
       <use x="63.623046875" xlink:href="#BitstreamVeraSans-Roman-2e"/>
       <use x="95.41015625" xlink:href="#BitstreamVeraSans-Roman-35"/>
      </g>
     </g>
    </g>
    <g id="ytick_23">
     <g id="line2d_70">
      <g>
       <use style="stroke:#000000;stroke-width:0.5;" x="45.51375" xlink:href="#m728421d6d4" y="363.2666"/>
      </g>
     </g>
     <g id="text_45">
      <!-- 3.0 -->
      <g transform="translate(24.141875 366.57785)scale(0.12 -0.12)">
       <use xlink:href="#BitstreamVeraSans-Roman-33"/>
       <use x="63.623046875" xlink:href="#BitstreamVeraSans-Roman-2e"/>
       <use x="95.41015625" xlink:href="#BitstreamVeraSans-Roman-30"/>
      </g>
     </g>
    </g>
    <g id="ytick_24">
     <g id="line2d_71">
      <g>
       <use style="stroke:#000000;stroke-width:0.5;" x="45.51375" xlink:href="#m728421d6d4" y="374.0666"/>
      </g>
     </g>
     <g id="text_46">
      <!-- 3.5 -->
      <g transform="translate(24.393125 377.37785)scale(0.12 -0.12)">
       <use xlink:href="#BitstreamVeraSans-Roman-33"/>
       <use x="63.623046875" xlink:href="#BitstreamVeraSans-Roman-2e"/>
       <use x="95.41015625" xlink:href="#BitstreamVeraSans-Roman-35"/>
      </g>
     </g>
    </g>
    <g id="ytick_25">
     <g id="line2d_72">
      <g>
       <use style="stroke:#000000;stroke-width:0.5;" x="45.51375" xlink:href="#m728421d6d4" y="384.8666"/>
      </g>
     </g>
     <g id="text_47">
      <!-- 4.0 -->
      <g transform="translate(23.81375 388.17785)scale(0.12 -0.12)">
       <use xlink:href="#BitstreamVeraSans-Roman-34"/>
       <use x="63.623046875" xlink:href="#BitstreamVeraSans-Roman-2e"/>
       <use x="95.41015625" xlink:href="#BitstreamVeraSans-Roman-30"/>
      </g>
     </g>
    </g>
    <g id="text_48">
     <!-- Down RT dist -->
     <g transform="translate(16.318125 380.6900375)rotate(-90.0)scale(0.12 -0.12)">
      <use xlink:href="#BitstreamVeraSans-Roman-44"/>
      <use x="77.001953125" xlink:href="#BitstreamVeraSans-Roman-6f"/>
      <use x="138.18359375" xlink:href="#BitstreamVeraSans-Roman-77"/>
      <use x="219.970703125" xlink:href="#BitstreamVeraSans-Roman-6e"/>
      <use x="283.349609375" xlink:href="#BitstreamVeraSans-Roman-20"/>
      <use x="315.13671875" xlink:href="#BitstreamVeraSans-Roman-52"/>
      <use x="377.369140625" xlink:href="#BitstreamVeraSans-Roman-54"/>
      <use x="438.453125" xlink:href="#BitstreamVeraSans-Roman-20"/>
      <use x="470.240234375" xlink:href="#BitstreamVeraSans-Roman-64"/>
      <use x="533.716796875" xlink:href="#BitstreamVeraSans-Roman-69"/>
      <use x="561.5" xlink:href="#BitstreamVeraSans-Roman-73"/>
      <use x="613.599609375" xlink:href="#BitstreamVeraSans-Roman-74"/>
     </g>
    </g>
   </g>
   <g id="patch_24">
    <path d="
M106.017 319.612
Q226.685 351.207 313.266 263.169
L312.197 262.117
Q314.818 261.234 317.456 260.272
Q316.631 262.956 315.762 265.623
L314.692 264.571
Q227.299 353.436 105.51 321.546
L106.017 319.612
z
" style="fill:#808080;stroke:#808080;stroke-linecap:round;"/>
   </g>
  </g>
 </g>
 <defs>
  <clipPath id="p5bbb9315a8">
   <rect height="86.4" width="233.28" x="45.51375" y="212.0666"/>
  </clipPath>
  <clipPath id="pb9c2b6db16">
   <rect height="108.0" width="112.32" x="330.63375" y="203.4266"/>
  </clipPath>
  <clipPath id="pf7ea89552b">
   <rect height="172.8" width="233.28" x="45.51375" y="39.2666"/>
  </clipPath>
  <clipPath id="p3882ee4c42">
   <rect height="86.4" width="233.28" x="45.51375" y="298.4666"/>
  </clipPath>
  <clipPath id="pfe8e649188">
   <rect height="345.6" width="259.2" x="563.91375" y="39.2666"/>
  </clipPath>
 </defs>
</svg>
