<?xml version="1.0" encoding="UTF-8" standalone="no"?> <svg width="624.769mm" height="785.989mm"  viewBox="0 0 1771.65 2228.35"  xmlns="http://www.w3.org/2000/svg" xmlns:xlink="http://www.w3.org/1999/xlink"  version="1.2" baseProfile="tiny"> <title>Generated with ETE http://etetoolkit.org</title> <desc>Generated with ETE http://etetoolkit.org</desc> <defs> </defs> <g fill="none" stroke="black" stroke-width="1" fill-rule="evenodd" stroke-linecap="square" stroke-linejoin="bevel" >      <g fill="none" stroke="none" transform="matrix(7.87402,0,0,7.87402,-133.858,228.346)" font-family="Ubuntu" font-size="11pt" font-weight="400" font-style="normal"  > <path vector-effect="non-scaling-stroke" fill-rule="evenodd" d="M17,-29 L242,-29 L242,254 L17,254 L17,-29"/> </g>      <g fill="none" stroke="none" transform="matrix(0,7.87402,-7.87402,0,1708.66,236.22)" font-family="Ubuntu" font-size="11pt" font-weight="400" font-style="normal"  > <path vector-effect="non-scaling-stroke" fill-rule="evenodd" d="M0,0 L252,0 L252,216 L0,216 L0,0"/> </g>                                                                          <g fill="none" stroke="#000000" stroke-opacity="1" stroke-width="3" stroke-linecap="butt" stroke-linejoin="bevel" transform="matrix(0,7.87402,-7.87402,0,1708.66,236.22)" font-family="Ubuntu" font-size="11pt" font-weight="400" font-style="normal"  > <polyline fill="none" vector-effect="none" points="-1.5,32.25 -1.5,139.875 " /> </g>                              <g fill="none" stroke="#ff0000" stroke-opacity="1" stroke-width="3" stroke-linecap="butt" stroke-linejoin="bevel" transform="matrix(0,7.87402,-7.87402,0,1708.66,236.22)" font-family="Ubuntu" font-size="11pt" font-weight="400" font-style="normal"  > <polyline fill="none" vector-effect="none" points="167.491,12 167.491,55.5 " /> </g>      <g fill="none" stroke="#808080" stroke-opacity="1" stroke-dasharray="3,6" stroke-dashoffset="0" stroke-width="3" stroke-linecap="butt" stroke-linejoin="bevel" transform="matrix(0,7.87402,-7.87402,0,1708.66,236.22)" font-family="Ubuntu" font-size="11pt" font-weight="400" font-style="normal"  > <polyline fill="none" vector-effect="none" points="168.991,33.75 165.991,33.75 " /> </g>      <g fill="none" stroke="#ff0000" stroke-opacity="1" stroke-width="3" stroke-linecap="butt" stroke-linejoin="bevel" transform="matrix(0,7.87402,-7.87402,0,1708.66,236.22)" font-family="Ubuntu" font-size="11pt" font-weight="400" font-style="normal"  > <polyline fill="none" vector-effect="none" points="0,33.75 168.991,33.75 " /> </g>                        <g fill="none" stroke="#ff0000" stroke-opacity="1" stroke-width="3" stroke-linecap="butt" stroke-linejoin="bevel" transform="matrix(0,7.87402,-7.87402,0,1708.66,1566.86)" font-family="Ubuntu" font-size="11pt" font-weight="400" font-style="normal"  > <polyline fill="none" vector-effect="none" points="0,13.5 11.0086,13.5 " /> </g>      <g fill="#ff0000" fill-opacity="1" stroke="#ff0000" stroke-opacity="1" stroke-width="1" stroke-linecap="square" stroke-linejoin="bevel" transform="matrix(0,7.87402,-7.87402,0,1614.17,1653.54)" font-family="Ubuntu" font-size="11pt" font-weight="400" font-style="normal"  > <path vector-effect="non-scaling-stroke" fill-rule="evenodd" d="M3,1.5 C3,2.32843 2.32843,3 1.5,3 C0.671573,3 0,2.32843 0,1.5 C0,0.671573 0.671573,0 1.5,0 C2.32843,0 3,0.671573 3,1.5 "/> </g>                      <g fill="none" stroke="#000000" stroke-opacity="1" stroke-width="1" stroke-linecap="square" stroke-linejoin="bevel" transform="matrix(0,7.87402,-7.87402,0,1669.29,1677.17)" font-family="Verdana" font-size="10pt" font-weight="400" font-style="normal"  > <text fill="#000000" fill-opacity="1" stroke="none" xml:space="preserve" x="0" y="13" font-family="Verdana" font-size="10pt" font-weight="400" font-style="normal"   >Con Ses 1</text> </g>      <g fill="none" stroke="#ff0000" stroke-opacity="1" stroke-width="3" stroke-linecap="butt" stroke-linejoin="bevel" transform="matrix(0,7.87402,-7.87402,0,1496.06,1566.86)" font-family="Ubuntu" font-size="11pt" font-weight="400" font-style="normal"  > <polyline fill="none" vector-effect="none" points="7.70851,12 7.70851,42 " /> </g>      <g fill="none" stroke="#808080" stroke-opacity="1" stroke-dasharray="3,6" stroke-dashoffset="0" stroke-width="3" stroke-linecap="butt" stroke-linejoin="bevel" transform="matrix(0,7.87402,-7.87402,0,1496.06,1566.86)" font-family="Ubuntu" font-size="11pt" font-weight="400" font-style="normal"  > <polyline fill="none" vector-effect="none" points="9.20851,27 6.20851,27 " /> </g>      <g fill="none" stroke="#ff0000" stroke-opacity="1" stroke-width="3" stroke-linecap="butt" stroke-linejoin="bevel" transform="matrix(0,7.87402,-7.87402,0,1496.06,1566.86)" font-family="Ubuntu" font-size="11pt" font-weight="400" font-style="normal"  > <polyline fill="none" vector-effect="none" points="0,27 9.20851,27 " /> </g>                        <g fill="none" stroke="#ff0000" stroke-opacity="1" stroke-width="3" stroke-linecap="butt" stroke-linejoin="bevel" transform="matrix(0,7.87402,-7.87402,0,1496.06,1639.37)" font-family="Ubuntu" font-size="11pt" font-weight="400" font-style="normal"  > <polyline fill="none" vector-effect="none" points="0,13.5 1.80005,13.5 " /> </g>      <g fill="#ff0000" fill-opacity="1" stroke="#ff0000" stroke-opacity="1" stroke-width="1" stroke-linecap="square" stroke-linejoin="bevel" transform="matrix(0,7.87402,-7.87402,0,1401.57,1653.54)" font-family="Ubuntu" font-size="11pt" font-weight="400" font-style="normal"  > <path vector-effect="non-scaling-stroke" fill-rule="evenodd" d="M3,1.5 C3,2.32843 2.32843,3 1.5,3 C0.671573,3 0,2.32843 0,1.5 C0,0.671573 0.671573,0 1.5,0 C2.32843,0 3,0.671573 3,1.5 "/> </g>                      <g fill="none" stroke="#000000" stroke-opacity="1" stroke-width="1" stroke-linecap="square" stroke-linejoin="bevel" transform="matrix(0,7.87402,-7.87402,0,1456.69,1677.17)" font-family="Verdana" font-size="10pt" font-weight="400" font-style="normal"  > <text fill="#000000" fill-opacity="1" stroke="none" xml:space="preserve" x="0" y="13" font-family="Verdana" font-size="10pt" font-weight="400" font-style="normal"   >Con Ses 2</text> </g>            <g fill="none" stroke="#ff0000" stroke-opacity="1" stroke-width="3" stroke-linecap="butt" stroke-linejoin="bevel" transform="matrix(0,7.87402,-7.87402,0,1283.46,1639.37)" font-family="Ubuntu" font-size="11pt" font-weight="400" font-style="normal"  > <polyline fill="none" vector-effect="none" points="0,13.5 1.80005,13.5 " /> </g>      <g fill="#ff0000" fill-opacity="1" stroke="#ff0000" stroke-opacity="1" stroke-width="1" stroke-linecap="square" stroke-linejoin="bevel" transform="matrix(0,7.87402,-7.87402,0,1188.98,1653.54)" font-family="Ubuntu" font-size="11pt" font-weight="400" font-style="normal"  > <path vector-effect="non-scaling-stroke" fill-rule="evenodd" d="M3,1.5 C3,2.32843 2.32843,3 1.5,3 C0.671573,3 0,2.32843 0,1.5 C0,0.671573 0.671573,0 1.5,0 C2.32843,0 3,0.671573 3,1.5 "/> </g>                      <g fill="none" stroke="#000000" stroke-opacity="1" stroke-width="1" stroke-linecap="square" stroke-linejoin="bevel" transform="matrix(0,7.87402,-7.87402,0,1244.09,1677.17)" font-family="Verdana" font-size="10pt" font-weight="400" font-style="normal"  > <text fill="#000000" fill-opacity="1" stroke="none" xml:space="preserve" x="0" y="13" font-family="Verdana" font-size="10pt" font-weight="400" font-style="normal"   >Con Ses 3</text> </g>      <g fill="none" stroke="#000000" stroke-opacity="1" stroke-width="3" stroke-linecap="butt" stroke-linejoin="bevel" transform="matrix(0,7.87402,-7.87402,0,1070.87,236.22)" font-family="Ubuntu" font-size="11pt" font-weight="400" font-style="normal"  > <polyline fill="none" vector-effect="none" points="114.995,25.5 114.995,89.25 " /> </g>      <g fill="none" stroke="#808080" stroke-opacity="1" stroke-dasharray="3,6" stroke-dashoffset="0" stroke-width="3" stroke-linecap="butt" stroke-linejoin="bevel" transform="matrix(0,7.87402,-7.87402,0,1070.87,236.22)" font-family="Ubuntu" font-size="11pt" font-weight="400" font-style="normal"  > <polyline fill="none" vector-effect="none" points="116.495,57.375 113.495,57.375 " /> </g>      <g fill="none" stroke="#000000" stroke-opacity="1" stroke-width="3" stroke-linecap="butt" stroke-linejoin="bevel" transform="matrix(0,7.87402,-7.87402,0,1070.87,236.22)" font-family="Ubuntu" font-size="11pt" font-weight="400" font-style="normal"  > <polyline fill="none" vector-effect="none" points="0,57.375 116.495,57.375 " /> </g>                  <g fill="none" stroke="#0000ff" stroke-opacity="1" stroke-width="3" stroke-linecap="butt" stroke-linejoin="bevel" transform="matrix(0,7.87402,-7.87402,0,1070.87,1153.5)" font-family="Ubuntu" font-size="11pt" font-weight="400" font-style="normal"  > <polyline fill="none" vector-effect="none" points="61.873,12 61.873,42 " /> </g>      <g fill="none" stroke="#808080" stroke-opacity="1" stroke-dasharray="3,6" stroke-dashoffset="0" stroke-width="3" stroke-linecap="butt" stroke-linejoin="bevel" transform="matrix(0,7.87402,-7.87402,0,1070.87,1153.5)" font-family="Ubuntu" font-size="11pt" font-weight="400" font-style="normal"  > <polyline fill="none" vector-effect="none" points="63.373,27 60.373,27 " /> </g>      <g fill="none" stroke="#0000ff" stroke-opacity="1" stroke-width="3" stroke-linecap="butt" stroke-linejoin="bevel" transform="matrix(0,7.87402,-7.87402,0,1070.87,1153.5)" font-family="Ubuntu" font-size="11pt" font-weight="400" font-style="normal"  > <polyline fill="none" vector-effect="none" points="0,27 63.373,27 " /> </g>                        <g fill="none" stroke="#0000ff" stroke-opacity="1" stroke-width="3" stroke-linecap="butt" stroke-linejoin="bevel" transform="matrix(0,7.87402,-7.87402,0,1070.87,1652.5)" font-family="Ubuntu" font-size="11pt" font-weight="400" font-style="normal"  > <polyline fill="none" vector-effect="none" points="0,13.5 0.13235,13.5 " /> </g>      <g fill="#0000ff" fill-opacity="1" stroke="#0000ff" stroke-opacity="1" stroke-width="1" stroke-linecap="square" stroke-linejoin="bevel" transform="matrix(0,7.87402,-7.87402,0,976.378,1653.54)" font-family="Ubuntu" font-size="11pt" font-weight="400" font-style="normal"  > <path vector-effect="non-scaling-stroke" fill-rule="evenodd" d="M3,1.5 C3,2.32843 2.32843,3 1.5,3 C0.671573,3 0,2.32843 0,1.5 C0,0.671573 0.671573,0 1.5,0 C2.32843,0 3,0.671573 3,1.5 "/> </g>                      <g fill="none" stroke="#000000" stroke-opacity="1" stroke-width="1" stroke-linecap="square" stroke-linejoin="bevel" transform="matrix(0,7.87402,-7.87402,0,1031.5,1677.17)" font-family="Verdana" font-size="10pt" font-weight="400" font-style="normal"  > <text fill="#000000" fill-opacity="1" stroke="none" xml:space="preserve" x="0" y="13" font-family="Verdana" font-size="10pt" font-weight="400" font-style="normal"   >Lum Ses 1</text> </g>            <g fill="none" stroke="#0000ff" stroke-opacity="1" stroke-width="3" stroke-linecap="butt" stroke-linejoin="bevel" transform="matrix(0,7.87402,-7.87402,0,858.268,1652.5)" font-family="Ubuntu" font-size="11pt" font-weight="400" font-style="normal"  > <polyline fill="none" vector-effect="none" points="0,13.5 0.13235,13.5 " /> </g>      <g fill="#0000ff" fill-opacity="1" stroke="#0000ff" stroke-opacity="1" stroke-width="1" stroke-linecap="square" stroke-linejoin="bevel" transform="matrix(0,7.87402,-7.87402,0,763.78,1653.54)" font-family="Ubuntu" font-size="11pt" font-weight="400" font-style="normal"  > <path vector-effect="non-scaling-stroke" fill-rule="evenodd" d="M3,1.5 C3,2.32843 2.32843,3 1.5,3 C0.671573,3 0,2.32843 0,1.5 C0,0.671573 0.671573,0 1.5,0 C2.32843,0 3,0.671573 3,1.5 "/> </g>                      <g fill="none" stroke="#000000" stroke-opacity="1" stroke-width="1" stroke-linecap="square" stroke-linejoin="bevel" transform="matrix(0,7.87402,-7.87402,0,818.898,1677.17)" font-family="Verdana" font-size="10pt" font-weight="400" font-style="normal"  > <text fill="#000000" fill-opacity="1" stroke="none" xml:space="preserve" x="0" y="13" font-family="Verdana" font-size="10pt" font-weight="400" font-style="normal"   >Lum Ses 2</text> </g>      <g fill="none" stroke="#008000" stroke-opacity="1" stroke-width="3" stroke-linecap="butt" stroke-linejoin="bevel" transform="matrix(0,7.87402,-7.87402,0,645.669,1153.5)" font-family="Ubuntu" font-size="11pt" font-weight="400" font-style="normal"  > <polyline fill="none" vector-effect="none" points="59.6566,12 59.6566,55.5 " /> </g>      <g fill="none" stroke="#808080" stroke-opacity="1" stroke-dasharray="3,6" stroke-dashoffset="0" stroke-width="3" stroke-linecap="butt" stroke-linejoin="bevel" transform="matrix(0,7.87402,-7.87402,0,645.669,1153.5)" font-family="Ubuntu" font-size="11pt" font-weight="400" font-style="normal"  > <polyline fill="none" vector-effect="none" points="61.1566,33.75 58.1566,33.75 " /> </g>      <g fill="none" stroke="#008000" stroke-opacity="1" stroke-width="3" stroke-linecap="butt" stroke-linejoin="bevel" transform="matrix(0,7.87402,-7.87402,0,645.669,1153.5)" font-family="Ubuntu" font-size="11pt" font-weight="400" font-style="normal"  > <polyline fill="none" vector-effect="none" points="0,33.75 61.1566,33.75 " /> </g>                        <g fill="none" stroke="#008000" stroke-opacity="1" stroke-width="3" stroke-linecap="butt" stroke-linejoin="bevel" transform="matrix(0,7.87402,-7.87402,0,645.669,1635.05)" font-family="Ubuntu" font-size="11pt" font-weight="400" font-style="normal"  > <polyline fill="none" vector-effect="none" points="0,13.5 2.34878,13.5 " /> </g>      <g fill="#008000" fill-opacity="1" stroke="#008000" stroke-opacity="1" stroke-width="1" stroke-linecap="square" stroke-linejoin="bevel" transform="matrix(0,7.87402,-7.87402,0,551.181,1653.54)" font-family="Ubuntu" font-size="11pt" font-weight="400" font-style="normal"  > <path vector-effect="non-scaling-stroke" fill-rule="evenodd" d="M3,1.5 C3,2.32843 2.32843,3 1.5,3 C0.671573,3 0,2.32843 0,1.5 C0,0.671573 0.671573,0 1.5,0 C2.32843,0 3,0.671573 3,1.5 "/> </g>                      <g fill="none" stroke="#000000" stroke-opacity="1" stroke-width="1" stroke-linecap="square" stroke-linejoin="bevel" transform="matrix(0,7.87402,-7.87402,0,606.299,1677.17)" font-family="Verdana" font-size="10pt" font-weight="400" font-style="normal"  > <text fill="#000000" fill-opacity="1" stroke="none" xml:space="preserve" x="0" y="13" font-family="Verdana" font-size="10pt" font-weight="400" font-style="normal"   >Aud Ses 3</text> </g>      <g fill="none" stroke="#008000" stroke-opacity="1" stroke-width="3" stroke-linecap="butt" stroke-linejoin="bevel" transform="matrix(0,7.87402,-7.87402,0,433.071,1635.05)" font-family="Ubuntu" font-size="11pt" font-weight="400" font-style="normal"  > <polyline fill="none" vector-effect="none" points="0.053758,12 0.053758,42 " /> </g>      <g fill="none" stroke="#808080" stroke-opacity="1" stroke-dasharray="3,6" stroke-dashoffset="0" stroke-width="3" stroke-linecap="butt" stroke-linejoin="bevel" transform="matrix(0,7.87402,-7.87402,0,433.071,1635.05)" font-family="Ubuntu" font-size="11pt" font-weight="400" font-style="normal"  > <polyline fill="none" vector-effect="none" points="1.55376,27 0,27 " /> </g>      <g fill="none" stroke="#008000" stroke-opacity="1" stroke-width="3" stroke-linecap="butt" stroke-linejoin="bevel" transform="matrix(0,7.87402,-7.87402,0,433.071,1635.05)" font-family="Ubuntu" font-size="11pt" font-weight="400" font-style="normal"  > <polyline fill="none" vector-effect="none" points="0,27 1.55376,27 " /> </g>                        <g fill="none" stroke="#008000" stroke-opacity="1" stroke-width="3" stroke-linecap="butt" stroke-linejoin="bevel" transform="matrix(0,7.87402,-7.87402,0,433.071,1647.28)" font-family="Ubuntu" font-size="11pt" font-weight="400" font-style="normal"  > <polyline fill="none" vector-effect="none" points="0,13.5 0.795022,13.5 " /> </g>      <g fill="#008000" fill-opacity="1" stroke="#008000" stroke-opacity="1" stroke-width="1" stroke-linecap="square" stroke-linejoin="bevel" transform="matrix(0,7.87402,-7.87402,0,338.583,1653.54)" font-family="Ubuntu" font-size="11pt" font-weight="400" font-style="normal"  > <path vector-effect="non-scaling-stroke" fill-rule="evenodd" d="M3,1.5 C3,2.32843 2.32843,3 1.5,3 C0.671573,3 0,2.32843 0,1.5 C0,0.671573 0.671573,0 1.5,0 C2.32843,0 3,0.671573 3,1.5 "/> </g>                      <g fill="none" stroke="#000000" stroke-opacity="1" stroke-width="1" stroke-linecap="square" stroke-linejoin="bevel" transform="matrix(0,7.87402,-7.87402,0,393.701,1677.17)" font-family="Verdana" font-size="10pt" font-weight="400" font-style="normal"  > <text fill="#000000" fill-opacity="1" stroke="none" xml:space="preserve" x="0" y="13" font-family="Verdana" font-size="10pt" font-weight="400" font-style="normal"   >Aud Ses 1</text> </g>            <g fill="none" stroke="#008000" stroke-opacity="1" stroke-width="3" stroke-linecap="butt" stroke-linejoin="bevel" transform="matrix(0,7.87402,-7.87402,0,220.472,1647.28)" font-family="Ubuntu" font-size="11pt" font-weight="400" font-style="normal"  > <polyline fill="none" vector-effect="none" points="0,13.5 0.795022,13.5 " /> </g>      <g fill="#008000" fill-opacity="1" stroke="#008000" stroke-opacity="1" stroke-width="1" stroke-linecap="square" stroke-linejoin="bevel" transform="matrix(0,7.87402,-7.87402,0,125.984,1653.54)" font-family="Ubuntu" font-size="11pt" font-weight="400" font-style="normal"  > <path vector-effect="non-scaling-stroke" fill-rule="evenodd" d="M3,1.5 C3,2.32843 2.32843,3 1.5,3 C0.671573,3 0,2.32843 0,1.5 C0,0.671573 0.671573,0 1.5,0 C2.32843,0 3,0.671573 3,1.5 "/> </g>                      <g fill="none" stroke="#000000" stroke-opacity="1" stroke-width="1" stroke-linecap="square" stroke-linejoin="bevel" transform="matrix(0,7.87402,-7.87402,0,181.102,1677.17)" font-family="Verdana" font-size="10pt" font-weight="400" font-style="normal"  > <text fill="#000000" fill-opacity="1" stroke="none" xml:space="preserve" x="0" y="13" font-family="Verdana" font-size="10pt" font-weight="400" font-style="normal"   >Aud Ses 2</text> </g>                                                                      <g fill="none" stroke="#000000" stroke-opacity="1" stroke-width="1" stroke-linecap="square" stroke-linejoin="bevel" transform="matrix(7.87402,0,0,7.87402,0,0)" font-family="Verdana" font-size="18pt" font-weight="400" font-style="normal"  > <text fill="#000000" fill-opacity="1" stroke="none" xml:space="preserve" x="0" y="23" font-family="Verdana" font-size="18pt" font-weight="400" font-style="normal"   >Decision Hierarchy</text> </g>     </g> </svg> 