<?xml version="1.0" encoding="utf-8" standalone="no"?>
<!DOCTYPE svg PUBLIC "-//W3C//DTD SVG 1.1//EN"
  "http://www.w3.org/Graphics/SVG/1.1/DTD/svg11.dtd">
<!-- Created with matplotlib (http://matplotlib.org/) -->
<svg height="340pt" version="1.1" viewBox="0 0 622 340" width="622pt" xmlns="http://www.w3.org/2000/svg" xmlns:xlink="http://www.w3.org/1999/xlink">
 <defs>
  <style type="text/css">
*{stroke-linecap:butt;stroke-linejoin:round;}
  </style>
 </defs>
 <g id="figure_1">
  <g id="patch_1">
   <path d="
M0 340.434
L622.915 340.434
L622.915 0
L0 0
z
" style="fill:#ffffff;"/>
  </g>
  <g id="axes_1">
   <g id="patch_2">
    <path d="
M54.885 301.007
L308.521 301.007
L308.521 13.0069
L54.885 13.0069
z
" style="fill:#ffffff;"/>
   </g>
   <g id="line2d_1">
    <path clip-path="url(#p2f7db998ef)" d="
M66.2114 204.785
L68.516 204.785
L68.516 204.785
L68.516 204.785
L70.8207 204.785
L70.8207 203.014
L73.1253 203.014
L73.1253 192.164
L75.43 192.164
L75.43 161.165
L77.7346 161.165
L77.7346 116.88
L80.0393 116.88
L80.0393 88.5382
L82.3439 88.5382
L82.3439 86.5454
L84.6486 86.5454
L84.6486 88.981
L86.9532 88.981
L86.9532 60.8603
L89.2578 60.8603
L89.2578 95.6237
L91.5625 95.6237
L91.5625 112.23
L93.8671 112.23
L93.8671 133.93
L96.1718 133.93
L96.1718 144.337
L98.4764 144.337
L98.4764 152.972
L100.781 152.972
L100.781 164.265
L103.086 164.265
L103.086 167.586
L105.39 167.586
L105.39 163.379
L107.695 163.379
L107.695 175.336
L110 175.336
L110 176.222
L112.304 176.222
L112.304 181.536
L114.609 181.536
L114.609 183.307
L116.914 183.307
L116.914 186.85
L119.218 186.85
L119.218 186.629
L121.523 186.629
L121.523 181.315
L123.828 181.315
L123.828 188.843
L126.132 188.843
L126.132 189.286
L128.437 189.286
L128.437 191.279
L130.741 191.279
L130.741 189.729
L133.046 189.729
L133.046 193.05
L135.351 193.05
L135.351 193.714
L137.655 193.714
L137.655 189.507
L139.96 189.507
L139.96 192.164
L142.265 192.164
L142.265 194.379
L144.569 194.379
L144.569 195.929
L146.874 195.929
L146.874 194.821
L149.179 194.821
L149.179 195.043
L151.483 195.043
L151.483 196.593
L153.788 196.593
L153.788 199.25
L156.093 199.25
L156.093 194.379
L158.397 194.379
L158.397 197.7
L160.702 197.7
L160.702 197.921
L163.007 197.921
L163.007 197.478
L165.311 197.478
L165.311 200.578
L167.616 200.578
L167.616 201.021
L169.92 201.021
L169.92 202.128
L172.225 202.128
L172.225 199.25
L174.53 199.25
L174.53 201.907
L176.834 201.907
L176.834 200.578
L179.139 200.578
L179.139 199.028
L181.444 199.028
L181.444 203.014
L183.748 203.014
L183.748 201.464
L186.053 201.464
L186.053 201.021
L188.358 201.021
L188.358 201.464
L190.662 201.464
L190.662 202.35
L192.967 202.35
L192.967 201.686
L195.272 201.686
L195.272 202.571
L197.576 202.571
L197.576 203.235
L199.881 203.235
L199.881 203.014
L204.49 203.014
L204.49 202.793
L209.099 202.793
L209.099 203.014
L211.404 203.014
L211.404 203.235
L213.709 203.235
L213.709 203.457
L216.013 203.457
L216.013 204.343
L218.318 204.343
L218.318 203.678
L220.623 203.678
L220.623 203.9
L222.927 203.9
L222.927 203.457
L225.232 203.457
L225.232 204.343
L227.537 204.343
L227.537 203.9
L229.841 203.9
L229.841 204.121
L232.146 204.121
L232.146 204.564
L234.451 204.564
L234.451 203.235
L236.755 203.235
L236.755 205.007
L241.365 205.007
L241.365 204.343
L243.669 204.343
L243.669 204.564
L248.278 204.564
L248.278 204.121
L250.583 204.121
L250.583 204.564
L252.888 204.564
L252.888 204.785
L255.192 204.785
L255.192 204.343
L257.497 204.343
L257.497 205.007
L259.802 205.007
L259.802 204.564
L262.106 204.564
L262.106 204.785
L264.411 204.785
L264.411 204.564
L269.02 204.564
L269.02 204.785
L271.325 204.785
L271.325 204.343
L273.63 204.343
L273.63 205.007
L278.239 205.007
L278.239 204.564
L280.544 204.564
L280.544 205.007
L282.848 205.007
L282.848 204.785
L285.153 204.785
L285.153 205.007
L287.457 205.007
L287.457 204.564
L292.067 204.564
L292.067 205.007
L294.371 205.007
L294.371 204.785
L294.371 204.785" style="fill:none;stroke:#0000ff;stroke-linecap:square;"/>
   </g>
   <g id="line2d_2">
    <path clip-path="url(#p2f7db998ef)" d="
M66.2114 205.228
L68.516 205.228
L68.516 205.671
L70.8207 205.671
L70.8207 206.335
L73.1253 206.335
L73.1253 208.771
L75.43 208.771
L75.43 218.514
L77.7346 218.514
L77.7346 229.806
L80.0393 229.806
L80.0393 237.778
L82.3439 237.778
L82.3439 237.113
L84.6486 237.113
L84.6486 238.663
L86.9532 238.663
L86.9532 246.413
L89.2578 246.413
L89.2578 234.013
L91.5625 234.013
L91.5625 232.685
L93.8671 232.685
L93.8671 231.135
L96.1718 231.135
L96.1718 224.714
L98.4764 224.714
L98.4764 220.285
L100.781 220.285
L100.781 218.514
L103.086 218.514
L103.086 216.299
L105.39 216.299
L105.39 224.271
L107.695 224.271
L107.695 216.521
L110 216.521
L110 216.299
L112.304 216.299
L112.304 211.871
L114.609 211.871
L114.609 212.314
L119.218 212.314
L119.218 211.871
L121.523 211.871
L121.523 211.207
L126.132 211.207
L126.132 209.214
L128.437 209.214
L128.437 212.314
L130.741 212.314
L130.741 210.321
L133.046 210.321
L133.046 209.214
L135.351 209.214
L135.351 210.321
L137.655 210.321
L137.655 210.764
L139.96 210.764
L139.96 209.878
L142.265 209.878
L142.265 209.214
L144.569 209.214
L144.569 208.328
L146.874 208.328
L146.874 208.771
L149.179 208.771
L149.179 208.328
L151.483 208.328
L151.483 208.107
L153.788 208.107
L153.788 207.443
L156.093 207.443
L156.093 207.885
L158.397 207.885
L158.397 207.443
L163.007 207.443
L163.007 206.778
L165.311 206.778
L165.311 207.885
L167.616 207.885
L167.616 207
L169.92 207
L169.92 206.778
L172.225 206.778
L172.225 207.885
L174.53 207.885
L174.53 206.335
L176.834 206.335
L176.834 207.443
L179.139 207.443
L179.139 206.335
L181.444 206.335
L181.444 206.778
L183.748 206.778
L183.748 206.114
L188.358 206.114
L188.358 207
L190.662 207
L190.662 205.671
L192.967 205.671
L192.967 205.45
L195.272 205.45
L195.272 206.114
L197.576 206.114
L197.576 205.893
L204.49 205.893
L204.49 206.114
L209.099 206.114
L209.099 205.671
L211.404 205.671
L211.404 206.114
L213.709 206.114
L213.709 205.671
L222.927 205.671
L222.927 205.45
L225.232 205.45
L225.232 206.114
L227.537 206.114
L227.537 205.671
L229.841 205.671
L229.841 205.45
L232.146 205.45
L232.146 205.228
L234.451 205.228
L234.451 205.671
L236.755 205.671
L236.755 205.228
L241.365 205.228
L241.365 205.45
L245.974 205.45
L245.974 205.893
L248.278 205.893
L248.278 205.228
L250.583 205.228
L250.583 205.007
L252.888 205.007
L252.888 205.228
L255.192 205.228
L255.192 205.007
L257.497 205.007
L257.497 205.671
L259.802 205.671
L259.802 205.45
L262.106 205.45
L262.106 205.228
L264.411 205.228
L264.411 205.45
L266.716 205.45
L266.716 205.007
L278.239 205.007
L278.239 205.228
L282.848 205.228
L282.848 205.007
L294.371 205.007
L294.371 205.228
L294.371 205.228" style="fill:none;stroke:#ff0000;stroke-linecap:square;"/>
   </g>
   <g id="line2d_3">
    <path clip-path="url(#p2f7db998ef)" d="
M54.885 204.303
L56.9141 204.303
L58.9432 204.303
L60.9723 204.303
L63.0014 204.303
L65.0305 204.303
L67.0595 204.303
L69.0886 204.303
L71.1177 204.303
L73.1468 200.581
L75.1759 159.665
L77.205 124.22
L79.2341 103.522
L81.2632 94.86
L83.2923 94.6058
L85.3214 99.7713
L87.3505 107.953
L89.3795 117.317
L91.4086 126.596
L93.4377 135.037
L95.4668 142.31
L97.4959 148.38
L99.525 153.385
L101.554 157.535
L103.583 161.044
L105.612 164.094
L107.641 166.822
L109.67 169.322
L111.7 171.651
L113.729 173.843
L115.758 175.916
L117.787 177.879
L119.816 179.735
L121.845 181.485
L123.874 183.132
L125.903 184.676
L127.932 186.121
L129.961 187.469
L131.99 188.726
L134.02 189.894
L136.049 190.98
L138.078 191.988
L140.107 192.924
L142.136 193.791
L144.165 194.596
L146.194 195.343
L148.223 196.035
L150.252 196.678
L152.281 197.274
L154.31 197.982
L156.34 198.496
L158.369 198.973
L160.398 199.416
L162.427 199.827
L164.456 200.208
L166.485 200.561
L168.514 200.889
L170.543 201.193
L172.572 201.474
L174.601 201.734
L176.63 201.975
L178.66 202.197
L180.689 202.401
L182.718 202.59
L184.747 202.764
L186.776 202.923
L188.805 203.069
L190.834 203.204
L192.863 203.326
L194.892 203.439
L196.921 203.541
L198.95 203.634
L200.98 203.719
L203.009 203.796
L205.038 203.865
L207.067 203.929
L209.096 203.986
L211.125 204.037
L213.154 204.084
L215.183 204.125
L217.212 204.163
L219.241 204.196
L221.27 204.226
L223.3 204.253
L225.329 204.277
L227.358 204.299
L229.387 204.318
L231.416 204.335
L233.445 204.35
L235.474 204.363
L237.503 204.375
L239.532 204.385
L241.561 204.394
L243.59 204.402
L245.62 204.409
L247.649 204.416
L249.678 204.421
L251.707 204.426
L253.736 204.43
L255.765 204.434
L257.794 204.437
L259.823 204.44
L261.852 204.442
L263.881 204.513
L265.91 204.515
L267.94 204.516
L269.969 204.518
L271.998 204.548
L274.027 204.549
L276.056 204.55
L278.085 204.551
L280.114 204.551
L282.143 204.552
L284.172 204.552
L286.201 204.553
L288.23 204.762
L290.26 204.821
L292.289 204.821
L294.318 204.821
L296.347 205.006
L298.376 205.006
L300.405 205.006
L302.434 205.006
L304.463 205.006
L306.492 205.006
L308.521 205.006
L310.55 205.006" style="fill:none;stroke:#0000ff;stroke-linecap:square;stroke-width:3;"/>
   </g>
   <g id="line2d_4">
    <path clip-path="url(#p2f7db998ef)" d="
M54.885 205.711
L56.9141 205.711
L58.9432 205.711
L60.9723 205.711
L63.0014 205.711
L65.0305 205.711
L67.0595 205.711
L69.0886 205.711
L71.1177 205.711
L73.1468 206.894
L75.1759 218.436
L77.205 229.483
L79.2341 236.565
L81.2632 240.052
L83.2923 240.88
L85.3214 239.89
L87.3505 237.799
L89.3795 235.177
L91.4086 232.44
L93.4377 229.85
L95.4668 227.541
L97.4959 225.553
L99.525 223.866
L101.554 222.432
L103.583 221.195
L105.612 220.105
L107.641 219.121
L109.67 218.216
L111.7 217.372
L113.729 216.577
L115.758 215.827
L117.787 215.118
L119.816 214.449
L121.845 213.818
L123.874 213.226
L125.903 212.672
L127.932 212.155
L129.961 211.672
L131.99 211.224
L134.02 210.807
L136.049 210.421
L138.078 210.063
L140.107 209.731
L142.136 209.424
L144.165 209.139
L146.194 208.875
L148.223 208.63
L150.252 208.404
L152.281 208.193
L154.31 207.843
L156.34 207.662
L158.369 207.494
L160.398 207.338
L162.427 207.194
L164.456 207.059
L166.485 206.935
L168.514 206.819
L170.543 206.712
L172.572 206.613
L174.601 206.521
L176.63 206.436
L178.66 206.358
L180.689 206.285
L182.718 206.219
L184.747 206.157
L186.776 206.101
L188.805 206.049
L190.834 206.002
L192.863 205.958
L194.892 205.918
L196.921 205.882
L198.95 205.849
L200.98 205.819
L203.009 205.792
L205.038 205.767
L207.067 205.745
L209.096 205.724
L211.125 205.706
L213.154 205.69
L215.183 205.675
L217.212 205.661
L219.241 205.649
L221.27 205.639
L223.3 205.629
L225.329 205.621
L227.358 205.613
L229.387 205.606
L231.416 205.6
L233.445 205.595
L235.474 205.59
L237.503 205.586
L239.532 205.582
L241.561 205.579
L243.59 205.576
L245.62 205.573
L247.649 205.571
L249.678 205.569
L251.707 205.568
L253.736 205.566
L255.765 205.565
L257.794 205.564
L259.823 205.563
L261.852 205.562
L263.881 205.492
L265.91 205.492
L267.94 205.491
L269.969 205.491
L271.998 205.461
L274.027 205.461
L276.056 205.46
L278.085 205.46
L280.114 205.46
L282.143 205.46
L284.172 205.459
L286.201 205.459
L288.23 205.25
L290.26 205.192
L292.289 205.192
L294.318 205.192
L296.347 205.007
L298.376 205.007
L300.405 205.007
L302.434 205.007
L304.463 205.007
L306.492 205.007
L308.521 205.007
L310.55 205.007" style="fill:none;stroke:#ff0000;stroke-linecap:square;stroke-width:3;"/>
   </g>
   <g id="patch_3">
    <path d="
M54.885 13.0069
L308.521 13.0069" style="fill:none;stroke:#000000;stroke-linecap:square;stroke-linejoin:miter;"/>
   </g>
   <g id="patch_4">
    <path d="
M308.521 301.007
L308.521 13.0069" style="fill:none;stroke:#000000;stroke-linecap:square;stroke-linejoin:miter;"/>
   </g>
   <g id="patch_5">
    <path d="
M54.885 301.007
L308.521 301.007" style="fill:none;stroke:#000000;stroke-linecap:square;stroke-linejoin:miter;"/>
   </g>
   <g id="patch_6">
    <path d="
M54.885 301.007
L54.885 13.0069" style="fill:none;stroke:#000000;stroke-linecap:square;stroke-linejoin:miter;"/>
   </g>
   <g id="matplotlib.axis_1">
    <g id="xtick_1">
     <g id="line2d_5">
      <defs>
       <path d="
M0 0
L0 -4" id="m93b0483c22" style="stroke:#000000;stroke-width:0.5;"/>
      </defs>
      <g>
       <use style="stroke:#000000;stroke-width:0.5;" x="54.885" xlink:href="#m93b0483c22" y="301.006875"/>
      </g>
     </g>
     <g id="line2d_6">
      <defs>
       <path d="
M0 0
L0 4" id="m741efc42ff" style="stroke:#000000;stroke-width:0.5;"/>
      </defs>
      <g>
       <use style="stroke:#000000;stroke-width:0.5;" x="54.885" xlink:href="#m741efc42ff" y="13.006875"/>
      </g>
     </g>
     <g id="text_1">
      <!-- 0 -->
      <defs>
       <path d="
M31.7812 66.4062
Q24.1719 66.4062 20.3281 58.9062
Q16.5 51.4219 16.5 36.375
Q16.5 21.3906 20.3281 13.8906
Q24.1719 6.39062 31.7812 6.39062
Q39.4531 6.39062 43.2812 13.8906
Q47.125 21.3906 47.125 36.375
Q47.125 51.4219 43.2812 58.9062
Q39.4531 66.4062 31.7812 66.4062
M31.7812 74.2188
Q44.0469 74.2188 50.5156 64.5156
Q56.9844 54.8281 56.9844 36.375
Q56.9844 17.9688 50.5156 8.26562
Q44.0469 -1.42188 31.7812 -1.42188
Q19.5312 -1.42188 13.0625 8.26562
Q6.59375 17.9688 6.59375 36.375
Q6.59375 54.8281 13.0625 64.5156
Q19.5312 74.2188 31.7812 74.2188" id="BitstreamVeraSans-Roman-30"/>
      </defs>
      <g transform="translate(51.8615625 314.125)scale(0.12 -0.12)">
       <use xlink:href="#BitstreamVeraSans-Roman-30"/>
      </g>
     </g>
    </g>
    <g id="xtick_2">
     <g id="line2d_7">
      <g>
       <use style="stroke:#000000;stroke-width:0.5;" x="105.612272727" xlink:href="#m93b0483c22" y="301.006875"/>
      </g>
     </g>
     <g id="line2d_8">
      <g>
       <use style="stroke:#000000;stroke-width:0.5;" x="105.612272727" xlink:href="#m741efc42ff" y="13.006875"/>
      </g>
     </g>
     <g id="text_2">
      <!-- 1 -->
      <defs>
       <path d="
M12.4062 8.29688
L28.5156 8.29688
L28.5156 63.9219
L10.9844 60.4062
L10.9844 69.3906
L28.4219 72.9062
L38.2812 72.9062
L38.2812 8.29688
L54.3906 8.29688
L54.3906 0
L12.4062 0
z
" id="BitstreamVeraSans-Roman-31"/>
      </defs>
      <g transform="translate(103.007897727 314.125)scale(0.12 -0.12)">
       <use xlink:href="#BitstreamVeraSans-Roman-31"/>
      </g>
     </g>
    </g>
    <g id="xtick_3">
     <g id="line2d_9">
      <g>
       <use style="stroke:#000000;stroke-width:0.5;" x="156.339545455" xlink:href="#m93b0483c22" y="301.006875"/>
      </g>
     </g>
     <g id="line2d_10">
      <g>
       <use style="stroke:#000000;stroke-width:0.5;" x="156.339545455" xlink:href="#m741efc42ff" y="13.006875"/>
      </g>
     </g>
     <g id="text_3">
      <!-- 2 -->
      <defs>
       <path d="
M19.1875 8.29688
L53.6094 8.29688
L53.6094 0
L7.32812 0
L7.32812 8.29688
Q12.9375 14.1094 22.625 23.8906
Q32.3281 33.6875 34.8125 36.5312
Q39.5469 41.8438 41.4219 45.5312
Q43.3125 49.2188 43.3125 52.7812
Q43.3125 58.5938 39.2344 62.25
Q35.1562 65.9219 28.6094 65.9219
Q23.9688 65.9219 18.8125 64.3125
Q13.6719 62.7031 7.8125 59.4219
L7.8125 69.3906
Q13.7656 71.7812 18.9375 73
Q24.125 74.2188 28.4219 74.2188
Q39.75 74.2188 46.4844 68.5469
Q53.2188 62.8906 53.2188 53.4219
Q53.2188 48.9219 51.5312 44.8906
Q49.8594 40.875 45.4062 35.4062
Q44.1875 33.9844 37.6406 27.2188
Q31.1094 20.4531 19.1875 8.29688" id="BitstreamVeraSans-Roman-32"/>
      </defs>
      <g transform="translate(153.562670455 314.125)scale(0.12 -0.12)">
       <use xlink:href="#BitstreamVeraSans-Roman-32"/>
      </g>
     </g>
    </g>
    <g id="xtick_4">
     <g id="line2d_11">
      <g>
       <use style="stroke:#000000;stroke-width:0.5;" x="207.066818182" xlink:href="#m93b0483c22" y="301.006875"/>
      </g>
     </g>
     <g id="line2d_12">
      <g>
       <use style="stroke:#000000;stroke-width:0.5;" x="207.066818182" xlink:href="#m741efc42ff" y="13.006875"/>
      </g>
     </g>
     <g id="text_4">
      <!-- 3 -->
      <defs>
       <path d="
M40.5781 39.3125
Q47.6562 37.7969 51.625 33
Q55.6094 28.2188 55.6094 21.1875
Q55.6094 10.4062 48.1875 4.48438
Q40.7656 -1.42188 27.0938 -1.42188
Q22.5156 -1.42188 17.6562 -0.515625
Q12.7969 0.390625 7.625 2.20312
L7.625 11.7188
Q11.7188 9.32812 16.5938 8.10938
Q21.4844 6.89062 26.8125 6.89062
Q36.0781 6.89062 40.9375 10.5469
Q45.7969 14.2031 45.7969 21.1875
Q45.7969 27.6406 41.2812 31.2656
Q36.7656 34.9062 28.7188 34.9062
L20.2188 34.9062
L20.2188 43.0156
L29.1094 43.0156
Q36.375 43.0156 40.2344 45.9219
Q44.0938 48.8281 44.0938 54.2969
Q44.0938 59.9062 40.1094 62.9062
Q36.1406 65.9219 28.7188 65.9219
Q24.6562 65.9219 20.0156 65.0312
Q15.375 64.1562 9.8125 62.3125
L9.8125 71.0938
Q15.4375 72.6562 20.3438 73.4375
Q25.25 74.2188 29.5938 74.2188
Q40.8281 74.2188 47.3594 69.1094
Q53.9062 64.0156 53.9062 55.3281
Q53.9062 49.2656 50.4375 45.0938
Q46.9688 40.9219 40.5781 39.3125" id="BitstreamVeraSans-Roman-33"/>
      </defs>
      <g transform="translate(204.187755682 314.125)scale(0.12 -0.12)">
       <use xlink:href="#BitstreamVeraSans-Roman-33"/>
      </g>
     </g>
    </g>
    <g id="xtick_5">
     <g id="line2d_13">
      <g>
       <use style="stroke:#000000;stroke-width:0.5;" x="257.794090909" xlink:href="#m93b0483c22" y="301.006875"/>
      </g>
     </g>
     <g id="line2d_14">
      <g>
       <use style="stroke:#000000;stroke-width:0.5;" x="257.794090909" xlink:href="#m741efc42ff" y="13.006875"/>
      </g>
     </g>
     <g id="text_5">
      <!-- 4 -->
      <defs>
       <path d="
M37.7969 64.3125
L12.8906 25.3906
L37.7969 25.3906
z

M35.2031 72.9062
L47.6094 72.9062
L47.6094 25.3906
L58.0156 25.3906
L58.0156 17.1875
L47.6094 17.1875
L47.6094 0
L37.7969 0
L37.7969 17.1875
L4.89062 17.1875
L4.89062 26.7031
z
" id="BitstreamVeraSans-Roman-34"/>
      </defs>
      <g transform="translate(254.606590909 314.125)scale(0.12 -0.12)">
       <use xlink:href="#BitstreamVeraSans-Roman-34"/>
      </g>
     </g>
    </g>
    <g id="xtick_6">
     <g id="line2d_15">
      <g>
       <use style="stroke:#000000;stroke-width:0.5;" x="308.521363636" xlink:href="#m93b0483c22" y="301.006875"/>
      </g>
     </g>
     <g id="line2d_16">
      <g>
       <use style="stroke:#000000;stroke-width:0.5;" x="308.521363636" xlink:href="#m741efc42ff" y="13.006875"/>
      </g>
     </g>
     <g id="text_6">
      <!-- 5 -->
      <defs>
       <path d="
M10.7969 72.9062
L49.5156 72.9062
L49.5156 64.5938
L19.8281 64.5938
L19.8281 46.7344
Q21.9688 47.4688 24.1094 47.8281
Q26.2656 48.1875 28.4219 48.1875
Q40.625 48.1875 47.75 41.5
Q54.8906 34.8125 54.8906 23.3906
Q54.8906 11.625 47.5625 5.09375
Q40.2344 -1.42188 26.9062 -1.42188
Q22.3125 -1.42188 17.5469 -0.640625
Q12.7969 0.140625 7.71875 1.70312
L7.71875 11.625
Q12.1094 9.23438 16.7969 8.0625
Q21.4844 6.89062 26.7031 6.89062
Q35.1562 6.89062 40.0781 11.3281
Q45.0156 15.7656 45.0156 23.3906
Q45.0156 31 40.0781 35.4375
Q35.1562 39.8906 26.7031 39.8906
Q22.75 39.8906 18.8125 39.0156
Q14.8906 38.1406 10.7969 36.2812
z
" id="BitstreamVeraSans-Roman-35"/>
      </defs>
      <g transform="translate(305.691051136 314.125)scale(0.12 -0.12)">
       <use xlink:href="#BitstreamVeraSans-Roman-35"/>
      </g>
     </g>
    </g>
    <g id="text_7">
     <!-- T [s] -->
     <defs>
      <path d="
M30.4219 75.9844
L30.4219 -13.1875
L9.71875 -13.1875
L9.71875 -6.20312
L21.3906 -6.20312
L21.3906 69
L9.71875 69
L9.71875 75.9844
z
" id="BitstreamVeraSans-Roman-5d"/>
      <path id="BitstreamVeraSans-Roman-20"/>
      <path d="
M8.59375 75.9844
L29.2969 75.9844
L29.2969 69
L17.5781 69
L17.5781 -6.20312
L29.2969 -6.20312
L29.2969 -13.1875
L8.59375 -13.1875
z
" id="BitstreamVeraSans-Roman-5b"/>
      <path d="
M-0.296875 72.9062
L61.375 72.9062
L61.375 64.5938
L35.5 64.5938
L35.5 0
L25.5938 0
L25.5938 64.5938
L-0.296875 64.5938
z
" id="BitstreamVeraSans-Roman-54"/>
      <path d="
M44.2812 53.0781
L44.2812 44.5781
Q40.4844 46.5312 36.375 47.5
Q32.2812 48.4844 27.875 48.4844
Q21.1875 48.4844 17.8438 46.4375
Q14.5 44.3906 14.5 40.2812
Q14.5 37.1562 16.8906 35.375
Q19.2812 33.5938 26.5156 31.9844
L29.5938 31.2969
Q39.1562 29.25 43.1875 25.5156
Q47.2188 21.7812 47.2188 15.0938
Q47.2188 7.46875 41.1875 3.01562
Q35.1562 -1.42188 24.6094 -1.42188
Q20.2188 -1.42188 15.4531 -0.5625
Q10.6875 0.296875 5.42188 2
L5.42188 11.2812
Q10.4062 8.6875 15.2344 7.39062
Q20.0625 6.10938 24.8125 6.10938
Q31.1562 6.10938 34.5625 8.28125
Q37.9844 10.4531 37.9844 14.4062
Q37.9844 18.0625 35.5156 20.0156
Q33.0625 21.9688 24.7031 23.7812
L21.5781 24.5156
Q13.2344 26.2656 9.51562 29.9062
Q5.8125 33.5469 5.8125 39.8906
Q5.8125 47.6094 11.2812 51.7969
Q16.75 56 26.8125 56
Q31.7812 56 36.1719 55.2656
Q40.5781 54.5469 44.2812 53.0781" id="BitstreamVeraSans-Roman-73"/>
     </defs>
     <g transform="translate(168.821931818 330.73875)scale(0.12 -0.12)">
      <use xlink:href="#BitstreamVeraSans-Roman-54"/>
      <use x="61.083984375" xlink:href="#BitstreamVeraSans-Roman-20"/>
      <use x="92.87109375" xlink:href="#BitstreamVeraSans-Roman-5b"/>
      <use x="131.884765625" xlink:href="#BitstreamVeraSans-Roman-73"/>
      <use x="183.984375" xlink:href="#BitstreamVeraSans-Roman-5d"/>
     </g>
    </g>
   </g>
   <g id="matplotlib.axis_2">
    <g id="ytick_1">
     <g id="line2d_17">
      <defs>
       <path d="
M0 0
L4 0" id="m728421d6d4" style="stroke:#000000;stroke-width:0.5;"/>
      </defs>
      <g>
       <use style="stroke:#000000;stroke-width:0.5;" x="54.885" xlink:href="#m728421d6d4" y="301.006875"/>
      </g>
     </g>
     <g id="line2d_18">
      <defs>
       <path d="
M0 0
L-4 0" id="mcb0005524f" style="stroke:#000000;stroke-width:0.5;"/>
      </defs>
      <g>
       <use style="stroke:#000000;stroke-width:0.5;" x="308.521363636" xlink:href="#mcb0005524f" y="301.006875"/>
      </g>
     </g>
     <g id="text_8">
      <!-- −1.0 -->
      <defs>
       <path d="
M10.5938 35.5
L73.1875 35.5
L73.1875 27.2031
L10.5938 27.2031
z
" id="BitstreamVeraSans-Roman-2212"/>
       <path d="
M10.6875 12.4062
L21 12.4062
L21 0
L10.6875 0
z
" id="BitstreamVeraSans-Roman-2e"/>
      </defs>
      <g transform="translate(23.81375 304.318125)scale(0.12 -0.12)">
       <use xlink:href="#BitstreamVeraSans-Roman-2212"/>
       <use x="83.7890625" xlink:href="#BitstreamVeraSans-Roman-31"/>
       <use x="147.412109375" xlink:href="#BitstreamVeraSans-Roman-2e"/>
       <use x="179.19921875" xlink:href="#BitstreamVeraSans-Roman-30"/>
      </g>
     </g>
    </g>
    <g id="ytick_2">
     <g id="line2d_19">
      <g>
       <use style="stroke:#000000;stroke-width:0.5;" x="54.885" xlink:href="#m728421d6d4" y="253.006875"/>
      </g>
     </g>
     <g id="line2d_20">
      <g>
       <use style="stroke:#000000;stroke-width:0.5;" x="308.521363636" xlink:href="#mcb0005524f" y="253.006875"/>
      </g>
     </g>
     <g id="text_9">
      <!-- −0.5 -->
      <g transform="translate(24.065 256.318125)scale(0.12 -0.12)">
       <use xlink:href="#BitstreamVeraSans-Roman-2212"/>
       <use x="83.7890625" xlink:href="#BitstreamVeraSans-Roman-30"/>
       <use x="147.412109375" xlink:href="#BitstreamVeraSans-Roman-2e"/>
       <use x="179.19921875" xlink:href="#BitstreamVeraSans-Roman-35"/>
      </g>
     </g>
    </g>
    <g id="ytick_3">
     <g id="line2d_21">
      <g>
       <use style="stroke:#000000;stroke-width:0.5;" x="54.885" xlink:href="#m728421d6d4" y="205.006875"/>
      </g>
     </g>
     <g id="line2d_22">
      <g>
       <use style="stroke:#000000;stroke-width:0.5;" x="308.521363636" xlink:href="#mcb0005524f" y="205.006875"/>
      </g>
     </g>
     <g id="text_10">
      <!-- 0.0 -->
      <g transform="translate(33.389375 208.318125)scale(0.12 -0.12)">
       <use xlink:href="#BitstreamVeraSans-Roman-30"/>
       <use x="63.623046875" xlink:href="#BitstreamVeraSans-Roman-2e"/>
       <use x="95.41015625" xlink:href="#BitstreamVeraSans-Roman-30"/>
      </g>
     </g>
    </g>
    <g id="ytick_4">
     <g id="line2d_23">
      <g>
       <use style="stroke:#000000;stroke-width:0.5;" x="54.885" xlink:href="#m728421d6d4" y="157.006875"/>
      </g>
     </g>
     <g id="line2d_24">
      <g>
       <use style="stroke:#000000;stroke-width:0.5;" x="308.521363636" xlink:href="#mcb0005524f" y="157.006875"/>
      </g>
     </g>
     <g id="text_11">
      <!-- 0.5 -->
      <g transform="translate(33.640625 160.318125)scale(0.12 -0.12)">
       <use xlink:href="#BitstreamVeraSans-Roman-30"/>
       <use x="63.623046875" xlink:href="#BitstreamVeraSans-Roman-2e"/>
       <use x="95.41015625" xlink:href="#BitstreamVeraSans-Roman-35"/>
      </g>
     </g>
    </g>
    <g id="ytick_5">
     <g id="line2d_25">
      <g>
       <use style="stroke:#000000;stroke-width:0.5;" x="54.885" xlink:href="#m728421d6d4" y="109.006875"/>
      </g>
     </g>
     <g id="line2d_26">
      <g>
       <use style="stroke:#000000;stroke-width:0.5;" x="308.521363636" xlink:href="#mcb0005524f" y="109.006875"/>
      </g>
     </g>
     <g id="text_12">
      <!-- 1.0 -->
      <g transform="translate(33.91625 112.318125)scale(0.12 -0.12)">
       <use xlink:href="#BitstreamVeraSans-Roman-31"/>
       <use x="63.623046875" xlink:href="#BitstreamVeraSans-Roman-2e"/>
       <use x="95.41015625" xlink:href="#BitstreamVeraSans-Roman-30"/>
      </g>
     </g>
    </g>
    <g id="ytick_6">
     <g id="line2d_27">
      <g>
       <use style="stroke:#000000;stroke-width:0.5;" x="54.885" xlink:href="#m728421d6d4" y="61.006875"/>
      </g>
     </g>
     <g id="line2d_28">
      <g>
       <use style="stroke:#000000;stroke-width:0.5;" x="308.521363636" xlink:href="#mcb0005524f" y="61.006875"/>
      </g>
     </g>
     <g id="text_13">
      <!-- 1.5 -->
      <g transform="translate(34.1675 64.318125)scale(0.12 -0.12)">
       <use xlink:href="#BitstreamVeraSans-Roman-31"/>
       <use x="63.623046875" xlink:href="#BitstreamVeraSans-Roman-2e"/>
       <use x="95.41015625" xlink:href="#BitstreamVeraSans-Roman-35"/>
      </g>
     </g>
    </g>
    <g id="ytick_7">
     <g id="line2d_29">
      <g>
       <use style="stroke:#000000;stroke-width:0.5;" x="54.885" xlink:href="#m728421d6d4" y="13.006875"/>
      </g>
     </g>
     <g id="line2d_30">
      <g>
       <use style="stroke:#000000;stroke-width:0.5;" x="308.521363636" xlink:href="#mcb0005524f" y="13.006875"/>
      </g>
     </g>
     <g id="text_14">
      <!-- 2.0 -->
      <g transform="translate(33.4775 16.318125)scale(0.12 -0.12)">
       <use xlink:href="#BitstreamVeraSans-Roman-32"/>
       <use x="63.623046875" xlink:href="#BitstreamVeraSans-Roman-2e"/>
       <use x="95.41015625" xlink:href="#BitstreamVeraSans-Roman-30"/>
      </g>
     </g>
    </g>
    <g id="text_15">
     <!-- Prob density -->
     <defs>
      <path d="
M54.8906 33.0156
L54.8906 0
L45.9062 0
L45.9062 32.7188
Q45.9062 40.4844 42.875 44.3281
Q39.8438 48.1875 33.7969 48.1875
Q26.5156 48.1875 22.3125 43.5469
Q18.1094 38.9219 18.1094 30.9062
L18.1094 0
L9.07812 0
L9.07812 54.6875
L18.1094 54.6875
L18.1094 46.1875
Q21.3438 51.125 25.7031 53.5625
Q30.0781 56 35.7969 56
Q45.2188 56 50.0469 50.1719
Q54.8906 44.3438 54.8906 33.0156" id="BitstreamVeraSans-Roman-6e"/>
      <path d="
M30.6094 48.3906
Q23.3906 48.3906 19.1875 42.75
Q14.9844 37.1094 14.9844 27.2969
Q14.9844 17.4844 19.1562 11.8438
Q23.3438 6.20312 30.6094 6.20312
Q37.7969 6.20312 41.9844 11.8594
Q46.1875 17.5312 46.1875 27.2969
Q46.1875 37.0156 41.9844 42.7031
Q37.7969 48.3906 30.6094 48.3906
M30.6094 56
Q42.3281 56 49.0156 48.375
Q55.7188 40.7656 55.7188 27.2969
Q55.7188 13.875 49.0156 6.21875
Q42.3281 -1.42188 30.6094 -1.42188
Q18.8438 -1.42188 12.1719 6.21875
Q5.51562 13.875 5.51562 27.2969
Q5.51562 40.7656 12.1719 48.375
Q18.8438 56 30.6094 56" id="BitstreamVeraSans-Roman-6f"/>
      <path d="
M19.6719 64.7969
L19.6719 37.4062
L32.0781 37.4062
Q38.9688 37.4062 42.7188 40.9688
Q46.4844 44.5312 46.4844 51.125
Q46.4844 57.6719 42.7188 61.2344
Q38.9688 64.7969 32.0781 64.7969
z

M9.8125 72.9062
L32.0781 72.9062
Q44.3438 72.9062 50.6094 67.3594
Q56.8906 61.8125 56.8906 51.125
Q56.8906 40.3281 50.6094 34.8125
Q44.3438 29.2969 32.0781 29.2969
L19.6719 29.2969
L19.6719 0
L9.8125 0
z
" id="BitstreamVeraSans-Roman-50"/>
      <path d="
M9.42188 54.6875
L18.4062 54.6875
L18.4062 0
L9.42188 0
z

M9.42188 75.9844
L18.4062 75.9844
L18.4062 64.5938
L9.42188 64.5938
z
" id="BitstreamVeraSans-Roman-69"/>
      <path d="
M32.1719 -5.07812
Q28.375 -14.8438 24.75 -17.8125
Q21.1406 -20.7969 15.0938 -20.7969
L7.90625 -20.7969
L7.90625 -13.2812
L13.1875 -13.2812
Q16.8906 -13.2812 18.9375 -11.5156
Q21 -9.76562 23.4844 -3.21875
L25.0938 0.875
L2.98438 54.6875
L12.5 54.6875
L29.5938 11.9219
L46.6875 54.6875
L56.2031 54.6875
z
" id="BitstreamVeraSans-Roman-79"/>
      <path d="
M56.2031 29.5938
L56.2031 25.2031
L14.8906 25.2031
Q15.4844 15.9219 20.4844 11.0625
Q25.4844 6.20312 34.4219 6.20312
Q39.5938 6.20312 44.4531 7.46875
Q49.3125 8.73438 54.1094 11.2812
L54.1094 2.78125
Q49.2656 0.734375 44.1875 -0.34375
Q39.1094 -1.42188 33.8906 -1.42188
Q20.7969 -1.42188 13.1562 6.1875
Q5.51562 13.8125 5.51562 26.8125
Q5.51562 40.2344 12.7656 48.1094
Q20.0156 56 32.3281 56
Q43.3594 56 49.7812 48.8906
Q56.2031 41.7969 56.2031 29.5938
M47.2188 32.2344
Q47.125 39.5938 43.0938 43.9844
Q39.0625 48.3906 32.4219 48.3906
Q24.9062 48.3906 20.3906 44.1406
Q15.875 39.8906 15.1875 32.1719
z
" id="BitstreamVeraSans-Roman-65"/>
      <path d="
M45.4062 46.3906
L45.4062 75.9844
L54.3906 75.9844
L54.3906 0
L45.4062 0
L45.4062 8.20312
Q42.5781 3.32812 38.25 0.953125
Q33.9375 -1.42188 27.875 -1.42188
Q17.9688 -1.42188 11.7344 6.48438
Q5.51562 14.4062 5.51562 27.2969
Q5.51562 40.1875 11.7344 48.0938
Q17.9688 56 27.875 56
Q33.9375 56 38.25 53.625
Q42.5781 51.2656 45.4062 46.3906
M14.7969 27.2969
Q14.7969 17.3906 18.875 11.75
Q22.9531 6.10938 30.0781 6.10938
Q37.2031 6.10938 41.2969 11.75
Q45.4062 17.3906 45.4062 27.2969
Q45.4062 37.2031 41.2969 42.8438
Q37.2031 48.4844 30.0781 48.4844
Q22.9531 48.4844 18.875 42.8438
Q14.7969 37.2031 14.7969 27.2969" id="BitstreamVeraSans-Roman-64"/>
      <path d="
M18.3125 70.2188
L18.3125 54.6875
L36.8125 54.6875
L36.8125 47.7031
L18.3125 47.7031
L18.3125 18.0156
Q18.3125 11.3281 20.1406 9.42188
Q21.9688 7.51562 27.5938 7.51562
L36.8125 7.51562
L36.8125 0
L27.5938 0
Q17.1875 0 13.2344 3.875
Q9.28125 7.76562 9.28125 18.0156
L9.28125 47.7031
L2.6875 47.7031
L2.6875 54.6875
L9.28125 54.6875
L9.28125 70.2188
z
" id="BitstreamVeraSans-Roman-74"/>
      <path d="
M41.1094 46.2969
Q39.5938 47.1719 37.8125 47.5781
Q36.0312 48 33.8906 48
Q26.2656 48 22.1875 43.0469
Q18.1094 38.0938 18.1094 28.8125
L18.1094 0
L9.07812 0
L9.07812 54.6875
L18.1094 54.6875
L18.1094 46.1875
Q20.9531 51.1719 25.4844 53.5781
Q30.0312 56 36.5312 56
Q37.4531 56 38.5781 55.875
Q39.7031 55.7656 41.0625 55.5156
z
" id="BitstreamVeraSans-Roman-72"/>
      <path d="
M48.6875 27.2969
Q48.6875 37.2031 44.6094 42.8438
Q40.5312 48.4844 33.4062 48.4844
Q26.2656 48.4844 22.1875 42.8438
Q18.1094 37.2031 18.1094 27.2969
Q18.1094 17.3906 22.1875 11.75
Q26.2656 6.10938 33.4062 6.10938
Q40.5312 6.10938 44.6094 11.75
Q48.6875 17.3906 48.6875 27.2969
M18.1094 46.3906
Q20.9531 51.2656 25.2656 53.625
Q29.5938 56 35.5938 56
Q45.5625 56 51.7812 48.0938
Q58.0156 40.1875 58.0156 27.2969
Q58.0156 14.4062 51.7812 6.48438
Q45.5625 -1.42188 35.5938 -1.42188
Q29.5938 -1.42188 25.2656 0.953125
Q20.9531 3.32812 18.1094 8.20312
L18.1094 0
L9.07812 0
L9.07812 75.9844
L18.1094 75.9844
z
" id="BitstreamVeraSans-Roman-62"/>
     </defs>
     <g transform="translate(16.318125 194.05875)rotate(-90.0)scale(0.12 -0.12)">
      <use xlink:href="#BitstreamVeraSans-Roman-50"/>
      <use x="58.552734375" xlink:href="#BitstreamVeraSans-Roman-72"/>
      <use x="97.416015625" xlink:href="#BitstreamVeraSans-Roman-6f"/>
      <use x="158.59765625" xlink:href="#BitstreamVeraSans-Roman-62"/>
      <use x="222.07421875" xlink:href="#BitstreamVeraSans-Roman-20"/>
      <use x="253.861328125" xlink:href="#BitstreamVeraSans-Roman-64"/>
      <use x="317.337890625" xlink:href="#BitstreamVeraSans-Roman-65"/>
      <use x="378.861328125" xlink:href="#BitstreamVeraSans-Roman-6e"/>
      <use x="442.240234375" xlink:href="#BitstreamVeraSans-Roman-73"/>
      <use x="494.33984375" xlink:href="#BitstreamVeraSans-Roman-69"/>
      <use x="522.123046875" xlink:href="#BitstreamVeraSans-Roman-74"/>
      <use x="561.33203125" xlink:href="#BitstreamVeraSans-Roman-79"/>
     </g>
    </g>
   </g>
   <g id="text_16">
    <!-- A -->
    <defs>
     <path d="
M34.1875 63.1875
L20.7969 26.9062
L47.6094 26.9062
z

M28.6094 72.9062
L39.7969 72.9062
L67.5781 0
L57.3281 0
L50.6875 18.7031
L17.8281 18.7031
L11.1875 0
L0.78125 0
z
" id="BitstreamVeraSans-Roman-41"/>
    </defs>
    <g transform="translate(8.41738636364 25.483125)scale(0.24 -0.24)">
     <use xlink:href="#BitstreamVeraSans-Roman-41"/>
    </g>
   </g>
   <g id="legend_1">
    <g id="patch_7">
     <path d="
M134.977 109.073
L298.441 109.073
Q301.321 109.073 301.321 106.193
L301.321 23.0869
Q301.321 20.2069 298.441 20.2069
L134.977 20.2069
Q132.097 20.2069 132.097 23.0869
L132.097 106.193
Q132.097 109.073 134.977 109.073
z
" style="fill:#ffffff;opacity:0.5;stroke:#000000;stroke-linejoin:miter;"/>
    </g>
    <g id="line2d_31">
     <path d="
M142.177 31.8686
L162.337 31.8686" style="fill:none;stroke:#0000ff;stroke-linecap:square;"/>
    </g>
    <g id="line2d_32"/>
    <g id="text_17">
     <!-- Subjects hit -->
     <defs>
      <path d="
M8.5 21.5781
L8.5 54.6875
L17.4844 54.6875
L17.4844 21.9219
Q17.4844 14.1562 20.5 10.2656
Q23.5312 6.39062 29.5938 6.39062
Q36.8594 6.39062 41.0781 11.0312
Q45.3125 15.6719 45.3125 23.6875
L45.3125 54.6875
L54.2969 54.6875
L54.2969 0
L45.3125 0
L45.3125 8.40625
Q42.0469 3.42188 37.7188 1
Q33.4062 -1.42188 27.6875 -1.42188
Q18.2656 -1.42188 13.375 4.4375
Q8.5 10.2969 8.5 21.5781" id="BitstreamVeraSans-Roman-75"/>
      <path d="
M53.5156 70.5156
L53.5156 60.8906
Q47.9062 63.5781 42.9219 64.8906
Q37.9375 66.2188 33.2969 66.2188
Q25.25 66.2188 20.875 63.0938
Q16.5 59.9688 16.5 54.2031
Q16.5 49.3594 19.4062 46.8906
Q22.3125 44.4375 30.4219 42.9219
L36.375 41.7031
Q47.4062 39.5938 52.6562 34.2969
Q57.9062 29 57.9062 20.125
Q57.9062 9.51562 50.7969 4.04688
Q43.7031 -1.42188 29.9844 -1.42188
Q24.8125 -1.42188 18.9688 -0.25
Q13.1406 0.921875 6.89062 3.21875
L6.89062 13.375
Q12.8906 10.0156 18.6562 8.29688
Q24.4219 6.59375 29.9844 6.59375
Q38.4219 6.59375 43.0156 9.90625
Q47.6094 13.2344 47.6094 19.3906
Q47.6094 24.75 44.3125 27.7812
Q41.0156 30.8125 33.5 32.3281
L27.4844 33.5
Q16.4531 35.6875 11.5156 40.375
Q6.59375 45.0625 6.59375 53.4219
Q6.59375 63.0938 13.4062 68.6562
Q20.2188 74.2188 32.1719 74.2188
Q37.3125 74.2188 42.625 73.2812
Q47.9531 72.3594 53.5156 70.5156" id="BitstreamVeraSans-Roman-53"/>
      <path d="
M9.42188 54.6875
L18.4062 54.6875
L18.4062 -0.984375
Q18.4062 -11.4219 14.4219 -16.1094
Q10.4531 -20.7969 1.60938 -20.7969
L-1.8125 -20.7969
L-1.8125 -13.1875
L0.59375 -13.1875
Q5.71875 -13.1875 7.5625 -10.8125
Q9.42188 -8.45312 9.42188 -0.984375
z

M9.42188 75.9844
L18.4062 75.9844
L18.4062 64.5938
L9.42188 64.5938
z
" id="BitstreamVeraSans-Roman-6a"/>
      <path d="
M54.8906 33.0156
L54.8906 0
L45.9062 0
L45.9062 32.7188
Q45.9062 40.4844 42.875 44.3281
Q39.8438 48.1875 33.7969 48.1875
Q26.5156 48.1875 22.3125 43.5469
Q18.1094 38.9219 18.1094 30.9062
L18.1094 0
L9.07812 0
L9.07812 75.9844
L18.1094 75.9844
L18.1094 46.1875
Q21.3438 51.125 25.7031 53.5625
Q30.0781 56 35.7969 56
Q45.2188 56 50.0469 50.1719
Q54.8906 44.3438 54.8906 33.0156" id="BitstreamVeraSans-Roman-68"/>
      <path d="
M48.7812 52.5938
L48.7812 44.1875
Q44.9688 46.2969 41.1406 47.3438
Q37.3125 48.3906 33.4062 48.3906
Q24.6562 48.3906 19.8125 42.8438
Q14.9844 37.3125 14.9844 27.2969
Q14.9844 17.2812 19.8125 11.7344
Q24.6562 6.20312 33.4062 6.20312
Q37.3125 6.20312 41.1406 7.25
Q44.9688 8.29688 48.7812 10.4062
L48.7812 2.09375
Q45.0156 0.34375 40.9844 -0.53125
Q36.9688 -1.42188 32.4219 -1.42188
Q20.0625 -1.42188 12.7812 6.34375
Q5.51562 14.1094 5.51562 27.2969
Q5.51562 40.6719 12.8594 48.3281
Q20.2188 56 33.0156 56
Q37.1562 56 41.1094 55.1406
Q45.0625 54.2969 48.7812 52.5938" id="BitstreamVeraSans-Roman-63"/>
     </defs>
     <g transform="translate(178.176613636 36.908625)scale(0.144 -0.144)">
      <use xlink:href="#BitstreamVeraSans-Roman-53"/>
      <use x="63.4765625" xlink:href="#BitstreamVeraSans-Roman-75"/>
      <use x="126.85546875" xlink:href="#BitstreamVeraSans-Roman-62"/>
      <use x="190.33203125" xlink:href="#BitstreamVeraSans-Roman-6a"/>
      <use x="218.115234375" xlink:href="#BitstreamVeraSans-Roman-65"/>
      <use x="279.638671875" xlink:href="#BitstreamVeraSans-Roman-63"/>
      <use x="334.619140625" xlink:href="#BitstreamVeraSans-Roman-74"/>
      <use x="373.828125" xlink:href="#BitstreamVeraSans-Roman-73"/>
      <use x="425.927734375" xlink:href="#BitstreamVeraSans-Roman-20"/>
      <use x="457.71484375" xlink:href="#BitstreamVeraSans-Roman-68"/>
      <use x="521.09375" xlink:href="#BitstreamVeraSans-Roman-69"/>
      <use x="548.876953125" xlink:href="#BitstreamVeraSans-Roman-74"/>
     </g>
    </g>
    <g id="line2d_33">
     <path d="
M142.177 53.0051
L162.337 53.0051" style="fill:none;stroke:#ff0000;stroke-linecap:square;"/>
    </g>
    <g id="line2d_34"/>
    <g id="text_18">
     <!-- Subjects miss -->
     <defs>
      <path d="
M52 44.1875
Q55.375 50.25 60.0625 53.125
Q64.75 56 71.0938 56
Q79.6406 56 84.2812 50.0156
Q88.9219 44.0469 88.9219 33.0156
L88.9219 0
L79.8906 0
L79.8906 32.7188
Q79.8906 40.5781 77.0938 44.375
Q74.3125 48.1875 68.6094 48.1875
Q61.625 48.1875 57.5625 43.5469
Q53.5156 38.9219 53.5156 30.9062
L53.5156 0
L44.4844 0
L44.4844 32.7188
Q44.4844 40.625 41.7031 44.4062
Q38.9219 48.1875 33.1094 48.1875
Q26.2188 48.1875 22.1562 43.5312
Q18.1094 38.875 18.1094 30.9062
L18.1094 0
L9.07812 0
L9.07812 54.6875
L18.1094 54.6875
L18.1094 46.1875
Q21.1875 51.2188 25.4844 53.6094
Q29.7812 56 35.6875 56
Q41.6562 56 45.8281 52.9688
Q50 49.9531 52 44.1875" id="BitstreamVeraSans-Roman-6d"/>
     </defs>
     <g transform="translate(178.176613636 58.045125)scale(0.144 -0.144)">
      <use xlink:href="#BitstreamVeraSans-Roman-53"/>
      <use x="63.4765625" xlink:href="#BitstreamVeraSans-Roman-75"/>
      <use x="126.85546875" xlink:href="#BitstreamVeraSans-Roman-62"/>
      <use x="190.33203125" xlink:href="#BitstreamVeraSans-Roman-6a"/>
      <use x="218.115234375" xlink:href="#BitstreamVeraSans-Roman-65"/>
      <use x="279.638671875" xlink:href="#BitstreamVeraSans-Roman-63"/>
      <use x="334.619140625" xlink:href="#BitstreamVeraSans-Roman-74"/>
      <use x="373.828125" xlink:href="#BitstreamVeraSans-Roman-73"/>
      <use x="425.927734375" xlink:href="#BitstreamVeraSans-Roman-20"/>
      <use x="457.71484375" xlink:href="#BitstreamVeraSans-Roman-6d"/>
      <use x="555.126953125" xlink:href="#BitstreamVeraSans-Roman-69"/>
      <use x="582.91015625" xlink:href="#BitstreamVeraSans-Roman-73"/>
      <use x="635.009765625" xlink:href="#BitstreamVeraSans-Roman-73"/>
     </g>
    </g>
    <g id="line2d_35">
     <path d="
M142.177 74.1416
L162.337 74.1416" style="fill:none;stroke:#0000ff;stroke-linecap:square;stroke-width:3;"/>
    </g>
    <g id="line2d_36"/>
    <g id="text_19">
     <!-- Theoretical hit -->
     <defs>
      <path d="
M34.2812 27.4844
Q23.3906 27.4844 19.1875 25
Q14.9844 22.5156 14.9844 16.5
Q14.9844 11.7188 18.1406 8.90625
Q21.2969 6.10938 26.7031 6.10938
Q34.1875 6.10938 38.7031 11.4062
Q43.2188 16.7031 43.2188 25.4844
L43.2188 27.4844
z

M52.2031 31.2031
L52.2031 0
L43.2188 0
L43.2188 8.29688
Q40.1406 3.32812 35.5469 0.953125
Q30.9531 -1.42188 24.3125 -1.42188
Q15.9219 -1.42188 10.9531 3.29688
Q6 8.01562 6 15.9219
Q6 25.1406 12.1719 29.8281
Q18.3594 34.5156 30.6094 34.5156
L43.2188 34.5156
L43.2188 35.4062
Q43.2188 41.6094 39.1406 45
Q35.0625 48.3906 27.6875 48.3906
Q23 48.3906 18.5469 47.2656
Q14.1094 46.1406 10.0156 43.8906
L10.0156 52.2031
Q14.9375 54.1094 19.5781 55.0469
Q24.2188 56 28.6094 56
Q40.4844 56 46.3438 49.8438
Q52.2031 43.7031 52.2031 31.2031" id="BitstreamVeraSans-Roman-61"/>
      <path d="
M9.42188 75.9844
L18.4062 75.9844
L18.4062 0
L9.42188 0
z
" id="BitstreamVeraSans-Roman-6c"/>
     </defs>
     <g transform="translate(178.176613636 79.181625)scale(0.144 -0.144)">
      <use xlink:href="#BitstreamVeraSans-Roman-54"/>
      <use x="61.083984375" xlink:href="#BitstreamVeraSans-Roman-68"/>
      <use x="124.462890625" xlink:href="#BitstreamVeraSans-Roman-65"/>
      <use x="185.986328125" xlink:href="#BitstreamVeraSans-Roman-6f"/>
      <use x="247.16796875" xlink:href="#BitstreamVeraSans-Roman-72"/>
      <use x="286.03125" xlink:href="#BitstreamVeraSans-Roman-65"/>
      <use x="347.5546875" xlink:href="#BitstreamVeraSans-Roman-74"/>
      <use x="386.763671875" xlink:href="#BitstreamVeraSans-Roman-69"/>
      <use x="414.546875" xlink:href="#BitstreamVeraSans-Roman-63"/>
      <use x="469.52734375" xlink:href="#BitstreamVeraSans-Roman-61"/>
      <use x="530.806640625" xlink:href="#BitstreamVeraSans-Roman-6c"/>
      <use x="558.58984375" xlink:href="#BitstreamVeraSans-Roman-20"/>
      <use x="590.376953125" xlink:href="#BitstreamVeraSans-Roman-68"/>
      <use x="653.755859375" xlink:href="#BitstreamVeraSans-Roman-69"/>
      <use x="681.5390625" xlink:href="#BitstreamVeraSans-Roman-74"/>
     </g>
    </g>
    <g id="line2d_37">
     <path d="
M142.177 95.2781
L162.337 95.2781" style="fill:none;stroke:#ff0000;stroke-linecap:square;stroke-width:3;"/>
    </g>
    <g id="line2d_38"/>
    <g id="text_20">
     <!-- Theoretical miss -->
     <g transform="translate(178.176613636 100.318125)scale(0.144 -0.144)">
      <use xlink:href="#BitstreamVeraSans-Roman-54"/>
      <use x="61.083984375" xlink:href="#BitstreamVeraSans-Roman-68"/>
      <use x="124.462890625" xlink:href="#BitstreamVeraSans-Roman-65"/>
      <use x="185.986328125" xlink:href="#BitstreamVeraSans-Roman-6f"/>
      <use x="247.16796875" xlink:href="#BitstreamVeraSans-Roman-72"/>
      <use x="286.03125" xlink:href="#BitstreamVeraSans-Roman-65"/>
      <use x="347.5546875" xlink:href="#BitstreamVeraSans-Roman-74"/>
      <use x="386.763671875" xlink:href="#BitstreamVeraSans-Roman-69"/>
      <use x="414.546875" xlink:href="#BitstreamVeraSans-Roman-63"/>
      <use x="469.52734375" xlink:href="#BitstreamVeraSans-Roman-61"/>
      <use x="530.806640625" xlink:href="#BitstreamVeraSans-Roman-6c"/>
      <use x="558.58984375" xlink:href="#BitstreamVeraSans-Roman-20"/>
      <use x="590.376953125" xlink:href="#BitstreamVeraSans-Roman-6d"/>
      <use x="687.7890625" xlink:href="#BitstreamVeraSans-Roman-69"/>
      <use x="715.572265625" xlink:href="#BitstreamVeraSans-Roman-73"/>
      <use x="767.671875" xlink:href="#BitstreamVeraSans-Roman-73"/>
     </g>
    </g>
   </g>
  </g>
  <g id="axes_2">
   <g id="patch_8">
    <path d="
M359.249 301.007
L612.885 301.007
L612.885 13.0069
L359.249 13.0069
z
" style="fill:#ffffff;"/>
   </g>
   <g id="line2d_39">
    <path clip-path="url(#p14f3c1abba)" d="
M370.575 205.007
L372.88 205.007
L372.88 204.785
L375.184 204.785
L375.184 204.121
L377.489 204.121
L377.489 199.693
L379.794 199.693
L379.794 181.315
L382.098 181.315
L382.098 146.994
L384.403 146.994
L384.403 125.516
L386.708 125.516
L386.708 121.973
L389.012 121.973
L389.012 127.952
L391.317 127.952
L391.317 112.452
L393.621 112.452
L393.621 137.694
L395.926 137.694
L395.926 145.001
L398.231 145.001
L398.231 159.615
L400.535 159.615
L400.535 167.365
L402.84 167.365
L402.84 174.229
L405.145 174.229
L405.145 181.315
L407.449 181.315
L407.449 184.857
L409.754 184.857
L409.754 179.765
L412.059 179.765
L412.059 189.95
L414.363 189.95
L414.363 190.393
L416.668 190.393
L416.668 192.164
L418.973 192.164
L418.973 194.379
L421.277 194.379
L421.277 195.486
L423.582 195.486
L423.582 196.15
L425.887 196.15
L425.887 192.829
L428.191 192.829
L428.191 196.593
L430.496 196.593
L430.496 199.25
L432.8 199.25
L432.8 198.364
L435.105 198.364
L435.105 199.471
L437.41 199.471
L437.41 201.686
L439.714 201.686
L439.714 200.357
L442.019 200.357
L442.019 198.364
L444.324 198.364
L444.324 201.686
L446.628 201.686
L446.628 202.128
L448.933 202.128
L448.933 200.578
L451.238 200.578
L451.238 201.464
L453.542 201.464
L453.542 201.021
L455.847 201.021
L455.847 201.907
L458.152 201.907
L458.152 203.457
L460.456 203.457
L460.456 202.793
L462.761 202.793
L462.761 203.235
L465.066 203.235
L465.066 203.678
L474.284 203.678
L474.284 204.564
L476.589 204.564
L476.589 203.235
L478.893 203.235
L478.893 204.343
L481.198 204.343
L481.198 203.678
L483.503 203.678
L483.503 203.235
L485.807 203.235
L485.807 204.343
L490.417 204.343
L490.417 203.9
L492.721 203.9
L492.721 204.564
L497.331 204.564
L497.331 204.343
L501.94 204.343
L501.94 204.785
L506.549 204.785
L506.549 204.564
L508.854 204.564
L508.854 204.785
L511.158 204.785
L511.158 204.121
L513.463 204.121
L513.463 204.564
L515.768 204.564
L515.768 204.121
L518.072 204.121
L518.072 204.785
L520.377 204.785
L520.377 205.007
L522.682 205.007
L522.682 204.785
L524.986 204.785
L524.986 204.564
L527.291 204.564
L527.291 204.785
L529.596 204.785
L529.596 205.007
L531.9 205.007
L531.9 204.785
L536.51 204.785
L536.51 205.007
L550.337 205.007
L550.337 204.785
L552.642 204.785
L552.642 205.007
L557.251 205.007
L557.251 204.785
L559.556 204.785
L559.556 205.007
L561.861 205.007
L561.861 204.785
L566.47 204.785
L566.47 205.007
L568.775 205.007
L568.775 204.785
L573.384 204.785
L573.384 205.007
L594.126 205.007
L594.126 204.785
L596.43 204.785
L596.43 205.007
L598.735 205.007
L598.735 205.007" style="fill:none;stroke:#228b22;stroke-linecap:square;"/>
   </g>
   <g id="line2d_40">
    <path clip-path="url(#p14f3c1abba)" d="
M370.575 205.45
L372.88 205.45
L372.88 205.671
L375.184 205.671
L375.184 207.443
L377.489 207.443
L377.489 216.299
L379.794 216.299
L379.794 238.663
L382.098 238.663
L382.098 259.92
L384.403 259.92
L384.403 274.755
L386.708 274.755
L386.708 272.541
L389.012 272.541
L389.012 277.634
L391.317 277.634
L391.317 298.005
L393.621 298.005
L393.621 276.084
L395.926 276.084
L395.926 265.455
L398.231 265.455
L398.231 256.82
L400.535 256.82
L400.535 247.742
L402.84 247.742
L402.84 241.542
L405.145 241.542
L405.145 235.563
L407.449 235.563
L407.449 233.57
L409.754 233.57
L409.754 240.656
L412.059 240.656
L412.059 231.135
L414.363 231.135
L414.363 230.471
L416.668 230.471
L416.668 222.499
L418.973 222.499
L418.973 223.385
L421.277 223.385
L421.277 220.949
L423.582 220.949
L423.582 221.392
L425.887 221.392
L425.887 222.721
L428.191 222.721
L428.191 218.957
L430.496 218.957
L430.496 219.178
L432.8 219.178
L432.8 219.399
L435.105 219.399
L435.105 220.064
L437.41 220.064
L437.41 217.849
L439.714 217.849
L439.714 216.964
L442.019 216.964
L442.019 219.621
L444.324 219.621
L444.324 219.399
L446.628 219.399
L446.628 216.964
L448.933 216.964
L448.933 212.978
L451.238 212.978
L451.238 215.414
L453.542 215.414
L453.542 214.307
L455.847 214.307
L455.847 213.421
L458.152 213.421
L458.152 211.65
L460.456 211.65
L460.456 216.299
L462.761 216.299
L462.761 212.978
L465.066 212.978
L465.066 213.2
L467.37 213.2
L467.37 212.978
L469.675 212.978
L469.675 210.985
L471.979 210.985
L471.979 209.657
L474.284 209.657
L474.284 209.214
L476.589 209.214
L476.589 211.871
L478.893 211.871
L478.893 208.771
L481.198 208.771
L481.198 210.542
L485.807 210.542
L485.807 208.107
L488.112 208.107
L488.112 208.992
L492.721 208.992
L492.721 210.1
L495.026 210.1
L495.026 207.885
L497.331 207.885
L497.331 208.107
L499.635 208.107
L499.635 207.885
L501.94 207.885
L501.94 207.443
L504.245 207.443
L504.245 207.664
L506.549 207.664
L506.549 207.443
L508.854 207.443
L508.854 208.107
L511.158 208.107
L511.158 207.443
L513.463 207.443
L513.463 207.221
L515.768 207.221
L515.768 207
L520.377 207
L520.377 206.335
L522.682 206.335
L522.682 206.778
L524.986 206.778
L524.986 206.335
L527.291 206.335
L527.291 206.778
L531.9 206.778
L531.9 206.557
L534.205 206.557
L534.205 206.114
L536.51 206.114
L536.51 205.671
L538.814 205.671
L538.814 207.443
L541.119 207.443
L541.119 205.228
L545.728 205.228
L545.728 206.114
L548.033 206.114
L548.033 205.893
L550.337 205.893
L550.337 206.114
L554.947 206.114
L554.947 205.45
L557.251 205.45
L557.251 205.228
L559.556 205.228
L559.556 205.671
L561.861 205.671
L561.861 205.45
L564.165 205.45
L564.165 205.671
L566.47 205.671
L566.47 205.45
L568.775 205.45
L568.775 205.671
L571.079 205.671
L571.079 205.228
L575.689 205.228
L575.689 205.671
L577.993 205.671
L577.993 205.007
L582.603 205.007
L582.603 205.671
L584.907 205.671
L584.907 205.228
L589.516 205.228
L589.516 205.007
L591.821 205.007
L591.821 205.45
L594.126 205.45
L594.126 205.228
L596.43 205.228
L596.43 205.007
L598.735 205.007
L598.735 205.45
L598.735 205.45" style="fill:none;stroke:#9370db;stroke-linecap:square;"/>
   </g>
   <g id="line2d_41">
    <path clip-path="url(#p14f3c1abba)" d="
M359.249 204.303
L361.278 204.303
L363.307 204.303
L365.336 204.303
L367.365 204.303
L369.394 204.303
L371.423 204.303
L373.452 204.303
L375.481 204.303
L377.51 199.398
L379.54 154.279
L381.569 140.422
L383.598 137.656
L385.627 139.515
L387.656 145.097
L389.685 151.002
L391.714 156.695
L393.743 161.82
L395.772 166.221
L397.801 169.905
L399.83 172.976
L401.86 175.578
L403.889 177.849
L405.918 179.897
L407.947 181.795
L409.976 183.584
L412.005 185.282
L414.034 186.895
L416.063 188.42
L418.092 189.853
L420.121 191.192
L422.15 192.433
L424.18 193.578
L426.209 194.626
L428.238 195.581
L430.267 196.448
L432.296 197.23
L434.325 197.935
L436.354 198.567
L438.383 199.134
L440.412 199.64
L442.441 200.092
L444.47 200.496
L446.5 200.856
L448.529 201.177
L450.558 201.464
L452.587 201.721
L454.616 201.951
L456.645 202.157
L458.674 202.498
L460.703 202.665
L462.732 202.816
L464.761 202.953
L466.79 203.078
L468.82 203.191
L470.849 203.295
L472.878 203.389
L474.907 203.476
L476.936 203.556
L478.965 203.63
L480.994 203.697
L483.023 203.76
L485.052 203.817
L487.081 203.871
L489.11 203.92
L491.14 203.966
L493.169 204.008
L495.198 204.047
L497.227 204.083
L499.256 204.116
L501.285 204.147
L503.314 204.175
L505.343 204.201
L507.372 204.225
L509.401 204.247
L511.43 204.267
L513.46 204.285
L515.489 204.302
L517.518 204.318
L519.547 204.332
L521.576 204.345
L523.605 204.356
L525.634 204.367
L527.663 204.376
L529.692 204.385
L531.721 204.393
L533.75 204.4
L535.78 204.406
L537.809 204.412
L539.838 204.417
L541.867 204.422
L543.896 204.426
L545.925 204.43
L547.954 204.433
L549.983 204.436
L552.012 204.439
L554.041 204.441
L556.07 204.443
L558.1 204.445
L560.129 204.447
L562.158 204.448
L564.187 204.449
L566.216 204.45
L568.245 204.52
L570.274 204.521
L572.303 204.521
L574.332 204.522
L576.361 204.552
L578.39 204.552
L580.42 204.553
L582.449 204.553
L584.478 204.553
L586.507 204.554
L588.536 204.554
L590.565 204.554
L592.594 204.763
L594.623 204.822
L596.652 204.822
L598.681 204.822
L600.71 205.006
L602.74 205.006
L604.769 205.006
L606.798 205.007
L608.827 205.007
L610.856 205.007
L612.885 205.007
L614.914 205.007" style="fill:none;stroke:#228b22;stroke-linecap:square;stroke-width:3;"/>
   </g>
   <g id="line2d_42">
    <path clip-path="url(#p14f3c1abba)" d="
M359.249 205.711
L361.278 205.711
L363.307 205.711
L365.336 205.711
L367.365 205.711
L369.394 205.711
L371.423 205.711
L373.452 205.711
L375.481 205.711
L377.51 205.711
L379.54 213.051
L381.569 245.685
L383.598 270.699
L385.627 284.707
L387.656 291.371
L389.685 291.121
L391.714 286.54
L393.743 279.68
L395.772 272.066
L397.801 264.718
L399.83 258.207
L401.86 252.751
L403.889 248.33
L405.918 244.795
L407.947 241.947
L409.976 239.594
L412.005 237.581
L414.034 235.789
L416.063 234.141
L418.092 232.587
L420.121 231.102
L422.15 229.672
L424.18 228.291
L426.209 226.959
L428.238 225.676
L430.267 224.444
L432.296 223.264
L434.325 222.138
L436.354 221.065
L438.383 220.046
L440.412 219.081
L442.441 218.167
L444.47 217.303
L446.5 216.488
L448.529 215.72
L450.558 214.996
L452.587 214.316
L454.616 213.677
L456.645 213.077
L458.674 212.359
L460.703 211.831
L462.732 211.338
L464.761 210.876
L466.79 210.445
L468.82 210.043
L470.849 209.668
L472.878 209.319
L474.907 208.995
L476.936 208.695
L478.965 208.416
L480.994 208.159
L483.023 207.921
L485.052 207.701
L487.081 207.499
L489.11 207.314
L491.14 207.143
L493.169 206.987
L495.198 206.845
L497.227 206.715
L499.256 206.596
L501.285 206.488
L503.314 206.39
L505.343 206.301
L507.372 206.221
L509.401 206.148
L511.43 206.083
L513.46 206.024
L515.489 205.971
L517.518 205.924
L519.547 205.881
L521.576 205.843
L523.605 205.809
L525.634 205.779
L527.663 205.752
L529.692 205.728
L531.721 205.707
L533.75 205.688
L535.78 205.672
L537.809 205.657
L539.838 205.644
L541.867 205.633
L543.896 205.623
L545.925 205.614
L547.954 205.607
L549.983 205.6
L552.012 205.594
L554.041 205.589
L556.07 205.585
L558.1 205.581
L560.129 205.577
L562.158 205.575
L564.187 205.572
L566.216 205.57
L568.245 205.499
L570.274 205.498
L572.303 205.496
L574.332 205.495
L576.361 205.465
L578.39 205.464
L580.42 205.463
L582.449 205.462
L584.478 205.462
L586.507 205.461
L588.536 205.461
L590.565 205.461
L592.594 205.251
L594.623 205.193
L596.652 205.192
L598.681 205.192
L600.71 205.008
L602.74 205.008
L604.769 205.008
L606.798 205.008
L608.827 205.007
L610.856 205.007
L612.885 205.007
L614.914 205.007" style="fill:none;stroke:#9370db;stroke-linecap:square;stroke-width:3;"/>
   </g>
   <g id="patch_9">
    <path d="
M359.249 13.0069
L612.885 13.0069" style="fill:none;stroke:#000000;stroke-linecap:square;stroke-linejoin:miter;"/>
   </g>
   <g id="patch_10">
    <path d="
M612.885 301.007
L612.885 13.0069" style="fill:none;stroke:#000000;stroke-linecap:square;stroke-linejoin:miter;"/>
   </g>
   <g id="patch_11">
    <path d="
M359.249 301.007
L612.885 301.007" style="fill:none;stroke:#000000;stroke-linecap:square;stroke-linejoin:miter;"/>
   </g>
   <g id="patch_12">
    <path d="
M359.249 301.007
L359.249 13.0069" style="fill:none;stroke:#000000;stroke-linecap:square;stroke-linejoin:miter;"/>
   </g>
   <g id="matplotlib.axis_3">
    <g id="xtick_7">
     <g id="line2d_43">
      <g>
       <use style="stroke:#000000;stroke-width:0.5;" x="359.248636364" xlink:href="#m93b0483c22" y="301.006875"/>
      </g>
     </g>
     <g id="line2d_44">
      <g>
       <use style="stroke:#000000;stroke-width:0.5;" x="359.248636364" xlink:href="#m741efc42ff" y="13.006875"/>
      </g>
     </g>
     <g id="text_21">
      <!-- 0 -->
      <g transform="translate(356.225198864 314.125)scale(0.12 -0.12)">
       <use xlink:href="#BitstreamVeraSans-Roman-30"/>
      </g>
     </g>
    </g>
    <g id="xtick_8">
     <g id="line2d_45">
      <g>
       <use style="stroke:#000000;stroke-width:0.5;" x="409.975909091" xlink:href="#m93b0483c22" y="301.006875"/>
      </g>
     </g>
     <g id="line2d_46">
      <g>
       <use style="stroke:#000000;stroke-width:0.5;" x="409.975909091" xlink:href="#m741efc42ff" y="13.006875"/>
      </g>
     </g>
     <g id="text_22">
      <!-- 1 -->
      <g transform="translate(407.371534091 314.125)scale(0.12 -0.12)">
       <use xlink:href="#BitstreamVeraSans-Roman-31"/>
      </g>
     </g>
    </g>
    <g id="xtick_9">
     <g id="line2d_47">
      <g>
       <use style="stroke:#000000;stroke-width:0.5;" x="460.703181818" xlink:href="#m93b0483c22" y="301.006875"/>
      </g>
     </g>
     <g id="line2d_48">
      <g>
       <use style="stroke:#000000;stroke-width:0.5;" x="460.703181818" xlink:href="#m741efc42ff" y="13.006875"/>
      </g>
     </g>
     <g id="text_23">
      <!-- 2 -->
      <g transform="translate(457.926306818 314.125)scale(0.12 -0.12)">
       <use xlink:href="#BitstreamVeraSans-Roman-32"/>
      </g>
     </g>
    </g>
    <g id="xtick_10">
     <g id="line2d_49">
      <g>
       <use style="stroke:#000000;stroke-width:0.5;" x="511.430454545" xlink:href="#m93b0483c22" y="301.006875"/>
      </g>
     </g>
     <g id="line2d_50">
      <g>
       <use style="stroke:#000000;stroke-width:0.5;" x="511.430454545" xlink:href="#m741efc42ff" y="13.006875"/>
      </g>
     </g>
     <g id="text_24">
      <!-- 3 -->
      <g transform="translate(508.551392045 314.125)scale(0.12 -0.12)">
       <use xlink:href="#BitstreamVeraSans-Roman-33"/>
      </g>
     </g>
    </g>
    <g id="xtick_11">
     <g id="line2d_51">
      <g>
       <use style="stroke:#000000;stroke-width:0.5;" x="562.157727273" xlink:href="#m93b0483c22" y="301.006875"/>
      </g>
     </g>
     <g id="line2d_52">
      <g>
       <use style="stroke:#000000;stroke-width:0.5;" x="562.157727273" xlink:href="#m741efc42ff" y="13.006875"/>
      </g>
     </g>
     <g id="text_25">
      <!-- 4 -->
      <g transform="translate(558.970227273 314.125)scale(0.12 -0.12)">
       <use xlink:href="#BitstreamVeraSans-Roman-34"/>
      </g>
     </g>
    </g>
    <g id="xtick_12">
     <g id="line2d_53">
      <g>
       <use style="stroke:#000000;stroke-width:0.5;" x="612.885" xlink:href="#m93b0483c22" y="301.006875"/>
      </g>
     </g>
     <g id="line2d_54">
      <g>
       <use style="stroke:#000000;stroke-width:0.5;" x="612.885" xlink:href="#m741efc42ff" y="13.006875"/>
      </g>
     </g>
     <g id="text_26">
      <!-- 5 -->
      <g transform="translate(610.0546875 314.125)scale(0.12 -0.12)">
       <use xlink:href="#BitstreamVeraSans-Roman-35"/>
      </g>
     </g>
    </g>
    <g id="text_27">
     <!-- T [s] -->
     <g transform="translate(473.185568182 330.73875)scale(0.12 -0.12)">
      <use xlink:href="#BitstreamVeraSans-Roman-54"/>
      <use x="61.083984375" xlink:href="#BitstreamVeraSans-Roman-20"/>
      <use x="92.87109375" xlink:href="#BitstreamVeraSans-Roman-5b"/>
      <use x="131.884765625" xlink:href="#BitstreamVeraSans-Roman-73"/>
      <use x="183.984375" xlink:href="#BitstreamVeraSans-Roman-5d"/>
     </g>
    </g>
   </g>
   <g id="matplotlib.axis_4">
    <g id="ytick_8">
     <g id="line2d_55">
      <g>
       <use style="stroke:#000000;stroke-width:0.5;" x="359.248636364" xlink:href="#m728421d6d4" y="301.006875"/>
      </g>
     </g>
     <g id="line2d_56">
      <g>
       <use style="stroke:#000000;stroke-width:0.5;" x="612.885" xlink:href="#mcb0005524f" y="301.006875"/>
      </g>
     </g>
    </g>
    <g id="ytick_9">
     <g id="line2d_57">
      <g>
       <use style="stroke:#000000;stroke-width:0.5;" x="359.248636364" xlink:href="#m728421d6d4" y="253.006875"/>
      </g>
     </g>
     <g id="line2d_58">
      <g>
       <use style="stroke:#000000;stroke-width:0.5;" x="612.885" xlink:href="#mcb0005524f" y="253.006875"/>
      </g>
     </g>
    </g>
    <g id="ytick_10">
     <g id="line2d_59">
      <g>
       <use style="stroke:#000000;stroke-width:0.5;" x="359.248636364" xlink:href="#m728421d6d4" y="205.006875"/>
      </g>
     </g>
     <g id="line2d_60">
      <g>
       <use style="stroke:#000000;stroke-width:0.5;" x="612.885" xlink:href="#mcb0005524f" y="205.006875"/>
      </g>
     </g>
    </g>
    <g id="ytick_11">
     <g id="line2d_61">
      <g>
       <use style="stroke:#000000;stroke-width:0.5;" x="359.248636364" xlink:href="#m728421d6d4" y="157.006875"/>
      </g>
     </g>
     <g id="line2d_62">
      <g>
       <use style="stroke:#000000;stroke-width:0.5;" x="612.885" xlink:href="#mcb0005524f" y="157.006875"/>
      </g>
     </g>
    </g>
    <g id="ytick_12">
     <g id="line2d_63">
      <g>
       <use style="stroke:#000000;stroke-width:0.5;" x="359.248636364" xlink:href="#m728421d6d4" y="109.006875"/>
      </g>
     </g>
     <g id="line2d_64">
      <g>
       <use style="stroke:#000000;stroke-width:0.5;" x="612.885" xlink:href="#mcb0005524f" y="109.006875"/>
      </g>
     </g>
    </g>
    <g id="ytick_13">
     <g id="line2d_65">
      <g>
       <use style="stroke:#000000;stroke-width:0.5;" x="359.248636364" xlink:href="#m728421d6d4" y="61.006875"/>
      </g>
     </g>
     <g id="line2d_66">
      <g>
       <use style="stroke:#000000;stroke-width:0.5;" x="612.885" xlink:href="#mcb0005524f" y="61.006875"/>
      </g>
     </g>
    </g>
    <g id="ytick_14">
     <g id="line2d_67">
      <g>
       <use style="stroke:#000000;stroke-width:0.5;" x="359.248636364" xlink:href="#m728421d6d4" y="13.006875"/>
      </g>
     </g>
     <g id="line2d_68">
      <g>
       <use style="stroke:#000000;stroke-width:0.5;" x="612.885" xlink:href="#mcb0005524f" y="13.006875"/>
      </g>
     </g>
    </g>
   </g>
   <g id="text_28">
    <!-- B -->
    <defs>
     <path d="
M19.6719 34.8125
L19.6719 8.10938
L35.5 8.10938
Q43.4531 8.10938 47.2812 11.4062
Q51.125 14.7031 51.125 21.4844
Q51.125 28.3281 47.2812 31.5625
Q43.4531 34.8125 35.5 34.8125
z

M19.6719 64.7969
L19.6719 42.8281
L34.2812 42.8281
Q41.5 42.8281 45.0312 45.5312
Q48.5781 48.25 48.5781 53.8125
Q48.5781 59.3281 45.0312 62.0625
Q41.5 64.7969 34.2812 64.7969
z

M9.8125 72.9062
L35.0156 72.9062
Q46.2969 72.9062 52.3906 68.2188
Q58.5 63.5312 58.5 54.8906
Q58.5 48.1875 55.375 44.2344
Q52.25 40.2812 46.1875 39.3125
Q53.4688 37.75 57.5 32.7812
Q61.5312 27.8281 61.5312 20.4062
Q61.5312 10.6406 54.8906 5.3125
Q48.25 0 35.9844 0
L9.8125 0
z
" id="BitstreamVeraSans-Roman-42"/>
    </defs>
    <g transform="translate(334.154318182 25.483125)scale(0.24 -0.24)">
     <use xlink:href="#BitstreamVeraSans-Roman-42"/>
    </g>
   </g>
   <g id="legend_2">
    <g id="patch_13">
     <path d="
M441.496 109.073
L602.805 109.073
Q605.685 109.073 605.685 106.193
L605.685 23.0869
Q605.685 20.2069 602.805 20.2069
L441.496 20.2069
Q438.616 20.2069 438.616 23.0869
L438.616 106.193
Q438.616 109.073 441.496 109.073
z
" style="fill:#ffffff;opacity:0.5;stroke:#000000;stroke-linejoin:miter;"/>
    </g>
    <g id="line2d_69">
     <path d="
M448.696 31.8686
L468.856 31.8686" style="fill:none;stroke:#228b22;stroke-linecap:square;"/>
    </g>
    <g id="line2d_70"/>
    <g id="text_29">
     <!-- Subjects high -->
     <defs>
      <path d="
M45.4062 27.9844
Q45.4062 37.75 41.375 43.1094
Q37.3594 48.4844 30.0781 48.4844
Q22.8594 48.4844 18.8281 43.1094
Q14.7969 37.75 14.7969 27.9844
Q14.7969 18.2656 18.8281 12.8906
Q22.8594 7.51562 30.0781 7.51562
Q37.3594 7.51562 41.375 12.8906
Q45.4062 18.2656 45.4062 27.9844
M54.3906 6.78125
Q54.3906 -7.17188 48.1875 -13.9844
Q42 -20.7969 29.2031 -20.7969
Q24.4688 -20.7969 20.2656 -20.0938
Q16.0625 -19.3906 12.1094 -17.9219
L12.1094 -9.1875
Q16.0625 -11.3281 19.9219 -12.3438
Q23.7812 -13.375 27.7812 -13.375
Q36.625 -13.375 41.0156 -8.76562
Q45.4062 -4.15625 45.4062 5.17188
L45.4062 9.625
Q42.625 4.78125 38.2812 2.39062
Q33.9375 0 27.875 0
Q17.8281 0 11.6719 7.65625
Q5.51562 15.3281 5.51562 27.9844
Q5.51562 40.6719 11.6719 48.3281
Q17.8281 56 27.875 56
Q33.9375 56 38.2812 53.6094
Q42.625 51.2188 45.4062 46.3906
L45.4062 54.6875
L54.3906 54.6875
z
" id="BitstreamVeraSans-Roman-67"/>
     </defs>
     <g transform="translate(484.69575 36.908625)scale(0.144 -0.144)">
      <use xlink:href="#BitstreamVeraSans-Roman-53"/>
      <use x="63.4765625" xlink:href="#BitstreamVeraSans-Roman-75"/>
      <use x="126.85546875" xlink:href="#BitstreamVeraSans-Roman-62"/>
      <use x="190.33203125" xlink:href="#BitstreamVeraSans-Roman-6a"/>
      <use x="218.115234375" xlink:href="#BitstreamVeraSans-Roman-65"/>
      <use x="279.638671875" xlink:href="#BitstreamVeraSans-Roman-63"/>
      <use x="334.619140625" xlink:href="#BitstreamVeraSans-Roman-74"/>
      <use x="373.828125" xlink:href="#BitstreamVeraSans-Roman-73"/>
      <use x="425.927734375" xlink:href="#BitstreamVeraSans-Roman-20"/>
      <use x="457.71484375" xlink:href="#BitstreamVeraSans-Roman-68"/>
      <use x="521.09375" xlink:href="#BitstreamVeraSans-Roman-69"/>
      <use x="548.876953125" xlink:href="#BitstreamVeraSans-Roman-67"/>
      <use x="612.353515625" xlink:href="#BitstreamVeraSans-Roman-68"/>
     </g>
    </g>
    <g id="line2d_71">
     <path d="
M448.696 53.0051
L468.856 53.0051" style="fill:none;stroke:#9370db;stroke-linecap:square;"/>
    </g>
    <g id="line2d_72"/>
    <g id="text_30">
     <!-- Subjects low -->
     <defs>
      <path d="
M4.20312 54.6875
L13.1875 54.6875
L24.4219 12.0156
L35.5938 54.6875
L46.1875 54.6875
L57.4219 12.0156
L68.6094 54.6875
L77.5938 54.6875
L63.2812 0
L52.6875 0
L40.9219 44.8281
L29.1094 0
L18.5 0
z
" id="BitstreamVeraSans-Roman-77"/>
     </defs>
     <g transform="translate(484.69575 58.045125)scale(0.144 -0.144)">
      <use xlink:href="#BitstreamVeraSans-Roman-53"/>
      <use x="63.4765625" xlink:href="#BitstreamVeraSans-Roman-75"/>
      <use x="126.85546875" xlink:href="#BitstreamVeraSans-Roman-62"/>
      <use x="190.33203125" xlink:href="#BitstreamVeraSans-Roman-6a"/>
      <use x="218.115234375" xlink:href="#BitstreamVeraSans-Roman-65"/>
      <use x="279.638671875" xlink:href="#BitstreamVeraSans-Roman-63"/>
      <use x="334.619140625" xlink:href="#BitstreamVeraSans-Roman-74"/>
      <use x="373.828125" xlink:href="#BitstreamVeraSans-Roman-73"/>
      <use x="425.927734375" xlink:href="#BitstreamVeraSans-Roman-20"/>
      <use x="457.71484375" xlink:href="#BitstreamVeraSans-Roman-6c"/>
      <use x="485.498046875" xlink:href="#BitstreamVeraSans-Roman-6f"/>
      <use x="546.6796875" xlink:href="#BitstreamVeraSans-Roman-77"/>
     </g>
    </g>
    <g id="line2d_73">
     <path d="
M448.696 74.1416
L468.856 74.1416" style="fill:none;stroke:#228b22;stroke-linecap:square;stroke-width:3;"/>
    </g>
    <g id="line2d_74"/>
    <g id="text_31">
     <!-- Theoretical high -->
     <g transform="translate(484.69575 79.181625)scale(0.144 -0.144)">
      <use xlink:href="#BitstreamVeraSans-Roman-54"/>
      <use x="61.083984375" xlink:href="#BitstreamVeraSans-Roman-68"/>
      <use x="124.462890625" xlink:href="#BitstreamVeraSans-Roman-65"/>
      <use x="185.986328125" xlink:href="#BitstreamVeraSans-Roman-6f"/>
      <use x="247.16796875" xlink:href="#BitstreamVeraSans-Roman-72"/>
      <use x="286.03125" xlink:href="#BitstreamVeraSans-Roman-65"/>
      <use x="347.5546875" xlink:href="#BitstreamVeraSans-Roman-74"/>
      <use x="386.763671875" xlink:href="#BitstreamVeraSans-Roman-69"/>
      <use x="414.546875" xlink:href="#BitstreamVeraSans-Roman-63"/>
      <use x="469.52734375" xlink:href="#BitstreamVeraSans-Roman-61"/>
      <use x="530.806640625" xlink:href="#BitstreamVeraSans-Roman-6c"/>
      <use x="558.58984375" xlink:href="#BitstreamVeraSans-Roman-20"/>
      <use x="590.376953125" xlink:href="#BitstreamVeraSans-Roman-68"/>
      <use x="653.755859375" xlink:href="#BitstreamVeraSans-Roman-69"/>
      <use x="681.5390625" xlink:href="#BitstreamVeraSans-Roman-67"/>
      <use x="745.015625" xlink:href="#BitstreamVeraSans-Roman-68"/>
     </g>
    </g>
    <g id="line2d_75">
     <path d="
M448.696 95.2781
L468.856 95.2781" style="fill:none;stroke:#9370db;stroke-linecap:square;stroke-width:3;"/>
    </g>
    <g id="line2d_76"/>
    <g id="text_32">
     <!-- Theoretical low -->
     <g transform="translate(484.69575 100.318125)scale(0.144 -0.144)">
      <use xlink:href="#BitstreamVeraSans-Roman-54"/>
      <use x="61.083984375" xlink:href="#BitstreamVeraSans-Roman-68"/>
      <use x="124.462890625" xlink:href="#BitstreamVeraSans-Roman-65"/>
      <use x="185.986328125" xlink:href="#BitstreamVeraSans-Roman-6f"/>
      <use x="247.16796875" xlink:href="#BitstreamVeraSans-Roman-72"/>
      <use x="286.03125" xlink:href="#BitstreamVeraSans-Roman-65"/>
      <use x="347.5546875" xlink:href="#BitstreamVeraSans-Roman-74"/>
      <use x="386.763671875" xlink:href="#BitstreamVeraSans-Roman-69"/>
      <use x="414.546875" xlink:href="#BitstreamVeraSans-Roman-63"/>
      <use x="469.52734375" xlink:href="#BitstreamVeraSans-Roman-61"/>
      <use x="530.806640625" xlink:href="#BitstreamVeraSans-Roman-6c"/>
      <use x="558.58984375" xlink:href="#BitstreamVeraSans-Roman-20"/>
      <use x="590.376953125" xlink:href="#BitstreamVeraSans-Roman-6c"/>
      <use x="618.16015625" xlink:href="#BitstreamVeraSans-Roman-6f"/>
      <use x="679.341796875" xlink:href="#BitstreamVeraSans-Roman-77"/>
     </g>
    </g>
   </g>
  </g>
 </g>
 <defs>
  <clipPath id="p2f7db998ef">
   <rect height="288.0" width="253.636363636" x="54.885" y="13.006875"/>
  </clipPath>
  <clipPath id="p14f3c1abba">
   <rect height="288.0" width="253.636363636" x="359.248636364" y="13.006875"/>
  </clipPath>
 </defs>
</svg>
